%TF.GenerationSoftware,KiCad,Pcbnew,6.0.11-2627ca5db0~126~ubuntu20.04.1*%
%TF.CreationDate,2023-02-06T13:11:46-05:00*%
%TF.ProjectId,PowerSwitches,506f7765-7253-4776-9974-636865732e6b,rev?*%
%TF.SameCoordinates,Original*%
%TF.FileFunction,Legend,Top*%
%TF.FilePolarity,Positive*%
%FSLAX46Y46*%
G04 Gerber Fmt 4.6, Leading zero omitted, Abs format (unit mm)*
G04 Created by KiCad (PCBNEW 6.0.11-2627ca5db0~126~ubuntu20.04.1) date 2023-02-06 13:11:46*
%MOMM*%
%LPD*%
G01*
G04 APERTURE LIST*
G04 Aperture macros list*
%AMRoundRect*
0 Rectangle with rounded corners*
0 $1 Rounding radius*
0 $2 $3 $4 $5 $6 $7 $8 $9 X,Y pos of 4 corners*
0 Add a 4 corners polygon primitive as box body*
4,1,4,$2,$3,$4,$5,$6,$7,$8,$9,$2,$3,0*
0 Add four circle primitives for the rounded corners*
1,1,$1+$1,$2,$3*
1,1,$1+$1,$4,$5*
1,1,$1+$1,$6,$7*
1,1,$1+$1,$8,$9*
0 Add four rect primitives between the rounded corners*
20,1,$1+$1,$2,$3,$4,$5,0*
20,1,$1+$1,$4,$5,$6,$7,0*
20,1,$1+$1,$6,$7,$8,$9,0*
20,1,$1+$1,$8,$9,$2,$3,0*%
G04 Aperture macros list end*
%ADD10C,0.150000*%
%ADD11C,0.120000*%
%ADD12C,1.524000*%
%ADD13C,7.200000*%
%ADD14RoundRect,0.250000X-0.600000X-0.750000X0.600000X-0.750000X0.600000X0.750000X-0.600000X0.750000X0*%
%ADD15O,1.700000X2.000000*%
%ADD16C,1.600000*%
%ADD17O,1.600000X1.600000*%
G04 APERTURE END LIST*
D10*
X105664000Y-99568000D02*
X115570000Y-99568000D01*
X115570000Y-99568000D02*
X115570000Y-103632000D01*
X115570000Y-103632000D02*
X105664000Y-103632000D01*
X105664000Y-103632000D02*
X105664000Y-99568000D01*
X115570000Y-99568000D02*
X125476000Y-99568000D01*
X125476000Y-99568000D02*
X125476000Y-103632000D01*
X125476000Y-103632000D02*
X115570000Y-103632000D01*
X115570000Y-103632000D02*
X115570000Y-99568000D01*
X177800000Y-99822000D02*
X187706000Y-99822000D01*
X187706000Y-99822000D02*
X187706000Y-103886000D01*
X187706000Y-103886000D02*
X177800000Y-103886000D01*
X177800000Y-103886000D02*
X177800000Y-99822000D01*
X167894000Y-99822000D02*
X177800000Y-99822000D01*
X177800000Y-99822000D02*
X177800000Y-103886000D01*
X177800000Y-103886000D02*
X167894000Y-103886000D01*
X167894000Y-103886000D02*
X167894000Y-99822000D01*
X151598380Y-103575904D02*
X151598380Y-104052095D01*
X152074571Y-104099714D01*
X152026952Y-104052095D01*
X151979333Y-103956857D01*
X151979333Y-103718761D01*
X152026952Y-103623523D01*
X152074571Y-103575904D01*
X152169809Y-103528285D01*
X152407904Y-103528285D01*
X152503142Y-103575904D01*
X152550761Y-103623523D01*
X152598380Y-103718761D01*
X152598380Y-103956857D01*
X152550761Y-104052095D01*
X152503142Y-104099714D01*
X151598380Y-103242571D02*
X152598380Y-102909238D01*
X151598380Y-102575904D01*
X152598380Y-101480666D02*
X151598380Y-101480666D01*
X151598380Y-101099714D01*
X151646000Y-101004476D01*
X151693619Y-100956857D01*
X151788857Y-100909238D01*
X151931714Y-100909238D01*
X152026952Y-100956857D01*
X152074571Y-101004476D01*
X152122190Y-101099714D01*
X152122190Y-101480666D01*
X151598380Y-100290190D02*
X151598380Y-100099714D01*
X151646000Y-100004476D01*
X151741238Y-99909238D01*
X151931714Y-99861619D01*
X152265047Y-99861619D01*
X152455523Y-99909238D01*
X152550761Y-100004476D01*
X152598380Y-100099714D01*
X152598380Y-100290190D01*
X152550761Y-100385428D01*
X152455523Y-100480666D01*
X152265047Y-100528285D01*
X151931714Y-100528285D01*
X151741238Y-100480666D01*
X151646000Y-100385428D01*
X151598380Y-100290190D01*
X151598380Y-99528285D02*
X152598380Y-99290190D01*
X151884095Y-99099714D01*
X152598380Y-98909238D01*
X151598380Y-98671142D01*
X152074571Y-98290190D02*
X152074571Y-97956857D01*
X152598380Y-97814000D02*
X152598380Y-98290190D01*
X151598380Y-98290190D01*
X151598380Y-97814000D01*
X152598380Y-96814000D02*
X152122190Y-97147333D01*
X152598380Y-97385428D02*
X151598380Y-97385428D01*
X151598380Y-97004476D01*
X151646000Y-96909238D01*
X151693619Y-96861619D01*
X151788857Y-96814000D01*
X151931714Y-96814000D01*
X152026952Y-96861619D01*
X152074571Y-96909238D01*
X152122190Y-97004476D01*
X152122190Y-97385428D01*
X152598380Y-95623523D02*
X151598380Y-95623523D01*
X152598380Y-95147333D02*
X151598380Y-95147333D01*
X152598380Y-94575904D01*
X151598380Y-94575904D01*
X108418380Y-103615904D02*
X109418380Y-103282571D01*
X108418380Y-102949238D01*
X108418380Y-102425428D02*
X108418380Y-102234952D01*
X108466000Y-102139714D01*
X108561238Y-102044476D01*
X108751714Y-101996857D01*
X109085047Y-101996857D01*
X109275523Y-102044476D01*
X109370761Y-102139714D01*
X109418380Y-102234952D01*
X109418380Y-102425428D01*
X109370761Y-102520666D01*
X109275523Y-102615904D01*
X109085047Y-102663523D01*
X108751714Y-102663523D01*
X108561238Y-102615904D01*
X108466000Y-102520666D01*
X108418380Y-102425428D01*
X108418380Y-101568285D02*
X109227904Y-101568285D01*
X109323142Y-101520666D01*
X109370761Y-101473047D01*
X109418380Y-101377809D01*
X109418380Y-101187333D01*
X109370761Y-101092095D01*
X109323142Y-101044476D01*
X109227904Y-100996857D01*
X108418380Y-100996857D01*
X108418380Y-100663523D02*
X108418380Y-100092095D01*
X109418380Y-100377809D02*
X108418380Y-100377809D01*
X175268000Y-102615904D02*
X175220380Y-102711142D01*
X175220380Y-102854000D01*
X175268000Y-102996857D01*
X175363238Y-103092095D01*
X175458476Y-103139714D01*
X175648952Y-103187333D01*
X175791809Y-103187333D01*
X175982285Y-103139714D01*
X176077523Y-103092095D01*
X176172761Y-102996857D01*
X176220380Y-102854000D01*
X176220380Y-102758761D01*
X176172761Y-102615904D01*
X176125142Y-102568285D01*
X175791809Y-102568285D01*
X175791809Y-102758761D01*
X176220380Y-102139714D02*
X175220380Y-102139714D01*
X176220380Y-101568285D01*
X175220380Y-101568285D01*
X176220380Y-101092095D02*
X175220380Y-101092095D01*
X175220380Y-100854000D01*
X175268000Y-100711142D01*
X175363238Y-100615904D01*
X175458476Y-100568285D01*
X175648952Y-100520666D01*
X175791809Y-100520666D01*
X175982285Y-100568285D01*
X176077523Y-100615904D01*
X176172761Y-100711142D01*
X176220380Y-100854000D01*
X176220380Y-101092095D01*
X147074000Y-57149904D02*
X147026380Y-57245142D01*
X147026380Y-57388000D01*
X147074000Y-57530857D01*
X147169238Y-57626095D01*
X147264476Y-57673714D01*
X147454952Y-57721333D01*
X147597809Y-57721333D01*
X147788285Y-57673714D01*
X147883523Y-57626095D01*
X147978761Y-57530857D01*
X148026380Y-57388000D01*
X148026380Y-57292761D01*
X147978761Y-57149904D01*
X147931142Y-57102285D01*
X147597809Y-57102285D01*
X147597809Y-57292761D01*
X148026380Y-56673714D02*
X147026380Y-56673714D01*
X148026380Y-56102285D01*
X147026380Y-56102285D01*
X148026380Y-55626095D02*
X147026380Y-55626095D01*
X147026380Y-55388000D01*
X147074000Y-55245142D01*
X147169238Y-55149904D01*
X147264476Y-55102285D01*
X147454952Y-55054666D01*
X147597809Y-55054666D01*
X147788285Y-55102285D01*
X147883523Y-55149904D01*
X147978761Y-55245142D01*
X148026380Y-55388000D01*
X148026380Y-55626095D01*
X118348857Y-76906380D02*
X118015523Y-76430190D01*
X117777428Y-76906380D02*
X117777428Y-75906380D01*
X118158380Y-75906380D01*
X118253619Y-75954000D01*
X118301238Y-76001619D01*
X118348857Y-76096857D01*
X118348857Y-76239714D01*
X118301238Y-76334952D01*
X118253619Y-76382571D01*
X118158380Y-76430190D01*
X117777428Y-76430190D01*
X118777428Y-76382571D02*
X119110761Y-76382571D01*
X119253619Y-76906380D02*
X118777428Y-76906380D01*
X118777428Y-75906380D01*
X119253619Y-75906380D01*
X119682190Y-76906380D02*
X119682190Y-75906380D01*
X120015523Y-76620666D01*
X120348857Y-75906380D01*
X120348857Y-76906380D01*
X121015523Y-75906380D02*
X121206000Y-75906380D01*
X121301238Y-75954000D01*
X121396476Y-76049238D01*
X121444095Y-76239714D01*
X121444095Y-76573047D01*
X121396476Y-76763523D01*
X121301238Y-76858761D01*
X121206000Y-76906380D01*
X121015523Y-76906380D01*
X120920285Y-76858761D01*
X120825047Y-76763523D01*
X120777428Y-76573047D01*
X120777428Y-76239714D01*
X120825047Y-76049238D01*
X120920285Y-75954000D01*
X121015523Y-75906380D01*
X121729809Y-75906380D02*
X122301238Y-75906380D01*
X122015523Y-76906380D02*
X122015523Y-75906380D01*
X122634571Y-76382571D02*
X122967904Y-76382571D01*
X123110761Y-76906380D02*
X122634571Y-76906380D01*
X122634571Y-75906380D01*
X123110761Y-75906380D01*
X124872666Y-76811142D02*
X124825047Y-76858761D01*
X124682190Y-76906380D01*
X124586952Y-76906380D01*
X124444095Y-76858761D01*
X124348857Y-76763523D01*
X124301238Y-76668285D01*
X124253619Y-76477809D01*
X124253619Y-76334952D01*
X124301238Y-76144476D01*
X124348857Y-76049238D01*
X124444095Y-75954000D01*
X124586952Y-75906380D01*
X124682190Y-75906380D01*
X124825047Y-75954000D01*
X124872666Y-76001619D01*
X125491714Y-75906380D02*
X125682190Y-75906380D01*
X125777428Y-75954000D01*
X125872666Y-76049238D01*
X125920285Y-76239714D01*
X125920285Y-76573047D01*
X125872666Y-76763523D01*
X125777428Y-76858761D01*
X125682190Y-76906380D01*
X125491714Y-76906380D01*
X125396476Y-76858761D01*
X125301238Y-76763523D01*
X125253619Y-76573047D01*
X125253619Y-76239714D01*
X125301238Y-76049238D01*
X125396476Y-75954000D01*
X125491714Y-75906380D01*
X126348857Y-76906380D02*
X126348857Y-75906380D01*
X126920285Y-76906380D01*
X126920285Y-75906380D01*
X127396476Y-76906380D02*
X127396476Y-75906380D01*
X127967904Y-76906380D01*
X127967904Y-75906380D01*
X128444095Y-76382571D02*
X128777428Y-76382571D01*
X128920285Y-76906380D02*
X128444095Y-76906380D01*
X128444095Y-75906380D01*
X128920285Y-75906380D01*
X129920285Y-76811142D02*
X129872666Y-76858761D01*
X129729809Y-76906380D01*
X129634571Y-76906380D01*
X129491714Y-76858761D01*
X129396476Y-76763523D01*
X129348857Y-76668285D01*
X129301238Y-76477809D01*
X129301238Y-76334952D01*
X129348857Y-76144476D01*
X129396476Y-76049238D01*
X129491714Y-75954000D01*
X129634571Y-75906380D01*
X129729809Y-75906380D01*
X129872666Y-75954000D01*
X129920285Y-76001619D01*
X130206000Y-75906380D02*
X130777428Y-75906380D01*
X130491714Y-76906380D02*
X130491714Y-75906380D01*
X114784285Y-91595380D02*
X114784285Y-90595380D01*
X114784285Y-91071571D02*
X115355714Y-91071571D01*
X115355714Y-91595380D02*
X115355714Y-90595380D01*
X115831904Y-91595380D02*
X115831904Y-90595380D01*
X116212857Y-90595380D01*
X116308095Y-90643000D01*
X116355714Y-90690619D01*
X116403333Y-90785857D01*
X116403333Y-90928714D01*
X116355714Y-91023952D01*
X116308095Y-91071571D01*
X116212857Y-91119190D01*
X115831904Y-91119190D01*
X113070000Y-93157761D02*
X113212857Y-93205380D01*
X113450952Y-93205380D01*
X113546190Y-93157761D01*
X113593809Y-93110142D01*
X113641428Y-93014904D01*
X113641428Y-92919666D01*
X113593809Y-92824428D01*
X113546190Y-92776809D01*
X113450952Y-92729190D01*
X113260476Y-92681571D01*
X113165238Y-92633952D01*
X113117619Y-92586333D01*
X113070000Y-92491095D01*
X113070000Y-92395857D01*
X113117619Y-92300619D01*
X113165238Y-92253000D01*
X113260476Y-92205380D01*
X113498571Y-92205380D01*
X113641428Y-92253000D01*
X113974761Y-92205380D02*
X114212857Y-93205380D01*
X114403333Y-92491095D01*
X114593809Y-93205380D01*
X114831904Y-92205380D01*
X115212857Y-93205380D02*
X115212857Y-92205380D01*
X115546190Y-92205380D02*
X116117619Y-92205380D01*
X115831904Y-93205380D02*
X115831904Y-92205380D01*
X117022380Y-93110142D02*
X116974761Y-93157761D01*
X116831904Y-93205380D01*
X116736666Y-93205380D01*
X116593809Y-93157761D01*
X116498571Y-93062523D01*
X116450952Y-92967285D01*
X116403333Y-92776809D01*
X116403333Y-92633952D01*
X116450952Y-92443476D01*
X116498571Y-92348238D01*
X116593809Y-92253000D01*
X116736666Y-92205380D01*
X116831904Y-92205380D01*
X116974761Y-92253000D01*
X117022380Y-92300619D01*
X117450952Y-93205380D02*
X117450952Y-92205380D01*
X117450952Y-92681571D02*
X118022380Y-92681571D01*
X118022380Y-93205380D02*
X118022380Y-92205380D01*
X177014285Y-91595380D02*
X177014285Y-90595380D01*
X177014285Y-91071571D02*
X177585714Y-91071571D01*
X177585714Y-91595380D02*
X177585714Y-90595380D01*
X178061904Y-91595380D02*
X178061904Y-90595380D01*
X178442857Y-90595380D01*
X178538095Y-90643000D01*
X178585714Y-90690619D01*
X178633333Y-90785857D01*
X178633333Y-90928714D01*
X178585714Y-91023952D01*
X178538095Y-91071571D01*
X178442857Y-91119190D01*
X178061904Y-91119190D01*
X175300000Y-93157761D02*
X175442857Y-93205380D01*
X175680952Y-93205380D01*
X175776190Y-93157761D01*
X175823809Y-93110142D01*
X175871428Y-93014904D01*
X175871428Y-92919666D01*
X175823809Y-92824428D01*
X175776190Y-92776809D01*
X175680952Y-92729190D01*
X175490476Y-92681571D01*
X175395238Y-92633952D01*
X175347619Y-92586333D01*
X175300000Y-92491095D01*
X175300000Y-92395857D01*
X175347619Y-92300619D01*
X175395238Y-92253000D01*
X175490476Y-92205380D01*
X175728571Y-92205380D01*
X175871428Y-92253000D01*
X176204761Y-92205380D02*
X176442857Y-93205380D01*
X176633333Y-92491095D01*
X176823809Y-93205380D01*
X177061904Y-92205380D01*
X177442857Y-93205380D02*
X177442857Y-92205380D01*
X177776190Y-92205380D02*
X178347619Y-92205380D01*
X178061904Y-93205380D02*
X178061904Y-92205380D01*
X179252380Y-93110142D02*
X179204761Y-93157761D01*
X179061904Y-93205380D01*
X178966666Y-93205380D01*
X178823809Y-93157761D01*
X178728571Y-93062523D01*
X178680952Y-92967285D01*
X178633333Y-92776809D01*
X178633333Y-92633952D01*
X178680952Y-92443476D01*
X178728571Y-92348238D01*
X178823809Y-92253000D01*
X178966666Y-92205380D01*
X179061904Y-92205380D01*
X179204761Y-92253000D01*
X179252380Y-92300619D01*
X179680952Y-93205380D02*
X179680952Y-92205380D01*
X179680952Y-92681571D02*
X180252380Y-92681571D01*
X180252380Y-93205380D02*
X180252380Y-92205380D01*
X184110380Y-102695238D02*
X185110380Y-102361904D01*
X184110380Y-102028571D01*
X185110380Y-101695238D02*
X184110380Y-101695238D01*
X185110380Y-101219047D02*
X184110380Y-101219047D01*
X185110380Y-100647619D01*
X184110380Y-100647619D01*
X170394380Y-103615904D02*
X171394380Y-103282571D01*
X170394380Y-102949238D01*
X170394380Y-102425428D02*
X170394380Y-102234952D01*
X170442000Y-102139714D01*
X170537238Y-102044476D01*
X170727714Y-101996857D01*
X171061047Y-101996857D01*
X171251523Y-102044476D01*
X171346761Y-102139714D01*
X171394380Y-102234952D01*
X171394380Y-102425428D01*
X171346761Y-102520666D01*
X171251523Y-102615904D01*
X171061047Y-102663523D01*
X170727714Y-102663523D01*
X170537238Y-102615904D01*
X170442000Y-102520666D01*
X170394380Y-102425428D01*
X170394380Y-101568285D02*
X171203904Y-101568285D01*
X171299142Y-101520666D01*
X171346761Y-101473047D01*
X171394380Y-101377809D01*
X171394380Y-101187333D01*
X171346761Y-101092095D01*
X171299142Y-101044476D01*
X171203904Y-100996857D01*
X170394380Y-100996857D01*
X170394380Y-100663523D02*
X170394380Y-100092095D01*
X171394380Y-100377809D02*
X170394380Y-100377809D01*
X141629428Y-45426380D02*
X141153238Y-45426380D01*
X141105619Y-45902571D01*
X141153238Y-45854952D01*
X141248476Y-45807333D01*
X141486571Y-45807333D01*
X141581809Y-45854952D01*
X141629428Y-45902571D01*
X141677047Y-45997809D01*
X141677047Y-46235904D01*
X141629428Y-46331142D01*
X141581809Y-46378761D01*
X141486571Y-46426380D01*
X141248476Y-46426380D01*
X141153238Y-46378761D01*
X141105619Y-46331142D01*
X141962761Y-45426380D02*
X142296095Y-46426380D01*
X142629428Y-45426380D01*
X143724666Y-46426380D02*
X143724666Y-45426380D01*
X144105619Y-45426380D01*
X144200857Y-45474000D01*
X144248476Y-45521619D01*
X144296095Y-45616857D01*
X144296095Y-45759714D01*
X144248476Y-45854952D01*
X144200857Y-45902571D01*
X144105619Y-45950190D01*
X143724666Y-45950190D01*
X144915142Y-45426380D02*
X145105619Y-45426380D01*
X145200857Y-45474000D01*
X145296095Y-45569238D01*
X145343714Y-45759714D01*
X145343714Y-46093047D01*
X145296095Y-46283523D01*
X145200857Y-46378761D01*
X145105619Y-46426380D01*
X144915142Y-46426380D01*
X144819904Y-46378761D01*
X144724666Y-46283523D01*
X144677047Y-46093047D01*
X144677047Y-45759714D01*
X144724666Y-45569238D01*
X144819904Y-45474000D01*
X144915142Y-45426380D01*
X145677047Y-45426380D02*
X145915142Y-46426380D01*
X146105619Y-45712095D01*
X146296095Y-46426380D01*
X146534190Y-45426380D01*
X146915142Y-45902571D02*
X147248476Y-45902571D01*
X147391333Y-46426380D02*
X146915142Y-46426380D01*
X146915142Y-45426380D01*
X147391333Y-45426380D01*
X148391333Y-46426380D02*
X148058000Y-45950190D01*
X147819904Y-46426380D02*
X147819904Y-45426380D01*
X148200857Y-45426380D01*
X148296095Y-45474000D01*
X148343714Y-45521619D01*
X148391333Y-45616857D01*
X148391333Y-45759714D01*
X148343714Y-45854952D01*
X148296095Y-45902571D01*
X148200857Y-45950190D01*
X147819904Y-45950190D01*
X149772285Y-45426380D02*
X149962761Y-45426380D01*
X150058000Y-45474000D01*
X150153238Y-45569238D01*
X150200857Y-45759714D01*
X150200857Y-46093047D01*
X150153238Y-46283523D01*
X150058000Y-46378761D01*
X149962761Y-46426380D01*
X149772285Y-46426380D01*
X149677047Y-46378761D01*
X149581809Y-46283523D01*
X149534190Y-46093047D01*
X149534190Y-45759714D01*
X149581809Y-45569238D01*
X149677047Y-45474000D01*
X149772285Y-45426380D01*
X150629428Y-45426380D02*
X150629428Y-46235904D01*
X150677047Y-46331142D01*
X150724666Y-46378761D01*
X150819904Y-46426380D01*
X151010380Y-46426380D01*
X151105619Y-46378761D01*
X151153238Y-46331142D01*
X151200857Y-46235904D01*
X151200857Y-45426380D01*
X151534190Y-45426380D02*
X152105619Y-45426380D01*
X151819904Y-46426380D02*
X151819904Y-45426380D01*
X111831904Y-105862380D02*
X111831904Y-104862380D01*
X112165238Y-105576666D01*
X112498571Y-104862380D01*
X112498571Y-105862380D01*
X113498571Y-105862380D02*
X112927142Y-105862380D01*
X113212857Y-105862380D02*
X113212857Y-104862380D01*
X113117619Y-105005238D01*
X113022380Y-105100476D01*
X112927142Y-105148095D01*
X114689047Y-105862380D02*
X114689047Y-104862380D01*
X115070000Y-104862380D01*
X115165238Y-104910000D01*
X115212857Y-104957619D01*
X115260476Y-105052857D01*
X115260476Y-105195714D01*
X115212857Y-105290952D01*
X115165238Y-105338571D01*
X115070000Y-105386190D01*
X114689047Y-105386190D01*
X115879523Y-104862380D02*
X116070000Y-104862380D01*
X116165238Y-104910000D01*
X116260476Y-105005238D01*
X116308095Y-105195714D01*
X116308095Y-105529047D01*
X116260476Y-105719523D01*
X116165238Y-105814761D01*
X116070000Y-105862380D01*
X115879523Y-105862380D01*
X115784285Y-105814761D01*
X115689047Y-105719523D01*
X115641428Y-105529047D01*
X115641428Y-105195714D01*
X115689047Y-105005238D01*
X115784285Y-104910000D01*
X115879523Y-104862380D01*
X116641428Y-104862380D02*
X116879523Y-105862380D01*
X117070000Y-105148095D01*
X117260476Y-105862380D01*
X117498571Y-104862380D01*
X117879523Y-105338571D02*
X118212857Y-105338571D01*
X118355714Y-105862380D02*
X117879523Y-105862380D01*
X117879523Y-104862380D01*
X118355714Y-104862380D01*
X119355714Y-105862380D02*
X119022380Y-105386190D01*
X118784285Y-105862380D02*
X118784285Y-104862380D01*
X119165238Y-104862380D01*
X119260476Y-104910000D01*
X119308095Y-104957619D01*
X119355714Y-105052857D01*
X119355714Y-105195714D01*
X119308095Y-105290952D01*
X119260476Y-105338571D01*
X119165238Y-105386190D01*
X118784285Y-105386190D01*
X161981238Y-76906380D02*
X161647904Y-76430190D01*
X161409809Y-76906380D02*
X161409809Y-75906380D01*
X161790761Y-75906380D01*
X161886000Y-75954000D01*
X161933619Y-76001619D01*
X161981238Y-76096857D01*
X161981238Y-76239714D01*
X161933619Y-76334952D01*
X161886000Y-76382571D01*
X161790761Y-76430190D01*
X161409809Y-76430190D01*
X162409809Y-76382571D02*
X162743142Y-76382571D01*
X162886000Y-76906380D02*
X162409809Y-76906380D01*
X162409809Y-75906380D01*
X162886000Y-75906380D01*
X163314571Y-76906380D02*
X163314571Y-75906380D01*
X163647904Y-76620666D01*
X163981238Y-75906380D01*
X163981238Y-76906380D01*
X164647904Y-75906380D02*
X164838380Y-75906380D01*
X164933619Y-75954000D01*
X165028857Y-76049238D01*
X165076476Y-76239714D01*
X165076476Y-76573047D01*
X165028857Y-76763523D01*
X164933619Y-76858761D01*
X164838380Y-76906380D01*
X164647904Y-76906380D01*
X164552666Y-76858761D01*
X164457428Y-76763523D01*
X164409809Y-76573047D01*
X164409809Y-76239714D01*
X164457428Y-76049238D01*
X164552666Y-75954000D01*
X164647904Y-75906380D01*
X165362190Y-75906380D02*
X165933619Y-75906380D01*
X165647904Y-76906380D02*
X165647904Y-75906380D01*
X166266952Y-76382571D02*
X166600285Y-76382571D01*
X166743142Y-76906380D02*
X166266952Y-76906380D01*
X166266952Y-75906380D01*
X166743142Y-75906380D01*
X168124095Y-75906380D02*
X168314571Y-75906380D01*
X168409809Y-75954000D01*
X168505047Y-76049238D01*
X168552666Y-76239714D01*
X168552666Y-76573047D01*
X168505047Y-76763523D01*
X168409809Y-76858761D01*
X168314571Y-76906380D01*
X168124095Y-76906380D01*
X168028857Y-76858761D01*
X167933619Y-76763523D01*
X167886000Y-76573047D01*
X167886000Y-76239714D01*
X167933619Y-76049238D01*
X168028857Y-75954000D01*
X168124095Y-75906380D01*
X168981238Y-76906380D02*
X168981238Y-75906380D01*
X169552666Y-76906380D01*
X169552666Y-75906380D01*
X170743142Y-75858761D02*
X169886000Y-77144476D01*
X171266952Y-75906380D02*
X171457428Y-75906380D01*
X171552666Y-75954000D01*
X171647904Y-76049238D01*
X171695523Y-76239714D01*
X171695523Y-76573047D01*
X171647904Y-76763523D01*
X171552666Y-76858761D01*
X171457428Y-76906380D01*
X171266952Y-76906380D01*
X171171714Y-76858761D01*
X171076476Y-76763523D01*
X171028857Y-76573047D01*
X171028857Y-76239714D01*
X171076476Y-76049238D01*
X171171714Y-75954000D01*
X171266952Y-75906380D01*
X172457428Y-76382571D02*
X172124095Y-76382571D01*
X172124095Y-76906380D02*
X172124095Y-75906380D01*
X172600285Y-75906380D01*
X173314571Y-76382571D02*
X172981238Y-76382571D01*
X172981238Y-76906380D02*
X172981238Y-75906380D01*
X173457428Y-75906380D01*
X122134380Y-102695238D02*
X123134380Y-102361904D01*
X122134380Y-102028571D01*
X123134380Y-101695238D02*
X122134380Y-101695238D01*
X123134380Y-101219047D02*
X122134380Y-101219047D01*
X123134380Y-100647619D01*
X122134380Y-100647619D01*
X144486380Y-103314476D02*
X144486380Y-103790666D01*
X144962571Y-103838285D01*
X144914952Y-103790666D01*
X144867333Y-103695428D01*
X144867333Y-103457333D01*
X144914952Y-103362095D01*
X144962571Y-103314476D01*
X145057809Y-103266857D01*
X145295904Y-103266857D01*
X145391142Y-103314476D01*
X145438761Y-103362095D01*
X145486380Y-103457333D01*
X145486380Y-103695428D01*
X145438761Y-103790666D01*
X145391142Y-103838285D01*
X144486380Y-102981142D02*
X145486380Y-102647809D01*
X144486380Y-102314476D01*
X117658380Y-62952380D02*
X118229809Y-62952380D01*
X117944095Y-63952380D02*
X117944095Y-62952380D01*
X118563142Y-63428571D02*
X118896476Y-63428571D01*
X119039333Y-63952380D02*
X118563142Y-63952380D01*
X118563142Y-62952380D01*
X119039333Y-62952380D01*
X119420285Y-63904761D02*
X119563142Y-63952380D01*
X119801238Y-63952380D01*
X119896476Y-63904761D01*
X119944095Y-63857142D01*
X119991714Y-63761904D01*
X119991714Y-63666666D01*
X119944095Y-63571428D01*
X119896476Y-63523809D01*
X119801238Y-63476190D01*
X119610761Y-63428571D01*
X119515523Y-63380952D01*
X119467904Y-63333333D01*
X119420285Y-63238095D01*
X119420285Y-63142857D01*
X119467904Y-63047619D01*
X119515523Y-63000000D01*
X119610761Y-62952380D01*
X119848857Y-62952380D01*
X119991714Y-63000000D01*
X120277428Y-62952380D02*
X120848857Y-62952380D01*
X120563142Y-63952380D02*
X120563142Y-62952380D01*
X121896476Y-63904761D02*
X122039333Y-63952380D01*
X122277428Y-63952380D01*
X122372666Y-63904761D01*
X122420285Y-63857142D01*
X122467904Y-63761904D01*
X122467904Y-63666666D01*
X122420285Y-63571428D01*
X122372666Y-63523809D01*
X122277428Y-63476190D01*
X122086952Y-63428571D01*
X121991714Y-63380952D01*
X121944095Y-63333333D01*
X121896476Y-63238095D01*
X121896476Y-63142857D01*
X121944095Y-63047619D01*
X121991714Y-63000000D01*
X122086952Y-62952380D01*
X122325047Y-62952380D01*
X122467904Y-63000000D01*
X122753619Y-62952380D02*
X123325047Y-62952380D01*
X123039333Y-63952380D02*
X123039333Y-62952380D01*
X123610761Y-63666666D02*
X124086952Y-63666666D01*
X123515523Y-63952380D02*
X123848857Y-62952380D01*
X124182190Y-63952380D01*
X125086952Y-63952380D02*
X124753619Y-63476190D01*
X124515523Y-63952380D02*
X124515523Y-62952380D01*
X124896476Y-62952380D01*
X124991714Y-63000000D01*
X125039333Y-63047619D01*
X125086952Y-63142857D01*
X125086952Y-63285714D01*
X125039333Y-63380952D01*
X124991714Y-63428571D01*
X124896476Y-63476190D01*
X124515523Y-63476190D01*
X125372666Y-62952380D02*
X125944095Y-62952380D01*
X125658380Y-63952380D02*
X125658380Y-62952380D01*
X126991714Y-62904761D02*
X126134571Y-64190476D01*
X127277428Y-63904761D02*
X127420285Y-63952380D01*
X127658380Y-63952380D01*
X127753619Y-63904761D01*
X127801238Y-63857142D01*
X127848857Y-63761904D01*
X127848857Y-63666666D01*
X127801238Y-63571428D01*
X127753619Y-63523809D01*
X127658380Y-63476190D01*
X127467904Y-63428571D01*
X127372666Y-63380952D01*
X127325047Y-63333333D01*
X127277428Y-63238095D01*
X127277428Y-63142857D01*
X127325047Y-63047619D01*
X127372666Y-63000000D01*
X127467904Y-62952380D01*
X127706000Y-62952380D01*
X127848857Y-63000000D01*
X128134571Y-62952380D02*
X128705999Y-62952380D01*
X128420285Y-63952380D02*
X128420285Y-62952380D01*
X129229809Y-62952380D02*
X129420285Y-62952380D01*
X129515523Y-63000000D01*
X129610761Y-63095238D01*
X129658380Y-63285714D01*
X129658380Y-63619047D01*
X129610761Y-63809523D01*
X129515523Y-63904761D01*
X129420285Y-63952380D01*
X129229809Y-63952380D01*
X129134571Y-63904761D01*
X129039333Y-63809523D01*
X128991714Y-63619047D01*
X128991714Y-63285714D01*
X129039333Y-63095238D01*
X129134571Y-63000000D01*
X129229809Y-62952380D01*
X130086952Y-63952380D02*
X130086952Y-62952380D01*
X130467904Y-62952380D01*
X130563142Y-63000000D01*
X130610761Y-63047619D01*
X130658380Y-63142857D01*
X130658380Y-63285714D01*
X130610761Y-63380952D01*
X130563142Y-63428571D01*
X130467904Y-63476190D01*
X130086952Y-63476190D01*
X113292000Y-102615904D02*
X113244380Y-102711142D01*
X113244380Y-102854000D01*
X113292000Y-102996857D01*
X113387238Y-103092095D01*
X113482476Y-103139714D01*
X113672952Y-103187333D01*
X113815809Y-103187333D01*
X114006285Y-103139714D01*
X114101523Y-103092095D01*
X114196761Y-102996857D01*
X114244380Y-102854000D01*
X114244380Y-102758761D01*
X114196761Y-102615904D01*
X114149142Y-102568285D01*
X113815809Y-102568285D01*
X113815809Y-102758761D01*
X114244380Y-102139714D02*
X113244380Y-102139714D01*
X114244380Y-101568285D01*
X113244380Y-101568285D01*
X114244380Y-101092095D02*
X113244380Y-101092095D01*
X113244380Y-100854000D01*
X113292000Y-100711142D01*
X113387238Y-100615904D01*
X113482476Y-100568285D01*
X113672952Y-100520666D01*
X113815809Y-100520666D01*
X114006285Y-100568285D01*
X114101523Y-100615904D01*
X114196761Y-100711142D01*
X114244380Y-100854000D01*
X114244380Y-101092095D01*
X164862190Y-62952380D02*
X165052666Y-62952380D01*
X165147904Y-63000000D01*
X165243142Y-63095238D01*
X165290761Y-63285714D01*
X165290761Y-63619047D01*
X165243142Y-63809523D01*
X165147904Y-63904761D01*
X165052666Y-63952380D01*
X164862190Y-63952380D01*
X164766952Y-63904761D01*
X164671714Y-63809523D01*
X164624095Y-63619047D01*
X164624095Y-63285714D01*
X164671714Y-63095238D01*
X164766952Y-63000000D01*
X164862190Y-62952380D01*
X165719333Y-63952380D02*
X165719333Y-62952380D01*
X166290761Y-63952380D01*
X166290761Y-62952380D01*
X167481238Y-62904761D02*
X166624095Y-64190476D01*
X168005047Y-62952380D02*
X168195523Y-62952380D01*
X168290761Y-63000000D01*
X168386000Y-63095238D01*
X168433619Y-63285714D01*
X168433619Y-63619047D01*
X168386000Y-63809523D01*
X168290761Y-63904761D01*
X168195523Y-63952380D01*
X168005047Y-63952380D01*
X167909809Y-63904761D01*
X167814571Y-63809523D01*
X167766952Y-63619047D01*
X167766952Y-63285714D01*
X167814571Y-63095238D01*
X167909809Y-63000000D01*
X168005047Y-62952380D01*
X169195523Y-63428571D02*
X168862190Y-63428571D01*
X168862190Y-63952380D02*
X168862190Y-62952380D01*
X169338380Y-62952380D01*
X170052666Y-63428571D02*
X169719333Y-63428571D01*
X169719333Y-63952380D02*
X169719333Y-62952380D01*
X170195523Y-62952380D01*
X117356000Y-102615904D02*
X117308380Y-102711142D01*
X117308380Y-102854000D01*
X117356000Y-102996857D01*
X117451238Y-103092095D01*
X117546476Y-103139714D01*
X117736952Y-103187333D01*
X117879809Y-103187333D01*
X118070285Y-103139714D01*
X118165523Y-103092095D01*
X118260761Y-102996857D01*
X118308380Y-102854000D01*
X118308380Y-102758761D01*
X118260761Y-102615904D01*
X118213142Y-102568285D01*
X117879809Y-102568285D01*
X117879809Y-102758761D01*
X118308380Y-102139714D02*
X117308380Y-102139714D01*
X118308380Y-101568285D01*
X117308380Y-101568285D01*
X118308380Y-101092095D02*
X117308380Y-101092095D01*
X117308380Y-100854000D01*
X117356000Y-100711142D01*
X117451238Y-100615904D01*
X117546476Y-100568285D01*
X117736952Y-100520666D01*
X117879809Y-100520666D01*
X118070285Y-100568285D01*
X118165523Y-100615904D01*
X118260761Y-100711142D01*
X118308380Y-100854000D01*
X118308380Y-101092095D01*
X174061904Y-105862380D02*
X174061904Y-104862380D01*
X174395238Y-105576666D01*
X174728571Y-104862380D01*
X174728571Y-105862380D01*
X175157142Y-104957619D02*
X175204761Y-104910000D01*
X175300000Y-104862380D01*
X175538095Y-104862380D01*
X175633333Y-104910000D01*
X175680952Y-104957619D01*
X175728571Y-105052857D01*
X175728571Y-105148095D01*
X175680952Y-105290952D01*
X175109523Y-105862380D01*
X175728571Y-105862380D01*
X176919047Y-105862380D02*
X176919047Y-104862380D01*
X177300000Y-104862380D01*
X177395238Y-104910000D01*
X177442857Y-104957619D01*
X177490476Y-105052857D01*
X177490476Y-105195714D01*
X177442857Y-105290952D01*
X177395238Y-105338571D01*
X177300000Y-105386190D01*
X176919047Y-105386190D01*
X178109523Y-104862380D02*
X178300000Y-104862380D01*
X178395238Y-104910000D01*
X178490476Y-105005238D01*
X178538095Y-105195714D01*
X178538095Y-105529047D01*
X178490476Y-105719523D01*
X178395238Y-105814761D01*
X178300000Y-105862380D01*
X178109523Y-105862380D01*
X178014285Y-105814761D01*
X177919047Y-105719523D01*
X177871428Y-105529047D01*
X177871428Y-105195714D01*
X177919047Y-105005238D01*
X178014285Y-104910000D01*
X178109523Y-104862380D01*
X178871428Y-104862380D02*
X179109523Y-105862380D01*
X179300000Y-105148095D01*
X179490476Y-105862380D01*
X179728571Y-104862380D01*
X180109523Y-105338571D02*
X180442857Y-105338571D01*
X180585714Y-105862380D02*
X180109523Y-105862380D01*
X180109523Y-104862380D01*
X180585714Y-104862380D01*
X181585714Y-105862380D02*
X181252380Y-105386190D01*
X181014285Y-105862380D02*
X181014285Y-104862380D01*
X181395238Y-104862380D01*
X181490476Y-104910000D01*
X181538095Y-104957619D01*
X181585714Y-105052857D01*
X181585714Y-105195714D01*
X181538095Y-105290952D01*
X181490476Y-105338571D01*
X181395238Y-105386190D01*
X181014285Y-105386190D01*
X144486380Y-56070476D02*
X144486380Y-56546666D01*
X144962571Y-56594285D01*
X144914952Y-56546666D01*
X144867333Y-56451428D01*
X144867333Y-56213333D01*
X144914952Y-56118095D01*
X144962571Y-56070476D01*
X145057809Y-56022857D01*
X145295904Y-56022857D01*
X145391142Y-56070476D01*
X145438761Y-56118095D01*
X145486380Y-56213333D01*
X145486380Y-56451428D01*
X145438761Y-56546666D01*
X145391142Y-56594285D01*
X144486380Y-55737142D02*
X145486380Y-55403809D01*
X144486380Y-55070476D01*
X147200952Y-68227380D02*
X146724761Y-68227380D01*
X146724761Y-67227380D01*
X147391428Y-67227380D02*
X147724761Y-68227380D01*
X148058095Y-67227380D01*
X144820000Y-69789761D02*
X144962857Y-69837380D01*
X145200952Y-69837380D01*
X145296190Y-69789761D01*
X145343809Y-69742142D01*
X145391428Y-69646904D01*
X145391428Y-69551666D01*
X145343809Y-69456428D01*
X145296190Y-69408809D01*
X145200952Y-69361190D01*
X145010476Y-69313571D01*
X144915238Y-69265952D01*
X144867619Y-69218333D01*
X144820000Y-69123095D01*
X144820000Y-69027857D01*
X144867619Y-68932619D01*
X144915238Y-68885000D01*
X145010476Y-68837380D01*
X145248571Y-68837380D01*
X145391428Y-68885000D01*
X145724761Y-68837380D02*
X145962857Y-69837380D01*
X146153333Y-69123095D01*
X146343809Y-69837380D01*
X146581904Y-68837380D01*
X146962857Y-69837380D02*
X146962857Y-68837380D01*
X147296190Y-68837380D02*
X147867619Y-68837380D01*
X147581904Y-69837380D02*
X147581904Y-68837380D01*
X148772380Y-69742142D02*
X148724761Y-69789761D01*
X148581904Y-69837380D01*
X148486666Y-69837380D01*
X148343809Y-69789761D01*
X148248571Y-69694523D01*
X148200952Y-69599285D01*
X148153333Y-69408809D01*
X148153333Y-69265952D01*
X148200952Y-69075476D01*
X148248571Y-68980238D01*
X148343809Y-68885000D01*
X148486666Y-68837380D01*
X148581904Y-68837380D01*
X148724761Y-68885000D01*
X148772380Y-68932619D01*
X149200952Y-69837380D02*
X149200952Y-68837380D01*
X149200952Y-69313571D02*
X149772380Y-69313571D01*
X149772380Y-69837380D02*
X149772380Y-68837380D01*
X179332000Y-102615904D02*
X179284380Y-102711142D01*
X179284380Y-102854000D01*
X179332000Y-102996857D01*
X179427238Y-103092095D01*
X179522476Y-103139714D01*
X179712952Y-103187333D01*
X179855809Y-103187333D01*
X180046285Y-103139714D01*
X180141523Y-103092095D01*
X180236761Y-102996857D01*
X180284380Y-102854000D01*
X180284380Y-102758761D01*
X180236761Y-102615904D01*
X180189142Y-102568285D01*
X179855809Y-102568285D01*
X179855809Y-102758761D01*
X180284380Y-102139714D02*
X179284380Y-102139714D01*
X180284380Y-101568285D01*
X179284380Y-101568285D01*
X180284380Y-101092095D02*
X179284380Y-101092095D01*
X179284380Y-100854000D01*
X179332000Y-100711142D01*
X179427238Y-100615904D01*
X179522476Y-100568285D01*
X179712952Y-100520666D01*
X179855809Y-100520666D01*
X180046285Y-100568285D01*
X180141523Y-100615904D01*
X180236761Y-100711142D01*
X180284380Y-100854000D01*
X180284380Y-101092095D01*
X147074000Y-104393904D02*
X147026380Y-104489142D01*
X147026380Y-104632000D01*
X147074000Y-104774857D01*
X147169238Y-104870095D01*
X147264476Y-104917714D01*
X147454952Y-104965333D01*
X147597809Y-104965333D01*
X147788285Y-104917714D01*
X147883523Y-104870095D01*
X147978761Y-104774857D01*
X148026380Y-104632000D01*
X148026380Y-104536761D01*
X147978761Y-104393904D01*
X147931142Y-104346285D01*
X147597809Y-104346285D01*
X147597809Y-104536761D01*
X148026380Y-103917714D02*
X147026380Y-103917714D01*
X148026380Y-103346285D01*
X147026380Y-103346285D01*
X148026380Y-102870095D02*
X147026380Y-102870095D01*
X147026380Y-102632000D01*
X147074000Y-102489142D01*
X147169238Y-102393904D01*
X147264476Y-102346285D01*
X147454952Y-102298666D01*
X147597809Y-102298666D01*
X147788285Y-102346285D01*
X147883523Y-102393904D01*
X147978761Y-102489142D01*
X148026380Y-102632000D01*
X148026380Y-102870095D01*
X103713595Y-46383380D02*
X103713595Y-45383380D01*
X104094547Y-45383380D01*
X104189785Y-45431000D01*
X104237404Y-45478619D01*
X104285023Y-45573857D01*
X104285023Y-45716714D01*
X104237404Y-45811952D01*
X104189785Y-45859571D01*
X104094547Y-45907190D01*
X103713595Y-45907190D01*
X104904071Y-45383380D02*
X105094547Y-45383380D01*
X105189785Y-45431000D01*
X105285023Y-45526238D01*
X105332642Y-45716714D01*
X105332642Y-46050047D01*
X105285023Y-46240523D01*
X105189785Y-46335761D01*
X105094547Y-46383380D01*
X104904071Y-46383380D01*
X104808833Y-46335761D01*
X104713595Y-46240523D01*
X104665976Y-46050047D01*
X104665976Y-45716714D01*
X104713595Y-45526238D01*
X104808833Y-45431000D01*
X104904071Y-45383380D01*
X105665976Y-45383380D02*
X105904071Y-46383380D01*
X106094547Y-45669095D01*
X106285023Y-46383380D01*
X106523119Y-45383380D01*
X106904071Y-45859571D02*
X107237404Y-45859571D01*
X107380261Y-46383380D02*
X106904071Y-46383380D01*
X106904071Y-45383380D01*
X107380261Y-45383380D01*
X108380261Y-46383380D02*
X108046928Y-45907190D01*
X107808833Y-46383380D02*
X107808833Y-45383380D01*
X108189785Y-45383380D01*
X108285023Y-45431000D01*
X108332642Y-45478619D01*
X108380261Y-45573857D01*
X108380261Y-45716714D01*
X108332642Y-45811952D01*
X108285023Y-45859571D01*
X108189785Y-45907190D01*
X107808833Y-45907190D01*
X108808833Y-45859571D02*
X109142166Y-45859571D01*
X109285023Y-46383380D02*
X108808833Y-46383380D01*
X108808833Y-45383380D01*
X109285023Y-45383380D01*
X109713595Y-46383380D02*
X109713595Y-45383380D01*
X109951690Y-45383380D01*
X110094547Y-45431000D01*
X110189785Y-45526238D01*
X110237404Y-45621476D01*
X110285023Y-45811952D01*
X110285023Y-45954809D01*
X110237404Y-46145285D01*
X110189785Y-46240523D01*
X110094547Y-46335761D01*
X109951690Y-46383380D01*
X109713595Y-46383380D01*
X111427880Y-46335761D02*
X111570738Y-46383380D01*
X111808833Y-46383380D01*
X111904071Y-46335761D01*
X111951690Y-46288142D01*
X111999309Y-46192904D01*
X111999309Y-46097666D01*
X111951690Y-46002428D01*
X111904071Y-45954809D01*
X111808833Y-45907190D01*
X111618357Y-45859571D01*
X111523119Y-45811952D01*
X111475500Y-45764333D01*
X111427880Y-45669095D01*
X111427880Y-45573857D01*
X111475500Y-45478619D01*
X111523119Y-45431000D01*
X111618357Y-45383380D01*
X111856452Y-45383380D01*
X111999309Y-45431000D01*
X112332642Y-45383380D02*
X112570738Y-46383380D01*
X112761214Y-45669095D01*
X112951690Y-46383380D01*
X113189785Y-45383380D01*
X113570738Y-46383380D02*
X113570738Y-45383380D01*
X113904071Y-45383380D02*
X114475500Y-45383380D01*
X114189785Y-46383380D02*
X114189785Y-45383380D01*
X115380261Y-46288142D02*
X115332642Y-46335761D01*
X115189785Y-46383380D01*
X115094547Y-46383380D01*
X114951690Y-46335761D01*
X114856452Y-46240523D01*
X114808833Y-46145285D01*
X114761214Y-45954809D01*
X114761214Y-45811952D01*
X114808833Y-45621476D01*
X114856452Y-45526238D01*
X114951690Y-45431000D01*
X115094547Y-45383380D01*
X115189785Y-45383380D01*
X115332642Y-45431000D01*
X115380261Y-45478619D01*
X115808833Y-46383380D02*
X115808833Y-45383380D01*
X115808833Y-45859571D02*
X116380261Y-45859571D01*
X116380261Y-46383380D02*
X116380261Y-45383380D01*
X116856452Y-45859571D02*
X117189785Y-45859571D01*
X117332642Y-46383380D02*
X116856452Y-46383380D01*
X116856452Y-45383380D01*
X117332642Y-45383380D01*
X117713595Y-46335761D02*
X117856452Y-46383380D01*
X118094547Y-46383380D01*
X118189785Y-46335761D01*
X118237404Y-46288142D01*
X118285023Y-46192904D01*
X118285023Y-46097666D01*
X118237404Y-46002428D01*
X118189785Y-45954809D01*
X118094547Y-45907190D01*
X117904071Y-45859571D01*
X117808833Y-45811952D01*
X117761214Y-45764333D01*
X117713595Y-45669095D01*
X117713595Y-45573857D01*
X117761214Y-45478619D01*
X117808833Y-45431000D01*
X117904071Y-45383380D01*
X118142166Y-45383380D01*
X118285023Y-45431000D01*
X104285023Y-47993380D02*
X103951690Y-47517190D01*
X103713595Y-47993380D02*
X103713595Y-46993380D01*
X104094547Y-46993380D01*
X104189785Y-47041000D01*
X104237404Y-47088619D01*
X104285023Y-47183857D01*
X104285023Y-47326714D01*
X104237404Y-47421952D01*
X104189785Y-47469571D01*
X104094547Y-47517190D01*
X103713595Y-47517190D01*
X104713595Y-47469571D02*
X105046928Y-47469571D01*
X105189785Y-47993380D02*
X104713595Y-47993380D01*
X104713595Y-46993380D01*
X105189785Y-46993380D01*
X105475500Y-46993380D02*
X105808833Y-47993380D01*
X106142166Y-46993380D01*
X107761214Y-47993380D02*
X107189785Y-47993380D01*
X107475500Y-47993380D02*
X107475500Y-46993380D01*
X107380261Y-47136238D01*
X107285023Y-47231476D01*
X107189785Y-47279095D01*
X108189785Y-47898142D02*
X108237404Y-47945761D01*
X108189785Y-47993380D01*
X108142166Y-47945761D01*
X108189785Y-47898142D01*
X108189785Y-47993380D01*
X108856452Y-46993380D02*
X108951690Y-46993380D01*
X109046928Y-47041000D01*
X109094547Y-47088619D01*
X109142166Y-47183857D01*
X109189785Y-47374333D01*
X109189785Y-47612428D01*
X109142166Y-47802904D01*
X109094547Y-47898142D01*
X109046928Y-47945761D01*
X108951690Y-47993380D01*
X108856452Y-47993380D01*
X108761214Y-47945761D01*
X108713595Y-47898142D01*
X108665976Y-47802904D01*
X108618357Y-47612428D01*
X108618357Y-47374333D01*
X108665976Y-47183857D01*
X108713595Y-47088619D01*
X108761214Y-47041000D01*
X108856452Y-46993380D01*
X143200380Y-88304666D02*
X142724190Y-88638000D01*
X143200380Y-88876095D02*
X142200380Y-88876095D01*
X142200380Y-88495142D01*
X142248000Y-88399904D01*
X142295619Y-88352285D01*
X142390857Y-88304666D01*
X142533714Y-88304666D01*
X142628952Y-88352285D01*
X142676571Y-88399904D01*
X142724190Y-88495142D01*
X142724190Y-88876095D01*
X143200380Y-87352285D02*
X143200380Y-87923714D01*
X143200380Y-87638000D02*
X142200380Y-87638000D01*
X142343238Y-87733238D01*
X142438476Y-87828476D01*
X142486095Y-87923714D01*
X150312380Y-88304666D02*
X149836190Y-88638000D01*
X150312380Y-88876095D02*
X149312380Y-88876095D01*
X149312380Y-88495142D01*
X149360000Y-88399904D01*
X149407619Y-88352285D01*
X149502857Y-88304666D01*
X149645714Y-88304666D01*
X149740952Y-88352285D01*
X149788571Y-88399904D01*
X149836190Y-88495142D01*
X149836190Y-88876095D01*
X149407619Y-87923714D02*
X149360000Y-87876095D01*
X149312380Y-87780857D01*
X149312380Y-87542761D01*
X149360000Y-87447523D01*
X149407619Y-87399904D01*
X149502857Y-87352285D01*
X149598095Y-87352285D01*
X149740952Y-87399904D01*
X150312380Y-87971333D01*
X150312380Y-87352285D01*
D11*
X144284000Y-47588000D02*
X142484000Y-47588000D01*
X145784000Y-47588000D02*
X145784000Y-48338000D01*
X143234000Y-49838000D02*
X143234000Y-52788000D01*
X150084000Y-49838000D02*
X149334000Y-49838000D01*
X142474000Y-47578000D02*
X142474000Y-53548000D01*
X144284000Y-48338000D02*
X144284000Y-47588000D01*
X142474000Y-53548000D02*
X150094000Y-53548000D01*
X149334000Y-52788000D02*
X146284000Y-52788000D01*
X150094000Y-53548000D02*
X150094000Y-47578000D01*
X143234000Y-52788000D02*
X146284000Y-52788000D01*
X148284000Y-47588000D02*
X148284000Y-48338000D01*
X150084000Y-47588000D02*
X148284000Y-47588000D01*
X143434000Y-47288000D02*
X142184000Y-47288000D01*
X142484000Y-49838000D02*
X143234000Y-49838000D01*
X145784000Y-48338000D02*
X146784000Y-48338000D01*
X142484000Y-47588000D02*
X142484000Y-48338000D01*
X148284000Y-48338000D02*
X150084000Y-48338000D01*
X146784000Y-48338000D02*
X146784000Y-47588000D01*
X150084000Y-48338000D02*
X150084000Y-47588000D01*
X142184000Y-47288000D02*
X142184000Y-48538000D01*
X142484000Y-48338000D02*
X144284000Y-48338000D01*
X149334000Y-49838000D02*
X149334000Y-52788000D01*
X150094000Y-47578000D02*
X142474000Y-47578000D01*
X146784000Y-47588000D02*
X145784000Y-47588000D01*
X144118000Y-91408000D02*
X144118000Y-84868000D01*
X141378000Y-91408000D02*
X141378000Y-84868000D01*
X143788000Y-91408000D02*
X144118000Y-91408000D01*
X141708000Y-91408000D02*
X141378000Y-91408000D01*
X144118000Y-84868000D02*
X143788000Y-84868000D01*
X141378000Y-84868000D02*
X141708000Y-84868000D01*
X123706000Y-68399000D02*
X123706000Y-69149000D01*
X126206000Y-69149000D02*
X128006000Y-69149000D01*
X124706000Y-68399000D02*
X123706000Y-68399000D01*
X126206000Y-68399000D02*
X126206000Y-69149000D01*
X120106000Y-68099000D02*
X120106000Y-69349000D01*
X123706000Y-69149000D02*
X124706000Y-69149000D01*
X122206000Y-68399000D02*
X120406000Y-68399000D01*
X128016000Y-68389000D02*
X120396000Y-68389000D01*
X128006000Y-68399000D02*
X126206000Y-68399000D01*
X128016000Y-74359000D02*
X128016000Y-68389000D01*
X124706000Y-69149000D02*
X124706000Y-68399000D01*
X121356000Y-68099000D02*
X120106000Y-68099000D01*
X128006000Y-69149000D02*
X128006000Y-68399000D01*
X122206000Y-69149000D02*
X122206000Y-68399000D01*
X120396000Y-74359000D02*
X128016000Y-74359000D01*
X121156000Y-73599000D02*
X124206000Y-73599000D01*
X127256000Y-70649000D02*
X127256000Y-73599000D01*
X120406000Y-69149000D02*
X122206000Y-69149000D01*
X121156000Y-70649000D02*
X121156000Y-73599000D01*
X120406000Y-70649000D02*
X121156000Y-70649000D01*
X127256000Y-73599000D02*
X124206000Y-73599000D01*
X120406000Y-68399000D02*
X120406000Y-69149000D01*
X128006000Y-70649000D02*
X127256000Y-70649000D01*
X120396000Y-68389000D02*
X120396000Y-74359000D01*
X148304000Y-95069000D02*
X148304000Y-95819000D01*
X150104000Y-95819000D02*
X150104000Y-95069000D01*
X144304000Y-95069000D02*
X142504000Y-95069000D01*
X149354000Y-97319000D02*
X149354000Y-100269000D01*
X142494000Y-95059000D02*
X142494000Y-101029000D01*
X143454000Y-94769000D02*
X142204000Y-94769000D01*
X143254000Y-100269000D02*
X146304000Y-100269000D01*
X142504000Y-97319000D02*
X143254000Y-97319000D01*
X145804000Y-95819000D02*
X146804000Y-95819000D01*
X150104000Y-95069000D02*
X148304000Y-95069000D01*
X142494000Y-101029000D02*
X150114000Y-101029000D01*
X146804000Y-95819000D02*
X146804000Y-95069000D01*
X142504000Y-95819000D02*
X144304000Y-95819000D01*
X148304000Y-95819000D02*
X150104000Y-95819000D01*
X150114000Y-95059000D02*
X142494000Y-95059000D01*
X150114000Y-101029000D02*
X150114000Y-95059000D01*
X146804000Y-95069000D02*
X145804000Y-95069000D01*
X145804000Y-95069000D02*
X145804000Y-95819000D01*
X149354000Y-100269000D02*
X146304000Y-100269000D01*
X143254000Y-97319000D02*
X143254000Y-100269000D01*
X142504000Y-95069000D02*
X142504000Y-95819000D01*
X142204000Y-94769000D02*
X142204000Y-96019000D01*
X150104000Y-97319000D02*
X149354000Y-97319000D01*
X144304000Y-95819000D02*
X144304000Y-95069000D01*
X148490000Y-84868000D02*
X148820000Y-84868000D01*
X151230000Y-91408000D02*
X151230000Y-84868000D01*
X151230000Y-84868000D02*
X150900000Y-84868000D01*
X148490000Y-91408000D02*
X148490000Y-84868000D01*
X150900000Y-91408000D02*
X151230000Y-91408000D01*
X148820000Y-91408000D02*
X148490000Y-91408000D01*
X163332000Y-69149000D02*
X165132000Y-69149000D01*
X167632000Y-68399000D02*
X166632000Y-68399000D01*
X170182000Y-73599000D02*
X167132000Y-73599000D01*
X170932000Y-68399000D02*
X169132000Y-68399000D01*
X164082000Y-70649000D02*
X164082000Y-73599000D01*
X170942000Y-74359000D02*
X170942000Y-68389000D01*
X165132000Y-68399000D02*
X163332000Y-68399000D01*
X166632000Y-69149000D02*
X167632000Y-69149000D01*
X169132000Y-68399000D02*
X169132000Y-69149000D01*
X163322000Y-68389000D02*
X163322000Y-74359000D01*
X170932000Y-70649000D02*
X170182000Y-70649000D01*
X164082000Y-73599000D02*
X167132000Y-73599000D01*
X165132000Y-69149000D02*
X165132000Y-68399000D01*
X163332000Y-70649000D02*
X164082000Y-70649000D01*
X164282000Y-68099000D02*
X163032000Y-68099000D01*
X167632000Y-69149000D02*
X167632000Y-68399000D01*
X169132000Y-69149000D02*
X170932000Y-69149000D01*
X170942000Y-68389000D02*
X163322000Y-68389000D01*
X170932000Y-69149000D02*
X170932000Y-68399000D01*
X166632000Y-68399000D02*
X166632000Y-69149000D01*
X163322000Y-74359000D02*
X170942000Y-74359000D01*
X163332000Y-68399000D02*
X163332000Y-69149000D01*
X163032000Y-68099000D02*
X163032000Y-69349000D01*
X170182000Y-70649000D02*
X170182000Y-73599000D01*
%LPC*%
D12*
X124460000Y-100838000D03*
X124460000Y-98298000D03*
X124460000Y-95758000D03*
X124460000Y-93218000D03*
X124460000Y-90678000D03*
X124460000Y-88138000D03*
X124460000Y-85598000D03*
X124460000Y-83058000D03*
X106680000Y-83058000D03*
X106680000Y-85598000D03*
X106680000Y-88138000D03*
X106680000Y-90678000D03*
X106680000Y-93218000D03*
X106680000Y-95758000D03*
X106680000Y-98298000D03*
X106680000Y-100838000D03*
D13*
X195044000Y-48006000D03*
D14*
X145034000Y-50038000D03*
D15*
X147534000Y-50038000D03*
D16*
X142748000Y-91948000D03*
D17*
X142748000Y-84328000D03*
D14*
X122956000Y-70849000D03*
D15*
X125456000Y-70849000D03*
D12*
X140970000Y-60960000D03*
X140970000Y-63500000D03*
X140970000Y-66040000D03*
X140970000Y-68580000D03*
X140970000Y-71120000D03*
X140970000Y-73660000D03*
X140970000Y-76200000D03*
X153670000Y-73660000D03*
X153670000Y-71120000D03*
X153670000Y-68580000D03*
X153670000Y-66040000D03*
X153670000Y-63500000D03*
X153670000Y-60960000D03*
D14*
X145054000Y-97519000D03*
D15*
X147554000Y-97519000D03*
D12*
X170942000Y-60198000D03*
X163322000Y-60198000D03*
X170942000Y-55118000D03*
X163322000Y-55118000D03*
D13*
X98044000Y-47963000D03*
X195044000Y-104006000D03*
D16*
X149860000Y-91948000D03*
D17*
X149860000Y-84328000D03*
D13*
X98044000Y-104006000D03*
D12*
X128270000Y-60198000D03*
X120650000Y-60198000D03*
X128270000Y-55118000D03*
X120650000Y-55118000D03*
X186690000Y-101092000D03*
X186690000Y-98552000D03*
X186690000Y-96012000D03*
X186690000Y-93472000D03*
X186690000Y-90932000D03*
X186690000Y-88392000D03*
X186690000Y-85852000D03*
X186690000Y-83312000D03*
X168910000Y-83312000D03*
X168910000Y-85852000D03*
X168910000Y-88392000D03*
X168910000Y-90932000D03*
X168910000Y-93472000D03*
X168910000Y-96012000D03*
X168910000Y-98552000D03*
X168910000Y-101092000D03*
D14*
X165882000Y-70849000D03*
D15*
X168382000Y-70849000D03*
M02*
