%TF.GenerationSoftware,KiCad,Pcbnew,6.0.11-2627ca5db0~126~ubuntu20.04.1*%
%TF.CreationDate,2023-02-06T13:12:04-05:00*%
%TF.ProjectId,PowerSwitches,506f7765-7253-4776-9974-636865732e6b,rev?*%
%TF.SameCoordinates,Original*%
%TF.FileFunction,Drillmap*%
%TF.FilePolarity,Positive*%
%FSLAX45Y45*%
G04 Gerber Fmt 4.5, Leading zero omitted, Abs format (unit mm)*
G04 Created by KiCad (PCBNEW 6.0.11-2627ca5db0~126~ubuntu20.04.1) date 2023-02-06 13:12:04*
%MOMM*%
%LPD*%
G01*
G04 APERTURE LIST*
%ADD10C,0.100000*%
%ADD11C,0.200000*%
%ADD12C,0.076200*%
%ADD13C,0.080000*%
G04 APERTURE END LIST*
D10*
X9443600Y-4420800D02*
X19888200Y-4420800D01*
X19888200Y-4420800D02*
X19888200Y-10819200D01*
X19888200Y-10819200D02*
X9443600Y-10819200D01*
X9443600Y-10819200D02*
X9443600Y-4420800D01*
D11*
D12*
X10629900Y-8267700D02*
X10706100Y-8343900D01*
X10706100Y-8267700D02*
X10629900Y-8343900D01*
X10629900Y-8521700D02*
X10706100Y-8597900D01*
X10706100Y-8521700D02*
X10629900Y-8597900D01*
X10629900Y-8775700D02*
X10706100Y-8851900D01*
X10706100Y-8775700D02*
X10629900Y-8851900D01*
X10629900Y-9029700D02*
X10706100Y-9105900D01*
X10706100Y-9029700D02*
X10629900Y-9105900D01*
X10629900Y-9283700D02*
X10706100Y-9359900D01*
X10706100Y-9283700D02*
X10629900Y-9359900D01*
X10629900Y-9537700D02*
X10706100Y-9613900D01*
X10706100Y-9537700D02*
X10629900Y-9613900D01*
X10629900Y-9791700D02*
X10706100Y-9867900D01*
X10706100Y-9791700D02*
X10629900Y-9867900D01*
X10629900Y-10045700D02*
X10706100Y-10121900D01*
X10706100Y-10045700D02*
X10629900Y-10121900D01*
X12026900Y-5473700D02*
X12103100Y-5549900D01*
X12103100Y-5473700D02*
X12026900Y-5549900D01*
X12026900Y-5981700D02*
X12103100Y-6057900D01*
X12103100Y-5981700D02*
X12026900Y-6057900D01*
X12407900Y-8267700D02*
X12484100Y-8343900D01*
X12484100Y-8267700D02*
X12407900Y-8343900D01*
X12407900Y-8521700D02*
X12484100Y-8597900D01*
X12484100Y-8521700D02*
X12407900Y-8597900D01*
X12407900Y-8775700D02*
X12484100Y-8851900D01*
X12484100Y-8775700D02*
X12407900Y-8851900D01*
X12407900Y-9029700D02*
X12484100Y-9105900D01*
X12484100Y-9029700D02*
X12407900Y-9105900D01*
X12407900Y-9283700D02*
X12484100Y-9359900D01*
X12484100Y-9283700D02*
X12407900Y-9359900D01*
X12407900Y-9537700D02*
X12484100Y-9613900D01*
X12484100Y-9537700D02*
X12407900Y-9613900D01*
X12407900Y-9791700D02*
X12484100Y-9867900D01*
X12484100Y-9791700D02*
X12407900Y-9867900D01*
X12407900Y-10045700D02*
X12484100Y-10121900D01*
X12484100Y-10045700D02*
X12407900Y-10121900D01*
X12788900Y-5473700D02*
X12865100Y-5549900D01*
X12865100Y-5473700D02*
X12788900Y-5549900D01*
X12788900Y-5981700D02*
X12865100Y-6057900D01*
X12865100Y-5981700D02*
X12788900Y-6057900D01*
X14058900Y-6057900D02*
X14135100Y-6134100D01*
X14135100Y-6057900D02*
X14058900Y-6134100D01*
X14058900Y-6311900D02*
X14135100Y-6388100D01*
X14135100Y-6311900D02*
X14058900Y-6388100D01*
X14058900Y-6565900D02*
X14135100Y-6642100D01*
X14135100Y-6565900D02*
X14058900Y-6642100D01*
X14058900Y-6819900D02*
X14135100Y-6896100D01*
X14135100Y-6819900D02*
X14058900Y-6896100D01*
X14058900Y-7073900D02*
X14135100Y-7150100D01*
X14135100Y-7073900D02*
X14058900Y-7150100D01*
X14058900Y-7327900D02*
X14135100Y-7404100D01*
X14135100Y-7327900D02*
X14058900Y-7404100D01*
X14058900Y-7581900D02*
X14135100Y-7658100D01*
X14135100Y-7581900D02*
X14058900Y-7658100D01*
X15328900Y-6057900D02*
X15405100Y-6134100D01*
X15405100Y-6057900D02*
X15328900Y-6134100D01*
X15328900Y-6311900D02*
X15405100Y-6388100D01*
X15405100Y-6311900D02*
X15328900Y-6388100D01*
X15328900Y-6565900D02*
X15405100Y-6642100D01*
X15405100Y-6565900D02*
X15328900Y-6642100D01*
X15328900Y-6819900D02*
X15405100Y-6896100D01*
X15405100Y-6819900D02*
X15328900Y-6896100D01*
X15328900Y-7073900D02*
X15405100Y-7150100D01*
X15405100Y-7073900D02*
X15328900Y-7150100D01*
X15328900Y-7327900D02*
X15405100Y-7404100D01*
X15405100Y-7327900D02*
X15328900Y-7404100D01*
X16294100Y-5473700D02*
X16370300Y-5549900D01*
X16370300Y-5473700D02*
X16294100Y-5549900D01*
X16294100Y-5981700D02*
X16370300Y-6057900D01*
X16370300Y-5981700D02*
X16294100Y-6057900D01*
X16852900Y-8293100D02*
X16929100Y-8369300D01*
X16929100Y-8293100D02*
X16852900Y-8369300D01*
X16852900Y-8547100D02*
X16929100Y-8623300D01*
X16929100Y-8547100D02*
X16852900Y-8623300D01*
X16852900Y-8801100D02*
X16929100Y-8877300D01*
X16929100Y-8801100D02*
X16852900Y-8877300D01*
X16852900Y-9055100D02*
X16929100Y-9131300D01*
X16929100Y-9055100D02*
X16852900Y-9131300D01*
X16852900Y-9309100D02*
X16929100Y-9385300D01*
X16929100Y-9309100D02*
X16852900Y-9385300D01*
X16852900Y-9563100D02*
X16929100Y-9639300D01*
X16929100Y-9563100D02*
X16852900Y-9639300D01*
X16852900Y-9817100D02*
X16929100Y-9893300D01*
X16929100Y-9817100D02*
X16852900Y-9893300D01*
X16852900Y-10071100D02*
X16929100Y-10147300D01*
X16929100Y-10071100D02*
X16852900Y-10147300D01*
X17056100Y-5473700D02*
X17132300Y-5549900D01*
X17132300Y-5473700D02*
X17056100Y-5549900D01*
X17056100Y-5981700D02*
X17132300Y-6057900D01*
X17132300Y-5981700D02*
X17056100Y-6057900D01*
X18630900Y-8293100D02*
X18707100Y-8369300D01*
X18707100Y-8293100D02*
X18630900Y-8369300D01*
X18630900Y-8547100D02*
X18707100Y-8623300D01*
X18707100Y-8547100D02*
X18630900Y-8623300D01*
X18630900Y-8801100D02*
X18707100Y-8877300D01*
X18707100Y-8801100D02*
X18630900Y-8877300D01*
X18630900Y-9055100D02*
X18707100Y-9131300D01*
X18707100Y-9055100D02*
X18630900Y-9131300D01*
X18630900Y-9309100D02*
X18707100Y-9385300D01*
X18707100Y-9309100D02*
X18630900Y-9385300D01*
X18630900Y-9563100D02*
X18707100Y-9639300D01*
X18707100Y-9563100D02*
X18630900Y-9639300D01*
X18630900Y-9817100D02*
X18707100Y-9893300D01*
X18707100Y-9817100D02*
X18630900Y-9893300D01*
X18630900Y-10071100D02*
X18707100Y-10147300D01*
X18707100Y-10071100D02*
X18630900Y-10147300D01*
D13*
X14314800Y-8432800D02*
G75*
G03*
X14314800Y-8432800I-40000J0D01*
G01*
X14314800Y-9194800D02*
G75*
G03*
X14314800Y-9194800I-40000J0D01*
G01*
X15026000Y-8432800D02*
G75*
G03*
X15026000Y-8432800I-40000J0D01*
G01*
X15026000Y-9194800D02*
G75*
G03*
X15026000Y-9194800I-40000J0D01*
G01*
D10*
X12295600Y-7034900D02*
X12295600Y-7134900D01*
X12245600Y-7084900D02*
X12345600Y-7084900D01*
X12545600Y-7034900D02*
X12545600Y-7134900D01*
X12495600Y-7084900D02*
X12595600Y-7084900D01*
X14503400Y-4953800D02*
X14503400Y-5053800D01*
X14453400Y-5003800D02*
X14553400Y-5003800D01*
X14505400Y-9701900D02*
X14505400Y-9801900D01*
X14455400Y-9751900D02*
X14555400Y-9751900D01*
X14753400Y-4953800D02*
X14753400Y-5053800D01*
X14703400Y-5003800D02*
X14803400Y-5003800D01*
X14755400Y-9701900D02*
X14755400Y-9801900D01*
X14705400Y-9751900D02*
X14805400Y-9751900D01*
X16588200Y-7034900D02*
X16588200Y-7134900D01*
X16538200Y-7084900D02*
X16638200Y-7084900D01*
X16838200Y-7034900D02*
X16838200Y-7134900D01*
X16788200Y-7084900D02*
X16888200Y-7084900D01*
D11*
X9696219Y-11134676D02*
X9696219Y-10934676D01*
X9743838Y-10934676D01*
X9772410Y-10944200D01*
X9791457Y-10963248D01*
X9800981Y-10982295D01*
X9810505Y-11020390D01*
X9810505Y-11048962D01*
X9800981Y-11087057D01*
X9791457Y-11106105D01*
X9772410Y-11125152D01*
X9743838Y-11134676D01*
X9696219Y-11134676D01*
X9896219Y-11134676D02*
X9896219Y-11001343D01*
X9896219Y-11039438D02*
X9905743Y-11020390D01*
X9915267Y-11010867D01*
X9934314Y-11001343D01*
X9953362Y-11001343D01*
X10020029Y-11134676D02*
X10020029Y-11001343D01*
X10020029Y-10934676D02*
X10010505Y-10944200D01*
X10020029Y-10953724D01*
X10029552Y-10944200D01*
X10020029Y-10934676D01*
X10020029Y-10953724D01*
X10143838Y-11134676D02*
X10124790Y-11125152D01*
X10115267Y-11106105D01*
X10115267Y-10934676D01*
X10248600Y-11134676D02*
X10229552Y-11125152D01*
X10220029Y-11106105D01*
X10220029Y-10934676D01*
X10477171Y-11134676D02*
X10477171Y-10934676D01*
X10543838Y-11077533D01*
X10610505Y-10934676D01*
X10610505Y-11134676D01*
X10791457Y-11134676D02*
X10791457Y-11029914D01*
X10781933Y-11010867D01*
X10762886Y-11001343D01*
X10724790Y-11001343D01*
X10705743Y-11010867D01*
X10791457Y-11125152D02*
X10772410Y-11134676D01*
X10724790Y-11134676D01*
X10705743Y-11125152D01*
X10696219Y-11106105D01*
X10696219Y-11087057D01*
X10705743Y-11068010D01*
X10724790Y-11058486D01*
X10772410Y-11058486D01*
X10791457Y-11048962D01*
X10886695Y-11001343D02*
X10886695Y-11201343D01*
X10886695Y-11010867D02*
X10905743Y-11001343D01*
X10943838Y-11001343D01*
X10962886Y-11010867D01*
X10972410Y-11020390D01*
X10981933Y-11039438D01*
X10981933Y-11096581D01*
X10972410Y-11115629D01*
X10962886Y-11125152D01*
X10943838Y-11134676D01*
X10905743Y-11134676D01*
X10886695Y-11125152D01*
X11067648Y-11115629D02*
X11077171Y-11125152D01*
X11067648Y-11134676D01*
X11058124Y-11125152D01*
X11067648Y-11115629D01*
X11067648Y-11134676D01*
X11067648Y-11010867D02*
X11077171Y-11020390D01*
X11067648Y-11029914D01*
X11058124Y-11020390D01*
X11067648Y-11010867D01*
X11067648Y-11029914D01*
D12*
X9362400Y-11426100D02*
X9438600Y-11502300D01*
X9438600Y-11426100D02*
X9362400Y-11502300D01*
D11*
X9734314Y-11354676D02*
X9753362Y-11354676D01*
X9772410Y-11364200D01*
X9781933Y-11373724D01*
X9791457Y-11392771D01*
X9800981Y-11430867D01*
X9800981Y-11478486D01*
X9791457Y-11516581D01*
X9781933Y-11535628D01*
X9772410Y-11545152D01*
X9753362Y-11554676D01*
X9734314Y-11554676D01*
X9715267Y-11545152D01*
X9705743Y-11535628D01*
X9696219Y-11516581D01*
X9686695Y-11478486D01*
X9686695Y-11430867D01*
X9696219Y-11392771D01*
X9705743Y-11373724D01*
X9715267Y-11364200D01*
X9734314Y-11354676D01*
X9886695Y-11535628D02*
X9896219Y-11545152D01*
X9886695Y-11554676D01*
X9877171Y-11545152D01*
X9886695Y-11535628D01*
X9886695Y-11554676D01*
X9962886Y-11354676D02*
X10096219Y-11354676D01*
X10010505Y-11554676D01*
X10258124Y-11354676D02*
X10220029Y-11354676D01*
X10200981Y-11364200D01*
X10191457Y-11373724D01*
X10172410Y-11402295D01*
X10162886Y-11440390D01*
X10162886Y-11516581D01*
X10172410Y-11535628D01*
X10181933Y-11545152D01*
X10200981Y-11554676D01*
X10239076Y-11554676D01*
X10258124Y-11545152D01*
X10267648Y-11535628D01*
X10277171Y-11516581D01*
X10277171Y-11468962D01*
X10267648Y-11449914D01*
X10258124Y-11440390D01*
X10239076Y-11430867D01*
X10200981Y-11430867D01*
X10181933Y-11440390D01*
X10172410Y-11449914D01*
X10162886Y-11468962D01*
X10353362Y-11373724D02*
X10362886Y-11364200D01*
X10381933Y-11354676D01*
X10429552Y-11354676D01*
X10448600Y-11364200D01*
X10458124Y-11373724D01*
X10467648Y-11392771D01*
X10467648Y-11411819D01*
X10458124Y-11440390D01*
X10343838Y-11554676D01*
X10467648Y-11554676D01*
X10553362Y-11554676D02*
X10553362Y-11421343D01*
X10553362Y-11440390D02*
X10562886Y-11430867D01*
X10581933Y-11421343D01*
X10610505Y-11421343D01*
X10629552Y-11430867D01*
X10639076Y-11449914D01*
X10639076Y-11554676D01*
X10639076Y-11449914D02*
X10648600Y-11430867D01*
X10667648Y-11421343D01*
X10696219Y-11421343D01*
X10715267Y-11430867D01*
X10724790Y-11449914D01*
X10724790Y-11554676D01*
X10820029Y-11554676D02*
X10820029Y-11421343D01*
X10820029Y-11440390D02*
X10829552Y-11430867D01*
X10848600Y-11421343D01*
X10877171Y-11421343D01*
X10896219Y-11430867D01*
X10905743Y-11449914D01*
X10905743Y-11554676D01*
X10905743Y-11449914D02*
X10915267Y-11430867D01*
X10934314Y-11421343D01*
X10962886Y-11421343D01*
X10981933Y-11430867D01*
X10991457Y-11449914D01*
X10991457Y-11554676D01*
X11381933Y-11345152D02*
X11210505Y-11602295D01*
X11639076Y-11354676D02*
X11658124Y-11354676D01*
X11677171Y-11364200D01*
X11686695Y-11373724D01*
X11696219Y-11392771D01*
X11705743Y-11430867D01*
X11705743Y-11478486D01*
X11696219Y-11516581D01*
X11686695Y-11535628D01*
X11677171Y-11545152D01*
X11658124Y-11554676D01*
X11639076Y-11554676D01*
X11620028Y-11545152D01*
X11610505Y-11535628D01*
X11600981Y-11516581D01*
X11591457Y-11478486D01*
X11591457Y-11430867D01*
X11600981Y-11392771D01*
X11610505Y-11373724D01*
X11620028Y-11364200D01*
X11639076Y-11354676D01*
X11791457Y-11535628D02*
X11800981Y-11545152D01*
X11791457Y-11554676D01*
X11781933Y-11545152D01*
X11791457Y-11535628D01*
X11791457Y-11554676D01*
X11924790Y-11354676D02*
X11943838Y-11354676D01*
X11962886Y-11364200D01*
X11972409Y-11373724D01*
X11981933Y-11392771D01*
X11991457Y-11430867D01*
X11991457Y-11478486D01*
X11981933Y-11516581D01*
X11972409Y-11535628D01*
X11962886Y-11545152D01*
X11943838Y-11554676D01*
X11924790Y-11554676D01*
X11905743Y-11545152D01*
X11896219Y-11535628D01*
X11886695Y-11516581D01*
X11877171Y-11478486D01*
X11877171Y-11430867D01*
X11886695Y-11392771D01*
X11896219Y-11373724D01*
X11905743Y-11364200D01*
X11924790Y-11354676D01*
X12058124Y-11354676D02*
X12181933Y-11354676D01*
X12115267Y-11430867D01*
X12143838Y-11430867D01*
X12162886Y-11440390D01*
X12172409Y-11449914D01*
X12181933Y-11468962D01*
X12181933Y-11516581D01*
X12172409Y-11535628D01*
X12162886Y-11545152D01*
X12143838Y-11554676D01*
X12086695Y-11554676D01*
X12067648Y-11545152D01*
X12058124Y-11535628D01*
X12305743Y-11354676D02*
X12324790Y-11354676D01*
X12343838Y-11364200D01*
X12353362Y-11373724D01*
X12362886Y-11392771D01*
X12372409Y-11430867D01*
X12372409Y-11478486D01*
X12362886Y-11516581D01*
X12353362Y-11535628D01*
X12343838Y-11545152D01*
X12324790Y-11554676D01*
X12305743Y-11554676D01*
X12286695Y-11545152D01*
X12277171Y-11535628D01*
X12267648Y-11516581D01*
X12258124Y-11478486D01*
X12258124Y-11430867D01*
X12267648Y-11392771D01*
X12277171Y-11373724D01*
X12286695Y-11364200D01*
X12305743Y-11354676D01*
X12496219Y-11354676D02*
X12515267Y-11354676D01*
X12534314Y-11364200D01*
X12543838Y-11373724D01*
X12553362Y-11392771D01*
X12562886Y-11430867D01*
X12562886Y-11478486D01*
X12553362Y-11516581D01*
X12543838Y-11535628D01*
X12534314Y-11545152D01*
X12515267Y-11554676D01*
X12496219Y-11554676D01*
X12477171Y-11545152D01*
X12467648Y-11535628D01*
X12458124Y-11516581D01*
X12448600Y-11478486D01*
X12448600Y-11430867D01*
X12458124Y-11392771D01*
X12467648Y-11373724D01*
X12477171Y-11364200D01*
X12496219Y-11354676D01*
X12639076Y-11354676D02*
X12639076Y-11392771D01*
X12715267Y-11354676D02*
X12715267Y-11392771D01*
X13010505Y-11630867D02*
X13000981Y-11621343D01*
X12981933Y-11592771D01*
X12972409Y-11573724D01*
X12962886Y-11545152D01*
X12953362Y-11497533D01*
X12953362Y-11459438D01*
X12962886Y-11411819D01*
X12972409Y-11383248D01*
X12981933Y-11364200D01*
X13000981Y-11335628D01*
X13010505Y-11326105D01*
X13181933Y-11354676D02*
X13086695Y-11354676D01*
X13077171Y-11449914D01*
X13086695Y-11440390D01*
X13105743Y-11430867D01*
X13153362Y-11430867D01*
X13172409Y-11440390D01*
X13181933Y-11449914D01*
X13191457Y-11468962D01*
X13191457Y-11516581D01*
X13181933Y-11535628D01*
X13172409Y-11545152D01*
X13153362Y-11554676D01*
X13105743Y-11554676D01*
X13086695Y-11545152D01*
X13077171Y-11535628D01*
X13258124Y-11354676D02*
X13381933Y-11354676D01*
X13315267Y-11430867D01*
X13343838Y-11430867D01*
X13362886Y-11440390D01*
X13372409Y-11449914D01*
X13381933Y-11468962D01*
X13381933Y-11516581D01*
X13372409Y-11535628D01*
X13362886Y-11545152D01*
X13343838Y-11554676D01*
X13286695Y-11554676D01*
X13267648Y-11545152D01*
X13258124Y-11535628D01*
X13620028Y-11554676D02*
X13620028Y-11354676D01*
X13705743Y-11554676D02*
X13705743Y-11449914D01*
X13696219Y-11430867D01*
X13677171Y-11421343D01*
X13648600Y-11421343D01*
X13629552Y-11430867D01*
X13620028Y-11440390D01*
X13829552Y-11554676D02*
X13810505Y-11545152D01*
X13800981Y-11535628D01*
X13791457Y-11516581D01*
X13791457Y-11459438D01*
X13800981Y-11440390D01*
X13810505Y-11430867D01*
X13829552Y-11421343D01*
X13858124Y-11421343D01*
X13877171Y-11430867D01*
X13886695Y-11440390D01*
X13896219Y-11459438D01*
X13896219Y-11516581D01*
X13886695Y-11535628D01*
X13877171Y-11545152D01*
X13858124Y-11554676D01*
X13829552Y-11554676D01*
X14010505Y-11554676D02*
X13991457Y-11545152D01*
X13981933Y-11526105D01*
X13981933Y-11354676D01*
X14162886Y-11545152D02*
X14143838Y-11554676D01*
X14105743Y-11554676D01*
X14086695Y-11545152D01*
X14077171Y-11526105D01*
X14077171Y-11449914D01*
X14086695Y-11430867D01*
X14105743Y-11421343D01*
X14143838Y-11421343D01*
X14162886Y-11430867D01*
X14172409Y-11449914D01*
X14172409Y-11468962D01*
X14077171Y-11488009D01*
X14248600Y-11545152D02*
X14267648Y-11554676D01*
X14305743Y-11554676D01*
X14324790Y-11545152D01*
X14334314Y-11526105D01*
X14334314Y-11516581D01*
X14324790Y-11497533D01*
X14305743Y-11488009D01*
X14277171Y-11488009D01*
X14258124Y-11478486D01*
X14248600Y-11459438D01*
X14248600Y-11449914D01*
X14258124Y-11430867D01*
X14277171Y-11421343D01*
X14305743Y-11421343D01*
X14324790Y-11430867D01*
X14400981Y-11630867D02*
X14410505Y-11621343D01*
X14429552Y-11592771D01*
X14439076Y-11573724D01*
X14448600Y-11545152D01*
X14458124Y-11497533D01*
X14458124Y-11459438D01*
X14448600Y-11411819D01*
X14439076Y-11383248D01*
X14429552Y-11364200D01*
X14410505Y-11335628D01*
X14400981Y-11326105D01*
D13*
X9438600Y-11728200D02*
G75*
G03*
X9438600Y-11728200I-40000J0D01*
G01*
D11*
X9734314Y-11618676D02*
X9753362Y-11618676D01*
X9772410Y-11628200D01*
X9781933Y-11637724D01*
X9791457Y-11656771D01*
X9800981Y-11694867D01*
X9800981Y-11742486D01*
X9791457Y-11780581D01*
X9781933Y-11799628D01*
X9772410Y-11809152D01*
X9753362Y-11818676D01*
X9734314Y-11818676D01*
X9715267Y-11809152D01*
X9705743Y-11799628D01*
X9696219Y-11780581D01*
X9686695Y-11742486D01*
X9686695Y-11694867D01*
X9696219Y-11656771D01*
X9705743Y-11637724D01*
X9715267Y-11628200D01*
X9734314Y-11618676D01*
X9886695Y-11799628D02*
X9896219Y-11809152D01*
X9886695Y-11818676D01*
X9877171Y-11809152D01*
X9886695Y-11799628D01*
X9886695Y-11818676D01*
X10010505Y-11704390D02*
X9991457Y-11694867D01*
X9981933Y-11685343D01*
X9972410Y-11666295D01*
X9972410Y-11656771D01*
X9981933Y-11637724D01*
X9991457Y-11628200D01*
X10010505Y-11618676D01*
X10048600Y-11618676D01*
X10067648Y-11628200D01*
X10077171Y-11637724D01*
X10086695Y-11656771D01*
X10086695Y-11666295D01*
X10077171Y-11685343D01*
X10067648Y-11694867D01*
X10048600Y-11704390D01*
X10010505Y-11704390D01*
X9991457Y-11713914D01*
X9981933Y-11723438D01*
X9972410Y-11742486D01*
X9972410Y-11780581D01*
X9981933Y-11799628D01*
X9991457Y-11809152D01*
X10010505Y-11818676D01*
X10048600Y-11818676D01*
X10067648Y-11809152D01*
X10077171Y-11799628D01*
X10086695Y-11780581D01*
X10086695Y-11742486D01*
X10077171Y-11723438D01*
X10067648Y-11713914D01*
X10048600Y-11704390D01*
X10210505Y-11618676D02*
X10229552Y-11618676D01*
X10248600Y-11628200D01*
X10258124Y-11637724D01*
X10267648Y-11656771D01*
X10277171Y-11694867D01*
X10277171Y-11742486D01*
X10267648Y-11780581D01*
X10258124Y-11799628D01*
X10248600Y-11809152D01*
X10229552Y-11818676D01*
X10210505Y-11818676D01*
X10191457Y-11809152D01*
X10181933Y-11799628D01*
X10172410Y-11780581D01*
X10162886Y-11742486D01*
X10162886Y-11694867D01*
X10172410Y-11656771D01*
X10181933Y-11637724D01*
X10191457Y-11628200D01*
X10210505Y-11618676D01*
X10400981Y-11618676D02*
X10420029Y-11618676D01*
X10439076Y-11628200D01*
X10448600Y-11637724D01*
X10458124Y-11656771D01*
X10467648Y-11694867D01*
X10467648Y-11742486D01*
X10458124Y-11780581D01*
X10448600Y-11799628D01*
X10439076Y-11809152D01*
X10420029Y-11818676D01*
X10400981Y-11818676D01*
X10381933Y-11809152D01*
X10372410Y-11799628D01*
X10362886Y-11780581D01*
X10353362Y-11742486D01*
X10353362Y-11694867D01*
X10362886Y-11656771D01*
X10372410Y-11637724D01*
X10381933Y-11628200D01*
X10400981Y-11618676D01*
X10553362Y-11818676D02*
X10553362Y-11685343D01*
X10553362Y-11704390D02*
X10562886Y-11694867D01*
X10581933Y-11685343D01*
X10610505Y-11685343D01*
X10629552Y-11694867D01*
X10639076Y-11713914D01*
X10639076Y-11818676D01*
X10639076Y-11713914D02*
X10648600Y-11694867D01*
X10667648Y-11685343D01*
X10696219Y-11685343D01*
X10715267Y-11694867D01*
X10724790Y-11713914D01*
X10724790Y-11818676D01*
X10820029Y-11818676D02*
X10820029Y-11685343D01*
X10820029Y-11704390D02*
X10829552Y-11694867D01*
X10848600Y-11685343D01*
X10877171Y-11685343D01*
X10896219Y-11694867D01*
X10905743Y-11713914D01*
X10905743Y-11818676D01*
X10905743Y-11713914D02*
X10915267Y-11694867D01*
X10934314Y-11685343D01*
X10962886Y-11685343D01*
X10981933Y-11694867D01*
X10991457Y-11713914D01*
X10991457Y-11818676D01*
X11381933Y-11609152D02*
X11210505Y-11866295D01*
X11639076Y-11618676D02*
X11658124Y-11618676D01*
X11677171Y-11628200D01*
X11686695Y-11637724D01*
X11696219Y-11656771D01*
X11705743Y-11694867D01*
X11705743Y-11742486D01*
X11696219Y-11780581D01*
X11686695Y-11799628D01*
X11677171Y-11809152D01*
X11658124Y-11818676D01*
X11639076Y-11818676D01*
X11620028Y-11809152D01*
X11610505Y-11799628D01*
X11600981Y-11780581D01*
X11591457Y-11742486D01*
X11591457Y-11694867D01*
X11600981Y-11656771D01*
X11610505Y-11637724D01*
X11620028Y-11628200D01*
X11639076Y-11618676D01*
X11791457Y-11799628D02*
X11800981Y-11809152D01*
X11791457Y-11818676D01*
X11781933Y-11809152D01*
X11791457Y-11799628D01*
X11791457Y-11818676D01*
X11924790Y-11618676D02*
X11943838Y-11618676D01*
X11962886Y-11628200D01*
X11972409Y-11637724D01*
X11981933Y-11656771D01*
X11991457Y-11694867D01*
X11991457Y-11742486D01*
X11981933Y-11780581D01*
X11972409Y-11799628D01*
X11962886Y-11809152D01*
X11943838Y-11818676D01*
X11924790Y-11818676D01*
X11905743Y-11809152D01*
X11896219Y-11799628D01*
X11886695Y-11780581D01*
X11877171Y-11742486D01*
X11877171Y-11694867D01*
X11886695Y-11656771D01*
X11896219Y-11637724D01*
X11905743Y-11628200D01*
X11924790Y-11618676D01*
X12058124Y-11618676D02*
X12181933Y-11618676D01*
X12115267Y-11694867D01*
X12143838Y-11694867D01*
X12162886Y-11704390D01*
X12172409Y-11713914D01*
X12181933Y-11732962D01*
X12181933Y-11780581D01*
X12172409Y-11799628D01*
X12162886Y-11809152D01*
X12143838Y-11818676D01*
X12086695Y-11818676D01*
X12067648Y-11809152D01*
X12058124Y-11799628D01*
X12372409Y-11818676D02*
X12258124Y-11818676D01*
X12315267Y-11818676D02*
X12315267Y-11618676D01*
X12296219Y-11647248D01*
X12277171Y-11666295D01*
X12258124Y-11675819D01*
X12553362Y-11618676D02*
X12458124Y-11618676D01*
X12448600Y-11713914D01*
X12458124Y-11704390D01*
X12477171Y-11694867D01*
X12524790Y-11694867D01*
X12543838Y-11704390D01*
X12553362Y-11713914D01*
X12562886Y-11732962D01*
X12562886Y-11780581D01*
X12553362Y-11799628D01*
X12543838Y-11809152D01*
X12524790Y-11818676D01*
X12477171Y-11818676D01*
X12458124Y-11809152D01*
X12448600Y-11799628D01*
X12639076Y-11618676D02*
X12639076Y-11656771D01*
X12715267Y-11618676D02*
X12715267Y-11656771D01*
X13010505Y-11894867D02*
X13000981Y-11885343D01*
X12981933Y-11856771D01*
X12972409Y-11837724D01*
X12962886Y-11809152D01*
X12953362Y-11761533D01*
X12953362Y-11723438D01*
X12962886Y-11675819D01*
X12972409Y-11647248D01*
X12981933Y-11628200D01*
X13000981Y-11599628D01*
X13010505Y-11590105D01*
X13172409Y-11685343D02*
X13172409Y-11818676D01*
X13124790Y-11609152D02*
X13077171Y-11752009D01*
X13200981Y-11752009D01*
X13429552Y-11818676D02*
X13429552Y-11618676D01*
X13515267Y-11818676D02*
X13515267Y-11713914D01*
X13505743Y-11694867D01*
X13486695Y-11685343D01*
X13458124Y-11685343D01*
X13439076Y-11694867D01*
X13429552Y-11704390D01*
X13639076Y-11818676D02*
X13620028Y-11809152D01*
X13610505Y-11799628D01*
X13600981Y-11780581D01*
X13600981Y-11723438D01*
X13610505Y-11704390D01*
X13620028Y-11694867D01*
X13639076Y-11685343D01*
X13667648Y-11685343D01*
X13686695Y-11694867D01*
X13696219Y-11704390D01*
X13705743Y-11723438D01*
X13705743Y-11780581D01*
X13696219Y-11799628D01*
X13686695Y-11809152D01*
X13667648Y-11818676D01*
X13639076Y-11818676D01*
X13820028Y-11818676D02*
X13800981Y-11809152D01*
X13791457Y-11790105D01*
X13791457Y-11618676D01*
X13972409Y-11809152D02*
X13953362Y-11818676D01*
X13915267Y-11818676D01*
X13896219Y-11809152D01*
X13886695Y-11790105D01*
X13886695Y-11713914D01*
X13896219Y-11694867D01*
X13915267Y-11685343D01*
X13953362Y-11685343D01*
X13972409Y-11694867D01*
X13981933Y-11713914D01*
X13981933Y-11732962D01*
X13886695Y-11752009D01*
X14058124Y-11809152D02*
X14077171Y-11818676D01*
X14115267Y-11818676D01*
X14134314Y-11809152D01*
X14143838Y-11790105D01*
X14143838Y-11780581D01*
X14134314Y-11761533D01*
X14115267Y-11752009D01*
X14086695Y-11752009D01*
X14067648Y-11742486D01*
X14058124Y-11723438D01*
X14058124Y-11713914D01*
X14067648Y-11694867D01*
X14086695Y-11685343D01*
X14115267Y-11685343D01*
X14134314Y-11694867D01*
X14210505Y-11894867D02*
X14220028Y-11885343D01*
X14239076Y-11856771D01*
X14248600Y-11837724D01*
X14258124Y-11809152D01*
X14267648Y-11761533D01*
X14267648Y-11723438D01*
X14258124Y-11675819D01*
X14248600Y-11647248D01*
X14239076Y-11628200D01*
X14220028Y-11599628D01*
X14210505Y-11590105D01*
D10*
X9388600Y-11942200D02*
X9388600Y-12042200D01*
X9338600Y-11992200D02*
X9438600Y-11992200D01*
D11*
X9800981Y-12082676D02*
X9686695Y-12082676D01*
X9743838Y-12082676D02*
X9743838Y-11882676D01*
X9724790Y-11911248D01*
X9705743Y-11930295D01*
X9686695Y-11939819D01*
X9886695Y-12063628D02*
X9896219Y-12073152D01*
X9886695Y-12082676D01*
X9877171Y-12073152D01*
X9886695Y-12063628D01*
X9886695Y-12082676D01*
X10020029Y-11882676D02*
X10039076Y-11882676D01*
X10058124Y-11892200D01*
X10067648Y-11901724D01*
X10077171Y-11920771D01*
X10086695Y-11958867D01*
X10086695Y-12006486D01*
X10077171Y-12044581D01*
X10067648Y-12063628D01*
X10058124Y-12073152D01*
X10039076Y-12082676D01*
X10020029Y-12082676D01*
X10000981Y-12073152D01*
X9991457Y-12063628D01*
X9981933Y-12044581D01*
X9972410Y-12006486D01*
X9972410Y-11958867D01*
X9981933Y-11920771D01*
X9991457Y-11901724D01*
X10000981Y-11892200D01*
X10020029Y-11882676D01*
X10210505Y-11882676D02*
X10229552Y-11882676D01*
X10248600Y-11892200D01*
X10258124Y-11901724D01*
X10267648Y-11920771D01*
X10277171Y-11958867D01*
X10277171Y-12006486D01*
X10267648Y-12044581D01*
X10258124Y-12063628D01*
X10248600Y-12073152D01*
X10229552Y-12082676D01*
X10210505Y-12082676D01*
X10191457Y-12073152D01*
X10181933Y-12063628D01*
X10172410Y-12044581D01*
X10162886Y-12006486D01*
X10162886Y-11958867D01*
X10172410Y-11920771D01*
X10181933Y-11901724D01*
X10191457Y-11892200D01*
X10210505Y-11882676D01*
X10400981Y-11882676D02*
X10420029Y-11882676D01*
X10439076Y-11892200D01*
X10448600Y-11901724D01*
X10458124Y-11920771D01*
X10467648Y-11958867D01*
X10467648Y-12006486D01*
X10458124Y-12044581D01*
X10448600Y-12063628D01*
X10439076Y-12073152D01*
X10420029Y-12082676D01*
X10400981Y-12082676D01*
X10381933Y-12073152D01*
X10372410Y-12063628D01*
X10362886Y-12044581D01*
X10353362Y-12006486D01*
X10353362Y-11958867D01*
X10362886Y-11920771D01*
X10372410Y-11901724D01*
X10381933Y-11892200D01*
X10400981Y-11882676D01*
X10553362Y-12082676D02*
X10553362Y-11949343D01*
X10553362Y-11968390D02*
X10562886Y-11958867D01*
X10581933Y-11949343D01*
X10610505Y-11949343D01*
X10629552Y-11958867D01*
X10639076Y-11977914D01*
X10639076Y-12082676D01*
X10639076Y-11977914D02*
X10648600Y-11958867D01*
X10667648Y-11949343D01*
X10696219Y-11949343D01*
X10715267Y-11958867D01*
X10724790Y-11977914D01*
X10724790Y-12082676D01*
X10820029Y-12082676D02*
X10820029Y-11949343D01*
X10820029Y-11968390D02*
X10829552Y-11958867D01*
X10848600Y-11949343D01*
X10877171Y-11949343D01*
X10896219Y-11958867D01*
X10905743Y-11977914D01*
X10905743Y-12082676D01*
X10905743Y-11977914D02*
X10915267Y-11958867D01*
X10934314Y-11949343D01*
X10962886Y-11949343D01*
X10981933Y-11958867D01*
X10991457Y-11977914D01*
X10991457Y-12082676D01*
X11381933Y-11873152D02*
X11210505Y-12130295D01*
X11639076Y-11882676D02*
X11658124Y-11882676D01*
X11677171Y-11892200D01*
X11686695Y-11901724D01*
X11696219Y-11920771D01*
X11705743Y-11958867D01*
X11705743Y-12006486D01*
X11696219Y-12044581D01*
X11686695Y-12063628D01*
X11677171Y-12073152D01*
X11658124Y-12082676D01*
X11639076Y-12082676D01*
X11620028Y-12073152D01*
X11610505Y-12063628D01*
X11600981Y-12044581D01*
X11591457Y-12006486D01*
X11591457Y-11958867D01*
X11600981Y-11920771D01*
X11610505Y-11901724D01*
X11620028Y-11892200D01*
X11639076Y-11882676D01*
X11791457Y-12063628D02*
X11800981Y-12073152D01*
X11791457Y-12082676D01*
X11781933Y-12073152D01*
X11791457Y-12063628D01*
X11791457Y-12082676D01*
X11924790Y-11882676D02*
X11943838Y-11882676D01*
X11962886Y-11892200D01*
X11972409Y-11901724D01*
X11981933Y-11920771D01*
X11991457Y-11958867D01*
X11991457Y-12006486D01*
X11981933Y-12044581D01*
X11972409Y-12063628D01*
X11962886Y-12073152D01*
X11943838Y-12082676D01*
X11924790Y-12082676D01*
X11905743Y-12073152D01*
X11896219Y-12063628D01*
X11886695Y-12044581D01*
X11877171Y-12006486D01*
X11877171Y-11958867D01*
X11886695Y-11920771D01*
X11896219Y-11901724D01*
X11905743Y-11892200D01*
X11924790Y-11882676D01*
X12058124Y-11882676D02*
X12181933Y-11882676D01*
X12115267Y-11958867D01*
X12143838Y-11958867D01*
X12162886Y-11968390D01*
X12172409Y-11977914D01*
X12181933Y-11996962D01*
X12181933Y-12044581D01*
X12172409Y-12063628D01*
X12162886Y-12073152D01*
X12143838Y-12082676D01*
X12086695Y-12082676D01*
X12067648Y-12073152D01*
X12058124Y-12063628D01*
X12277171Y-12082676D02*
X12315267Y-12082676D01*
X12334314Y-12073152D01*
X12343838Y-12063628D01*
X12362886Y-12035057D01*
X12372409Y-11996962D01*
X12372409Y-11920771D01*
X12362886Y-11901724D01*
X12353362Y-11892200D01*
X12334314Y-11882676D01*
X12296219Y-11882676D01*
X12277171Y-11892200D01*
X12267648Y-11901724D01*
X12258124Y-11920771D01*
X12258124Y-11968390D01*
X12267648Y-11987438D01*
X12277171Y-11996962D01*
X12296219Y-12006486D01*
X12334314Y-12006486D01*
X12353362Y-11996962D01*
X12362886Y-11987438D01*
X12372409Y-11968390D01*
X12543838Y-11949343D02*
X12543838Y-12082676D01*
X12496219Y-11873152D02*
X12448600Y-12016009D01*
X12572409Y-12016009D01*
X12639076Y-11882676D02*
X12639076Y-11920771D01*
X12715267Y-11882676D02*
X12715267Y-11920771D01*
X13010505Y-12158867D02*
X13000981Y-12149343D01*
X12981933Y-12120771D01*
X12972409Y-12101724D01*
X12962886Y-12073152D01*
X12953362Y-12025533D01*
X12953362Y-11987438D01*
X12962886Y-11939819D01*
X12972409Y-11911248D01*
X12981933Y-11892200D01*
X13000981Y-11863628D01*
X13010505Y-11854105D01*
X13115267Y-11968390D02*
X13096219Y-11958867D01*
X13086695Y-11949343D01*
X13077171Y-11930295D01*
X13077171Y-11920771D01*
X13086695Y-11901724D01*
X13096219Y-11892200D01*
X13115267Y-11882676D01*
X13153362Y-11882676D01*
X13172409Y-11892200D01*
X13181933Y-11901724D01*
X13191457Y-11920771D01*
X13191457Y-11930295D01*
X13181933Y-11949343D01*
X13172409Y-11958867D01*
X13153362Y-11968390D01*
X13115267Y-11968390D01*
X13096219Y-11977914D01*
X13086695Y-11987438D01*
X13077171Y-12006486D01*
X13077171Y-12044581D01*
X13086695Y-12063628D01*
X13096219Y-12073152D01*
X13115267Y-12082676D01*
X13153362Y-12082676D01*
X13172409Y-12073152D01*
X13181933Y-12063628D01*
X13191457Y-12044581D01*
X13191457Y-12006486D01*
X13181933Y-11987438D01*
X13172409Y-11977914D01*
X13153362Y-11968390D01*
X13429552Y-12082676D02*
X13429552Y-11882676D01*
X13515267Y-12082676D02*
X13515267Y-11977914D01*
X13505743Y-11958867D01*
X13486695Y-11949343D01*
X13458124Y-11949343D01*
X13439076Y-11958867D01*
X13429552Y-11968390D01*
X13639076Y-12082676D02*
X13620028Y-12073152D01*
X13610505Y-12063628D01*
X13600981Y-12044581D01*
X13600981Y-11987438D01*
X13610505Y-11968390D01*
X13620028Y-11958867D01*
X13639076Y-11949343D01*
X13667648Y-11949343D01*
X13686695Y-11958867D01*
X13696219Y-11968390D01*
X13705743Y-11987438D01*
X13705743Y-12044581D01*
X13696219Y-12063628D01*
X13686695Y-12073152D01*
X13667648Y-12082676D01*
X13639076Y-12082676D01*
X13820028Y-12082676D02*
X13800981Y-12073152D01*
X13791457Y-12054105D01*
X13791457Y-11882676D01*
X13972409Y-12073152D02*
X13953362Y-12082676D01*
X13915267Y-12082676D01*
X13896219Y-12073152D01*
X13886695Y-12054105D01*
X13886695Y-11977914D01*
X13896219Y-11958867D01*
X13915267Y-11949343D01*
X13953362Y-11949343D01*
X13972409Y-11958867D01*
X13981933Y-11977914D01*
X13981933Y-11996962D01*
X13886695Y-12016009D01*
X14058124Y-12073152D02*
X14077171Y-12082676D01*
X14115267Y-12082676D01*
X14134314Y-12073152D01*
X14143838Y-12054105D01*
X14143838Y-12044581D01*
X14134314Y-12025533D01*
X14115267Y-12016009D01*
X14086695Y-12016009D01*
X14067648Y-12006486D01*
X14058124Y-11987438D01*
X14058124Y-11977914D01*
X14067648Y-11958867D01*
X14086695Y-11949343D01*
X14115267Y-11949343D01*
X14134314Y-11958867D01*
X14210505Y-12158867D02*
X14220028Y-12149343D01*
X14239076Y-12120771D01*
X14248600Y-12101724D01*
X14258124Y-12073152D01*
X14267648Y-12025533D01*
X14267648Y-11987438D01*
X14258124Y-11939819D01*
X14248600Y-11911248D01*
X14239076Y-11892200D01*
X14220028Y-11863628D01*
X14210505Y-11854105D01*
M02*
