%TF.GenerationSoftware,KiCad,Pcbnew,6.0.11-2627ca5db0~126~ubuntu20.04.1*%
%TF.CreationDate,2023-02-06T13:11:45-05:00*%
%TF.ProjectId,PowerSwitches,506f7765-7253-4776-9974-636865732e6b,rev?*%
%TF.SameCoordinates,Original*%
%TF.FileFunction,Copper,L1,Top*%
%TF.FilePolarity,Positive*%
%FSLAX46Y46*%
G04 Gerber Fmt 4.6, Leading zero omitted, Abs format (unit mm)*
G04 Created by KiCad (PCBNEW 6.0.11-2627ca5db0~126~ubuntu20.04.1) date 2023-02-06 13:11:45*
%MOMM*%
%LPD*%
G01*
G04 APERTURE LIST*
G04 Aperture macros list*
%AMRoundRect*
0 Rectangle with rounded corners*
0 $1 Rounding radius*
0 $2 $3 $4 $5 $6 $7 $8 $9 X,Y pos of 4 corners*
0 Add a 4 corners polygon primitive as box body*
4,1,4,$2,$3,$4,$5,$6,$7,$8,$9,$2,$3,0*
0 Add four circle primitives for the rounded corners*
1,1,$1+$1,$2,$3*
1,1,$1+$1,$4,$5*
1,1,$1+$1,$6,$7*
1,1,$1+$1,$8,$9*
0 Add four rect primitives between the rounded corners*
20,1,$1+$1,$2,$3,$4,$5,0*
20,1,$1+$1,$4,$5,$6,$7,0*
20,1,$1+$1,$6,$7,$8,$9,0*
20,1,$1+$1,$8,$9,$2,$3,0*%
G04 Aperture macros list end*
%TA.AperFunction,ComponentPad*%
%ADD10C,1.524000*%
%TD*%
%TA.AperFunction,ComponentPad*%
%ADD11RoundRect,0.250000X-0.600000X-0.750000X0.600000X-0.750000X0.600000X0.750000X-0.600000X0.750000X0*%
%TD*%
%TA.AperFunction,ComponentPad*%
%ADD12O,1.700000X2.000000*%
%TD*%
%TA.AperFunction,ComponentPad*%
%ADD13C,1.600000*%
%TD*%
%TA.AperFunction,ComponentPad*%
%ADD14O,1.600000X1.600000*%
%TD*%
%TA.AperFunction,Conductor*%
%ADD15C,0.250000*%
%TD*%
G04 APERTURE END LIST*
D10*
X124460000Y-100838000D03*
X124460000Y-98298000D03*
X124460000Y-95758000D03*
X124460000Y-93218000D03*
X124460000Y-90678000D03*
X124460000Y-88138000D03*
X124460000Y-85598000D03*
X124460000Y-83058000D03*
X106680000Y-83058000D03*
X106680000Y-85598000D03*
X106680000Y-88138000D03*
X106680000Y-90678000D03*
X106680000Y-93218000D03*
X106680000Y-95758000D03*
X106680000Y-98298000D03*
X106680000Y-100838000D03*
D11*
X145034000Y-50038000D03*
D12*
X147534000Y-50038000D03*
D13*
X142748000Y-91948000D03*
D14*
X142748000Y-84328000D03*
D11*
X122956000Y-70849000D03*
D12*
X125456000Y-70849000D03*
D10*
X140970000Y-60960000D03*
X140970000Y-63500000D03*
X140970000Y-66040000D03*
X140970000Y-68580000D03*
X140970000Y-71120000D03*
X140970000Y-73660000D03*
X140970000Y-76200000D03*
X153670000Y-73660000D03*
X153670000Y-71120000D03*
X153670000Y-68580000D03*
X153670000Y-66040000D03*
X153670000Y-63500000D03*
X153670000Y-60960000D03*
D11*
X145054000Y-97519000D03*
D12*
X147554000Y-97519000D03*
D10*
X170942000Y-60198000D03*
X163322000Y-60198000D03*
X170942000Y-55118000D03*
X163322000Y-55118000D03*
D13*
X149860000Y-91948000D03*
D14*
X149860000Y-84328000D03*
D10*
X128270000Y-60198000D03*
X120650000Y-60198000D03*
X128270000Y-55118000D03*
X120650000Y-55118000D03*
X186690000Y-101092000D03*
X186690000Y-98552000D03*
X186690000Y-96012000D03*
X186690000Y-93472000D03*
X186690000Y-90932000D03*
X186690000Y-88392000D03*
X186690000Y-85852000D03*
X186690000Y-83312000D03*
X168910000Y-83312000D03*
X168910000Y-85852000D03*
X168910000Y-88392000D03*
X168910000Y-90932000D03*
X168910000Y-93472000D03*
X168910000Y-96012000D03*
X168910000Y-98552000D03*
X168910000Y-101092000D03*
D11*
X165882000Y-70849000D03*
D12*
X168382000Y-70849000D03*
D15*
X149860000Y-91948000D02*
X142748000Y-91948000D01*
X147554000Y-97519000D02*
X147554000Y-94254000D01*
X147554000Y-94254000D02*
X149860000Y-91948000D01*
X165882000Y-70849000D02*
X163322000Y-68289000D01*
X153670000Y-71120000D02*
X165611000Y-71120000D01*
X163322000Y-68289000D02*
X163322000Y-60198000D01*
X168382000Y-62758000D02*
X170942000Y-60198000D01*
X153670000Y-73660000D02*
X168148000Y-73660000D01*
X168382000Y-73426000D02*
X168382000Y-70849000D01*
X168382000Y-70849000D02*
X168382000Y-62758000D01*
X168148000Y-73660000D02*
X168382000Y-73426000D01*
X145034000Y-56388000D02*
X145034000Y-50038000D01*
X149606000Y-60960000D02*
X145034000Y-56388000D01*
X153670000Y-60960000D02*
X149606000Y-60960000D01*
X153670000Y-66040000D02*
X156464000Y-63246000D01*
X156464000Y-63246000D02*
X156464000Y-58968000D01*
X156464000Y-58968000D02*
X147534000Y-50038000D01*
X135128000Y-85598000D02*
X124460000Y-85598000D01*
X170434000Y-81026000D02*
X175260000Y-85852000D01*
X153670000Y-63500000D02*
X149860000Y-67310000D01*
X149860000Y-67310000D02*
X149860000Y-84328000D01*
X136398000Y-84328000D02*
X135128000Y-85598000D01*
X175260000Y-85852000D02*
X186690000Y-85852000D01*
X149860000Y-84328000D02*
X153162000Y-81026000D01*
X153162000Y-81026000D02*
X170434000Y-81026000D01*
X142748000Y-84328000D02*
X136398000Y-84328000D01*
X149860000Y-84328000D02*
X142748000Y-84328000D01*
X120650000Y-68543000D02*
X120650000Y-60198000D01*
X122956000Y-70849000D02*
X120650000Y-68543000D01*
X125456000Y-70849000D02*
X125456000Y-63012000D01*
X125456000Y-63012000D02*
X128270000Y-60198000D01*
%TA.AperFunction,Conductor*%
G36*
X191595014Y-44736502D02*
G01*
X191641507Y-44790158D01*
X191651611Y-44860432D01*
X191623908Y-44922900D01*
X191365835Y-45234304D01*
X191364192Y-45236708D01*
X191127180Y-45583503D01*
X191127174Y-45583513D01*
X191125537Y-45585908D01*
X191124131Y-45588439D01*
X191124125Y-45588449D01*
X190920161Y-45955653D01*
X190920157Y-45955662D01*
X190918744Y-45958205D01*
X190917571Y-45960872D01*
X190917566Y-45960881D01*
X190766145Y-46305012D01*
X190747225Y-46348012D01*
X190612445Y-46751996D01*
X190611781Y-46754839D01*
X190519251Y-47150901D01*
X190515559Y-47166703D01*
X190457393Y-47588586D01*
X190438445Y-48014038D01*
X190438585Y-48016953D01*
X190456813Y-48396422D01*
X190458878Y-48439422D01*
X190459286Y-48442306D01*
X190459286Y-48442307D01*
X190512835Y-48820928D01*
X190518516Y-48861099D01*
X190519187Y-48863926D01*
X190519188Y-48863932D01*
X190554591Y-49013114D01*
X190616850Y-49275465D01*
X190617781Y-49278223D01*
X190617784Y-49278234D01*
X190669094Y-49430259D01*
X190753038Y-49678976D01*
X190754222Y-49681641D01*
X190900427Y-50010795D01*
X190925917Y-50068182D01*
X190927340Y-50070723D01*
X190927342Y-50070727D01*
X191132586Y-50437217D01*
X191134008Y-50439756D01*
X191375532Y-50790519D01*
X191377395Y-50792751D01*
X191377401Y-50792759D01*
X191418208Y-50841650D01*
X191648424Y-51117473D01*
X191650492Y-51119530D01*
X191914475Y-51382134D01*
X191950349Y-51417821D01*
X191952591Y-51419672D01*
X191952596Y-51419677D01*
X192276486Y-51687147D01*
X192276494Y-51687153D01*
X192278727Y-51688997D01*
X192281136Y-51690637D01*
X192281137Y-51690638D01*
X192628332Y-51927035D01*
X192628337Y-51927038D01*
X192630750Y-51928681D01*
X192633298Y-51930091D01*
X192633307Y-51930096D01*
X192900375Y-52077829D01*
X193003408Y-52134824D01*
X193006074Y-52135992D01*
X193006075Y-52135992D01*
X193297426Y-52263583D01*
X193393514Y-52305663D01*
X193797733Y-52439737D01*
X193800559Y-52440392D01*
X193800566Y-52440394D01*
X194209763Y-52535240D01*
X194209772Y-52535242D01*
X194212608Y-52535899D01*
X194634592Y-52593329D01*
X194637442Y-52593456D01*
X194637443Y-52593456D01*
X194928914Y-52606437D01*
X194928931Y-52606437D01*
X194930337Y-52606500D01*
X195153369Y-52606500D01*
X195154809Y-52606433D01*
X195154824Y-52606433D01*
X195293718Y-52600004D01*
X195469418Y-52591872D01*
X195891199Y-52532970D01*
X195894021Y-52532305D01*
X195894029Y-52532304D01*
X196302896Y-52436028D01*
X196302901Y-52436026D01*
X196305736Y-52435359D01*
X196692236Y-52305663D01*
X196706728Y-52300800D01*
X196706731Y-52300799D01*
X196709484Y-52299875D01*
X196712142Y-52298700D01*
X197096344Y-52128847D01*
X197096350Y-52128844D01*
X197098992Y-52127676D01*
X197470928Y-51920233D01*
X197617805Y-51819476D01*
X197819706Y-51680973D01*
X197819713Y-51680968D01*
X197822112Y-51679322D01*
X198058862Y-51482419D01*
X198147300Y-51408866D01*
X198147302Y-51408864D01*
X198149541Y-51407002D01*
X198151602Y-51404937D01*
X198151609Y-51404931D01*
X198158329Y-51398200D01*
X198220612Y-51364121D01*
X198291432Y-51369126D01*
X198348304Y-51411624D01*
X198373171Y-51478123D01*
X198373500Y-51487219D01*
X198373500Y-100525728D01*
X198353498Y-100593849D01*
X198299842Y-100640342D01*
X198229568Y-100650446D01*
X198164988Y-100620952D01*
X198158639Y-100615057D01*
X198152799Y-100609248D01*
X198137651Y-100594179D01*
X198135409Y-100592328D01*
X198135404Y-100592323D01*
X197811514Y-100324853D01*
X197811506Y-100324847D01*
X197809273Y-100323003D01*
X197728963Y-100268322D01*
X197459668Y-100084965D01*
X197459663Y-100084962D01*
X197457250Y-100083319D01*
X197454702Y-100081909D01*
X197454693Y-100081904D01*
X197109508Y-99890959D01*
X197084592Y-99877176D01*
X196990618Y-99836022D01*
X196697158Y-99707507D01*
X196697155Y-99707506D01*
X196694486Y-99706337D01*
X196290267Y-99572263D01*
X196287441Y-99571608D01*
X196287434Y-99571606D01*
X195878237Y-99476760D01*
X195878228Y-99476758D01*
X195875392Y-99476101D01*
X195453408Y-99418671D01*
X195450558Y-99418544D01*
X195450557Y-99418544D01*
X195159086Y-99405563D01*
X195159069Y-99405563D01*
X195157663Y-99405500D01*
X194934631Y-99405500D01*
X194933191Y-99405567D01*
X194933176Y-99405567D01*
X194794282Y-99411996D01*
X194618582Y-99420128D01*
X194196801Y-99479030D01*
X194193979Y-99479695D01*
X194193971Y-99479696D01*
X193785104Y-99575972D01*
X193785099Y-99575974D01*
X193782264Y-99576641D01*
X193607523Y-99635278D01*
X193381272Y-99711200D01*
X193381269Y-99711201D01*
X193378516Y-99712125D01*
X193375860Y-99713299D01*
X193375858Y-99713300D01*
X192991656Y-99883153D01*
X192991650Y-99883156D01*
X192989008Y-99884324D01*
X192617072Y-100091767D01*
X192470195Y-100192524D01*
X192268294Y-100331027D01*
X192268287Y-100331032D01*
X192265888Y-100332678D01*
X192151069Y-100428172D01*
X191944500Y-100599974D01*
X191938459Y-100604998D01*
X191882441Y-100661114D01*
X191651488Y-100892470D01*
X191637583Y-100906399D01*
X191365835Y-101234304D01*
X191364192Y-101236708D01*
X191127180Y-101583503D01*
X191127174Y-101583513D01*
X191125537Y-101585908D01*
X191124131Y-101588439D01*
X191124125Y-101588449D01*
X190920161Y-101955653D01*
X190920157Y-101955662D01*
X190918744Y-101958205D01*
X190917571Y-101960872D01*
X190917566Y-101960881D01*
X190752607Y-102335780D01*
X190747225Y-102348012D01*
X190612445Y-102751996D01*
X190611781Y-102754839D01*
X190519251Y-103150901D01*
X190515559Y-103166703D01*
X190457393Y-103588586D01*
X190438445Y-104014038D01*
X190438585Y-104016953D01*
X190458248Y-104426298D01*
X190458878Y-104439422D01*
X190518516Y-104861099D01*
X190616850Y-105275465D01*
X190617781Y-105278223D01*
X190617784Y-105278234D01*
X190697676Y-105514944D01*
X190753038Y-105678976D01*
X190754222Y-105681641D01*
X190919527Y-106053795D01*
X190925917Y-106068182D01*
X191134008Y-106439756D01*
X191375532Y-106790519D01*
X191377395Y-106792751D01*
X191377401Y-106792759D01*
X191532881Y-106979040D01*
X191648424Y-107117473D01*
X191950349Y-107417821D01*
X191952591Y-107419672D01*
X191952596Y-107419677D01*
X192001843Y-107460345D01*
X192041632Y-107519144D01*
X192043316Y-107590121D01*
X192006360Y-107650741D01*
X191942497Y-107681757D01*
X191921612Y-107683500D01*
X101165634Y-107683500D01*
X101097513Y-107663498D01*
X101051020Y-107609842D01*
X101040916Y-107539568D01*
X101070410Y-107474988D01*
X101085065Y-107460626D01*
X101147300Y-107408866D01*
X101147302Y-107408864D01*
X101149541Y-107407002D01*
X101373500Y-107182652D01*
X101448363Y-107107659D01*
X101448367Y-107107654D01*
X101450417Y-107105601D01*
X101722165Y-106777696D01*
X101954860Y-106437217D01*
X101960820Y-106428497D01*
X101960826Y-106428487D01*
X101962463Y-106426092D01*
X101963869Y-106423561D01*
X101963875Y-106423551D01*
X102167839Y-106056347D01*
X102167843Y-106056338D01*
X102169256Y-106053795D01*
X102170429Y-106051128D01*
X102170434Y-106051119D01*
X102339601Y-105666657D01*
X102339604Y-105666650D01*
X102340775Y-105663988D01*
X102475555Y-105260004D01*
X102509677Y-105113949D01*
X102571776Y-104848145D01*
X102571777Y-104848137D01*
X102572441Y-104845297D01*
X102630607Y-104423414D01*
X102649555Y-103997962D01*
X102629891Y-103588586D01*
X102629262Y-103575483D01*
X102629261Y-103575473D01*
X102629122Y-103572578D01*
X102569484Y-103150901D01*
X102471150Y-102736535D01*
X102470219Y-102733777D01*
X102470216Y-102733766D01*
X102340171Y-102348457D01*
X102334962Y-102333024D01*
X102169662Y-101960881D01*
X102163271Y-101946492D01*
X102163269Y-101946488D01*
X102162083Y-101943818D01*
X102144142Y-101911781D01*
X101955414Y-101574783D01*
X101955413Y-101574781D01*
X101953992Y-101572244D01*
X101927093Y-101533178D01*
X101748766Y-101274196D01*
X101712468Y-101221481D01*
X101710605Y-101219249D01*
X101710599Y-101219241D01*
X101441446Y-100896768D01*
X101439576Y-100894527D01*
X101382752Y-100838000D01*
X105404647Y-100838000D01*
X105424022Y-101059463D01*
X105481560Y-101274196D01*
X105483882Y-101279177D01*
X105483883Y-101279178D01*
X105573186Y-101470689D01*
X105573189Y-101470694D01*
X105575512Y-101475676D01*
X105578668Y-101480183D01*
X105578669Y-101480185D01*
X105608569Y-101522886D01*
X105703023Y-101657781D01*
X105860219Y-101814977D01*
X105864727Y-101818134D01*
X105864730Y-101818136D01*
X105940495Y-101871187D01*
X106042323Y-101942488D01*
X106047305Y-101944811D01*
X106047310Y-101944814D01*
X106238822Y-102034117D01*
X106243804Y-102036440D01*
X106249112Y-102037862D01*
X106249114Y-102037863D01*
X106314949Y-102055503D01*
X106458537Y-102093978D01*
X106680000Y-102113353D01*
X106901463Y-102093978D01*
X107045051Y-102055503D01*
X107110886Y-102037863D01*
X107110888Y-102037862D01*
X107116196Y-102036440D01*
X107121178Y-102034117D01*
X107312690Y-101944814D01*
X107312695Y-101944811D01*
X107317677Y-101942488D01*
X107419505Y-101871187D01*
X107495270Y-101818136D01*
X107495273Y-101818134D01*
X107499781Y-101814977D01*
X107656977Y-101657781D01*
X107751432Y-101522886D01*
X107781331Y-101480185D01*
X107781332Y-101480183D01*
X107784488Y-101475676D01*
X107786811Y-101470694D01*
X107786814Y-101470689D01*
X107876117Y-101279178D01*
X107876118Y-101279177D01*
X107878440Y-101274196D01*
X107935978Y-101059463D01*
X107955353Y-100838000D01*
X123184647Y-100838000D01*
X123204022Y-101059463D01*
X123261560Y-101274196D01*
X123263882Y-101279177D01*
X123263883Y-101279178D01*
X123353186Y-101470689D01*
X123353189Y-101470694D01*
X123355512Y-101475676D01*
X123358668Y-101480183D01*
X123358669Y-101480185D01*
X123388569Y-101522886D01*
X123483023Y-101657781D01*
X123640219Y-101814977D01*
X123644727Y-101818134D01*
X123644730Y-101818136D01*
X123720495Y-101871187D01*
X123822323Y-101942488D01*
X123827305Y-101944811D01*
X123827310Y-101944814D01*
X124018822Y-102034117D01*
X124023804Y-102036440D01*
X124029112Y-102037862D01*
X124029114Y-102037863D01*
X124094949Y-102055503D01*
X124238537Y-102093978D01*
X124460000Y-102113353D01*
X124681463Y-102093978D01*
X124825051Y-102055503D01*
X124890886Y-102037863D01*
X124890888Y-102037862D01*
X124896196Y-102036440D01*
X124901178Y-102034117D01*
X125092690Y-101944814D01*
X125092695Y-101944811D01*
X125097677Y-101942488D01*
X125199505Y-101871187D01*
X125275270Y-101818136D01*
X125275273Y-101818134D01*
X125279781Y-101814977D01*
X125436977Y-101657781D01*
X125531432Y-101522886D01*
X125561331Y-101480185D01*
X125561332Y-101480183D01*
X125564488Y-101475676D01*
X125566811Y-101470694D01*
X125566814Y-101470689D01*
X125656117Y-101279178D01*
X125656118Y-101279177D01*
X125658440Y-101274196D01*
X125707260Y-101092000D01*
X167634647Y-101092000D01*
X167654022Y-101313463D01*
X167711560Y-101528196D01*
X167713882Y-101533177D01*
X167713883Y-101533178D01*
X167803186Y-101724689D01*
X167803189Y-101724694D01*
X167805512Y-101729676D01*
X167808668Y-101734183D01*
X167808669Y-101734185D01*
X167862512Y-101811080D01*
X167933023Y-101911781D01*
X168090219Y-102068977D01*
X168094727Y-102072134D01*
X168094730Y-102072136D01*
X168123890Y-102092554D01*
X168272323Y-102196488D01*
X168277305Y-102198811D01*
X168277310Y-102198814D01*
X168468822Y-102288117D01*
X168473804Y-102290440D01*
X168479112Y-102291862D01*
X168479114Y-102291863D01*
X168544949Y-102309503D01*
X168688537Y-102347978D01*
X168910000Y-102367353D01*
X169131463Y-102347978D01*
X169275051Y-102309503D01*
X169340886Y-102291863D01*
X169340888Y-102291862D01*
X169346196Y-102290440D01*
X169351178Y-102288117D01*
X169542690Y-102198814D01*
X169542695Y-102198811D01*
X169547677Y-102196488D01*
X169696110Y-102092554D01*
X169725270Y-102072136D01*
X169725273Y-102072134D01*
X169729781Y-102068977D01*
X169886977Y-101911781D01*
X169957489Y-101811080D01*
X170011331Y-101734185D01*
X170011332Y-101734183D01*
X170014488Y-101729676D01*
X170016811Y-101724694D01*
X170016814Y-101724689D01*
X170106117Y-101533178D01*
X170106118Y-101533177D01*
X170108440Y-101528196D01*
X170165978Y-101313463D01*
X170185353Y-101092000D01*
X170165978Y-100870537D01*
X170108440Y-100655804D01*
X170101230Y-100640342D01*
X170016814Y-100459311D01*
X170016811Y-100459306D01*
X170014488Y-100454324D01*
X169996176Y-100428172D01*
X169890136Y-100276730D01*
X169890134Y-100276727D01*
X169886977Y-100272219D01*
X169729781Y-100115023D01*
X169725273Y-100111866D01*
X169725270Y-100111864D01*
X169591531Y-100018219D01*
X169547677Y-99987512D01*
X169542695Y-99985189D01*
X169542690Y-99985186D01*
X169437627Y-99936195D01*
X169384342Y-99889278D01*
X169364881Y-99821001D01*
X169385423Y-99753041D01*
X169437627Y-99707805D01*
X169542690Y-99658814D01*
X169542695Y-99658811D01*
X169547677Y-99656488D01*
X169666653Y-99573180D01*
X169725270Y-99532136D01*
X169725273Y-99532134D01*
X169729781Y-99528977D01*
X169886977Y-99371781D01*
X169957489Y-99271080D01*
X170011331Y-99194185D01*
X170011332Y-99194183D01*
X170014488Y-99189676D01*
X170016811Y-99184694D01*
X170016814Y-99184689D01*
X170106117Y-98993178D01*
X170106118Y-98993177D01*
X170108440Y-98988196D01*
X170115697Y-98961115D01*
X170140565Y-98868305D01*
X170165978Y-98773463D01*
X170185353Y-98552000D01*
X170165978Y-98330537D01*
X170108440Y-98115804D01*
X170106117Y-98110822D01*
X170016814Y-97919311D01*
X170016811Y-97919306D01*
X170014488Y-97914324D01*
X170011331Y-97909815D01*
X169890136Y-97736730D01*
X169890134Y-97736727D01*
X169886977Y-97732219D01*
X169729781Y-97575023D01*
X169725273Y-97571866D01*
X169725270Y-97571864D01*
X169591531Y-97478219D01*
X169547677Y-97447512D01*
X169542695Y-97445189D01*
X169542690Y-97445186D01*
X169437627Y-97396195D01*
X169384342Y-97349278D01*
X169364881Y-97281001D01*
X169385423Y-97213041D01*
X169437627Y-97167805D01*
X169542690Y-97118814D01*
X169542695Y-97118811D01*
X169547677Y-97116488D01*
X169694076Y-97013978D01*
X169725270Y-96992136D01*
X169725273Y-96992134D01*
X169729781Y-96988977D01*
X169886977Y-96831781D01*
X169957489Y-96731080D01*
X170011331Y-96654185D01*
X170011332Y-96654183D01*
X170014488Y-96649676D01*
X170016811Y-96644694D01*
X170016814Y-96644689D01*
X170106117Y-96453178D01*
X170106118Y-96453177D01*
X170108440Y-96448196D01*
X170165978Y-96233463D01*
X170185353Y-96012000D01*
X170165978Y-95790537D01*
X170108440Y-95575804D01*
X170106117Y-95570822D01*
X170016814Y-95379311D01*
X170016811Y-95379306D01*
X170014488Y-95374324D01*
X170011331Y-95369815D01*
X169890136Y-95196730D01*
X169890134Y-95196727D01*
X169886977Y-95192219D01*
X169729781Y-95035023D01*
X169725273Y-95031866D01*
X169725270Y-95031864D01*
X169591531Y-94938219D01*
X169547677Y-94907512D01*
X169542695Y-94905189D01*
X169542690Y-94905186D01*
X169437627Y-94856195D01*
X169384342Y-94809278D01*
X169364881Y-94741001D01*
X169385423Y-94673041D01*
X169437627Y-94627805D01*
X169542690Y-94578814D01*
X169542695Y-94578811D01*
X169547677Y-94576488D01*
X169694076Y-94473978D01*
X169725270Y-94452136D01*
X169725273Y-94452134D01*
X169729781Y-94448977D01*
X169886977Y-94291781D01*
X169957489Y-94191080D01*
X170011331Y-94114185D01*
X170011332Y-94114183D01*
X170014488Y-94109676D01*
X170016811Y-94104694D01*
X170016814Y-94104689D01*
X170106117Y-93913178D01*
X170106118Y-93913177D01*
X170108440Y-93908196D01*
X170165978Y-93693463D01*
X170185353Y-93472000D01*
X170165978Y-93250537D01*
X170108440Y-93035804D01*
X170101801Y-93021566D01*
X170016814Y-92839311D01*
X170016811Y-92839306D01*
X170014488Y-92834324D01*
X170011331Y-92829815D01*
X169890136Y-92656730D01*
X169890134Y-92656727D01*
X169886977Y-92652219D01*
X169729781Y-92495023D01*
X169725273Y-92491866D01*
X169725270Y-92491864D01*
X169597973Y-92402730D01*
X169547677Y-92367512D01*
X169542695Y-92365189D01*
X169542690Y-92365186D01*
X169437627Y-92316195D01*
X169384342Y-92269278D01*
X169364881Y-92201001D01*
X169385423Y-92133041D01*
X169437627Y-92087805D01*
X169542690Y-92038814D01*
X169542695Y-92038811D01*
X169547677Y-92036488D01*
X169660369Y-91957580D01*
X169725270Y-91912136D01*
X169725273Y-91912134D01*
X169729781Y-91908977D01*
X169886977Y-91751781D01*
X169905393Y-91725481D01*
X170011331Y-91574185D01*
X170011332Y-91574183D01*
X170014488Y-91569676D01*
X170016811Y-91564694D01*
X170016814Y-91564689D01*
X170106117Y-91373178D01*
X170106118Y-91373177D01*
X170108440Y-91368196D01*
X170165978Y-91153463D01*
X170185353Y-90932000D01*
X170165978Y-90710537D01*
X170108440Y-90495804D01*
X170106117Y-90490822D01*
X170016814Y-90299311D01*
X170016811Y-90299306D01*
X170014488Y-90294324D01*
X170011331Y-90289815D01*
X169890136Y-90116730D01*
X169890134Y-90116727D01*
X169886977Y-90112219D01*
X169729781Y-89955023D01*
X169725273Y-89951866D01*
X169725270Y-89951864D01*
X169591531Y-89858219D01*
X169547677Y-89827512D01*
X169542695Y-89825189D01*
X169542690Y-89825186D01*
X169437627Y-89776195D01*
X169384342Y-89729278D01*
X169364881Y-89661001D01*
X169385423Y-89593041D01*
X169437627Y-89547805D01*
X169542690Y-89498814D01*
X169542695Y-89498811D01*
X169547677Y-89496488D01*
X169694076Y-89393978D01*
X169725270Y-89372136D01*
X169725273Y-89372134D01*
X169729781Y-89368977D01*
X169886977Y-89211781D01*
X169957489Y-89111080D01*
X170011331Y-89034185D01*
X170011332Y-89034183D01*
X170014488Y-89029676D01*
X170016811Y-89024694D01*
X170016814Y-89024689D01*
X170106117Y-88833178D01*
X170106118Y-88833177D01*
X170108440Y-88828196D01*
X170165978Y-88613463D01*
X170185353Y-88392000D01*
X170165978Y-88170537D01*
X170108440Y-87955804D01*
X170106117Y-87950822D01*
X170016814Y-87759311D01*
X170016811Y-87759306D01*
X170014488Y-87754324D01*
X170011331Y-87749815D01*
X169890136Y-87576730D01*
X169890134Y-87576727D01*
X169886977Y-87572219D01*
X169729781Y-87415023D01*
X169725273Y-87411866D01*
X169725270Y-87411864D01*
X169591531Y-87318219D01*
X169547677Y-87287512D01*
X169542695Y-87285189D01*
X169542690Y-87285186D01*
X169437627Y-87236195D01*
X169384342Y-87189278D01*
X169364881Y-87121001D01*
X169385423Y-87053041D01*
X169437627Y-87007805D01*
X169542690Y-86958814D01*
X169542695Y-86958811D01*
X169547677Y-86956488D01*
X169694076Y-86853978D01*
X169725270Y-86832136D01*
X169725273Y-86832134D01*
X169729781Y-86828977D01*
X169886977Y-86671781D01*
X169957489Y-86571080D01*
X170011331Y-86494185D01*
X170011332Y-86494183D01*
X170014488Y-86489676D01*
X170016811Y-86484694D01*
X170016814Y-86484689D01*
X170106117Y-86293178D01*
X170106118Y-86293177D01*
X170108440Y-86288196D01*
X170123109Y-86233453D01*
X170141449Y-86165006D01*
X170165978Y-86073463D01*
X170185353Y-85852000D01*
X170165978Y-85630537D01*
X170108440Y-85415804D01*
X170106117Y-85410822D01*
X170016814Y-85219311D01*
X170016811Y-85219306D01*
X170014488Y-85214324D01*
X170011331Y-85209815D01*
X169890136Y-85036730D01*
X169890134Y-85036727D01*
X169886977Y-85032219D01*
X169729781Y-84875023D01*
X169725273Y-84871866D01*
X169725270Y-84871864D01*
X169590137Y-84777243D01*
X169547677Y-84747512D01*
X169542695Y-84745189D01*
X169542690Y-84745186D01*
X169437627Y-84696195D01*
X169384342Y-84649278D01*
X169364881Y-84581001D01*
X169385423Y-84513041D01*
X169437627Y-84467805D01*
X169542690Y-84418814D01*
X169542695Y-84418811D01*
X169547677Y-84416488D01*
X169654025Y-84342022D01*
X169725270Y-84292136D01*
X169725273Y-84292134D01*
X169729781Y-84288977D01*
X169886977Y-84131781D01*
X169905456Y-84105391D01*
X170011331Y-83954185D01*
X170011332Y-83954183D01*
X170014488Y-83949676D01*
X170016811Y-83944694D01*
X170016814Y-83944689D01*
X170106117Y-83753178D01*
X170106118Y-83753177D01*
X170108440Y-83748196D01*
X170113855Y-83727989D01*
X170164554Y-83538776D01*
X170165978Y-83533463D01*
X170185353Y-83312000D01*
X170165978Y-83090537D01*
X170108440Y-82875804D01*
X170106117Y-82870822D01*
X170016814Y-82679311D01*
X170016811Y-82679306D01*
X170014488Y-82674324D01*
X170011331Y-82669815D01*
X169890136Y-82496730D01*
X169890134Y-82496727D01*
X169886977Y-82492219D01*
X169729781Y-82335023D01*
X169725273Y-82331866D01*
X169725270Y-82331864D01*
X169591531Y-82238219D01*
X169547677Y-82207512D01*
X169542695Y-82205189D01*
X169542690Y-82205186D01*
X169351178Y-82115883D01*
X169351177Y-82115882D01*
X169346196Y-82113560D01*
X169340888Y-82112138D01*
X169340886Y-82112137D01*
X169224767Y-82081023D01*
X169131463Y-82056022D01*
X168910000Y-82036647D01*
X168688537Y-82056022D01*
X168595233Y-82081023D01*
X168479114Y-82112137D01*
X168479112Y-82112138D01*
X168473804Y-82113560D01*
X168468823Y-82115882D01*
X168468822Y-82115883D01*
X168277311Y-82205186D01*
X168277306Y-82205189D01*
X168272324Y-82207512D01*
X168267817Y-82210668D01*
X168267815Y-82210669D01*
X168094730Y-82331864D01*
X168094727Y-82331866D01*
X168090219Y-82335023D01*
X167933023Y-82492219D01*
X167929866Y-82496727D01*
X167929864Y-82496730D01*
X167808669Y-82669815D01*
X167805512Y-82674324D01*
X167803189Y-82679306D01*
X167803186Y-82679311D01*
X167713883Y-82870822D01*
X167711560Y-82875804D01*
X167654022Y-83090537D01*
X167634647Y-83312000D01*
X167654022Y-83533463D01*
X167655446Y-83538776D01*
X167706146Y-83727989D01*
X167711560Y-83748196D01*
X167713882Y-83753177D01*
X167713883Y-83753178D01*
X167803186Y-83944689D01*
X167803189Y-83944694D01*
X167805512Y-83949676D01*
X167808668Y-83954183D01*
X167808669Y-83954185D01*
X167914545Y-84105391D01*
X167933023Y-84131781D01*
X168090219Y-84288977D01*
X168094727Y-84292134D01*
X168094730Y-84292136D01*
X168165975Y-84342022D01*
X168272323Y-84416488D01*
X168277305Y-84418811D01*
X168277310Y-84418814D01*
X168382373Y-84467805D01*
X168435658Y-84514722D01*
X168455119Y-84582999D01*
X168434577Y-84650959D01*
X168382373Y-84696195D01*
X168277311Y-84745186D01*
X168277306Y-84745189D01*
X168272324Y-84747512D01*
X168267817Y-84750668D01*
X168267815Y-84750669D01*
X168094730Y-84871864D01*
X168094727Y-84871866D01*
X168090219Y-84875023D01*
X167933023Y-85032219D01*
X167929866Y-85036727D01*
X167929864Y-85036730D01*
X167808669Y-85209815D01*
X167805512Y-85214324D01*
X167803189Y-85219306D01*
X167803186Y-85219311D01*
X167713883Y-85410822D01*
X167711560Y-85415804D01*
X167654022Y-85630537D01*
X167634647Y-85852000D01*
X167654022Y-86073463D01*
X167678551Y-86165006D01*
X167696892Y-86233453D01*
X167711560Y-86288196D01*
X167713882Y-86293177D01*
X167713883Y-86293178D01*
X167803186Y-86484689D01*
X167803189Y-86484694D01*
X167805512Y-86489676D01*
X167808668Y-86494183D01*
X167808669Y-86494185D01*
X167862512Y-86571080D01*
X167933023Y-86671781D01*
X168090219Y-86828977D01*
X168094727Y-86832134D01*
X168094730Y-86832136D01*
X168125924Y-86853978D01*
X168272323Y-86956488D01*
X168277305Y-86958811D01*
X168277310Y-86958814D01*
X168382373Y-87007805D01*
X168435658Y-87054722D01*
X168455119Y-87122999D01*
X168434577Y-87190959D01*
X168382373Y-87236195D01*
X168277311Y-87285186D01*
X168277306Y-87285189D01*
X168272324Y-87287512D01*
X168267817Y-87290668D01*
X168267815Y-87290669D01*
X168094730Y-87411864D01*
X168094727Y-87411866D01*
X168090219Y-87415023D01*
X167933023Y-87572219D01*
X167929866Y-87576727D01*
X167929864Y-87576730D01*
X167808669Y-87749815D01*
X167805512Y-87754324D01*
X167803189Y-87759306D01*
X167803186Y-87759311D01*
X167713883Y-87950822D01*
X167711560Y-87955804D01*
X167654022Y-88170537D01*
X167634647Y-88392000D01*
X167654022Y-88613463D01*
X167711560Y-88828196D01*
X167713882Y-88833177D01*
X167713883Y-88833178D01*
X167803186Y-89024689D01*
X167803189Y-89024694D01*
X167805512Y-89029676D01*
X167808668Y-89034183D01*
X167808669Y-89034185D01*
X167862512Y-89111080D01*
X167933023Y-89211781D01*
X168090219Y-89368977D01*
X168094727Y-89372134D01*
X168094730Y-89372136D01*
X168125924Y-89393978D01*
X168272323Y-89496488D01*
X168277305Y-89498811D01*
X168277310Y-89498814D01*
X168382373Y-89547805D01*
X168435658Y-89594722D01*
X168455119Y-89662999D01*
X168434577Y-89730959D01*
X168382373Y-89776195D01*
X168277311Y-89825186D01*
X168277306Y-89825189D01*
X168272324Y-89827512D01*
X168267817Y-89830668D01*
X168267815Y-89830669D01*
X168094730Y-89951864D01*
X168094727Y-89951866D01*
X168090219Y-89955023D01*
X167933023Y-90112219D01*
X167929866Y-90116727D01*
X167929864Y-90116730D01*
X167808669Y-90289815D01*
X167805512Y-90294324D01*
X167803189Y-90299306D01*
X167803186Y-90299311D01*
X167713883Y-90490822D01*
X167711560Y-90495804D01*
X167654022Y-90710537D01*
X167634647Y-90932000D01*
X167654022Y-91153463D01*
X167711560Y-91368196D01*
X167713882Y-91373177D01*
X167713883Y-91373178D01*
X167803186Y-91564689D01*
X167803189Y-91564694D01*
X167805512Y-91569676D01*
X167808668Y-91574183D01*
X167808669Y-91574185D01*
X167914608Y-91725481D01*
X167933023Y-91751781D01*
X168090219Y-91908977D01*
X168094727Y-91912134D01*
X168094730Y-91912136D01*
X168159631Y-91957580D01*
X168272323Y-92036488D01*
X168277305Y-92038811D01*
X168277310Y-92038814D01*
X168382373Y-92087805D01*
X168435658Y-92134722D01*
X168455119Y-92202999D01*
X168434577Y-92270959D01*
X168382373Y-92316195D01*
X168277311Y-92365186D01*
X168277306Y-92365189D01*
X168272324Y-92367512D01*
X168267817Y-92370668D01*
X168267815Y-92370669D01*
X168094730Y-92491864D01*
X168094727Y-92491866D01*
X168090219Y-92495023D01*
X167933023Y-92652219D01*
X167929866Y-92656727D01*
X167929864Y-92656730D01*
X167808669Y-92829815D01*
X167805512Y-92834324D01*
X167803189Y-92839306D01*
X167803186Y-92839311D01*
X167718199Y-93021566D01*
X167711560Y-93035804D01*
X167654022Y-93250537D01*
X167634647Y-93472000D01*
X167654022Y-93693463D01*
X167711560Y-93908196D01*
X167713882Y-93913177D01*
X167713883Y-93913178D01*
X167803186Y-94104689D01*
X167803189Y-94104694D01*
X167805512Y-94109676D01*
X167808668Y-94114183D01*
X167808669Y-94114185D01*
X167862512Y-94191080D01*
X167933023Y-94291781D01*
X168090219Y-94448977D01*
X168094727Y-94452134D01*
X168094730Y-94452136D01*
X168125924Y-94473978D01*
X168272323Y-94576488D01*
X168277305Y-94578811D01*
X168277310Y-94578814D01*
X168382373Y-94627805D01*
X168435658Y-94674722D01*
X168455119Y-94742999D01*
X168434577Y-94810959D01*
X168382373Y-94856195D01*
X168277311Y-94905186D01*
X168277306Y-94905189D01*
X168272324Y-94907512D01*
X168267817Y-94910668D01*
X168267815Y-94910669D01*
X168094730Y-95031864D01*
X168094727Y-95031866D01*
X168090219Y-95035023D01*
X167933023Y-95192219D01*
X167929866Y-95196727D01*
X167929864Y-95196730D01*
X167808669Y-95369815D01*
X167805512Y-95374324D01*
X167803189Y-95379306D01*
X167803186Y-95379311D01*
X167713883Y-95570822D01*
X167711560Y-95575804D01*
X167654022Y-95790537D01*
X167634647Y-96012000D01*
X167654022Y-96233463D01*
X167711560Y-96448196D01*
X167713882Y-96453177D01*
X167713883Y-96453178D01*
X167803186Y-96644689D01*
X167803189Y-96644694D01*
X167805512Y-96649676D01*
X167808668Y-96654183D01*
X167808669Y-96654185D01*
X167862512Y-96731080D01*
X167933023Y-96831781D01*
X168090219Y-96988977D01*
X168094727Y-96992134D01*
X168094730Y-96992136D01*
X168125924Y-97013978D01*
X168272323Y-97116488D01*
X168277305Y-97118811D01*
X168277310Y-97118814D01*
X168382373Y-97167805D01*
X168435658Y-97214722D01*
X168455119Y-97282999D01*
X168434577Y-97350959D01*
X168382373Y-97396195D01*
X168277311Y-97445186D01*
X168277306Y-97445189D01*
X168272324Y-97447512D01*
X168267817Y-97450668D01*
X168267815Y-97450669D01*
X168094730Y-97571864D01*
X168094727Y-97571866D01*
X168090219Y-97575023D01*
X167933023Y-97732219D01*
X167929866Y-97736727D01*
X167929864Y-97736730D01*
X167808669Y-97909815D01*
X167805512Y-97914324D01*
X167803189Y-97919306D01*
X167803186Y-97919311D01*
X167713883Y-98110822D01*
X167711560Y-98115804D01*
X167654022Y-98330537D01*
X167634647Y-98552000D01*
X167654022Y-98773463D01*
X167679435Y-98868305D01*
X167704304Y-98961115D01*
X167711560Y-98988196D01*
X167713882Y-98993177D01*
X167713883Y-98993178D01*
X167803186Y-99184689D01*
X167803189Y-99184694D01*
X167805512Y-99189676D01*
X167808668Y-99194183D01*
X167808669Y-99194185D01*
X167862512Y-99271080D01*
X167933023Y-99371781D01*
X168090219Y-99528977D01*
X168094727Y-99532134D01*
X168094730Y-99532136D01*
X168153347Y-99573180D01*
X168272323Y-99656488D01*
X168277305Y-99658811D01*
X168277310Y-99658814D01*
X168382373Y-99707805D01*
X168435658Y-99754722D01*
X168455119Y-99822999D01*
X168434577Y-99890959D01*
X168382373Y-99936195D01*
X168277311Y-99985186D01*
X168277306Y-99985189D01*
X168272324Y-99987512D01*
X168267817Y-99990668D01*
X168267815Y-99990669D01*
X168094730Y-100111864D01*
X168094727Y-100111866D01*
X168090219Y-100115023D01*
X167933023Y-100272219D01*
X167929866Y-100276727D01*
X167929864Y-100276730D01*
X167823824Y-100428172D01*
X167805512Y-100454324D01*
X167803189Y-100459306D01*
X167803186Y-100459311D01*
X167718770Y-100640342D01*
X167711560Y-100655804D01*
X167654022Y-100870537D01*
X167634647Y-101092000D01*
X125707260Y-101092000D01*
X125715978Y-101059463D01*
X125735353Y-100838000D01*
X125715978Y-100616537D01*
X125673849Y-100459311D01*
X125659863Y-100407114D01*
X125659862Y-100407112D01*
X125658440Y-100401804D01*
X125656117Y-100396822D01*
X125566814Y-100205311D01*
X125566811Y-100205306D01*
X125564488Y-100200324D01*
X125561331Y-100195815D01*
X125440136Y-100022730D01*
X125440134Y-100022727D01*
X125436977Y-100018219D01*
X125279781Y-99861023D01*
X125275273Y-99857866D01*
X125275270Y-99857864D01*
X125199505Y-99804813D01*
X125097677Y-99733512D01*
X125092695Y-99731189D01*
X125092690Y-99731186D01*
X124987627Y-99682195D01*
X124934342Y-99635278D01*
X124914881Y-99567001D01*
X124935423Y-99499041D01*
X124987627Y-99453805D01*
X125092690Y-99404814D01*
X125092695Y-99404811D01*
X125097677Y-99402488D01*
X125199505Y-99331187D01*
X125275270Y-99278136D01*
X125275273Y-99278134D01*
X125279781Y-99274977D01*
X125436977Y-99117781D01*
X125500193Y-99027500D01*
X125561331Y-98940185D01*
X125561332Y-98940183D01*
X125564488Y-98935676D01*
X125566811Y-98930694D01*
X125566814Y-98930689D01*
X125656117Y-98739178D01*
X125656118Y-98739177D01*
X125658440Y-98734196D01*
X125715978Y-98519463D01*
X125733481Y-98319400D01*
X143695500Y-98319400D01*
X143695837Y-98322646D01*
X143695837Y-98322650D01*
X143696656Y-98330537D01*
X143706474Y-98425166D01*
X143762450Y-98592946D01*
X143855522Y-98743348D01*
X143980697Y-98868305D01*
X143986927Y-98872145D01*
X143986928Y-98872146D01*
X144124090Y-98956694D01*
X144131262Y-98961115D01*
X144174701Y-98975523D01*
X144292611Y-99014632D01*
X144292613Y-99014632D01*
X144299139Y-99016797D01*
X144305975Y-99017497D01*
X144305978Y-99017498D01*
X144349031Y-99021909D01*
X144403600Y-99027500D01*
X145704400Y-99027500D01*
X145707646Y-99027163D01*
X145707650Y-99027163D01*
X145803308Y-99017238D01*
X145803312Y-99017237D01*
X145810166Y-99016526D01*
X145816702Y-99014345D01*
X145816704Y-99014345D01*
X145948806Y-98970272D01*
X145977946Y-98960550D01*
X146128348Y-98867478D01*
X146253305Y-98742303D01*
X146261576Y-98728886D01*
X146343352Y-98596220D01*
X146396124Y-98548727D01*
X146466196Y-98537303D01*
X146531320Y-98565577D01*
X146541782Y-98575364D01*
X146647234Y-98685906D01*
X146655186Y-98692941D01*
X146831525Y-98824141D01*
X146840562Y-98829745D01*
X147036484Y-98929357D01*
X147046335Y-98933357D01*
X147256240Y-98998534D01*
X147266624Y-99000817D01*
X147282043Y-99002861D01*
X147296207Y-99000665D01*
X147300000Y-98987478D01*
X147300000Y-98985192D01*
X147808000Y-98985192D01*
X147811973Y-98998723D01*
X147822580Y-99000248D01*
X147940421Y-98975523D01*
X147950617Y-98972463D01*
X148155029Y-98891737D01*
X148164561Y-98887006D01*
X148352462Y-98772984D01*
X148361052Y-98766720D01*
X148527052Y-98622673D01*
X148534472Y-98615042D01*
X148673826Y-98445089D01*
X148679850Y-98436322D01*
X148788576Y-98245318D01*
X148793041Y-98235654D01*
X148868031Y-98029059D01*
X148870802Y-98018792D01*
X148910123Y-97801345D01*
X148911056Y-97793116D01*
X148911268Y-97788624D01*
X148907525Y-97775876D01*
X148906135Y-97774671D01*
X148898452Y-97773000D01*
X147826115Y-97773000D01*
X147810876Y-97777475D01*
X147809671Y-97778865D01*
X147808000Y-97786548D01*
X147808000Y-98985192D01*
X147300000Y-98985192D01*
X147300000Y-97246885D01*
X147808000Y-97246885D01*
X147812475Y-97262124D01*
X147813865Y-97263329D01*
X147821548Y-97265000D01*
X148889970Y-97265000D01*
X148904648Y-97260690D01*
X148906711Y-97248807D01*
X148897876Y-97144675D01*
X148896086Y-97134203D01*
X148840870Y-96921465D01*
X148837335Y-96911425D01*
X148747063Y-96711030D01*
X148741894Y-96701744D01*
X148619150Y-96519425D01*
X148612481Y-96511130D01*
X148460772Y-96352100D01*
X148452814Y-96345059D01*
X148276475Y-96213859D01*
X148267438Y-96208255D01*
X148071516Y-96108643D01*
X148061665Y-96104643D01*
X147851760Y-96039466D01*
X147841376Y-96037183D01*
X147825957Y-96035139D01*
X147811793Y-96037335D01*
X147808000Y-96050522D01*
X147808000Y-97246885D01*
X147300000Y-97246885D01*
X147300000Y-96052808D01*
X147296027Y-96039277D01*
X147285420Y-96037752D01*
X147167579Y-96062477D01*
X147157383Y-96065537D01*
X146952971Y-96146263D01*
X146943439Y-96150994D01*
X146755538Y-96265016D01*
X146746948Y-96271280D01*
X146580948Y-96415327D01*
X146573530Y-96422956D01*
X146547609Y-96454569D01*
X146488949Y-96494564D01*
X146417979Y-96496496D01*
X146357230Y-96459752D01*
X146343030Y-96440982D01*
X146256332Y-96300880D01*
X146252478Y-96294652D01*
X146127303Y-96169695D01*
X146096965Y-96150994D01*
X145982968Y-96080725D01*
X145982966Y-96080724D01*
X145976738Y-96076885D01*
X145857498Y-96037335D01*
X145815389Y-96023368D01*
X145815387Y-96023368D01*
X145808861Y-96021203D01*
X145802025Y-96020503D01*
X145802022Y-96020502D01*
X145758969Y-96016091D01*
X145704400Y-96010500D01*
X144403600Y-96010500D01*
X144400354Y-96010837D01*
X144400350Y-96010837D01*
X144304692Y-96020762D01*
X144304688Y-96020763D01*
X144297834Y-96021474D01*
X144291298Y-96023655D01*
X144291296Y-96023655D01*
X144159194Y-96067728D01*
X144130054Y-96077450D01*
X143979652Y-96170522D01*
X143854695Y-96295697D01*
X143850855Y-96301927D01*
X143850854Y-96301928D01*
X143780954Y-96415327D01*
X143761885Y-96446262D01*
X143759581Y-96453209D01*
X143719759Y-96573270D01*
X143706203Y-96614139D01*
X143695500Y-96718600D01*
X143695500Y-98319400D01*
X125733481Y-98319400D01*
X125735353Y-98298000D01*
X125715978Y-98076537D01*
X125658440Y-97861804D01*
X125656117Y-97856822D01*
X125566814Y-97665311D01*
X125566811Y-97665306D01*
X125564488Y-97660324D01*
X125561331Y-97655815D01*
X125440136Y-97482730D01*
X125440134Y-97482727D01*
X125436977Y-97478219D01*
X125279781Y-97321023D01*
X125275273Y-97317866D01*
X125275270Y-97317864D01*
X125173901Y-97246885D01*
X125097677Y-97193512D01*
X125092695Y-97191189D01*
X125092690Y-97191186D01*
X125002217Y-97148998D01*
X124987627Y-97142195D01*
X124934342Y-97095278D01*
X124914881Y-97027001D01*
X124935423Y-96959041D01*
X124987627Y-96913805D01*
X125092690Y-96864814D01*
X125092695Y-96864811D01*
X125097677Y-96862488D01*
X125199505Y-96791187D01*
X125275270Y-96738136D01*
X125275273Y-96738134D01*
X125279781Y-96734977D01*
X125436977Y-96577781D01*
X125477839Y-96519425D01*
X125561331Y-96400185D01*
X125561332Y-96400183D01*
X125564488Y-96395676D01*
X125566811Y-96390694D01*
X125566814Y-96390689D01*
X125656117Y-96199178D01*
X125656118Y-96199177D01*
X125658440Y-96194196D01*
X125663620Y-96174866D01*
X125696325Y-96052808D01*
X125715978Y-95979463D01*
X125735353Y-95758000D01*
X125715978Y-95536537D01*
X125658440Y-95321804D01*
X125600117Y-95196730D01*
X125566814Y-95125311D01*
X125566811Y-95125306D01*
X125564488Y-95120324D01*
X125561331Y-95115815D01*
X125440136Y-94942730D01*
X125440134Y-94942727D01*
X125436977Y-94938219D01*
X125279781Y-94781023D01*
X125275273Y-94777866D01*
X125275270Y-94777864D01*
X125199505Y-94724813D01*
X125097677Y-94653512D01*
X125092695Y-94651189D01*
X125092690Y-94651186D01*
X124987627Y-94602195D01*
X124934342Y-94555278D01*
X124914881Y-94487001D01*
X124935423Y-94419041D01*
X124987627Y-94373805D01*
X125092690Y-94324814D01*
X125092695Y-94324811D01*
X125097677Y-94322488D01*
X125199505Y-94251187D01*
X125275270Y-94198136D01*
X125275273Y-94198134D01*
X125279781Y-94194977D01*
X125436977Y-94037781D01*
X125531432Y-93902886D01*
X125561331Y-93860185D01*
X125561332Y-93860183D01*
X125564488Y-93855676D01*
X125566811Y-93850694D01*
X125566814Y-93850689D01*
X125656117Y-93659178D01*
X125656118Y-93659177D01*
X125658440Y-93654196D01*
X125715978Y-93439463D01*
X125735353Y-93218000D01*
X125719261Y-93034062D01*
X142026493Y-93034062D01*
X142035789Y-93046077D01*
X142086994Y-93081931D01*
X142096489Y-93087414D01*
X142293947Y-93179490D01*
X142304239Y-93183236D01*
X142514688Y-93239625D01*
X142525481Y-93241528D01*
X142742525Y-93260517D01*
X142753475Y-93260517D01*
X142970519Y-93241528D01*
X142981312Y-93239625D01*
X143191761Y-93183236D01*
X143202053Y-93179490D01*
X143399511Y-93087414D01*
X143409006Y-93081931D01*
X143461048Y-93045491D01*
X143469424Y-93035012D01*
X143468925Y-93034062D01*
X149138493Y-93034062D01*
X149147789Y-93046077D01*
X149198994Y-93081931D01*
X149208489Y-93087414D01*
X149405947Y-93179490D01*
X149416239Y-93183236D01*
X149626688Y-93239625D01*
X149637481Y-93241528D01*
X149854525Y-93260517D01*
X149865475Y-93260517D01*
X150082519Y-93241528D01*
X150093312Y-93239625D01*
X150303761Y-93183236D01*
X150314053Y-93179490D01*
X150511511Y-93087414D01*
X150521006Y-93081931D01*
X150573048Y-93045491D01*
X150581424Y-93035012D01*
X150574356Y-93021566D01*
X149872812Y-92320022D01*
X149858868Y-92312408D01*
X149857035Y-92312539D01*
X149850420Y-92316790D01*
X149144923Y-93022287D01*
X149138493Y-93034062D01*
X143468925Y-93034062D01*
X143462356Y-93021566D01*
X142760812Y-92320022D01*
X142746868Y-92312408D01*
X142745035Y-92312539D01*
X142738420Y-92316790D01*
X142032923Y-93022287D01*
X142026493Y-93034062D01*
X125719261Y-93034062D01*
X125715978Y-92996537D01*
X125658440Y-92781804D01*
X125606075Y-92669507D01*
X125566814Y-92585311D01*
X125566811Y-92585306D01*
X125564488Y-92580324D01*
X125561331Y-92575815D01*
X125440136Y-92402730D01*
X125440134Y-92402727D01*
X125436977Y-92398219D01*
X125279781Y-92241023D01*
X125275273Y-92237866D01*
X125275270Y-92237864D01*
X125179091Y-92170519D01*
X125097677Y-92113512D01*
X125092695Y-92111189D01*
X125092690Y-92111186D01*
X124987627Y-92062195D01*
X124934342Y-92015278D01*
X124916726Y-91953475D01*
X141435483Y-91953475D01*
X141454472Y-92170519D01*
X141456375Y-92181312D01*
X141512764Y-92391761D01*
X141516510Y-92402053D01*
X141608586Y-92599511D01*
X141614069Y-92609006D01*
X141650509Y-92661048D01*
X141660988Y-92669424D01*
X141674434Y-92662356D01*
X142375978Y-91960812D01*
X142382356Y-91949132D01*
X143112408Y-91949132D01*
X143112539Y-91950965D01*
X143116790Y-91957580D01*
X143822287Y-92663077D01*
X143834062Y-92669507D01*
X143846077Y-92660211D01*
X143881931Y-92609006D01*
X143887414Y-92599511D01*
X143979490Y-92402053D01*
X143983236Y-92391761D01*
X144039625Y-92181312D01*
X144041528Y-92170519D01*
X144060517Y-91953475D01*
X148547483Y-91953475D01*
X148566472Y-92170519D01*
X148568375Y-92181312D01*
X148624764Y-92391761D01*
X148628510Y-92402053D01*
X148720586Y-92599511D01*
X148726069Y-92609006D01*
X148762509Y-92661048D01*
X148772988Y-92669424D01*
X148786434Y-92662356D01*
X149487978Y-91960812D01*
X149494356Y-91949132D01*
X150224408Y-91949132D01*
X150224539Y-91950965D01*
X150228790Y-91957580D01*
X150934287Y-92663077D01*
X150946062Y-92669507D01*
X150958077Y-92660211D01*
X150993931Y-92609006D01*
X150999414Y-92599511D01*
X151091490Y-92402053D01*
X151095236Y-92391761D01*
X151151625Y-92181312D01*
X151153528Y-92170519D01*
X151172517Y-91953475D01*
X151172517Y-91942525D01*
X151153528Y-91725481D01*
X151151625Y-91714688D01*
X151095236Y-91504239D01*
X151091490Y-91493947D01*
X150999414Y-91296489D01*
X150993931Y-91286994D01*
X150957491Y-91234952D01*
X150947012Y-91226576D01*
X150933566Y-91233644D01*
X150232022Y-91935188D01*
X150224408Y-91949132D01*
X149494356Y-91949132D01*
X149495592Y-91946868D01*
X149495461Y-91945035D01*
X149491210Y-91938420D01*
X148785713Y-91232923D01*
X148773938Y-91226493D01*
X148761923Y-91235789D01*
X148726069Y-91286994D01*
X148720586Y-91296489D01*
X148628510Y-91493947D01*
X148624764Y-91504239D01*
X148568375Y-91714688D01*
X148566472Y-91725481D01*
X148547483Y-91942525D01*
X148547483Y-91953475D01*
X144060517Y-91953475D01*
X144060517Y-91942525D01*
X144041528Y-91725481D01*
X144039625Y-91714688D01*
X143983236Y-91504239D01*
X143979490Y-91493947D01*
X143887414Y-91296489D01*
X143881931Y-91286994D01*
X143845491Y-91234952D01*
X143835012Y-91226576D01*
X143821566Y-91233644D01*
X143120022Y-91935188D01*
X143112408Y-91949132D01*
X142382356Y-91949132D01*
X142383592Y-91946868D01*
X142383461Y-91945035D01*
X142379210Y-91938420D01*
X141673713Y-91232923D01*
X141661938Y-91226493D01*
X141649923Y-91235789D01*
X141614069Y-91286994D01*
X141608586Y-91296489D01*
X141516510Y-91493947D01*
X141512764Y-91504239D01*
X141456375Y-91714688D01*
X141454472Y-91725481D01*
X141435483Y-91942525D01*
X141435483Y-91953475D01*
X124916726Y-91953475D01*
X124914881Y-91947001D01*
X124935423Y-91879041D01*
X124987627Y-91833805D01*
X125092690Y-91784814D01*
X125092695Y-91784811D01*
X125097677Y-91782488D01*
X125199505Y-91711187D01*
X125275270Y-91658136D01*
X125275273Y-91658134D01*
X125279781Y-91654977D01*
X125436977Y-91497781D01*
X125531432Y-91362886D01*
X125561331Y-91320185D01*
X125561332Y-91320183D01*
X125564488Y-91315676D01*
X125566811Y-91310694D01*
X125566814Y-91310689D01*
X125656117Y-91119178D01*
X125656118Y-91119177D01*
X125658440Y-91114196D01*
X125715978Y-90899463D01*
X125719344Y-90860988D01*
X142026576Y-90860988D01*
X142033644Y-90874434D01*
X142735188Y-91575978D01*
X142749132Y-91583592D01*
X142750965Y-91583461D01*
X142757580Y-91579210D01*
X143463077Y-90873713D01*
X143469507Y-90861938D01*
X143468772Y-90860988D01*
X149138576Y-90860988D01*
X149145644Y-90874434D01*
X149847188Y-91575978D01*
X149861132Y-91583592D01*
X149862965Y-91583461D01*
X149869580Y-91579210D01*
X150575077Y-90873713D01*
X150581507Y-90861938D01*
X150572211Y-90849923D01*
X150521006Y-90814069D01*
X150511511Y-90808586D01*
X150314053Y-90716510D01*
X150303761Y-90712764D01*
X150093312Y-90656375D01*
X150082519Y-90654472D01*
X149865475Y-90635483D01*
X149854525Y-90635483D01*
X149637481Y-90654472D01*
X149626688Y-90656375D01*
X149416239Y-90712764D01*
X149405947Y-90716510D01*
X149208489Y-90808586D01*
X149198994Y-90814069D01*
X149146952Y-90850509D01*
X149138576Y-90860988D01*
X143468772Y-90860988D01*
X143460211Y-90849923D01*
X143409006Y-90814069D01*
X143399511Y-90808586D01*
X143202053Y-90716510D01*
X143191761Y-90712764D01*
X142981312Y-90656375D01*
X142970519Y-90654472D01*
X142753475Y-90635483D01*
X142742525Y-90635483D01*
X142525481Y-90654472D01*
X142514688Y-90656375D01*
X142304239Y-90712764D01*
X142293947Y-90716510D01*
X142096489Y-90808586D01*
X142086994Y-90814069D01*
X142034952Y-90850509D01*
X142026576Y-90860988D01*
X125719344Y-90860988D01*
X125735353Y-90678000D01*
X125715978Y-90456537D01*
X125658440Y-90241804D01*
X125600117Y-90116730D01*
X125566814Y-90045311D01*
X125566811Y-90045306D01*
X125564488Y-90040324D01*
X125561331Y-90035815D01*
X125440136Y-89862730D01*
X125440134Y-89862727D01*
X125436977Y-89858219D01*
X125279781Y-89701023D01*
X125275273Y-89697866D01*
X125275270Y-89697864D01*
X125199505Y-89644813D01*
X125097677Y-89573512D01*
X125092695Y-89571189D01*
X125092690Y-89571186D01*
X124987627Y-89522195D01*
X124934342Y-89475278D01*
X124914881Y-89407001D01*
X124935423Y-89339041D01*
X124987627Y-89293805D01*
X125092690Y-89244814D01*
X125092695Y-89244811D01*
X125097677Y-89242488D01*
X125199505Y-89171187D01*
X125275270Y-89118136D01*
X125275273Y-89118134D01*
X125279781Y-89114977D01*
X125436977Y-88957781D01*
X125531432Y-88822886D01*
X125561331Y-88780185D01*
X125561332Y-88780183D01*
X125564488Y-88775676D01*
X125566811Y-88770694D01*
X125566814Y-88770689D01*
X125656117Y-88579178D01*
X125656118Y-88579177D01*
X125658440Y-88574196D01*
X125715978Y-88359463D01*
X125735353Y-88138000D01*
X125715978Y-87916537D01*
X125658440Y-87701804D01*
X125600117Y-87576730D01*
X125566814Y-87505311D01*
X125566811Y-87505306D01*
X125564488Y-87500324D01*
X125561331Y-87495815D01*
X125440136Y-87322730D01*
X125440134Y-87322727D01*
X125436977Y-87318219D01*
X125279781Y-87161023D01*
X125275273Y-87157866D01*
X125275270Y-87157864D01*
X125199505Y-87104813D01*
X125097677Y-87033512D01*
X125092695Y-87031189D01*
X125092690Y-87031186D01*
X124987627Y-86982195D01*
X124934342Y-86935278D01*
X124914881Y-86867001D01*
X124935423Y-86799041D01*
X124987627Y-86753805D01*
X125092690Y-86704814D01*
X125092695Y-86704811D01*
X125097677Y-86702488D01*
X125199505Y-86631187D01*
X125275270Y-86578136D01*
X125275273Y-86578134D01*
X125279781Y-86574977D01*
X125436977Y-86417781D01*
X125448298Y-86401614D01*
X125529791Y-86285229D01*
X125585248Y-86240901D01*
X125633004Y-86231500D01*
X135049233Y-86231500D01*
X135060416Y-86232027D01*
X135067909Y-86233702D01*
X135075835Y-86233453D01*
X135075836Y-86233453D01*
X135135986Y-86231562D01*
X135139945Y-86231500D01*
X135167856Y-86231500D01*
X135171791Y-86231003D01*
X135171856Y-86230995D01*
X135183693Y-86230062D01*
X135215951Y-86229048D01*
X135219970Y-86228922D01*
X135227889Y-86228673D01*
X135247343Y-86223021D01*
X135266700Y-86219013D01*
X135278930Y-86217468D01*
X135278931Y-86217468D01*
X135286797Y-86216474D01*
X135294168Y-86213555D01*
X135294170Y-86213555D01*
X135327912Y-86200196D01*
X135339142Y-86196351D01*
X135373983Y-86186229D01*
X135373984Y-86186229D01*
X135381593Y-86184018D01*
X135388412Y-86179985D01*
X135388417Y-86179983D01*
X135399028Y-86173707D01*
X135416776Y-86165012D01*
X135435617Y-86157552D01*
X135471387Y-86131564D01*
X135481307Y-86125048D01*
X135512535Y-86106580D01*
X135512538Y-86106578D01*
X135519362Y-86102542D01*
X135533683Y-86088221D01*
X135548717Y-86075380D01*
X135565107Y-86063472D01*
X135593298Y-86029395D01*
X135601288Y-86020616D01*
X136623499Y-84998405D01*
X136685811Y-84964379D01*
X136712594Y-84961500D01*
X141528606Y-84961500D01*
X141596727Y-84981502D01*
X141631819Y-85015229D01*
X141738643Y-85167789D01*
X141741802Y-85172300D01*
X141903700Y-85334198D01*
X141908208Y-85337355D01*
X141908211Y-85337357D01*
X141956578Y-85371224D01*
X142091251Y-85465523D01*
X142096233Y-85467846D01*
X142096238Y-85467849D01*
X142293775Y-85559961D01*
X142298757Y-85562284D01*
X142304065Y-85563706D01*
X142304067Y-85563707D01*
X142514598Y-85620119D01*
X142514600Y-85620119D01*
X142519913Y-85621543D01*
X142748000Y-85641498D01*
X142976087Y-85621543D01*
X142981400Y-85620119D01*
X142981402Y-85620119D01*
X143191933Y-85563707D01*
X143191935Y-85563706D01*
X143197243Y-85562284D01*
X143202225Y-85559961D01*
X143399762Y-85467849D01*
X143399767Y-85467846D01*
X143404749Y-85465523D01*
X143539422Y-85371224D01*
X143587789Y-85337357D01*
X143587792Y-85337355D01*
X143592300Y-85334198D01*
X143754198Y-85172300D01*
X143757357Y-85167789D01*
X143864181Y-85015229D01*
X143919638Y-84970901D01*
X143967394Y-84961500D01*
X148640606Y-84961500D01*
X148708727Y-84981502D01*
X148743819Y-85015229D01*
X148850643Y-85167789D01*
X148853802Y-85172300D01*
X149015700Y-85334198D01*
X149020208Y-85337355D01*
X149020211Y-85337357D01*
X149068578Y-85371224D01*
X149203251Y-85465523D01*
X149208233Y-85467846D01*
X149208238Y-85467849D01*
X149405775Y-85559961D01*
X149410757Y-85562284D01*
X149416065Y-85563706D01*
X149416067Y-85563707D01*
X149626598Y-85620119D01*
X149626600Y-85620119D01*
X149631913Y-85621543D01*
X149860000Y-85641498D01*
X150088087Y-85621543D01*
X150093400Y-85620119D01*
X150093402Y-85620119D01*
X150303933Y-85563707D01*
X150303935Y-85563706D01*
X150309243Y-85562284D01*
X150314225Y-85559961D01*
X150511762Y-85467849D01*
X150511767Y-85467846D01*
X150516749Y-85465523D01*
X150651422Y-85371224D01*
X150699789Y-85337357D01*
X150699792Y-85337355D01*
X150704300Y-85334198D01*
X150866198Y-85172300D01*
X150869830Y-85167114D01*
X150964284Y-85032219D01*
X150997523Y-84984749D01*
X150999846Y-84979767D01*
X150999849Y-84979762D01*
X151091961Y-84782225D01*
X151091961Y-84782224D01*
X151094284Y-84777243D01*
X151102251Y-84747512D01*
X151152119Y-84561402D01*
X151152119Y-84561400D01*
X151153543Y-84556087D01*
X151173498Y-84328000D01*
X151153543Y-84099913D01*
X151152120Y-84094602D01*
X151152118Y-84094591D01*
X151136541Y-84036459D01*
X151138230Y-83965483D01*
X151169152Y-83914752D01*
X153387499Y-81696405D01*
X153449811Y-81662379D01*
X153476594Y-81659500D01*
X170119406Y-81659500D01*
X170187527Y-81679502D01*
X170208501Y-81696405D01*
X174756343Y-86244247D01*
X174763887Y-86252537D01*
X174768000Y-86259018D01*
X174773777Y-86264443D01*
X174817667Y-86305658D01*
X174820509Y-86308413D01*
X174840231Y-86328135D01*
X174843355Y-86330558D01*
X174843359Y-86330562D01*
X174843424Y-86330612D01*
X174852445Y-86338317D01*
X174884679Y-86368586D01*
X174891627Y-86372405D01*
X174891629Y-86372407D01*
X174902432Y-86378346D01*
X174918959Y-86389202D01*
X174928698Y-86396757D01*
X174928700Y-86396758D01*
X174934960Y-86401614D01*
X174975540Y-86419174D01*
X174986188Y-86424391D01*
X175024940Y-86445695D01*
X175032616Y-86447666D01*
X175032619Y-86447667D01*
X175044562Y-86450733D01*
X175063267Y-86457137D01*
X175081855Y-86465181D01*
X175089678Y-86466420D01*
X175089688Y-86466423D01*
X175125524Y-86472099D01*
X175137144Y-86474505D01*
X175172289Y-86483528D01*
X175179970Y-86485500D01*
X175200224Y-86485500D01*
X175219934Y-86487051D01*
X175239943Y-86490220D01*
X175247835Y-86489474D01*
X175283961Y-86486059D01*
X175295819Y-86485500D01*
X185516996Y-86485500D01*
X185585117Y-86505502D01*
X185620209Y-86539229D01*
X185642512Y-86571080D01*
X185713023Y-86671781D01*
X185870219Y-86828977D01*
X185874727Y-86832134D01*
X185874730Y-86832136D01*
X185905924Y-86853978D01*
X186052323Y-86956488D01*
X186057305Y-86958811D01*
X186057310Y-86958814D01*
X186162373Y-87007805D01*
X186215658Y-87054722D01*
X186235119Y-87122999D01*
X186214577Y-87190959D01*
X186162373Y-87236195D01*
X186057311Y-87285186D01*
X186057306Y-87285189D01*
X186052324Y-87287512D01*
X186047817Y-87290668D01*
X186047815Y-87290669D01*
X185874730Y-87411864D01*
X185874727Y-87411866D01*
X185870219Y-87415023D01*
X185713023Y-87572219D01*
X185709866Y-87576727D01*
X185709864Y-87576730D01*
X185588669Y-87749815D01*
X185585512Y-87754324D01*
X185583189Y-87759306D01*
X185583186Y-87759311D01*
X185493883Y-87950822D01*
X185491560Y-87955804D01*
X185434022Y-88170537D01*
X185414647Y-88392000D01*
X185434022Y-88613463D01*
X185491560Y-88828196D01*
X185493882Y-88833177D01*
X185493883Y-88833178D01*
X185583186Y-89024689D01*
X185583189Y-89024694D01*
X185585512Y-89029676D01*
X185588668Y-89034183D01*
X185588669Y-89034185D01*
X185642512Y-89111080D01*
X185713023Y-89211781D01*
X185870219Y-89368977D01*
X185874727Y-89372134D01*
X185874730Y-89372136D01*
X185905924Y-89393978D01*
X186052323Y-89496488D01*
X186057305Y-89498811D01*
X186057310Y-89498814D01*
X186162373Y-89547805D01*
X186215658Y-89594722D01*
X186235119Y-89662999D01*
X186214577Y-89730959D01*
X186162373Y-89776195D01*
X186057311Y-89825186D01*
X186057306Y-89825189D01*
X186052324Y-89827512D01*
X186047817Y-89830668D01*
X186047815Y-89830669D01*
X185874730Y-89951864D01*
X185874727Y-89951866D01*
X185870219Y-89955023D01*
X185713023Y-90112219D01*
X185709866Y-90116727D01*
X185709864Y-90116730D01*
X185588669Y-90289815D01*
X185585512Y-90294324D01*
X185583189Y-90299306D01*
X185583186Y-90299311D01*
X185493883Y-90490822D01*
X185491560Y-90495804D01*
X185434022Y-90710537D01*
X185414647Y-90932000D01*
X185434022Y-91153463D01*
X185491560Y-91368196D01*
X185493882Y-91373177D01*
X185493883Y-91373178D01*
X185583186Y-91564689D01*
X185583189Y-91564694D01*
X185585512Y-91569676D01*
X185588668Y-91574183D01*
X185588669Y-91574185D01*
X185694608Y-91725481D01*
X185713023Y-91751781D01*
X185870219Y-91908977D01*
X185874727Y-91912134D01*
X185874730Y-91912136D01*
X185939631Y-91957580D01*
X186052323Y-92036488D01*
X186057305Y-92038811D01*
X186057310Y-92038814D01*
X186162373Y-92087805D01*
X186215658Y-92134722D01*
X186235119Y-92202999D01*
X186214577Y-92270959D01*
X186162373Y-92316195D01*
X186057311Y-92365186D01*
X186057306Y-92365189D01*
X186052324Y-92367512D01*
X186047817Y-92370668D01*
X186047815Y-92370669D01*
X185874730Y-92491864D01*
X185874727Y-92491866D01*
X185870219Y-92495023D01*
X185713023Y-92652219D01*
X185709866Y-92656727D01*
X185709864Y-92656730D01*
X185588669Y-92829815D01*
X185585512Y-92834324D01*
X185583189Y-92839306D01*
X185583186Y-92839311D01*
X185498199Y-93021566D01*
X185491560Y-93035804D01*
X185434022Y-93250537D01*
X185414647Y-93472000D01*
X185434022Y-93693463D01*
X185491560Y-93908196D01*
X185493882Y-93913177D01*
X185493883Y-93913178D01*
X185583186Y-94104689D01*
X185583189Y-94104694D01*
X185585512Y-94109676D01*
X185588668Y-94114183D01*
X185588669Y-94114185D01*
X185642512Y-94191080D01*
X185713023Y-94291781D01*
X185870219Y-94448977D01*
X185874727Y-94452134D01*
X185874730Y-94452136D01*
X185905924Y-94473978D01*
X186052323Y-94576488D01*
X186057305Y-94578811D01*
X186057310Y-94578814D01*
X186162373Y-94627805D01*
X186215658Y-94674722D01*
X186235119Y-94742999D01*
X186214577Y-94810959D01*
X186162373Y-94856195D01*
X186057311Y-94905186D01*
X186057306Y-94905189D01*
X186052324Y-94907512D01*
X186047817Y-94910668D01*
X186047815Y-94910669D01*
X185874730Y-95031864D01*
X185874727Y-95031866D01*
X185870219Y-95035023D01*
X185713023Y-95192219D01*
X185709866Y-95196727D01*
X185709864Y-95196730D01*
X185588669Y-95369815D01*
X185585512Y-95374324D01*
X185583189Y-95379306D01*
X185583186Y-95379311D01*
X185493883Y-95570822D01*
X185491560Y-95575804D01*
X185434022Y-95790537D01*
X185414647Y-96012000D01*
X185434022Y-96233463D01*
X185491560Y-96448196D01*
X185493882Y-96453177D01*
X185493883Y-96453178D01*
X185583186Y-96644689D01*
X185583189Y-96644694D01*
X185585512Y-96649676D01*
X185588668Y-96654183D01*
X185588669Y-96654185D01*
X185642512Y-96731080D01*
X185713023Y-96831781D01*
X185870219Y-96988977D01*
X185874727Y-96992134D01*
X185874730Y-96992136D01*
X185905924Y-97013978D01*
X186052323Y-97116488D01*
X186057305Y-97118811D01*
X186057310Y-97118814D01*
X186162373Y-97167805D01*
X186215658Y-97214722D01*
X186235119Y-97282999D01*
X186214577Y-97350959D01*
X186162373Y-97396195D01*
X186057311Y-97445186D01*
X186057306Y-97445189D01*
X186052324Y-97447512D01*
X186047817Y-97450668D01*
X186047815Y-97450669D01*
X185874730Y-97571864D01*
X185874727Y-97571866D01*
X185870219Y-97575023D01*
X185713023Y-97732219D01*
X185709866Y-97736727D01*
X185709864Y-97736730D01*
X185588669Y-97909815D01*
X185585512Y-97914324D01*
X185583189Y-97919306D01*
X185583186Y-97919311D01*
X185493883Y-98110822D01*
X185491560Y-98115804D01*
X185434022Y-98330537D01*
X185414647Y-98552000D01*
X185434022Y-98773463D01*
X185459435Y-98868305D01*
X185484304Y-98961115D01*
X185491560Y-98988196D01*
X185493882Y-98993177D01*
X185493883Y-98993178D01*
X185583186Y-99184689D01*
X185583189Y-99184694D01*
X185585512Y-99189676D01*
X185588668Y-99194183D01*
X185588669Y-99194185D01*
X185642512Y-99271080D01*
X185713023Y-99371781D01*
X185870219Y-99528977D01*
X185874727Y-99532134D01*
X185874730Y-99532136D01*
X185933347Y-99573180D01*
X186052323Y-99656488D01*
X186057305Y-99658811D01*
X186057310Y-99658814D01*
X186162373Y-99707805D01*
X186215658Y-99754722D01*
X186235119Y-99822999D01*
X186214577Y-99890959D01*
X186162373Y-99936195D01*
X186057311Y-99985186D01*
X186057306Y-99985189D01*
X186052324Y-99987512D01*
X186047817Y-99990668D01*
X186047815Y-99990669D01*
X185874730Y-100111864D01*
X185874727Y-100111866D01*
X185870219Y-100115023D01*
X185713023Y-100272219D01*
X185709866Y-100276727D01*
X185709864Y-100276730D01*
X185603824Y-100428172D01*
X185585512Y-100454324D01*
X185583189Y-100459306D01*
X185583186Y-100459311D01*
X185498770Y-100640342D01*
X185491560Y-100655804D01*
X185434022Y-100870537D01*
X185414647Y-101092000D01*
X185434022Y-101313463D01*
X185491560Y-101528196D01*
X185493882Y-101533177D01*
X185493883Y-101533178D01*
X185583186Y-101724689D01*
X185583189Y-101724694D01*
X185585512Y-101729676D01*
X185588668Y-101734183D01*
X185588669Y-101734185D01*
X185642512Y-101811080D01*
X185713023Y-101911781D01*
X185870219Y-102068977D01*
X185874727Y-102072134D01*
X185874730Y-102072136D01*
X185903890Y-102092554D01*
X186052323Y-102196488D01*
X186057305Y-102198811D01*
X186057310Y-102198814D01*
X186248822Y-102288117D01*
X186253804Y-102290440D01*
X186259112Y-102291862D01*
X186259114Y-102291863D01*
X186324949Y-102309503D01*
X186468537Y-102347978D01*
X186690000Y-102367353D01*
X186911463Y-102347978D01*
X187055051Y-102309503D01*
X187120886Y-102291863D01*
X187120888Y-102291862D01*
X187126196Y-102290440D01*
X187131178Y-102288117D01*
X187322690Y-102198814D01*
X187322695Y-102198811D01*
X187327677Y-102196488D01*
X187476110Y-102092554D01*
X187505270Y-102072136D01*
X187505273Y-102072134D01*
X187509781Y-102068977D01*
X187666977Y-101911781D01*
X187737489Y-101811080D01*
X187791331Y-101734185D01*
X187791332Y-101734183D01*
X187794488Y-101729676D01*
X187796811Y-101724694D01*
X187796814Y-101724689D01*
X187886117Y-101533178D01*
X187886118Y-101533177D01*
X187888440Y-101528196D01*
X187945978Y-101313463D01*
X187965353Y-101092000D01*
X187945978Y-100870537D01*
X187888440Y-100655804D01*
X187881230Y-100640342D01*
X187796814Y-100459311D01*
X187796811Y-100459306D01*
X187794488Y-100454324D01*
X187776176Y-100428172D01*
X187670136Y-100276730D01*
X187670134Y-100276727D01*
X187666977Y-100272219D01*
X187509781Y-100115023D01*
X187505273Y-100111866D01*
X187505270Y-100111864D01*
X187371531Y-100018219D01*
X187327677Y-99987512D01*
X187322695Y-99985189D01*
X187322690Y-99985186D01*
X187217627Y-99936195D01*
X187164342Y-99889278D01*
X187144881Y-99821001D01*
X187165423Y-99753041D01*
X187217627Y-99707805D01*
X187322690Y-99658814D01*
X187322695Y-99658811D01*
X187327677Y-99656488D01*
X187446653Y-99573180D01*
X187505270Y-99532136D01*
X187505273Y-99532134D01*
X187509781Y-99528977D01*
X187666977Y-99371781D01*
X187737489Y-99271080D01*
X187791331Y-99194185D01*
X187791332Y-99194183D01*
X187794488Y-99189676D01*
X187796811Y-99184694D01*
X187796814Y-99184689D01*
X187886117Y-98993178D01*
X187886118Y-98993177D01*
X187888440Y-98988196D01*
X187895697Y-98961115D01*
X187920565Y-98868305D01*
X187945978Y-98773463D01*
X187965353Y-98552000D01*
X187945978Y-98330537D01*
X187888440Y-98115804D01*
X187886117Y-98110822D01*
X187796814Y-97919311D01*
X187796811Y-97919306D01*
X187794488Y-97914324D01*
X187791331Y-97909815D01*
X187670136Y-97736730D01*
X187670134Y-97736727D01*
X187666977Y-97732219D01*
X187509781Y-97575023D01*
X187505273Y-97571866D01*
X187505270Y-97571864D01*
X187371531Y-97478219D01*
X187327677Y-97447512D01*
X187322695Y-97445189D01*
X187322690Y-97445186D01*
X187217627Y-97396195D01*
X187164342Y-97349278D01*
X187144881Y-97281001D01*
X187165423Y-97213041D01*
X187217627Y-97167805D01*
X187322690Y-97118814D01*
X187322695Y-97118811D01*
X187327677Y-97116488D01*
X187474076Y-97013978D01*
X187505270Y-96992136D01*
X187505273Y-96992134D01*
X187509781Y-96988977D01*
X187666977Y-96831781D01*
X187737489Y-96731080D01*
X187791331Y-96654185D01*
X187791332Y-96654183D01*
X187794488Y-96649676D01*
X187796811Y-96644694D01*
X187796814Y-96644689D01*
X187886117Y-96453178D01*
X187886118Y-96453177D01*
X187888440Y-96448196D01*
X187945978Y-96233463D01*
X187965353Y-96012000D01*
X187945978Y-95790537D01*
X187888440Y-95575804D01*
X187886117Y-95570822D01*
X187796814Y-95379311D01*
X187796811Y-95379306D01*
X187794488Y-95374324D01*
X187791331Y-95369815D01*
X187670136Y-95196730D01*
X187670134Y-95196727D01*
X187666977Y-95192219D01*
X187509781Y-95035023D01*
X187505273Y-95031866D01*
X187505270Y-95031864D01*
X187371531Y-94938219D01*
X187327677Y-94907512D01*
X187322695Y-94905189D01*
X187322690Y-94905186D01*
X187217627Y-94856195D01*
X187164342Y-94809278D01*
X187144881Y-94741001D01*
X187165423Y-94673041D01*
X187217627Y-94627805D01*
X187322690Y-94578814D01*
X187322695Y-94578811D01*
X187327677Y-94576488D01*
X187474076Y-94473978D01*
X187505270Y-94452136D01*
X187505273Y-94452134D01*
X187509781Y-94448977D01*
X187666977Y-94291781D01*
X187737489Y-94191080D01*
X187791331Y-94114185D01*
X187791332Y-94114183D01*
X187794488Y-94109676D01*
X187796811Y-94104694D01*
X187796814Y-94104689D01*
X187886117Y-93913178D01*
X187886118Y-93913177D01*
X187888440Y-93908196D01*
X187945978Y-93693463D01*
X187965353Y-93472000D01*
X187945978Y-93250537D01*
X187888440Y-93035804D01*
X187881801Y-93021566D01*
X187796814Y-92839311D01*
X187796811Y-92839306D01*
X187794488Y-92834324D01*
X187791331Y-92829815D01*
X187670136Y-92656730D01*
X187670134Y-92656727D01*
X187666977Y-92652219D01*
X187509781Y-92495023D01*
X187505273Y-92491866D01*
X187505270Y-92491864D01*
X187377973Y-92402730D01*
X187327677Y-92367512D01*
X187322695Y-92365189D01*
X187322690Y-92365186D01*
X187217627Y-92316195D01*
X187164342Y-92269278D01*
X187144881Y-92201001D01*
X187165423Y-92133041D01*
X187217627Y-92087805D01*
X187322690Y-92038814D01*
X187322695Y-92038811D01*
X187327677Y-92036488D01*
X187440369Y-91957580D01*
X187505270Y-91912136D01*
X187505273Y-91912134D01*
X187509781Y-91908977D01*
X187666977Y-91751781D01*
X187685393Y-91725481D01*
X187791331Y-91574185D01*
X187791332Y-91574183D01*
X187794488Y-91569676D01*
X187796811Y-91564694D01*
X187796814Y-91564689D01*
X187886117Y-91373178D01*
X187886118Y-91373177D01*
X187888440Y-91368196D01*
X187945978Y-91153463D01*
X187965353Y-90932000D01*
X187945978Y-90710537D01*
X187888440Y-90495804D01*
X187886117Y-90490822D01*
X187796814Y-90299311D01*
X187796811Y-90299306D01*
X187794488Y-90294324D01*
X187791331Y-90289815D01*
X187670136Y-90116730D01*
X187670134Y-90116727D01*
X187666977Y-90112219D01*
X187509781Y-89955023D01*
X187505273Y-89951866D01*
X187505270Y-89951864D01*
X187371531Y-89858219D01*
X187327677Y-89827512D01*
X187322695Y-89825189D01*
X187322690Y-89825186D01*
X187217627Y-89776195D01*
X187164342Y-89729278D01*
X187144881Y-89661001D01*
X187165423Y-89593041D01*
X187217627Y-89547805D01*
X187322690Y-89498814D01*
X187322695Y-89498811D01*
X187327677Y-89496488D01*
X187474076Y-89393978D01*
X187505270Y-89372136D01*
X187505273Y-89372134D01*
X187509781Y-89368977D01*
X187666977Y-89211781D01*
X187737489Y-89111080D01*
X187791331Y-89034185D01*
X187791332Y-89034183D01*
X187794488Y-89029676D01*
X187796811Y-89024694D01*
X187796814Y-89024689D01*
X187886117Y-88833178D01*
X187886118Y-88833177D01*
X187888440Y-88828196D01*
X187945978Y-88613463D01*
X187965353Y-88392000D01*
X187945978Y-88170537D01*
X187888440Y-87955804D01*
X187886117Y-87950822D01*
X187796814Y-87759311D01*
X187796811Y-87759306D01*
X187794488Y-87754324D01*
X187791331Y-87749815D01*
X187670136Y-87576730D01*
X187670134Y-87576727D01*
X187666977Y-87572219D01*
X187509781Y-87415023D01*
X187505273Y-87411866D01*
X187505270Y-87411864D01*
X187371531Y-87318219D01*
X187327677Y-87287512D01*
X187322695Y-87285189D01*
X187322690Y-87285186D01*
X187217627Y-87236195D01*
X187164342Y-87189278D01*
X187144881Y-87121001D01*
X187165423Y-87053041D01*
X187217627Y-87007805D01*
X187322690Y-86958814D01*
X187322695Y-86958811D01*
X187327677Y-86956488D01*
X187474076Y-86853978D01*
X187505270Y-86832136D01*
X187505273Y-86832134D01*
X187509781Y-86828977D01*
X187666977Y-86671781D01*
X187737489Y-86571080D01*
X187791331Y-86494185D01*
X187791332Y-86494183D01*
X187794488Y-86489676D01*
X187796811Y-86484694D01*
X187796814Y-86484689D01*
X187886117Y-86293178D01*
X187886118Y-86293177D01*
X187888440Y-86288196D01*
X187903109Y-86233453D01*
X187921449Y-86165006D01*
X187945978Y-86073463D01*
X187965353Y-85852000D01*
X187945978Y-85630537D01*
X187888440Y-85415804D01*
X187886117Y-85410822D01*
X187796814Y-85219311D01*
X187796811Y-85219306D01*
X187794488Y-85214324D01*
X187791331Y-85209815D01*
X187670136Y-85036730D01*
X187670134Y-85036727D01*
X187666977Y-85032219D01*
X187509781Y-84875023D01*
X187505273Y-84871866D01*
X187505270Y-84871864D01*
X187370137Y-84777243D01*
X187327677Y-84747512D01*
X187322695Y-84745189D01*
X187322690Y-84745186D01*
X187217627Y-84696195D01*
X187164342Y-84649278D01*
X187144881Y-84581001D01*
X187165423Y-84513041D01*
X187217627Y-84467805D01*
X187322690Y-84418814D01*
X187322695Y-84418811D01*
X187327677Y-84416488D01*
X187434025Y-84342022D01*
X187505270Y-84292136D01*
X187505273Y-84292134D01*
X187509781Y-84288977D01*
X187666977Y-84131781D01*
X187685456Y-84105391D01*
X187791331Y-83954185D01*
X187791332Y-83954183D01*
X187794488Y-83949676D01*
X187796811Y-83944694D01*
X187796814Y-83944689D01*
X187886117Y-83753178D01*
X187886118Y-83753177D01*
X187888440Y-83748196D01*
X187893855Y-83727989D01*
X187944554Y-83538776D01*
X187945978Y-83533463D01*
X187965353Y-83312000D01*
X187945978Y-83090537D01*
X187888440Y-82875804D01*
X187886117Y-82870822D01*
X187796814Y-82679311D01*
X187796811Y-82679306D01*
X187794488Y-82674324D01*
X187791331Y-82669815D01*
X187670136Y-82496730D01*
X187670134Y-82496727D01*
X187666977Y-82492219D01*
X187509781Y-82335023D01*
X187505273Y-82331866D01*
X187505270Y-82331864D01*
X187371531Y-82238219D01*
X187327677Y-82207512D01*
X187322695Y-82205189D01*
X187322690Y-82205186D01*
X187131178Y-82115883D01*
X187131177Y-82115882D01*
X187126196Y-82113560D01*
X187120888Y-82112138D01*
X187120886Y-82112137D01*
X187004767Y-82081023D01*
X186911463Y-82056022D01*
X186690000Y-82036647D01*
X186468537Y-82056022D01*
X186375233Y-82081023D01*
X186259114Y-82112137D01*
X186259112Y-82112138D01*
X186253804Y-82113560D01*
X186248823Y-82115882D01*
X186248822Y-82115883D01*
X186057311Y-82205186D01*
X186057306Y-82205189D01*
X186052324Y-82207512D01*
X186047817Y-82210668D01*
X186047815Y-82210669D01*
X185874730Y-82331864D01*
X185874727Y-82331866D01*
X185870219Y-82335023D01*
X185713023Y-82492219D01*
X185709866Y-82496727D01*
X185709864Y-82496730D01*
X185588669Y-82669815D01*
X185585512Y-82674324D01*
X185583189Y-82679306D01*
X185583186Y-82679311D01*
X185493883Y-82870822D01*
X185491560Y-82875804D01*
X185434022Y-83090537D01*
X185414647Y-83312000D01*
X185434022Y-83533463D01*
X185435446Y-83538776D01*
X185486146Y-83727989D01*
X185491560Y-83748196D01*
X185493882Y-83753177D01*
X185493883Y-83753178D01*
X185583186Y-83944689D01*
X185583189Y-83944694D01*
X185585512Y-83949676D01*
X185588668Y-83954183D01*
X185588669Y-83954185D01*
X185694545Y-84105391D01*
X185713023Y-84131781D01*
X185870219Y-84288977D01*
X185874727Y-84292134D01*
X185874730Y-84292136D01*
X185945975Y-84342022D01*
X186052323Y-84416488D01*
X186057305Y-84418811D01*
X186057310Y-84418814D01*
X186162373Y-84467805D01*
X186215658Y-84514722D01*
X186235119Y-84582999D01*
X186214577Y-84650959D01*
X186162373Y-84696195D01*
X186057311Y-84745186D01*
X186057306Y-84745189D01*
X186052324Y-84747512D01*
X186047817Y-84750668D01*
X186047815Y-84750669D01*
X185874730Y-84871864D01*
X185874727Y-84871866D01*
X185870219Y-84875023D01*
X185713023Y-85032219D01*
X185709866Y-85036727D01*
X185709864Y-85036730D01*
X185620209Y-85164771D01*
X185564752Y-85209099D01*
X185516996Y-85218500D01*
X175574594Y-85218500D01*
X175506473Y-85198498D01*
X175485499Y-85181595D01*
X170937652Y-80633747D01*
X170930112Y-80625461D01*
X170926000Y-80618982D01*
X170876348Y-80572356D01*
X170873507Y-80569602D01*
X170853770Y-80549865D01*
X170850573Y-80547385D01*
X170841551Y-80539680D01*
X170828116Y-80527064D01*
X170809321Y-80509414D01*
X170802375Y-80505595D01*
X170802372Y-80505593D01*
X170791566Y-80499652D01*
X170775047Y-80488801D01*
X170774583Y-80488441D01*
X170759041Y-80476386D01*
X170751772Y-80473241D01*
X170751768Y-80473238D01*
X170718463Y-80458826D01*
X170707813Y-80453609D01*
X170669060Y-80432305D01*
X170649437Y-80427267D01*
X170630734Y-80420863D01*
X170619420Y-80415967D01*
X170619419Y-80415967D01*
X170612145Y-80412819D01*
X170604322Y-80411580D01*
X170604312Y-80411577D01*
X170568476Y-80405901D01*
X170556856Y-80403495D01*
X170521711Y-80394472D01*
X170521710Y-80394472D01*
X170514030Y-80392500D01*
X170493776Y-80392500D01*
X170474065Y-80390949D01*
X170461886Y-80389020D01*
X170454057Y-80387780D01*
X170424786Y-80390547D01*
X170410039Y-80391941D01*
X170398181Y-80392500D01*
X153240767Y-80392500D01*
X153229584Y-80391973D01*
X153222091Y-80390298D01*
X153214165Y-80390547D01*
X153214164Y-80390547D01*
X153154014Y-80392438D01*
X153150055Y-80392500D01*
X153122144Y-80392500D01*
X153118210Y-80392997D01*
X153118209Y-80392997D01*
X153118144Y-80393005D01*
X153106307Y-80393938D01*
X153074490Y-80394938D01*
X153070029Y-80395078D01*
X153062110Y-80395327D01*
X153044454Y-80400456D01*
X153042658Y-80400978D01*
X153023306Y-80404986D01*
X153016235Y-80405880D01*
X153003203Y-80407526D01*
X152995834Y-80410443D01*
X152995832Y-80410444D01*
X152962097Y-80423800D01*
X152950869Y-80427645D01*
X152908407Y-80439982D01*
X152901585Y-80444016D01*
X152901579Y-80444019D01*
X152890968Y-80450294D01*
X152873218Y-80458990D01*
X152861756Y-80463528D01*
X152861751Y-80463531D01*
X152854383Y-80466448D01*
X152836970Y-80479099D01*
X152818625Y-80492427D01*
X152808707Y-80498943D01*
X152797463Y-80505593D01*
X152770637Y-80521458D01*
X152756313Y-80535782D01*
X152741281Y-80548621D01*
X152724893Y-80560528D01*
X152696712Y-80594593D01*
X152688722Y-80603373D01*
X150708595Y-82583500D01*
X150646283Y-82617526D01*
X150575468Y-82612461D01*
X150518632Y-82569914D01*
X150493821Y-82503394D01*
X150493500Y-82494405D01*
X150493500Y-67624594D01*
X150513502Y-67556473D01*
X150530405Y-67535499D01*
X152185213Y-65880691D01*
X152247525Y-65846665D01*
X152318340Y-65851730D01*
X152375176Y-65894277D01*
X152399987Y-65960797D01*
X152399829Y-65980767D01*
X152394647Y-66040000D01*
X152414022Y-66261463D01*
X152471560Y-66476196D01*
X152473882Y-66481177D01*
X152473883Y-66481178D01*
X152563186Y-66672689D01*
X152563189Y-66672694D01*
X152565512Y-66677676D01*
X152568668Y-66682183D01*
X152568669Y-66682185D01*
X152667813Y-66823777D01*
X152693023Y-66859781D01*
X152850219Y-67016977D01*
X152854727Y-67020134D01*
X152854730Y-67020136D01*
X152870230Y-67030989D01*
X153032323Y-67144488D01*
X153037305Y-67146811D01*
X153037310Y-67146814D01*
X153142373Y-67195805D01*
X153195658Y-67242722D01*
X153215119Y-67310999D01*
X153194577Y-67378959D01*
X153142373Y-67424195D01*
X153037311Y-67473186D01*
X153037306Y-67473189D01*
X153032324Y-67475512D01*
X153027817Y-67478668D01*
X153027815Y-67478669D01*
X152854730Y-67599864D01*
X152854727Y-67599866D01*
X152850219Y-67603023D01*
X152693023Y-67760219D01*
X152565512Y-67942324D01*
X152563189Y-67947306D01*
X152563186Y-67947311D01*
X152473883Y-68138822D01*
X152471560Y-68143804D01*
X152414022Y-68358537D01*
X152394647Y-68580000D01*
X152414022Y-68801463D01*
X152436778Y-68886387D01*
X152460172Y-68973694D01*
X152471560Y-69016196D01*
X152473882Y-69021177D01*
X152473883Y-69021178D01*
X152563186Y-69212689D01*
X152563189Y-69212694D01*
X152565512Y-69217676D01*
X152568668Y-69222183D01*
X152568669Y-69222185D01*
X152658518Y-69350502D01*
X152693023Y-69399781D01*
X152850219Y-69556977D01*
X152854727Y-69560134D01*
X152854730Y-69560136D01*
X152903964Y-69594610D01*
X153032323Y-69684488D01*
X153037305Y-69686811D01*
X153037310Y-69686814D01*
X153142373Y-69735805D01*
X153195658Y-69782722D01*
X153215119Y-69850999D01*
X153194577Y-69918959D01*
X153142373Y-69964195D01*
X153037311Y-70013186D01*
X153037306Y-70013189D01*
X153032324Y-70015512D01*
X153027817Y-70018668D01*
X153027815Y-70018669D01*
X152854730Y-70139864D01*
X152854727Y-70139866D01*
X152850219Y-70143023D01*
X152693023Y-70300219D01*
X152689866Y-70304727D01*
X152689864Y-70304730D01*
X152568669Y-70477815D01*
X152565512Y-70482324D01*
X152563189Y-70487306D01*
X152563186Y-70487311D01*
X152490228Y-70643770D01*
X152471560Y-70683804D01*
X152414022Y-70898537D01*
X152394647Y-71120000D01*
X152414022Y-71341463D01*
X152471560Y-71556196D01*
X152473882Y-71561177D01*
X152473883Y-71561178D01*
X152563186Y-71752689D01*
X152563189Y-71752694D01*
X152565512Y-71757676D01*
X152568668Y-71762183D01*
X152568669Y-71762185D01*
X152669233Y-71905805D01*
X152693023Y-71939781D01*
X152850219Y-72096977D01*
X152854727Y-72100134D01*
X152854730Y-72100136D01*
X152930495Y-72153187D01*
X153032323Y-72224488D01*
X153037305Y-72226811D01*
X153037310Y-72226814D01*
X153142373Y-72275805D01*
X153195658Y-72322722D01*
X153215119Y-72390999D01*
X153194577Y-72458959D01*
X153142373Y-72504195D01*
X153037311Y-72553186D01*
X153037306Y-72553189D01*
X153032324Y-72555512D01*
X153027817Y-72558668D01*
X153027815Y-72558669D01*
X152854730Y-72679864D01*
X152854727Y-72679866D01*
X152850219Y-72683023D01*
X152693023Y-72840219D01*
X152565512Y-73022324D01*
X152563189Y-73027306D01*
X152563186Y-73027311D01*
X152473883Y-73218822D01*
X152471560Y-73223804D01*
X152414022Y-73438537D01*
X152394647Y-73660000D01*
X152414022Y-73881463D01*
X152471560Y-74096196D01*
X152473882Y-74101177D01*
X152473883Y-74101178D01*
X152563186Y-74292689D01*
X152563189Y-74292694D01*
X152565512Y-74297676D01*
X152568668Y-74302183D01*
X152568669Y-74302185D01*
X152569171Y-74302901D01*
X152693023Y-74479781D01*
X152850219Y-74636977D01*
X152854727Y-74640134D01*
X152854730Y-74640136D01*
X152930495Y-74693187D01*
X153032323Y-74764488D01*
X153037305Y-74766811D01*
X153037310Y-74766814D01*
X153228822Y-74856117D01*
X153233804Y-74858440D01*
X153239112Y-74859862D01*
X153239114Y-74859863D01*
X153304949Y-74877503D01*
X153448537Y-74915978D01*
X153670000Y-74935353D01*
X153891463Y-74915978D01*
X154035051Y-74877503D01*
X154100886Y-74859863D01*
X154100888Y-74859862D01*
X154106196Y-74858440D01*
X154111178Y-74856117D01*
X154302690Y-74766814D01*
X154302695Y-74766811D01*
X154307677Y-74764488D01*
X154409505Y-74693187D01*
X154485270Y-74640136D01*
X154485273Y-74640134D01*
X154489781Y-74636977D01*
X154646977Y-74479781D01*
X154739791Y-74347229D01*
X154795248Y-74302901D01*
X154843004Y-74293500D01*
X168069233Y-74293500D01*
X168080416Y-74294027D01*
X168087909Y-74295702D01*
X168095835Y-74295453D01*
X168095836Y-74295453D01*
X168155986Y-74293562D01*
X168159945Y-74293500D01*
X168187856Y-74293500D01*
X168191791Y-74293003D01*
X168191856Y-74292995D01*
X168203693Y-74292062D01*
X168235951Y-74291048D01*
X168239970Y-74290922D01*
X168247889Y-74290673D01*
X168267343Y-74285021D01*
X168286700Y-74281013D01*
X168298930Y-74279468D01*
X168298931Y-74279468D01*
X168306797Y-74278474D01*
X168314168Y-74275555D01*
X168314170Y-74275555D01*
X168347912Y-74262196D01*
X168359142Y-74258351D01*
X168393983Y-74248229D01*
X168393984Y-74248229D01*
X168401593Y-74246018D01*
X168408412Y-74241985D01*
X168408417Y-74241983D01*
X168419028Y-74235707D01*
X168436776Y-74227012D01*
X168455617Y-74219552D01*
X168491387Y-74193564D01*
X168501307Y-74187048D01*
X168532535Y-74168580D01*
X168532538Y-74168578D01*
X168539362Y-74164542D01*
X168553686Y-74150218D01*
X168568713Y-74137383D01*
X168585107Y-74125472D01*
X168613288Y-74091407D01*
X168621277Y-74082627D01*
X168774258Y-73929647D01*
X168782537Y-73922113D01*
X168789018Y-73918000D01*
X168835645Y-73868347D01*
X168838399Y-73865506D01*
X168858135Y-73845770D01*
X168860615Y-73842573D01*
X168868320Y-73833551D01*
X168893159Y-73807100D01*
X168898586Y-73801321D01*
X168902405Y-73794375D01*
X168902407Y-73794372D01*
X168908348Y-73783566D01*
X168919199Y-73767047D01*
X168926758Y-73757301D01*
X168931614Y-73751041D01*
X168934759Y-73743772D01*
X168934762Y-73743768D01*
X168949174Y-73710463D01*
X168954391Y-73699813D01*
X168975695Y-73661060D01*
X168980733Y-73641437D01*
X168987137Y-73622734D01*
X168992033Y-73611420D01*
X168992033Y-73611419D01*
X168995181Y-73604145D01*
X168996420Y-73596322D01*
X168996423Y-73596312D01*
X169002099Y-73560476D01*
X169004505Y-73548856D01*
X169013528Y-73513711D01*
X169013528Y-73513710D01*
X169015500Y-73506030D01*
X169015500Y-73485776D01*
X169017051Y-73466065D01*
X169018980Y-73453886D01*
X169020220Y-73446057D01*
X169016059Y-73402038D01*
X169015500Y-73390181D01*
X169015500Y-72274596D01*
X169035502Y-72206475D01*
X169076134Y-72166877D01*
X169087184Y-72160172D01*
X169185317Y-72100623D01*
X169225134Y-72066072D01*
X169355412Y-71953023D01*
X169355414Y-71953021D01*
X169359445Y-71949523D01*
X169426500Y-71867744D01*
X169502240Y-71775373D01*
X169502244Y-71775367D01*
X169505624Y-71771245D01*
X169510782Y-71762185D01*
X169617032Y-71575529D01*
X169619675Y-71570886D01*
X169698337Y-71354175D01*
X169700636Y-71341463D01*
X169738623Y-71131392D01*
X169738624Y-71131385D01*
X169739361Y-71127308D01*
X169740500Y-71103156D01*
X169740500Y-70641110D01*
X169727027Y-70482324D01*
X169726371Y-70474591D01*
X169726370Y-70474587D01*
X169725920Y-70469280D01*
X169724582Y-70464125D01*
X169724581Y-70464119D01*
X169669343Y-70251297D01*
X169669342Y-70251293D01*
X169668001Y-70246128D01*
X169573312Y-70035925D01*
X169444559Y-69844681D01*
X169285424Y-69677865D01*
X169100458Y-69540246D01*
X169095706Y-69537830D01*
X169095698Y-69537825D01*
X169084394Y-69532078D01*
X169032737Y-69483375D01*
X169015500Y-69419762D01*
X169015500Y-63072594D01*
X169035502Y-63004473D01*
X169052405Y-62983499D01*
X170559778Y-61476126D01*
X170622090Y-61442100D01*
X170681484Y-61443514D01*
X170704358Y-61449643D01*
X170720537Y-61453978D01*
X170942000Y-61473353D01*
X171163463Y-61453978D01*
X171360514Y-61401178D01*
X171372886Y-61397863D01*
X171372888Y-61397862D01*
X171378196Y-61396440D01*
X171454142Y-61361026D01*
X171574690Y-61304814D01*
X171574695Y-61304811D01*
X171579677Y-61302488D01*
X171681505Y-61231187D01*
X171757270Y-61178136D01*
X171757273Y-61178134D01*
X171761781Y-61174977D01*
X171918977Y-61017781D01*
X171963270Y-60954525D01*
X172043331Y-60840185D01*
X172043332Y-60840183D01*
X172046488Y-60835676D01*
X172048811Y-60830694D01*
X172048814Y-60830689D01*
X172138117Y-60639178D01*
X172138118Y-60639177D01*
X172140440Y-60634196D01*
X172197978Y-60419463D01*
X172217353Y-60198000D01*
X172197978Y-59976537D01*
X172140440Y-59761804D01*
X172113496Y-59704022D01*
X172048814Y-59565311D01*
X172048811Y-59565306D01*
X172046488Y-59560324D01*
X171918977Y-59378219D01*
X171761781Y-59221023D01*
X171757273Y-59217866D01*
X171757270Y-59217864D01*
X171681505Y-59164813D01*
X171579677Y-59093512D01*
X171574695Y-59091189D01*
X171574690Y-59091186D01*
X171383178Y-59001883D01*
X171383177Y-59001882D01*
X171378196Y-58999560D01*
X171372888Y-58998138D01*
X171372886Y-58998137D01*
X171307051Y-58980497D01*
X171163463Y-58942022D01*
X170942000Y-58922647D01*
X170720537Y-58942022D01*
X170576949Y-58980497D01*
X170511114Y-58998137D01*
X170511112Y-58998138D01*
X170505804Y-58999560D01*
X170500823Y-59001882D01*
X170500822Y-59001883D01*
X170309311Y-59091186D01*
X170309306Y-59091189D01*
X170304324Y-59093512D01*
X170299817Y-59096668D01*
X170299815Y-59096669D01*
X170126730Y-59217864D01*
X170126727Y-59217866D01*
X170122219Y-59221023D01*
X169965023Y-59378219D01*
X169837512Y-59560324D01*
X169835189Y-59565306D01*
X169835186Y-59565311D01*
X169770504Y-59704022D01*
X169743560Y-59761804D01*
X169686022Y-59976537D01*
X169666647Y-60198000D01*
X169686022Y-60419463D01*
X169687446Y-60424776D01*
X169687446Y-60424777D01*
X169696486Y-60458516D01*
X169694796Y-60529493D01*
X169663874Y-60580222D01*
X168819409Y-61424686D01*
X167989747Y-62254348D01*
X167981461Y-62261888D01*
X167974982Y-62266000D01*
X167969557Y-62271777D01*
X167928357Y-62315651D01*
X167925602Y-62318493D01*
X167905865Y-62338230D01*
X167903385Y-62341427D01*
X167895682Y-62350447D01*
X167865414Y-62382679D01*
X167861595Y-62389625D01*
X167861593Y-62389628D01*
X167855652Y-62400434D01*
X167844801Y-62416953D01*
X167832386Y-62432959D01*
X167829241Y-62440228D01*
X167829238Y-62440232D01*
X167814826Y-62473537D01*
X167809609Y-62484187D01*
X167788305Y-62522940D01*
X167786334Y-62530615D01*
X167786334Y-62530616D01*
X167783267Y-62542562D01*
X167776863Y-62561266D01*
X167773235Y-62569651D01*
X167768819Y-62579855D01*
X167767580Y-62587678D01*
X167767577Y-62587688D01*
X167761901Y-62623524D01*
X167759495Y-62635144D01*
X167748500Y-62677970D01*
X167748500Y-62698224D01*
X167746949Y-62717934D01*
X167743780Y-62737943D01*
X167744526Y-62745835D01*
X167747941Y-62781961D01*
X167748500Y-62793819D01*
X167748500Y-69423404D01*
X167728498Y-69491525D01*
X167687867Y-69531122D01*
X167578683Y-69597377D01*
X167574653Y-69600874D01*
X167475616Y-69686814D01*
X167404555Y-69748477D01*
X167375330Y-69784120D01*
X167316671Y-69824114D01*
X167245701Y-69826046D01*
X167184952Y-69789302D01*
X167170752Y-69770532D01*
X167084332Y-69630880D01*
X167080478Y-69624652D01*
X166955303Y-69499695D01*
X166831537Y-69423404D01*
X166810968Y-69410725D01*
X166810966Y-69410724D01*
X166804738Y-69406885D01*
X166724995Y-69380436D01*
X166643389Y-69353368D01*
X166643387Y-69353368D01*
X166636861Y-69351203D01*
X166630025Y-69350503D01*
X166630022Y-69350502D01*
X166586969Y-69346091D01*
X166532400Y-69340500D01*
X165321594Y-69340500D01*
X165253473Y-69320498D01*
X165232499Y-69303595D01*
X163992405Y-68063500D01*
X163958379Y-68001188D01*
X163955500Y-67974405D01*
X163955500Y-61371004D01*
X163975502Y-61302883D01*
X164009229Y-61267791D01*
X164137270Y-61178136D01*
X164137273Y-61178134D01*
X164141781Y-61174977D01*
X164298977Y-61017781D01*
X164343270Y-60954525D01*
X164423331Y-60840185D01*
X164423332Y-60840183D01*
X164426488Y-60835676D01*
X164428811Y-60830694D01*
X164428814Y-60830689D01*
X164518117Y-60639178D01*
X164518118Y-60639177D01*
X164520440Y-60634196D01*
X164577978Y-60419463D01*
X164597353Y-60198000D01*
X164577978Y-59976537D01*
X164520440Y-59761804D01*
X164493496Y-59704022D01*
X164428814Y-59565311D01*
X164428811Y-59565306D01*
X164426488Y-59560324D01*
X164298977Y-59378219D01*
X164141781Y-59221023D01*
X164137273Y-59217866D01*
X164137270Y-59217864D01*
X164061505Y-59164813D01*
X163959677Y-59093512D01*
X163954695Y-59091189D01*
X163954690Y-59091186D01*
X163763178Y-59001883D01*
X163763177Y-59001882D01*
X163758196Y-58999560D01*
X163752888Y-58998138D01*
X163752886Y-58998137D01*
X163687051Y-58980497D01*
X163543463Y-58942022D01*
X163322000Y-58922647D01*
X163100537Y-58942022D01*
X162956949Y-58980497D01*
X162891114Y-58998137D01*
X162891112Y-58998138D01*
X162885804Y-58999560D01*
X162880823Y-59001882D01*
X162880822Y-59001883D01*
X162689311Y-59091186D01*
X162689306Y-59091189D01*
X162684324Y-59093512D01*
X162679817Y-59096668D01*
X162679815Y-59096669D01*
X162506730Y-59217864D01*
X162506727Y-59217866D01*
X162502219Y-59221023D01*
X162345023Y-59378219D01*
X162217512Y-59560324D01*
X162215189Y-59565306D01*
X162215186Y-59565311D01*
X162150504Y-59704022D01*
X162123560Y-59761804D01*
X162066022Y-59976537D01*
X162046647Y-60198000D01*
X162066022Y-60419463D01*
X162123560Y-60634196D01*
X162125882Y-60639177D01*
X162125883Y-60639178D01*
X162215186Y-60830689D01*
X162215189Y-60830694D01*
X162217512Y-60835676D01*
X162220668Y-60840183D01*
X162220669Y-60840185D01*
X162300731Y-60954525D01*
X162345023Y-61017781D01*
X162502219Y-61174977D01*
X162506727Y-61178134D01*
X162506730Y-61178136D01*
X162634771Y-61267791D01*
X162679099Y-61323248D01*
X162688500Y-61371004D01*
X162688500Y-68210233D01*
X162687973Y-68221416D01*
X162686298Y-68228909D01*
X162686547Y-68236835D01*
X162686547Y-68236836D01*
X162688438Y-68296986D01*
X162688500Y-68300945D01*
X162688500Y-68328856D01*
X162688997Y-68332790D01*
X162688997Y-68332791D01*
X162689005Y-68332856D01*
X162689938Y-68344693D01*
X162691327Y-68388889D01*
X162696978Y-68408339D01*
X162700987Y-68427700D01*
X162703526Y-68447797D01*
X162706445Y-68455168D01*
X162706445Y-68455170D01*
X162719804Y-68488912D01*
X162723649Y-68500142D01*
X162735982Y-68542593D01*
X162740015Y-68549412D01*
X162740017Y-68549417D01*
X162746293Y-68560028D01*
X162754988Y-68577776D01*
X162762448Y-68596617D01*
X162767110Y-68603033D01*
X162767110Y-68603034D01*
X162788436Y-68632387D01*
X162794952Y-68642307D01*
X162817458Y-68680362D01*
X162831779Y-68694683D01*
X162844619Y-68709716D01*
X162856528Y-68726107D01*
X162862634Y-68731158D01*
X162890605Y-68754298D01*
X162899384Y-68762288D01*
X164408501Y-70271405D01*
X164442527Y-70333717D01*
X164437462Y-70404532D01*
X164394915Y-70461368D01*
X164328395Y-70486179D01*
X164319406Y-70486500D01*
X154843004Y-70486500D01*
X154774883Y-70466498D01*
X154739791Y-70432771D01*
X154650136Y-70304730D01*
X154650134Y-70304727D01*
X154646977Y-70300219D01*
X154489781Y-70143023D01*
X154485273Y-70139866D01*
X154485270Y-70139864D01*
X154343789Y-70040798D01*
X154307677Y-70015512D01*
X154302695Y-70013189D01*
X154302690Y-70013186D01*
X154197627Y-69964195D01*
X154144342Y-69917278D01*
X154124881Y-69849001D01*
X154145423Y-69781041D01*
X154197627Y-69735805D01*
X154302690Y-69686814D01*
X154302695Y-69686811D01*
X154307677Y-69684488D01*
X154436036Y-69594610D01*
X154485270Y-69560136D01*
X154485273Y-69560134D01*
X154489781Y-69556977D01*
X154646977Y-69399781D01*
X154681483Y-69350502D01*
X154771331Y-69222185D01*
X154771332Y-69222183D01*
X154774488Y-69217676D01*
X154776811Y-69212694D01*
X154776814Y-69212689D01*
X154866117Y-69021178D01*
X154866118Y-69021177D01*
X154868440Y-69016196D01*
X154879829Y-68973694D01*
X154903222Y-68886387D01*
X154925978Y-68801463D01*
X154945353Y-68580000D01*
X154925978Y-68358537D01*
X154868440Y-68143804D01*
X154866117Y-68138822D01*
X154776814Y-67947311D01*
X154776811Y-67947306D01*
X154774488Y-67942324D01*
X154646977Y-67760219D01*
X154489781Y-67603023D01*
X154485273Y-67599866D01*
X154485270Y-67599864D01*
X154393347Y-67535499D01*
X154307677Y-67475512D01*
X154302695Y-67473189D01*
X154302690Y-67473186D01*
X154197627Y-67424195D01*
X154144342Y-67377278D01*
X154124881Y-67309001D01*
X154145423Y-67241041D01*
X154197627Y-67195805D01*
X154302690Y-67146814D01*
X154302695Y-67146811D01*
X154307677Y-67144488D01*
X154469770Y-67030989D01*
X154485270Y-67020136D01*
X154485273Y-67020134D01*
X154489781Y-67016977D01*
X154646977Y-66859781D01*
X154672188Y-66823777D01*
X154771331Y-66682185D01*
X154771332Y-66682183D01*
X154774488Y-66677676D01*
X154776811Y-66672694D01*
X154776814Y-66672689D01*
X154866117Y-66481178D01*
X154866118Y-66481177D01*
X154868440Y-66476196D01*
X154925978Y-66261463D01*
X154945353Y-66040000D01*
X154925978Y-65818537D01*
X154915514Y-65779484D01*
X154917204Y-65708507D01*
X154948126Y-65657778D01*
X156856247Y-63749657D01*
X156864537Y-63742113D01*
X156871018Y-63738000D01*
X156917659Y-63688332D01*
X156920413Y-63685491D01*
X156940135Y-63665769D01*
X156942619Y-63662567D01*
X156950317Y-63653555D01*
X156975161Y-63627098D01*
X156980586Y-63621321D01*
X156990347Y-63603566D01*
X157001198Y-63587047D01*
X157013614Y-63571041D01*
X157031174Y-63530463D01*
X157036391Y-63519813D01*
X157057695Y-63481060D01*
X157062733Y-63461437D01*
X157069137Y-63442734D01*
X157074033Y-63431420D01*
X157074033Y-63431419D01*
X157077181Y-63424145D01*
X157078420Y-63416322D01*
X157078423Y-63416312D01*
X157084099Y-63380476D01*
X157086505Y-63368856D01*
X157095528Y-63333711D01*
X157095528Y-63333710D01*
X157097500Y-63326030D01*
X157097500Y-63305776D01*
X157099051Y-63286065D01*
X157100980Y-63273886D01*
X157102220Y-63266057D01*
X157098059Y-63222038D01*
X157097500Y-63210181D01*
X157097500Y-59046767D01*
X157098027Y-59035584D01*
X157099702Y-59028091D01*
X157098761Y-58998137D01*
X157097562Y-58960014D01*
X157097500Y-58956055D01*
X157097500Y-58928144D01*
X157096995Y-58924144D01*
X157096062Y-58912301D01*
X157094922Y-58876029D01*
X157094673Y-58868110D01*
X157089022Y-58848658D01*
X157085014Y-58829306D01*
X157083467Y-58817063D01*
X157082474Y-58809203D01*
X157079556Y-58801832D01*
X157066200Y-58768097D01*
X157062355Y-58756870D01*
X157061721Y-58754687D01*
X157050018Y-58714407D01*
X157039707Y-58696972D01*
X157031012Y-58679224D01*
X157023552Y-58660383D01*
X156997564Y-58624613D01*
X156991048Y-58614693D01*
X156972580Y-58583465D01*
X156972578Y-58583462D01*
X156968542Y-58576638D01*
X156954221Y-58562317D01*
X156941380Y-58547283D01*
X156934131Y-58537306D01*
X156929472Y-58530893D01*
X156895395Y-58502702D01*
X156886616Y-58494712D01*
X153509904Y-55118000D01*
X162046647Y-55118000D01*
X162066022Y-55339463D01*
X162123560Y-55554196D01*
X162125882Y-55559177D01*
X162125883Y-55559178D01*
X162215186Y-55750689D01*
X162215189Y-55750694D01*
X162217512Y-55755676D01*
X162345023Y-55937781D01*
X162502219Y-56094977D01*
X162506727Y-56098134D01*
X162506730Y-56098136D01*
X162509661Y-56100188D01*
X162684323Y-56222488D01*
X162689305Y-56224811D01*
X162689310Y-56224814D01*
X162880822Y-56314117D01*
X162885804Y-56316440D01*
X162891112Y-56317862D01*
X162891114Y-56317863D01*
X162956949Y-56335503D01*
X163100537Y-56373978D01*
X163322000Y-56393353D01*
X163543463Y-56373978D01*
X163687051Y-56335503D01*
X163752886Y-56317863D01*
X163752888Y-56317862D01*
X163758196Y-56316440D01*
X163763178Y-56314117D01*
X163954690Y-56224814D01*
X163954695Y-56224811D01*
X163959677Y-56222488D01*
X164134339Y-56100188D01*
X164137270Y-56098136D01*
X164137273Y-56098134D01*
X164141781Y-56094977D01*
X164298977Y-55937781D01*
X164426488Y-55755676D01*
X164428811Y-55750694D01*
X164428814Y-55750689D01*
X164518117Y-55559178D01*
X164518118Y-55559177D01*
X164520440Y-55554196D01*
X164577978Y-55339463D01*
X164597353Y-55118000D01*
X169666647Y-55118000D01*
X169686022Y-55339463D01*
X169743560Y-55554196D01*
X169745882Y-55559177D01*
X169745883Y-55559178D01*
X169835186Y-55750689D01*
X169835189Y-55750694D01*
X169837512Y-55755676D01*
X169965023Y-55937781D01*
X170122219Y-56094977D01*
X170126727Y-56098134D01*
X170126730Y-56098136D01*
X170129661Y-56100188D01*
X170304323Y-56222488D01*
X170309305Y-56224811D01*
X170309310Y-56224814D01*
X170500822Y-56314117D01*
X170505804Y-56316440D01*
X170511112Y-56317862D01*
X170511114Y-56317863D01*
X170576949Y-56335503D01*
X170720537Y-56373978D01*
X170942000Y-56393353D01*
X171163463Y-56373978D01*
X171307051Y-56335503D01*
X171372886Y-56317863D01*
X171372888Y-56317862D01*
X171378196Y-56316440D01*
X171383178Y-56314117D01*
X171574690Y-56224814D01*
X171574695Y-56224811D01*
X171579677Y-56222488D01*
X171754339Y-56100188D01*
X171757270Y-56098136D01*
X171757273Y-56098134D01*
X171761781Y-56094977D01*
X171918977Y-55937781D01*
X172046488Y-55755676D01*
X172048811Y-55750694D01*
X172048814Y-55750689D01*
X172138117Y-55559178D01*
X172138118Y-55559177D01*
X172140440Y-55554196D01*
X172197978Y-55339463D01*
X172217353Y-55118000D01*
X172197978Y-54896537D01*
X172140440Y-54681804D01*
X172138117Y-54676822D01*
X172048814Y-54485311D01*
X172048811Y-54485306D01*
X172046488Y-54480324D01*
X171918977Y-54298219D01*
X171761781Y-54141023D01*
X171757273Y-54137866D01*
X171757270Y-54137864D01*
X171681505Y-54084813D01*
X171579677Y-54013512D01*
X171574695Y-54011189D01*
X171574690Y-54011186D01*
X171383178Y-53921883D01*
X171383177Y-53921882D01*
X171378196Y-53919560D01*
X171372888Y-53918138D01*
X171372886Y-53918137D01*
X171307051Y-53900497D01*
X171163463Y-53862022D01*
X170942000Y-53842647D01*
X170720537Y-53862022D01*
X170576949Y-53900497D01*
X170511114Y-53918137D01*
X170511112Y-53918138D01*
X170505804Y-53919560D01*
X170500823Y-53921882D01*
X170500822Y-53921883D01*
X170309311Y-54011186D01*
X170309306Y-54011189D01*
X170304324Y-54013512D01*
X170299817Y-54016668D01*
X170299815Y-54016669D01*
X170126730Y-54137864D01*
X170126727Y-54137866D01*
X170122219Y-54141023D01*
X169965023Y-54298219D01*
X169837512Y-54480324D01*
X169835189Y-54485306D01*
X169835186Y-54485311D01*
X169745883Y-54676822D01*
X169743560Y-54681804D01*
X169686022Y-54896537D01*
X169666647Y-55118000D01*
X164597353Y-55118000D01*
X164577978Y-54896537D01*
X164520440Y-54681804D01*
X164518117Y-54676822D01*
X164428814Y-54485311D01*
X164428811Y-54485306D01*
X164426488Y-54480324D01*
X164298977Y-54298219D01*
X164141781Y-54141023D01*
X164137273Y-54137866D01*
X164137270Y-54137864D01*
X164061505Y-54084813D01*
X163959677Y-54013512D01*
X163954695Y-54011189D01*
X163954690Y-54011186D01*
X163763178Y-53921883D01*
X163763177Y-53921882D01*
X163758196Y-53919560D01*
X163752888Y-53918138D01*
X163752886Y-53918137D01*
X163687051Y-53900497D01*
X163543463Y-53862022D01*
X163322000Y-53842647D01*
X163100537Y-53862022D01*
X162956949Y-53900497D01*
X162891114Y-53918137D01*
X162891112Y-53918138D01*
X162885804Y-53919560D01*
X162880823Y-53921882D01*
X162880822Y-53921883D01*
X162689311Y-54011186D01*
X162689306Y-54011189D01*
X162684324Y-54013512D01*
X162679817Y-54016668D01*
X162679815Y-54016669D01*
X162506730Y-54137864D01*
X162506727Y-54137866D01*
X162502219Y-54141023D01*
X162345023Y-54298219D01*
X162217512Y-54480324D01*
X162215189Y-54485306D01*
X162215186Y-54485311D01*
X162125883Y-54676822D01*
X162123560Y-54681804D01*
X162066022Y-54896537D01*
X162046647Y-55118000D01*
X153509904Y-55118000D01*
X148909942Y-50518037D01*
X148875916Y-50455725D01*
X148875048Y-50406521D01*
X148890623Y-50320392D01*
X148890624Y-50320384D01*
X148891361Y-50316308D01*
X148892500Y-50292156D01*
X148892500Y-49830110D01*
X148886822Y-49763191D01*
X148878371Y-49663591D01*
X148878370Y-49663587D01*
X148877920Y-49658280D01*
X148876582Y-49653125D01*
X148876581Y-49653119D01*
X148821343Y-49440297D01*
X148821342Y-49440293D01*
X148820001Y-49435128D01*
X148725312Y-49224925D01*
X148596559Y-49033681D01*
X148537918Y-48972209D01*
X148525347Y-48959032D01*
X148437424Y-48866865D01*
X148252458Y-48729246D01*
X148247707Y-48726830D01*
X148247703Y-48726828D01*
X148125731Y-48664815D01*
X148046949Y-48624760D01*
X148041855Y-48623178D01*
X148041852Y-48623177D01*
X147831871Y-48557976D01*
X147826773Y-48556393D01*
X147821484Y-48555692D01*
X147603511Y-48526802D01*
X147603506Y-48526802D01*
X147598226Y-48526102D01*
X147592897Y-48526302D01*
X147592895Y-48526302D01*
X147483034Y-48530427D01*
X147367842Y-48534751D01*
X147362623Y-48535846D01*
X147340566Y-48540474D01*
X147142209Y-48582093D01*
X147137250Y-48584051D01*
X147137248Y-48584052D01*
X146932744Y-48664815D01*
X146932742Y-48664816D01*
X146927779Y-48666776D01*
X146923220Y-48669543D01*
X146923217Y-48669544D01*
X146824832Y-48729246D01*
X146730683Y-48786377D01*
X146726653Y-48789874D01*
X146633484Y-48870722D01*
X146556555Y-48937477D01*
X146527330Y-48973120D01*
X146468671Y-49013114D01*
X146397701Y-49015046D01*
X146336952Y-48978302D01*
X146322752Y-48959532D01*
X146236332Y-48819880D01*
X146232478Y-48813652D01*
X146107303Y-48688695D01*
X146101072Y-48684854D01*
X145962968Y-48599725D01*
X145962966Y-48599724D01*
X145956738Y-48595885D01*
X145876995Y-48569436D01*
X145795389Y-48542368D01*
X145795387Y-48542368D01*
X145788861Y-48540203D01*
X145782025Y-48539503D01*
X145782022Y-48539502D01*
X145738969Y-48535091D01*
X145684400Y-48529500D01*
X144383600Y-48529500D01*
X144380354Y-48529837D01*
X144380350Y-48529837D01*
X144284692Y-48539762D01*
X144284688Y-48539763D01*
X144277834Y-48540474D01*
X144271298Y-48542655D01*
X144271296Y-48542655D01*
X144232220Y-48555692D01*
X144110054Y-48596450D01*
X143959652Y-48689522D01*
X143834695Y-48814697D01*
X143830855Y-48820927D01*
X143830854Y-48820928D01*
X143800161Y-48870722D01*
X143741885Y-48965262D01*
X143686203Y-49133139D01*
X143675500Y-49237600D01*
X143675500Y-50838400D01*
X143686474Y-50944166D01*
X143688655Y-50950702D01*
X143688655Y-50950704D01*
X143724033Y-51056744D01*
X143742450Y-51111946D01*
X143835522Y-51262348D01*
X143960697Y-51387305D01*
X143966927Y-51391145D01*
X143966928Y-51391146D01*
X144104090Y-51475694D01*
X144111262Y-51480115D01*
X144146941Y-51491949D01*
X144272611Y-51533632D01*
X144272613Y-51533632D01*
X144279139Y-51535797D01*
X144285980Y-51536498D01*
X144285985Y-51536499D01*
X144287349Y-51536639D01*
X144288136Y-51536960D01*
X144292710Y-51537941D01*
X144292535Y-51538757D01*
X144353075Y-51563483D01*
X144393854Y-51621600D01*
X144400500Y-51661982D01*
X144400500Y-56309233D01*
X144399973Y-56320416D01*
X144398298Y-56327909D01*
X144398547Y-56335835D01*
X144398547Y-56335836D01*
X144400438Y-56395986D01*
X144400500Y-56399945D01*
X144400500Y-56427856D01*
X144400997Y-56431790D01*
X144400997Y-56431791D01*
X144401005Y-56431856D01*
X144401938Y-56443693D01*
X144403327Y-56487889D01*
X144408978Y-56507339D01*
X144412987Y-56526700D01*
X144415526Y-56546797D01*
X144418445Y-56554168D01*
X144418445Y-56554170D01*
X144431804Y-56587912D01*
X144435649Y-56599142D01*
X144447982Y-56641593D01*
X144452015Y-56648412D01*
X144452017Y-56648417D01*
X144458293Y-56659028D01*
X144466988Y-56676776D01*
X144474448Y-56695617D01*
X144479110Y-56702033D01*
X144479110Y-56702034D01*
X144500436Y-56731387D01*
X144506952Y-56741307D01*
X144529458Y-56779362D01*
X144543779Y-56793683D01*
X144556619Y-56808716D01*
X144568528Y-56825107D01*
X144574634Y-56830158D01*
X144602605Y-56853298D01*
X144611384Y-56861288D01*
X149102343Y-61352247D01*
X149109887Y-61360537D01*
X149114000Y-61367018D01*
X149119777Y-61372443D01*
X149163667Y-61413658D01*
X149166509Y-61416413D01*
X149186230Y-61436134D01*
X149189425Y-61438612D01*
X149198447Y-61446318D01*
X149230679Y-61476586D01*
X149237628Y-61480406D01*
X149248432Y-61486346D01*
X149264956Y-61497199D01*
X149280959Y-61509613D01*
X149321543Y-61527176D01*
X149332173Y-61532383D01*
X149370940Y-61553695D01*
X149378617Y-61555666D01*
X149378622Y-61555668D01*
X149390558Y-61558732D01*
X149409266Y-61565137D01*
X149427855Y-61573181D01*
X149435680Y-61574420D01*
X149435682Y-61574421D01*
X149471519Y-61580097D01*
X149483140Y-61582504D01*
X149518289Y-61591528D01*
X149525970Y-61593500D01*
X149546231Y-61593500D01*
X149565940Y-61595051D01*
X149585943Y-61598219D01*
X149593835Y-61597473D01*
X149599062Y-61596979D01*
X149629954Y-61594059D01*
X149641811Y-61593500D01*
X152496996Y-61593500D01*
X152565117Y-61613502D01*
X152600209Y-61647229D01*
X152693023Y-61779781D01*
X152850219Y-61936977D01*
X152854727Y-61940134D01*
X152854730Y-61940136D01*
X152930495Y-61993187D01*
X153032323Y-62064488D01*
X153037305Y-62066811D01*
X153037310Y-62066814D01*
X153142373Y-62115805D01*
X153195658Y-62162722D01*
X153215119Y-62230999D01*
X153194577Y-62298959D01*
X153142373Y-62344195D01*
X153037311Y-62393186D01*
X153037306Y-62393189D01*
X153032324Y-62395512D01*
X153027817Y-62398668D01*
X153027815Y-62398669D01*
X152854730Y-62519864D01*
X152854727Y-62519866D01*
X152850219Y-62523023D01*
X152693023Y-62680219D01*
X152689866Y-62684727D01*
X152689864Y-62684730D01*
X152611559Y-62796562D01*
X152565512Y-62862324D01*
X152563189Y-62867306D01*
X152563186Y-62867311D01*
X152484543Y-63035961D01*
X152471560Y-63063804D01*
X152414022Y-63278537D01*
X152394647Y-63500000D01*
X152414022Y-63721463D01*
X152415446Y-63726776D01*
X152415446Y-63726777D01*
X152424486Y-63760516D01*
X152422796Y-63831493D01*
X152391874Y-63882222D01*
X149467747Y-66806348D01*
X149459461Y-66813888D01*
X149452982Y-66818000D01*
X149447557Y-66823777D01*
X149406357Y-66867651D01*
X149403602Y-66870493D01*
X149383865Y-66890230D01*
X149381385Y-66893427D01*
X149373682Y-66902447D01*
X149343414Y-66934679D01*
X149339595Y-66941625D01*
X149339593Y-66941628D01*
X149333652Y-66952434D01*
X149322801Y-66968953D01*
X149310386Y-66984959D01*
X149307241Y-66992228D01*
X149307238Y-66992232D01*
X149292826Y-67025537D01*
X149287609Y-67036187D01*
X149266305Y-67074940D01*
X149264334Y-67082615D01*
X149264334Y-67082616D01*
X149261267Y-67094562D01*
X149254863Y-67113266D01*
X149246819Y-67131855D01*
X149245580Y-67139678D01*
X149245577Y-67139688D01*
X149239901Y-67175524D01*
X149237495Y-67187144D01*
X149228472Y-67222289D01*
X149226500Y-67229970D01*
X149226500Y-67250224D01*
X149224949Y-67269934D01*
X149221780Y-67289943D01*
X149222526Y-67297835D01*
X149225941Y-67333961D01*
X149226500Y-67345819D01*
X149226500Y-83108606D01*
X149206498Y-83176727D01*
X149172771Y-83211819D01*
X149020211Y-83318643D01*
X149020208Y-83318645D01*
X149015700Y-83321802D01*
X148853802Y-83483700D01*
X148850645Y-83488208D01*
X148850643Y-83488211D01*
X148743819Y-83640771D01*
X148688362Y-83685099D01*
X148640606Y-83694500D01*
X143967394Y-83694500D01*
X143899273Y-83674498D01*
X143864181Y-83640771D01*
X143757357Y-83488211D01*
X143757355Y-83488208D01*
X143754198Y-83483700D01*
X143592300Y-83321802D01*
X143587792Y-83318645D01*
X143587789Y-83318643D01*
X143435228Y-83211819D01*
X143404749Y-83190477D01*
X143399767Y-83188154D01*
X143399762Y-83188151D01*
X143202225Y-83096039D01*
X143202224Y-83096039D01*
X143197243Y-83093716D01*
X143191935Y-83092294D01*
X143191933Y-83092293D01*
X142981402Y-83035881D01*
X142981400Y-83035881D01*
X142976087Y-83034457D01*
X142748000Y-83014502D01*
X142519913Y-83034457D01*
X142514600Y-83035881D01*
X142514598Y-83035881D01*
X142304067Y-83092293D01*
X142304065Y-83092294D01*
X142298757Y-83093716D01*
X142293776Y-83096039D01*
X142293775Y-83096039D01*
X142096238Y-83188151D01*
X142096233Y-83188154D01*
X142091251Y-83190477D01*
X142060772Y-83211819D01*
X141908211Y-83318643D01*
X141908208Y-83318645D01*
X141903700Y-83321802D01*
X141741802Y-83483700D01*
X141738645Y-83488208D01*
X141738643Y-83488211D01*
X141631819Y-83640771D01*
X141576362Y-83685099D01*
X141528606Y-83694500D01*
X136476767Y-83694500D01*
X136465584Y-83693973D01*
X136458091Y-83692298D01*
X136450165Y-83692547D01*
X136450164Y-83692547D01*
X136390014Y-83694438D01*
X136386055Y-83694500D01*
X136358144Y-83694500D01*
X136354210Y-83694997D01*
X136354209Y-83694997D01*
X136354144Y-83695005D01*
X136342307Y-83695938D01*
X136310490Y-83696938D01*
X136306029Y-83697078D01*
X136298110Y-83697327D01*
X136280454Y-83702456D01*
X136278658Y-83702978D01*
X136259306Y-83706986D01*
X136252235Y-83707880D01*
X136239203Y-83709526D01*
X136231834Y-83712443D01*
X136231832Y-83712444D01*
X136198097Y-83725800D01*
X136186869Y-83729645D01*
X136144407Y-83741982D01*
X136137585Y-83746016D01*
X136137579Y-83746019D01*
X136126968Y-83752294D01*
X136109218Y-83760990D01*
X136097756Y-83765528D01*
X136097751Y-83765531D01*
X136090383Y-83768448D01*
X136083968Y-83773109D01*
X136054625Y-83794427D01*
X136044707Y-83800943D01*
X136026019Y-83811995D01*
X136006637Y-83823458D01*
X135992313Y-83837782D01*
X135977281Y-83850621D01*
X135960893Y-83862528D01*
X135948275Y-83877781D01*
X135932712Y-83896593D01*
X135924722Y-83905373D01*
X134902500Y-84927595D01*
X134840188Y-84961621D01*
X134813405Y-84964500D01*
X125633004Y-84964500D01*
X125564883Y-84944498D01*
X125529791Y-84910771D01*
X125440136Y-84782730D01*
X125440134Y-84782727D01*
X125436977Y-84778219D01*
X125279781Y-84621023D01*
X125275273Y-84617866D01*
X125275270Y-84617864D01*
X125179217Y-84550607D01*
X125097677Y-84493512D01*
X125092695Y-84491189D01*
X125092690Y-84491186D01*
X124987627Y-84442195D01*
X124934342Y-84395278D01*
X124914881Y-84327001D01*
X124935423Y-84259041D01*
X124987627Y-84213805D01*
X125092690Y-84164814D01*
X125092695Y-84164811D01*
X125097677Y-84162488D01*
X125199505Y-84091187D01*
X125275270Y-84038136D01*
X125275273Y-84038134D01*
X125279781Y-84034977D01*
X125436977Y-83877781D01*
X125447658Y-83862528D01*
X125561331Y-83700185D01*
X125561332Y-83700183D01*
X125564488Y-83695676D01*
X125566811Y-83690694D01*
X125566814Y-83690689D01*
X125656117Y-83499178D01*
X125656118Y-83499177D01*
X125658440Y-83494196D01*
X125661253Y-83483700D01*
X125704633Y-83321802D01*
X125715978Y-83279463D01*
X125735353Y-83058000D01*
X125715978Y-82836537D01*
X125658440Y-82621804D01*
X125654083Y-82612461D01*
X125566814Y-82425311D01*
X125566811Y-82425306D01*
X125564488Y-82420324D01*
X125561331Y-82415815D01*
X125440136Y-82242730D01*
X125440134Y-82242727D01*
X125436977Y-82238219D01*
X125279781Y-82081023D01*
X125275273Y-82077866D01*
X125275270Y-82077864D01*
X125199505Y-82024813D01*
X125097677Y-81953512D01*
X125092695Y-81951189D01*
X125092690Y-81951186D01*
X124901178Y-81861883D01*
X124901177Y-81861882D01*
X124896196Y-81859560D01*
X124890888Y-81858138D01*
X124890886Y-81858137D01*
X124825051Y-81840497D01*
X124681463Y-81802022D01*
X124460000Y-81782647D01*
X124238537Y-81802022D01*
X124094949Y-81840497D01*
X124029114Y-81858137D01*
X124029112Y-81858138D01*
X124023804Y-81859560D01*
X124018823Y-81861882D01*
X124018822Y-81861883D01*
X123827311Y-81951186D01*
X123827306Y-81951189D01*
X123822324Y-81953512D01*
X123817817Y-81956668D01*
X123817815Y-81956669D01*
X123644730Y-82077864D01*
X123644727Y-82077866D01*
X123640219Y-82081023D01*
X123483023Y-82238219D01*
X123479866Y-82242727D01*
X123479864Y-82242730D01*
X123358669Y-82415815D01*
X123355512Y-82420324D01*
X123353189Y-82425306D01*
X123353186Y-82425311D01*
X123265917Y-82612461D01*
X123261560Y-82621804D01*
X123204022Y-82836537D01*
X123184647Y-83058000D01*
X123204022Y-83279463D01*
X123215367Y-83321802D01*
X123258748Y-83483700D01*
X123261560Y-83494196D01*
X123263882Y-83499177D01*
X123263883Y-83499178D01*
X123353186Y-83690689D01*
X123353189Y-83690694D01*
X123355512Y-83695676D01*
X123358668Y-83700183D01*
X123358669Y-83700185D01*
X123472343Y-83862528D01*
X123483023Y-83877781D01*
X123640219Y-84034977D01*
X123644727Y-84038134D01*
X123644730Y-84038136D01*
X123720495Y-84091187D01*
X123822323Y-84162488D01*
X123827305Y-84164811D01*
X123827310Y-84164814D01*
X123932373Y-84213805D01*
X123985658Y-84260722D01*
X124005119Y-84328999D01*
X123984577Y-84396959D01*
X123932373Y-84442195D01*
X123827311Y-84491186D01*
X123827306Y-84491189D01*
X123822324Y-84493512D01*
X123817817Y-84496668D01*
X123817815Y-84496669D01*
X123644730Y-84617864D01*
X123644727Y-84617866D01*
X123640219Y-84621023D01*
X123483023Y-84778219D01*
X123479866Y-84782727D01*
X123479864Y-84782730D01*
X123390209Y-84910771D01*
X123355512Y-84960324D01*
X123353189Y-84965306D01*
X123353186Y-84965311D01*
X123319883Y-85036730D01*
X123261560Y-85161804D01*
X123260138Y-85167112D01*
X123260137Y-85167114D01*
X123257703Y-85176197D01*
X123204022Y-85376537D01*
X123184647Y-85598000D01*
X123204022Y-85819463D01*
X123242497Y-85963051D01*
X123259050Y-86024827D01*
X123261560Y-86034196D01*
X123263882Y-86039177D01*
X123263883Y-86039178D01*
X123353186Y-86230689D01*
X123353189Y-86230694D01*
X123355512Y-86235676D01*
X123358668Y-86240183D01*
X123358669Y-86240185D01*
X123471703Y-86401614D01*
X123483023Y-86417781D01*
X123640219Y-86574977D01*
X123644727Y-86578134D01*
X123644730Y-86578136D01*
X123720495Y-86631187D01*
X123822323Y-86702488D01*
X123827305Y-86704811D01*
X123827310Y-86704814D01*
X123932373Y-86753805D01*
X123985658Y-86800722D01*
X124005119Y-86868999D01*
X123984577Y-86936959D01*
X123932373Y-86982195D01*
X123827311Y-87031186D01*
X123827306Y-87031189D01*
X123822324Y-87033512D01*
X123817817Y-87036668D01*
X123817815Y-87036669D01*
X123644730Y-87157864D01*
X123644727Y-87157866D01*
X123640219Y-87161023D01*
X123483023Y-87318219D01*
X123479866Y-87322727D01*
X123479864Y-87322730D01*
X123358669Y-87495815D01*
X123355512Y-87500324D01*
X123353189Y-87505306D01*
X123353186Y-87505311D01*
X123319883Y-87576730D01*
X123261560Y-87701804D01*
X123204022Y-87916537D01*
X123184647Y-88138000D01*
X123204022Y-88359463D01*
X123261560Y-88574196D01*
X123263882Y-88579177D01*
X123263883Y-88579178D01*
X123353186Y-88770689D01*
X123353189Y-88770694D01*
X123355512Y-88775676D01*
X123358668Y-88780183D01*
X123358669Y-88780185D01*
X123388569Y-88822886D01*
X123483023Y-88957781D01*
X123640219Y-89114977D01*
X123644727Y-89118134D01*
X123644730Y-89118136D01*
X123720495Y-89171187D01*
X123822323Y-89242488D01*
X123827305Y-89244811D01*
X123827310Y-89244814D01*
X123932373Y-89293805D01*
X123985658Y-89340722D01*
X124005119Y-89408999D01*
X123984577Y-89476959D01*
X123932373Y-89522195D01*
X123827311Y-89571186D01*
X123827306Y-89571189D01*
X123822324Y-89573512D01*
X123817817Y-89576668D01*
X123817815Y-89576669D01*
X123644730Y-89697864D01*
X123644727Y-89697866D01*
X123640219Y-89701023D01*
X123483023Y-89858219D01*
X123479866Y-89862727D01*
X123479864Y-89862730D01*
X123358669Y-90035815D01*
X123355512Y-90040324D01*
X123353189Y-90045306D01*
X123353186Y-90045311D01*
X123319883Y-90116730D01*
X123261560Y-90241804D01*
X123204022Y-90456537D01*
X123184647Y-90678000D01*
X123204022Y-90899463D01*
X123261560Y-91114196D01*
X123263882Y-91119177D01*
X123263883Y-91119178D01*
X123353186Y-91310689D01*
X123353189Y-91310694D01*
X123355512Y-91315676D01*
X123358668Y-91320183D01*
X123358669Y-91320185D01*
X123388569Y-91362886D01*
X123483023Y-91497781D01*
X123640219Y-91654977D01*
X123644727Y-91658134D01*
X123644730Y-91658136D01*
X123720495Y-91711187D01*
X123822323Y-91782488D01*
X123827305Y-91784811D01*
X123827310Y-91784814D01*
X123932373Y-91833805D01*
X123985658Y-91880722D01*
X124005119Y-91948999D01*
X123984577Y-92016959D01*
X123932373Y-92062195D01*
X123827311Y-92111186D01*
X123827306Y-92111189D01*
X123822324Y-92113512D01*
X123817817Y-92116668D01*
X123817815Y-92116669D01*
X123644730Y-92237864D01*
X123644727Y-92237866D01*
X123640219Y-92241023D01*
X123483023Y-92398219D01*
X123479866Y-92402727D01*
X123479864Y-92402730D01*
X123358669Y-92575815D01*
X123355512Y-92580324D01*
X123353189Y-92585306D01*
X123353186Y-92585311D01*
X123313925Y-92669507D01*
X123261560Y-92781804D01*
X123204022Y-92996537D01*
X123184647Y-93218000D01*
X123204022Y-93439463D01*
X123261560Y-93654196D01*
X123263882Y-93659177D01*
X123263883Y-93659178D01*
X123353186Y-93850689D01*
X123353189Y-93850694D01*
X123355512Y-93855676D01*
X123358668Y-93860183D01*
X123358669Y-93860185D01*
X123388569Y-93902886D01*
X123483023Y-94037781D01*
X123640219Y-94194977D01*
X123644727Y-94198134D01*
X123644730Y-94198136D01*
X123720495Y-94251187D01*
X123822323Y-94322488D01*
X123827305Y-94324811D01*
X123827310Y-94324814D01*
X123932373Y-94373805D01*
X123985658Y-94420722D01*
X124005119Y-94488999D01*
X123984577Y-94556959D01*
X123932373Y-94602195D01*
X123827311Y-94651186D01*
X123827306Y-94651189D01*
X123822324Y-94653512D01*
X123817817Y-94656668D01*
X123817815Y-94656669D01*
X123644730Y-94777864D01*
X123644727Y-94777866D01*
X123640219Y-94781023D01*
X123483023Y-94938219D01*
X123479866Y-94942727D01*
X123479864Y-94942730D01*
X123358669Y-95115815D01*
X123355512Y-95120324D01*
X123353189Y-95125306D01*
X123353186Y-95125311D01*
X123319883Y-95196730D01*
X123261560Y-95321804D01*
X123204022Y-95536537D01*
X123184647Y-95758000D01*
X123204022Y-95979463D01*
X123223675Y-96052808D01*
X123256381Y-96174866D01*
X123261560Y-96194196D01*
X123263882Y-96199177D01*
X123263883Y-96199178D01*
X123353186Y-96390689D01*
X123353189Y-96390694D01*
X123355512Y-96395676D01*
X123358668Y-96400183D01*
X123358669Y-96400185D01*
X123442162Y-96519425D01*
X123483023Y-96577781D01*
X123640219Y-96734977D01*
X123644727Y-96738134D01*
X123644730Y-96738136D01*
X123720495Y-96791187D01*
X123822323Y-96862488D01*
X123827305Y-96864811D01*
X123827310Y-96864814D01*
X123932373Y-96913805D01*
X123985658Y-96960722D01*
X124005119Y-97028999D01*
X123984577Y-97096959D01*
X123932373Y-97142195D01*
X123827311Y-97191186D01*
X123827306Y-97191189D01*
X123822324Y-97193512D01*
X123817817Y-97196668D01*
X123817815Y-97196669D01*
X123644730Y-97317864D01*
X123644727Y-97317866D01*
X123640219Y-97321023D01*
X123483023Y-97478219D01*
X123479866Y-97482727D01*
X123479864Y-97482730D01*
X123358669Y-97655815D01*
X123355512Y-97660324D01*
X123353189Y-97665306D01*
X123353186Y-97665311D01*
X123263883Y-97856822D01*
X123261560Y-97861804D01*
X123204022Y-98076537D01*
X123184647Y-98298000D01*
X123204022Y-98519463D01*
X123261560Y-98734196D01*
X123263882Y-98739177D01*
X123263883Y-98739178D01*
X123353186Y-98930689D01*
X123353189Y-98930694D01*
X123355512Y-98935676D01*
X123358668Y-98940183D01*
X123358669Y-98940185D01*
X123419808Y-99027500D01*
X123483023Y-99117781D01*
X123640219Y-99274977D01*
X123644727Y-99278134D01*
X123644730Y-99278136D01*
X123720495Y-99331187D01*
X123822323Y-99402488D01*
X123827305Y-99404811D01*
X123827310Y-99404814D01*
X123932373Y-99453805D01*
X123985658Y-99500722D01*
X124005119Y-99568999D01*
X123984577Y-99636959D01*
X123932373Y-99682195D01*
X123827311Y-99731186D01*
X123827306Y-99731189D01*
X123822324Y-99733512D01*
X123817817Y-99736668D01*
X123817815Y-99736669D01*
X123644730Y-99857864D01*
X123644727Y-99857866D01*
X123640219Y-99861023D01*
X123483023Y-100018219D01*
X123479866Y-100022727D01*
X123479864Y-100022730D01*
X123358669Y-100195815D01*
X123355512Y-100200324D01*
X123353189Y-100205306D01*
X123353186Y-100205311D01*
X123263883Y-100396822D01*
X123261560Y-100401804D01*
X123260138Y-100407112D01*
X123260137Y-100407114D01*
X123246151Y-100459311D01*
X123204022Y-100616537D01*
X123184647Y-100838000D01*
X107955353Y-100838000D01*
X107935978Y-100616537D01*
X107893849Y-100459311D01*
X107879863Y-100407114D01*
X107879862Y-100407112D01*
X107878440Y-100401804D01*
X107876117Y-100396822D01*
X107786814Y-100205311D01*
X107786811Y-100205306D01*
X107784488Y-100200324D01*
X107781331Y-100195815D01*
X107660136Y-100022730D01*
X107660134Y-100022727D01*
X107656977Y-100018219D01*
X107499781Y-99861023D01*
X107495273Y-99857866D01*
X107495270Y-99857864D01*
X107419505Y-99804813D01*
X107317677Y-99733512D01*
X107312695Y-99731189D01*
X107312690Y-99731186D01*
X107207627Y-99682195D01*
X107154342Y-99635278D01*
X107134881Y-99567001D01*
X107155423Y-99499041D01*
X107207627Y-99453805D01*
X107312690Y-99404814D01*
X107312695Y-99404811D01*
X107317677Y-99402488D01*
X107419505Y-99331187D01*
X107495270Y-99278136D01*
X107495273Y-99278134D01*
X107499781Y-99274977D01*
X107656977Y-99117781D01*
X107720193Y-99027500D01*
X107781331Y-98940185D01*
X107781332Y-98940183D01*
X107784488Y-98935676D01*
X107786811Y-98930694D01*
X107786814Y-98930689D01*
X107876117Y-98739178D01*
X107876118Y-98739177D01*
X107878440Y-98734196D01*
X107935978Y-98519463D01*
X107955353Y-98298000D01*
X107935978Y-98076537D01*
X107878440Y-97861804D01*
X107876117Y-97856822D01*
X107786814Y-97665311D01*
X107786811Y-97665306D01*
X107784488Y-97660324D01*
X107781331Y-97655815D01*
X107660136Y-97482730D01*
X107660134Y-97482727D01*
X107656977Y-97478219D01*
X107499781Y-97321023D01*
X107495273Y-97317866D01*
X107495270Y-97317864D01*
X107393901Y-97246885D01*
X107317677Y-97193512D01*
X107312695Y-97191189D01*
X107312690Y-97191186D01*
X107222217Y-97148998D01*
X107207627Y-97142195D01*
X107154342Y-97095278D01*
X107134881Y-97027001D01*
X107155423Y-96959041D01*
X107207627Y-96913805D01*
X107312690Y-96864814D01*
X107312695Y-96864811D01*
X107317677Y-96862488D01*
X107419505Y-96791187D01*
X107495270Y-96738136D01*
X107495273Y-96738134D01*
X107499781Y-96734977D01*
X107656977Y-96577781D01*
X107697839Y-96519425D01*
X107781331Y-96400185D01*
X107781332Y-96400183D01*
X107784488Y-96395676D01*
X107786811Y-96390694D01*
X107786814Y-96390689D01*
X107876117Y-96199178D01*
X107876118Y-96199177D01*
X107878440Y-96194196D01*
X107883620Y-96174866D01*
X107916325Y-96052808D01*
X107935978Y-95979463D01*
X107955353Y-95758000D01*
X107935978Y-95536537D01*
X107878440Y-95321804D01*
X107820117Y-95196730D01*
X107786814Y-95125311D01*
X107786811Y-95125306D01*
X107784488Y-95120324D01*
X107781331Y-95115815D01*
X107660136Y-94942730D01*
X107660134Y-94942727D01*
X107656977Y-94938219D01*
X107499781Y-94781023D01*
X107495273Y-94777866D01*
X107495270Y-94777864D01*
X107419505Y-94724813D01*
X107317677Y-94653512D01*
X107312695Y-94651189D01*
X107312690Y-94651186D01*
X107207627Y-94602195D01*
X107154342Y-94555278D01*
X107134881Y-94487001D01*
X107155423Y-94419041D01*
X107207627Y-94373805D01*
X107312690Y-94324814D01*
X107312695Y-94324811D01*
X107317677Y-94322488D01*
X107419505Y-94251187D01*
X107495270Y-94198136D01*
X107495273Y-94198134D01*
X107499781Y-94194977D01*
X107656977Y-94037781D01*
X107751432Y-93902886D01*
X107781331Y-93860185D01*
X107781332Y-93860183D01*
X107784488Y-93855676D01*
X107786811Y-93850694D01*
X107786814Y-93850689D01*
X107876117Y-93659178D01*
X107876118Y-93659177D01*
X107878440Y-93654196D01*
X107935978Y-93439463D01*
X107955353Y-93218000D01*
X107935978Y-92996537D01*
X107878440Y-92781804D01*
X107826075Y-92669507D01*
X107786814Y-92585311D01*
X107786811Y-92585306D01*
X107784488Y-92580324D01*
X107781331Y-92575815D01*
X107660136Y-92402730D01*
X107660134Y-92402727D01*
X107656977Y-92398219D01*
X107499781Y-92241023D01*
X107495273Y-92237866D01*
X107495270Y-92237864D01*
X107399091Y-92170519D01*
X107317677Y-92113512D01*
X107312695Y-92111189D01*
X107312690Y-92111186D01*
X107207627Y-92062195D01*
X107154342Y-92015278D01*
X107134881Y-91947001D01*
X107155423Y-91879041D01*
X107207627Y-91833805D01*
X107312690Y-91784814D01*
X107312695Y-91784811D01*
X107317677Y-91782488D01*
X107419505Y-91711187D01*
X107495270Y-91658136D01*
X107495273Y-91658134D01*
X107499781Y-91654977D01*
X107656977Y-91497781D01*
X107751432Y-91362886D01*
X107781331Y-91320185D01*
X107781332Y-91320183D01*
X107784488Y-91315676D01*
X107786811Y-91310694D01*
X107786814Y-91310689D01*
X107876117Y-91119178D01*
X107876118Y-91119177D01*
X107878440Y-91114196D01*
X107935978Y-90899463D01*
X107955353Y-90678000D01*
X107935978Y-90456537D01*
X107878440Y-90241804D01*
X107820117Y-90116730D01*
X107786814Y-90045311D01*
X107786811Y-90045306D01*
X107784488Y-90040324D01*
X107781331Y-90035815D01*
X107660136Y-89862730D01*
X107660134Y-89862727D01*
X107656977Y-89858219D01*
X107499781Y-89701023D01*
X107495273Y-89697866D01*
X107495270Y-89697864D01*
X107419505Y-89644813D01*
X107317677Y-89573512D01*
X107312695Y-89571189D01*
X107312690Y-89571186D01*
X107207627Y-89522195D01*
X107154342Y-89475278D01*
X107134881Y-89407001D01*
X107155423Y-89339041D01*
X107207627Y-89293805D01*
X107312690Y-89244814D01*
X107312695Y-89244811D01*
X107317677Y-89242488D01*
X107419505Y-89171187D01*
X107495270Y-89118136D01*
X107495273Y-89118134D01*
X107499781Y-89114977D01*
X107656977Y-88957781D01*
X107751432Y-88822886D01*
X107781331Y-88780185D01*
X107781332Y-88780183D01*
X107784488Y-88775676D01*
X107786811Y-88770694D01*
X107786814Y-88770689D01*
X107876117Y-88579178D01*
X107876118Y-88579177D01*
X107878440Y-88574196D01*
X107935978Y-88359463D01*
X107955353Y-88138000D01*
X107935978Y-87916537D01*
X107878440Y-87701804D01*
X107820117Y-87576730D01*
X107786814Y-87505311D01*
X107786811Y-87505306D01*
X107784488Y-87500324D01*
X107781331Y-87495815D01*
X107660136Y-87322730D01*
X107660134Y-87322727D01*
X107656977Y-87318219D01*
X107499781Y-87161023D01*
X107495273Y-87157866D01*
X107495270Y-87157864D01*
X107419505Y-87104813D01*
X107317677Y-87033512D01*
X107312695Y-87031189D01*
X107312690Y-87031186D01*
X107207627Y-86982195D01*
X107154342Y-86935278D01*
X107134881Y-86867001D01*
X107155423Y-86799041D01*
X107207627Y-86753805D01*
X107312690Y-86704814D01*
X107312695Y-86704811D01*
X107317677Y-86702488D01*
X107419505Y-86631187D01*
X107495270Y-86578136D01*
X107495273Y-86578134D01*
X107499781Y-86574977D01*
X107656977Y-86417781D01*
X107668298Y-86401614D01*
X107781331Y-86240185D01*
X107781332Y-86240183D01*
X107784488Y-86235676D01*
X107786811Y-86230694D01*
X107786814Y-86230689D01*
X107876117Y-86039178D01*
X107876118Y-86039177D01*
X107878440Y-86034196D01*
X107880951Y-86024827D01*
X107897503Y-85963051D01*
X107935978Y-85819463D01*
X107955353Y-85598000D01*
X107935978Y-85376537D01*
X107882297Y-85176197D01*
X107879863Y-85167114D01*
X107879862Y-85167112D01*
X107878440Y-85161804D01*
X107820117Y-85036730D01*
X107786814Y-84965311D01*
X107786811Y-84965306D01*
X107784488Y-84960324D01*
X107749791Y-84910771D01*
X107660136Y-84782730D01*
X107660134Y-84782727D01*
X107656977Y-84778219D01*
X107499781Y-84621023D01*
X107495273Y-84617866D01*
X107495270Y-84617864D01*
X107399217Y-84550607D01*
X107317677Y-84493512D01*
X107312695Y-84491189D01*
X107312690Y-84491186D01*
X107207627Y-84442195D01*
X107154342Y-84395278D01*
X107134881Y-84327001D01*
X107155423Y-84259041D01*
X107207627Y-84213805D01*
X107312690Y-84164814D01*
X107312695Y-84164811D01*
X107317677Y-84162488D01*
X107419505Y-84091187D01*
X107495270Y-84038136D01*
X107495273Y-84038134D01*
X107499781Y-84034977D01*
X107656977Y-83877781D01*
X107667658Y-83862528D01*
X107781331Y-83700185D01*
X107781332Y-83700183D01*
X107784488Y-83695676D01*
X107786811Y-83690694D01*
X107786814Y-83690689D01*
X107876117Y-83499178D01*
X107876118Y-83499177D01*
X107878440Y-83494196D01*
X107881253Y-83483700D01*
X107924633Y-83321802D01*
X107935978Y-83279463D01*
X107955353Y-83058000D01*
X107935978Y-82836537D01*
X107878440Y-82621804D01*
X107874083Y-82612461D01*
X107786814Y-82425311D01*
X107786811Y-82425306D01*
X107784488Y-82420324D01*
X107781331Y-82415815D01*
X107660136Y-82242730D01*
X107660134Y-82242727D01*
X107656977Y-82238219D01*
X107499781Y-82081023D01*
X107495273Y-82077866D01*
X107495270Y-82077864D01*
X107419505Y-82024813D01*
X107317677Y-81953512D01*
X107312695Y-81951189D01*
X107312690Y-81951186D01*
X107121178Y-81861883D01*
X107121177Y-81861882D01*
X107116196Y-81859560D01*
X107110888Y-81858138D01*
X107110886Y-81858137D01*
X107045051Y-81840497D01*
X106901463Y-81802022D01*
X106680000Y-81782647D01*
X106458537Y-81802022D01*
X106314949Y-81840497D01*
X106249114Y-81858137D01*
X106249112Y-81858138D01*
X106243804Y-81859560D01*
X106238823Y-81861882D01*
X106238822Y-81861883D01*
X106047311Y-81951186D01*
X106047306Y-81951189D01*
X106042324Y-81953512D01*
X106037817Y-81956668D01*
X106037815Y-81956669D01*
X105864730Y-82077864D01*
X105864727Y-82077866D01*
X105860219Y-82081023D01*
X105703023Y-82238219D01*
X105699866Y-82242727D01*
X105699864Y-82242730D01*
X105578669Y-82415815D01*
X105575512Y-82420324D01*
X105573189Y-82425306D01*
X105573186Y-82425311D01*
X105485917Y-82612461D01*
X105481560Y-82621804D01*
X105424022Y-82836537D01*
X105404647Y-83058000D01*
X105424022Y-83279463D01*
X105435367Y-83321802D01*
X105478748Y-83483700D01*
X105481560Y-83494196D01*
X105483882Y-83499177D01*
X105483883Y-83499178D01*
X105573186Y-83690689D01*
X105573189Y-83690694D01*
X105575512Y-83695676D01*
X105578668Y-83700183D01*
X105578669Y-83700185D01*
X105692343Y-83862528D01*
X105703023Y-83877781D01*
X105860219Y-84034977D01*
X105864727Y-84038134D01*
X105864730Y-84038136D01*
X105940495Y-84091187D01*
X106042323Y-84162488D01*
X106047305Y-84164811D01*
X106047310Y-84164814D01*
X106152373Y-84213805D01*
X106205658Y-84260722D01*
X106225119Y-84328999D01*
X106204577Y-84396959D01*
X106152373Y-84442195D01*
X106047311Y-84491186D01*
X106047306Y-84491189D01*
X106042324Y-84493512D01*
X106037817Y-84496668D01*
X106037815Y-84496669D01*
X105864730Y-84617864D01*
X105864727Y-84617866D01*
X105860219Y-84621023D01*
X105703023Y-84778219D01*
X105699866Y-84782727D01*
X105699864Y-84782730D01*
X105610209Y-84910771D01*
X105575512Y-84960324D01*
X105573189Y-84965306D01*
X105573186Y-84965311D01*
X105539883Y-85036730D01*
X105481560Y-85161804D01*
X105480138Y-85167112D01*
X105480137Y-85167114D01*
X105477703Y-85176197D01*
X105424022Y-85376537D01*
X105404647Y-85598000D01*
X105424022Y-85819463D01*
X105462497Y-85963051D01*
X105479050Y-86024827D01*
X105481560Y-86034196D01*
X105483882Y-86039177D01*
X105483883Y-86039178D01*
X105573186Y-86230689D01*
X105573189Y-86230694D01*
X105575512Y-86235676D01*
X105578668Y-86240183D01*
X105578669Y-86240185D01*
X105691703Y-86401614D01*
X105703023Y-86417781D01*
X105860219Y-86574977D01*
X105864727Y-86578134D01*
X105864730Y-86578136D01*
X105940495Y-86631187D01*
X106042323Y-86702488D01*
X106047305Y-86704811D01*
X106047310Y-86704814D01*
X106152373Y-86753805D01*
X106205658Y-86800722D01*
X106225119Y-86868999D01*
X106204577Y-86936959D01*
X106152373Y-86982195D01*
X106047311Y-87031186D01*
X106047306Y-87031189D01*
X106042324Y-87033512D01*
X106037817Y-87036668D01*
X106037815Y-87036669D01*
X105864730Y-87157864D01*
X105864727Y-87157866D01*
X105860219Y-87161023D01*
X105703023Y-87318219D01*
X105699866Y-87322727D01*
X105699864Y-87322730D01*
X105578669Y-87495815D01*
X105575512Y-87500324D01*
X105573189Y-87505306D01*
X105573186Y-87505311D01*
X105539883Y-87576730D01*
X105481560Y-87701804D01*
X105424022Y-87916537D01*
X105404647Y-88138000D01*
X105424022Y-88359463D01*
X105481560Y-88574196D01*
X105483882Y-88579177D01*
X105483883Y-88579178D01*
X105573186Y-88770689D01*
X105573189Y-88770694D01*
X105575512Y-88775676D01*
X105578668Y-88780183D01*
X105578669Y-88780185D01*
X105608569Y-88822886D01*
X105703023Y-88957781D01*
X105860219Y-89114977D01*
X105864727Y-89118134D01*
X105864730Y-89118136D01*
X105940495Y-89171187D01*
X106042323Y-89242488D01*
X106047305Y-89244811D01*
X106047310Y-89244814D01*
X106152373Y-89293805D01*
X106205658Y-89340722D01*
X106225119Y-89408999D01*
X106204577Y-89476959D01*
X106152373Y-89522195D01*
X106047311Y-89571186D01*
X106047306Y-89571189D01*
X106042324Y-89573512D01*
X106037817Y-89576668D01*
X106037815Y-89576669D01*
X105864730Y-89697864D01*
X105864727Y-89697866D01*
X105860219Y-89701023D01*
X105703023Y-89858219D01*
X105699866Y-89862727D01*
X105699864Y-89862730D01*
X105578669Y-90035815D01*
X105575512Y-90040324D01*
X105573189Y-90045306D01*
X105573186Y-90045311D01*
X105539883Y-90116730D01*
X105481560Y-90241804D01*
X105424022Y-90456537D01*
X105404647Y-90678000D01*
X105424022Y-90899463D01*
X105481560Y-91114196D01*
X105483882Y-91119177D01*
X105483883Y-91119178D01*
X105573186Y-91310689D01*
X105573189Y-91310694D01*
X105575512Y-91315676D01*
X105578668Y-91320183D01*
X105578669Y-91320185D01*
X105608569Y-91362886D01*
X105703023Y-91497781D01*
X105860219Y-91654977D01*
X105864727Y-91658134D01*
X105864730Y-91658136D01*
X105940495Y-91711187D01*
X106042323Y-91782488D01*
X106047305Y-91784811D01*
X106047310Y-91784814D01*
X106152373Y-91833805D01*
X106205658Y-91880722D01*
X106225119Y-91948999D01*
X106204577Y-92016959D01*
X106152373Y-92062195D01*
X106047311Y-92111186D01*
X106047306Y-92111189D01*
X106042324Y-92113512D01*
X106037817Y-92116668D01*
X106037815Y-92116669D01*
X105864730Y-92237864D01*
X105864727Y-92237866D01*
X105860219Y-92241023D01*
X105703023Y-92398219D01*
X105699866Y-92402727D01*
X105699864Y-92402730D01*
X105578669Y-92575815D01*
X105575512Y-92580324D01*
X105573189Y-92585306D01*
X105573186Y-92585311D01*
X105533925Y-92669507D01*
X105481560Y-92781804D01*
X105424022Y-92996537D01*
X105404647Y-93218000D01*
X105424022Y-93439463D01*
X105481560Y-93654196D01*
X105483882Y-93659177D01*
X105483883Y-93659178D01*
X105573186Y-93850689D01*
X105573189Y-93850694D01*
X105575512Y-93855676D01*
X105578668Y-93860183D01*
X105578669Y-93860185D01*
X105608569Y-93902886D01*
X105703023Y-94037781D01*
X105860219Y-94194977D01*
X105864727Y-94198134D01*
X105864730Y-94198136D01*
X105940495Y-94251187D01*
X106042323Y-94322488D01*
X106047305Y-94324811D01*
X106047310Y-94324814D01*
X106152373Y-94373805D01*
X106205658Y-94420722D01*
X106225119Y-94488999D01*
X106204577Y-94556959D01*
X106152373Y-94602195D01*
X106047311Y-94651186D01*
X106047306Y-94651189D01*
X106042324Y-94653512D01*
X106037817Y-94656668D01*
X106037815Y-94656669D01*
X105864730Y-94777864D01*
X105864727Y-94777866D01*
X105860219Y-94781023D01*
X105703023Y-94938219D01*
X105699866Y-94942727D01*
X105699864Y-94942730D01*
X105578669Y-95115815D01*
X105575512Y-95120324D01*
X105573189Y-95125306D01*
X105573186Y-95125311D01*
X105539883Y-95196730D01*
X105481560Y-95321804D01*
X105424022Y-95536537D01*
X105404647Y-95758000D01*
X105424022Y-95979463D01*
X105443675Y-96052808D01*
X105476381Y-96174866D01*
X105481560Y-96194196D01*
X105483882Y-96199177D01*
X105483883Y-96199178D01*
X105573186Y-96390689D01*
X105573189Y-96390694D01*
X105575512Y-96395676D01*
X105578668Y-96400183D01*
X105578669Y-96400185D01*
X105662162Y-96519425D01*
X105703023Y-96577781D01*
X105860219Y-96734977D01*
X105864727Y-96738134D01*
X105864730Y-96738136D01*
X105940495Y-96791187D01*
X106042323Y-96862488D01*
X106047305Y-96864811D01*
X106047310Y-96864814D01*
X106152373Y-96913805D01*
X106205658Y-96960722D01*
X106225119Y-97028999D01*
X106204577Y-97096959D01*
X106152373Y-97142195D01*
X106047311Y-97191186D01*
X106047306Y-97191189D01*
X106042324Y-97193512D01*
X106037817Y-97196668D01*
X106037815Y-97196669D01*
X105864730Y-97317864D01*
X105864727Y-97317866D01*
X105860219Y-97321023D01*
X105703023Y-97478219D01*
X105699866Y-97482727D01*
X105699864Y-97482730D01*
X105578669Y-97655815D01*
X105575512Y-97660324D01*
X105573189Y-97665306D01*
X105573186Y-97665311D01*
X105483883Y-97856822D01*
X105481560Y-97861804D01*
X105424022Y-98076537D01*
X105404647Y-98298000D01*
X105424022Y-98519463D01*
X105481560Y-98734196D01*
X105483882Y-98739177D01*
X105483883Y-98739178D01*
X105573186Y-98930689D01*
X105573189Y-98930694D01*
X105575512Y-98935676D01*
X105578668Y-98940183D01*
X105578669Y-98940185D01*
X105639808Y-99027500D01*
X105703023Y-99117781D01*
X105860219Y-99274977D01*
X105864727Y-99278134D01*
X105864730Y-99278136D01*
X105940495Y-99331187D01*
X106042323Y-99402488D01*
X106047305Y-99404811D01*
X106047310Y-99404814D01*
X106152373Y-99453805D01*
X106205658Y-99500722D01*
X106225119Y-99568999D01*
X106204577Y-99636959D01*
X106152373Y-99682195D01*
X106047311Y-99731186D01*
X106047306Y-99731189D01*
X106042324Y-99733512D01*
X106037817Y-99736668D01*
X106037815Y-99736669D01*
X105864730Y-99857864D01*
X105864727Y-99857866D01*
X105860219Y-99861023D01*
X105703023Y-100018219D01*
X105699866Y-100022727D01*
X105699864Y-100022730D01*
X105578669Y-100195815D01*
X105575512Y-100200324D01*
X105573189Y-100205306D01*
X105573186Y-100205311D01*
X105483883Y-100396822D01*
X105481560Y-100401804D01*
X105480138Y-100407112D01*
X105480137Y-100407114D01*
X105466151Y-100459311D01*
X105424022Y-100616537D01*
X105404647Y-100838000D01*
X101382752Y-100838000D01*
X101282497Y-100738269D01*
X101139722Y-100596239D01*
X101139720Y-100596237D01*
X101137651Y-100594179D01*
X101135409Y-100592328D01*
X101135404Y-100592323D01*
X100811514Y-100324853D01*
X100811506Y-100324847D01*
X100809273Y-100323003D01*
X100728963Y-100268322D01*
X100459668Y-100084965D01*
X100459663Y-100084962D01*
X100457250Y-100083319D01*
X100454702Y-100081909D01*
X100454693Y-100081904D01*
X100109508Y-99890959D01*
X100084592Y-99877176D01*
X99990618Y-99836022D01*
X99697158Y-99707507D01*
X99697155Y-99707506D01*
X99694486Y-99706337D01*
X99290267Y-99572263D01*
X99287441Y-99571608D01*
X99287434Y-99571606D01*
X98878237Y-99476760D01*
X98878228Y-99476758D01*
X98875392Y-99476101D01*
X98453408Y-99418671D01*
X98450558Y-99418544D01*
X98450557Y-99418544D01*
X98159086Y-99405563D01*
X98159069Y-99405563D01*
X98157663Y-99405500D01*
X97934631Y-99405500D01*
X97933191Y-99405567D01*
X97933176Y-99405567D01*
X97794282Y-99411996D01*
X97618582Y-99420128D01*
X97196801Y-99479030D01*
X97193979Y-99479695D01*
X97193971Y-99479696D01*
X96785104Y-99575972D01*
X96785099Y-99575974D01*
X96782264Y-99576641D01*
X96607523Y-99635278D01*
X96381272Y-99711200D01*
X96381269Y-99711201D01*
X96378516Y-99712125D01*
X96375860Y-99713299D01*
X96375858Y-99713300D01*
X95991656Y-99883153D01*
X95991650Y-99883156D01*
X95989008Y-99884324D01*
X95617072Y-100091767D01*
X95470195Y-100192524D01*
X95268294Y-100331027D01*
X95268287Y-100331032D01*
X95265888Y-100332678D01*
X95263641Y-100334547D01*
X95151069Y-100428172D01*
X95085905Y-100456353D01*
X95015850Y-100444829D01*
X94963146Y-100397261D01*
X94944500Y-100331298D01*
X94944500Y-76200000D01*
X139694647Y-76200000D01*
X139714022Y-76421463D01*
X139771560Y-76636196D01*
X139773882Y-76641177D01*
X139773883Y-76641178D01*
X139863186Y-76832689D01*
X139863189Y-76832694D01*
X139865512Y-76837676D01*
X139993023Y-77019781D01*
X140150219Y-77176977D01*
X140154727Y-77180134D01*
X140154730Y-77180136D01*
X140230495Y-77233187D01*
X140332323Y-77304488D01*
X140337305Y-77306811D01*
X140337310Y-77306814D01*
X140528822Y-77396117D01*
X140533804Y-77398440D01*
X140539112Y-77399862D01*
X140539114Y-77399863D01*
X140604949Y-77417503D01*
X140748537Y-77455978D01*
X140970000Y-77475353D01*
X141191463Y-77455978D01*
X141335051Y-77417503D01*
X141400886Y-77399863D01*
X141400888Y-77399862D01*
X141406196Y-77398440D01*
X141411178Y-77396117D01*
X141602690Y-77306814D01*
X141602695Y-77306811D01*
X141607677Y-77304488D01*
X141709505Y-77233187D01*
X141785270Y-77180136D01*
X141785273Y-77180134D01*
X141789781Y-77176977D01*
X141946977Y-77019781D01*
X142074488Y-76837676D01*
X142076811Y-76832694D01*
X142076814Y-76832689D01*
X142166117Y-76641178D01*
X142166118Y-76641177D01*
X142168440Y-76636196D01*
X142225978Y-76421463D01*
X142245353Y-76200000D01*
X142225978Y-75978537D01*
X142168440Y-75763804D01*
X142166117Y-75758822D01*
X142076814Y-75567311D01*
X142076811Y-75567306D01*
X142074488Y-75562324D01*
X141946977Y-75380219D01*
X141789781Y-75223023D01*
X141785273Y-75219866D01*
X141785270Y-75219864D01*
X141709505Y-75166813D01*
X141607677Y-75095512D01*
X141602695Y-75093189D01*
X141602690Y-75093186D01*
X141497627Y-75044195D01*
X141444342Y-74997278D01*
X141424881Y-74929001D01*
X141445423Y-74861041D01*
X141497627Y-74815805D01*
X141602690Y-74766814D01*
X141602695Y-74766811D01*
X141607677Y-74764488D01*
X141709505Y-74693187D01*
X141785270Y-74640136D01*
X141785273Y-74640134D01*
X141789781Y-74636977D01*
X141946977Y-74479781D01*
X142070830Y-74302901D01*
X142071331Y-74302185D01*
X142071332Y-74302183D01*
X142074488Y-74297676D01*
X142076811Y-74292694D01*
X142076814Y-74292689D01*
X142166117Y-74101178D01*
X142166118Y-74101177D01*
X142168440Y-74096196D01*
X142225978Y-73881463D01*
X142245353Y-73660000D01*
X142225978Y-73438537D01*
X142168440Y-73223804D01*
X142166117Y-73218822D01*
X142076814Y-73027311D01*
X142076811Y-73027306D01*
X142074488Y-73022324D01*
X141946977Y-72840219D01*
X141789781Y-72683023D01*
X141785273Y-72679866D01*
X141785270Y-72679864D01*
X141709505Y-72626813D01*
X141607677Y-72555512D01*
X141602695Y-72553189D01*
X141602690Y-72553186D01*
X141497627Y-72504195D01*
X141444342Y-72457278D01*
X141424881Y-72389001D01*
X141445423Y-72321041D01*
X141497627Y-72275805D01*
X141602690Y-72226814D01*
X141602695Y-72226811D01*
X141607677Y-72224488D01*
X141709505Y-72153187D01*
X141785270Y-72100136D01*
X141785273Y-72100134D01*
X141789781Y-72096977D01*
X141946977Y-71939781D01*
X141970768Y-71905805D01*
X142071331Y-71762185D01*
X142071332Y-71762183D01*
X142074488Y-71757676D01*
X142076811Y-71752694D01*
X142076814Y-71752689D01*
X142166117Y-71561178D01*
X142166118Y-71561177D01*
X142168440Y-71556196D01*
X142225978Y-71341463D01*
X142245353Y-71120000D01*
X142225978Y-70898537D01*
X142168440Y-70683804D01*
X142149772Y-70643770D01*
X142076814Y-70487311D01*
X142076811Y-70487306D01*
X142074488Y-70482324D01*
X142071331Y-70477815D01*
X141950136Y-70304730D01*
X141950134Y-70304727D01*
X141946977Y-70300219D01*
X141789781Y-70143023D01*
X141785273Y-70139866D01*
X141785270Y-70139864D01*
X141643789Y-70040798D01*
X141607677Y-70015512D01*
X141602695Y-70013189D01*
X141602690Y-70013186D01*
X141497627Y-69964195D01*
X141444342Y-69917278D01*
X141424881Y-69849001D01*
X141445423Y-69781041D01*
X141497627Y-69735805D01*
X141602690Y-69686814D01*
X141602695Y-69686811D01*
X141607677Y-69684488D01*
X141736036Y-69594610D01*
X141785270Y-69560136D01*
X141785273Y-69560134D01*
X141789781Y-69556977D01*
X141946977Y-69399781D01*
X141981483Y-69350502D01*
X142071331Y-69222185D01*
X142071332Y-69222183D01*
X142074488Y-69217676D01*
X142076811Y-69212694D01*
X142076814Y-69212689D01*
X142166117Y-69021178D01*
X142166118Y-69021177D01*
X142168440Y-69016196D01*
X142179829Y-68973694D01*
X142203222Y-68886387D01*
X142225978Y-68801463D01*
X142245353Y-68580000D01*
X142225978Y-68358537D01*
X142168440Y-68143804D01*
X142166117Y-68138822D01*
X142076814Y-67947311D01*
X142076811Y-67947306D01*
X142074488Y-67942324D01*
X141946977Y-67760219D01*
X141789781Y-67603023D01*
X141785273Y-67599866D01*
X141785270Y-67599864D01*
X141693347Y-67535499D01*
X141607677Y-67475512D01*
X141602695Y-67473189D01*
X141602690Y-67473186D01*
X141497035Y-67423919D01*
X141443750Y-67377002D01*
X141424289Y-67308725D01*
X141444831Y-67240765D01*
X141497035Y-67195529D01*
X141602445Y-67146376D01*
X141611931Y-67140898D01*
X141655764Y-67110207D01*
X141664139Y-67099729D01*
X141657071Y-67086281D01*
X140982812Y-66412022D01*
X140968868Y-66404408D01*
X140967035Y-66404539D01*
X140960420Y-66408790D01*
X140282207Y-67087003D01*
X140275777Y-67098777D01*
X140285074Y-67110793D01*
X140328069Y-67140898D01*
X140337555Y-67146376D01*
X140442965Y-67195529D01*
X140496250Y-67242446D01*
X140515711Y-67310723D01*
X140495169Y-67378683D01*
X140442965Y-67423919D01*
X140337311Y-67473186D01*
X140337306Y-67473189D01*
X140332324Y-67475512D01*
X140327817Y-67478668D01*
X140327815Y-67478669D01*
X140154730Y-67599864D01*
X140154727Y-67599866D01*
X140150219Y-67603023D01*
X139993023Y-67760219D01*
X139865512Y-67942324D01*
X139863189Y-67947306D01*
X139863186Y-67947311D01*
X139773883Y-68138822D01*
X139771560Y-68143804D01*
X139714022Y-68358537D01*
X139694647Y-68580000D01*
X139714022Y-68801463D01*
X139736778Y-68886387D01*
X139760172Y-68973694D01*
X139771560Y-69016196D01*
X139773882Y-69021177D01*
X139773883Y-69021178D01*
X139863186Y-69212689D01*
X139863189Y-69212694D01*
X139865512Y-69217676D01*
X139868668Y-69222183D01*
X139868669Y-69222185D01*
X139958518Y-69350502D01*
X139993023Y-69399781D01*
X140150219Y-69556977D01*
X140154727Y-69560134D01*
X140154730Y-69560136D01*
X140203964Y-69594610D01*
X140332323Y-69684488D01*
X140337305Y-69686811D01*
X140337310Y-69686814D01*
X140442373Y-69735805D01*
X140495658Y-69782722D01*
X140515119Y-69850999D01*
X140494577Y-69918959D01*
X140442373Y-69964195D01*
X140337311Y-70013186D01*
X140337306Y-70013189D01*
X140332324Y-70015512D01*
X140327817Y-70018668D01*
X140327815Y-70018669D01*
X140154730Y-70139864D01*
X140154727Y-70139866D01*
X140150219Y-70143023D01*
X139993023Y-70300219D01*
X139989866Y-70304727D01*
X139989864Y-70304730D01*
X139868669Y-70477815D01*
X139865512Y-70482324D01*
X139863189Y-70487306D01*
X139863186Y-70487311D01*
X139790228Y-70643770D01*
X139771560Y-70683804D01*
X139714022Y-70898537D01*
X139694647Y-71120000D01*
X139714022Y-71341463D01*
X139771560Y-71556196D01*
X139773882Y-71561177D01*
X139773883Y-71561178D01*
X139863186Y-71752689D01*
X139863189Y-71752694D01*
X139865512Y-71757676D01*
X139868668Y-71762183D01*
X139868669Y-71762185D01*
X139969233Y-71905805D01*
X139993023Y-71939781D01*
X140150219Y-72096977D01*
X140154727Y-72100134D01*
X140154730Y-72100136D01*
X140230495Y-72153187D01*
X140332323Y-72224488D01*
X140337305Y-72226811D01*
X140337310Y-72226814D01*
X140442373Y-72275805D01*
X140495658Y-72322722D01*
X140515119Y-72390999D01*
X140494577Y-72458959D01*
X140442373Y-72504195D01*
X140337311Y-72553186D01*
X140337306Y-72553189D01*
X140332324Y-72555512D01*
X140327817Y-72558668D01*
X140327815Y-72558669D01*
X140154730Y-72679864D01*
X140154727Y-72679866D01*
X140150219Y-72683023D01*
X139993023Y-72840219D01*
X139865512Y-73022324D01*
X139863189Y-73027306D01*
X139863186Y-73027311D01*
X139773883Y-73218822D01*
X139771560Y-73223804D01*
X139714022Y-73438537D01*
X139694647Y-73660000D01*
X139714022Y-73881463D01*
X139771560Y-74096196D01*
X139773882Y-74101177D01*
X139773883Y-74101178D01*
X139863186Y-74292689D01*
X139863189Y-74292694D01*
X139865512Y-74297676D01*
X139868668Y-74302183D01*
X139868669Y-74302185D01*
X139869171Y-74302901D01*
X139993023Y-74479781D01*
X140150219Y-74636977D01*
X140154727Y-74640134D01*
X140154730Y-74640136D01*
X140230495Y-74693187D01*
X140332323Y-74764488D01*
X140337305Y-74766811D01*
X140337310Y-74766814D01*
X140442373Y-74815805D01*
X140495658Y-74862722D01*
X140515119Y-74930999D01*
X140494577Y-74998959D01*
X140442373Y-75044195D01*
X140337311Y-75093186D01*
X140337306Y-75093189D01*
X140332324Y-75095512D01*
X140327817Y-75098668D01*
X140327815Y-75098669D01*
X140154730Y-75219864D01*
X140154727Y-75219866D01*
X140150219Y-75223023D01*
X139993023Y-75380219D01*
X139865512Y-75562324D01*
X139863189Y-75567306D01*
X139863186Y-75567311D01*
X139773883Y-75758822D01*
X139771560Y-75763804D01*
X139714022Y-75978537D01*
X139694647Y-76200000D01*
X94944500Y-76200000D01*
X94944500Y-60198000D01*
X119374647Y-60198000D01*
X119394022Y-60419463D01*
X119451560Y-60634196D01*
X119453882Y-60639177D01*
X119453883Y-60639178D01*
X119543186Y-60830689D01*
X119543189Y-60830694D01*
X119545512Y-60835676D01*
X119548668Y-60840183D01*
X119548669Y-60840185D01*
X119628731Y-60954525D01*
X119673023Y-61017781D01*
X119830219Y-61174977D01*
X119834727Y-61178134D01*
X119834730Y-61178136D01*
X119962771Y-61267791D01*
X120007099Y-61323248D01*
X120016500Y-61371004D01*
X120016500Y-68464233D01*
X120015973Y-68475416D01*
X120014298Y-68482909D01*
X120014547Y-68490835D01*
X120014547Y-68490836D01*
X120016438Y-68550986D01*
X120016500Y-68554945D01*
X120016500Y-68582856D01*
X120016997Y-68586790D01*
X120016997Y-68586791D01*
X120017005Y-68586856D01*
X120017938Y-68598693D01*
X120019327Y-68642889D01*
X120024978Y-68662339D01*
X120028987Y-68681700D01*
X120031526Y-68701797D01*
X120034445Y-68709168D01*
X120034445Y-68709170D01*
X120047804Y-68742912D01*
X120051649Y-68754142D01*
X120063982Y-68796593D01*
X120068015Y-68803412D01*
X120068017Y-68803417D01*
X120074293Y-68814028D01*
X120082988Y-68831776D01*
X120090448Y-68850617D01*
X120095110Y-68857033D01*
X120095110Y-68857034D01*
X120116436Y-68886387D01*
X120122952Y-68896307D01*
X120145458Y-68934362D01*
X120159779Y-68948683D01*
X120172619Y-68963716D01*
X120184528Y-68980107D01*
X120190634Y-68985158D01*
X120218605Y-69008298D01*
X120227384Y-69016288D01*
X121560595Y-70349499D01*
X121594621Y-70411811D01*
X121597500Y-70438594D01*
X121597500Y-71649400D01*
X121608474Y-71755166D01*
X121610655Y-71761702D01*
X121610655Y-71761704D01*
X121646033Y-71867744D01*
X121664450Y-71922946D01*
X121757522Y-72073348D01*
X121882697Y-72198305D01*
X121888927Y-72202145D01*
X121888928Y-72202146D01*
X122026090Y-72286694D01*
X122033262Y-72291115D01*
X122068938Y-72302948D01*
X122194611Y-72344632D01*
X122194613Y-72344632D01*
X122201139Y-72346797D01*
X122207975Y-72347497D01*
X122207978Y-72347498D01*
X122243663Y-72351154D01*
X122305600Y-72357500D01*
X123606400Y-72357500D01*
X123609646Y-72357163D01*
X123609650Y-72357163D01*
X123705308Y-72347238D01*
X123705312Y-72347237D01*
X123712166Y-72346526D01*
X123718702Y-72344345D01*
X123718704Y-72344345D01*
X123850806Y-72300272D01*
X123879946Y-72290550D01*
X124030348Y-72197478D01*
X124155305Y-72072303D01*
X124245081Y-71926660D01*
X124297852Y-71879168D01*
X124367924Y-71867744D01*
X124433048Y-71896018D01*
X124443510Y-71905805D01*
X124485215Y-71949523D01*
X124552576Y-72020135D01*
X124737542Y-72157754D01*
X124742293Y-72160170D01*
X124742297Y-72160172D01*
X124805481Y-72192296D01*
X124943051Y-72262240D01*
X124948145Y-72263822D01*
X124948148Y-72263823D01*
X125124043Y-72318440D01*
X125163227Y-72330607D01*
X125168516Y-72331308D01*
X125386489Y-72360198D01*
X125386494Y-72360198D01*
X125391774Y-72360898D01*
X125397103Y-72360698D01*
X125397105Y-72360698D01*
X125506966Y-72356574D01*
X125622158Y-72352249D01*
X125644802Y-72347498D01*
X125842572Y-72306002D01*
X125847791Y-72304907D01*
X125852750Y-72302949D01*
X125852752Y-72302948D01*
X126057256Y-72222185D01*
X126057258Y-72222184D01*
X126062221Y-72220224D01*
X126089500Y-72203671D01*
X126254757Y-72103390D01*
X126254756Y-72103390D01*
X126259317Y-72100623D01*
X126299134Y-72066072D01*
X126429412Y-71953023D01*
X126429414Y-71953021D01*
X126433445Y-71949523D01*
X126500500Y-71867744D01*
X126576240Y-71775373D01*
X126576244Y-71775367D01*
X126579624Y-71771245D01*
X126584782Y-71762185D01*
X126691032Y-71575529D01*
X126693675Y-71570886D01*
X126772337Y-71354175D01*
X126774636Y-71341463D01*
X126812623Y-71131392D01*
X126812624Y-71131385D01*
X126813361Y-71127308D01*
X126814500Y-71103156D01*
X126814500Y-70641110D01*
X126801027Y-70482324D01*
X126800371Y-70474591D01*
X126800370Y-70474587D01*
X126799920Y-70469280D01*
X126798582Y-70464125D01*
X126798581Y-70464119D01*
X126743343Y-70251297D01*
X126743342Y-70251293D01*
X126742001Y-70246128D01*
X126647312Y-70035925D01*
X126518559Y-69844681D01*
X126359424Y-69677865D01*
X126174458Y-69540246D01*
X126169706Y-69537830D01*
X126169698Y-69537825D01*
X126158394Y-69532078D01*
X126106737Y-69483375D01*
X126089500Y-69419762D01*
X126089500Y-66045475D01*
X139695628Y-66045475D01*
X139714038Y-66255896D01*
X139715941Y-66266691D01*
X139770609Y-66470715D01*
X139774355Y-66481007D01*
X139863623Y-66672441D01*
X139869103Y-66681932D01*
X139899794Y-66725765D01*
X139910271Y-66734140D01*
X139923718Y-66727072D01*
X140597978Y-66052812D01*
X140604356Y-66041132D01*
X141334408Y-66041132D01*
X141334539Y-66042965D01*
X141338790Y-66049580D01*
X142017003Y-66727793D01*
X142028777Y-66734223D01*
X142040793Y-66724926D01*
X142070897Y-66681932D01*
X142076377Y-66672441D01*
X142165645Y-66481007D01*
X142169391Y-66470715D01*
X142224059Y-66266691D01*
X142225962Y-66255896D01*
X142244372Y-66045475D01*
X142244372Y-66034525D01*
X142225962Y-65824104D01*
X142224059Y-65813309D01*
X142169391Y-65609285D01*
X142165645Y-65598993D01*
X142076377Y-65407559D01*
X142070897Y-65398068D01*
X142040206Y-65354235D01*
X142029729Y-65345860D01*
X142016282Y-65352928D01*
X141342022Y-66027188D01*
X141334408Y-66041132D01*
X140604356Y-66041132D01*
X140605592Y-66038868D01*
X140605461Y-66037035D01*
X140601210Y-66030420D01*
X139922997Y-65352207D01*
X139911223Y-65345777D01*
X139899207Y-65355074D01*
X139869103Y-65398068D01*
X139863623Y-65407559D01*
X139774355Y-65598993D01*
X139770609Y-65609285D01*
X139715941Y-65813309D01*
X139714038Y-65824104D01*
X139695628Y-66034525D01*
X139695628Y-66045475D01*
X126089500Y-66045475D01*
X126089500Y-63500000D01*
X139694647Y-63500000D01*
X139714022Y-63721463D01*
X139771560Y-63936196D01*
X139773882Y-63941177D01*
X139773883Y-63941178D01*
X139863186Y-64132689D01*
X139863189Y-64132694D01*
X139865512Y-64137676D01*
X139993023Y-64319781D01*
X140150219Y-64476977D01*
X140154727Y-64480134D01*
X140154730Y-64480136D01*
X140230495Y-64533187D01*
X140332323Y-64604488D01*
X140337305Y-64606811D01*
X140337310Y-64606814D01*
X140442965Y-64656081D01*
X140496250Y-64702998D01*
X140515711Y-64771275D01*
X140495169Y-64839235D01*
X140442965Y-64884471D01*
X140337559Y-64933623D01*
X140328068Y-64939103D01*
X140284235Y-64969794D01*
X140275860Y-64980271D01*
X140282928Y-64993718D01*
X140957188Y-65667978D01*
X140971132Y-65675592D01*
X140972965Y-65675461D01*
X140979580Y-65671210D01*
X141657793Y-64992997D01*
X141664223Y-64981223D01*
X141654926Y-64969207D01*
X141611931Y-64939102D01*
X141602445Y-64933624D01*
X141497035Y-64884471D01*
X141443750Y-64837554D01*
X141424289Y-64769277D01*
X141444831Y-64701317D01*
X141497035Y-64656081D01*
X141602690Y-64606814D01*
X141602695Y-64606811D01*
X141607677Y-64604488D01*
X141709505Y-64533187D01*
X141785270Y-64480136D01*
X141785273Y-64480134D01*
X141789781Y-64476977D01*
X141946977Y-64319781D01*
X142074488Y-64137676D01*
X142076811Y-64132694D01*
X142076814Y-64132689D01*
X142166117Y-63941178D01*
X142166118Y-63941177D01*
X142168440Y-63936196D01*
X142225978Y-63721463D01*
X142245353Y-63500000D01*
X142225978Y-63278537D01*
X142168440Y-63063804D01*
X142155457Y-63035961D01*
X142076814Y-62867311D01*
X142076811Y-62867306D01*
X142074488Y-62862324D01*
X142028441Y-62796562D01*
X141950136Y-62684730D01*
X141950134Y-62684727D01*
X141946977Y-62680219D01*
X141789781Y-62523023D01*
X141785273Y-62519866D01*
X141785270Y-62519864D01*
X141709505Y-62466813D01*
X141607677Y-62395512D01*
X141602695Y-62393189D01*
X141602690Y-62393186D01*
X141497627Y-62344195D01*
X141444342Y-62297278D01*
X141424881Y-62229001D01*
X141445423Y-62161041D01*
X141497627Y-62115805D01*
X141602690Y-62066814D01*
X141602695Y-62066811D01*
X141607677Y-62064488D01*
X141709505Y-61993187D01*
X141785270Y-61940136D01*
X141785273Y-61940134D01*
X141789781Y-61936977D01*
X141946977Y-61779781D01*
X142074488Y-61597676D01*
X142076811Y-61592694D01*
X142076814Y-61592689D01*
X142166117Y-61401178D01*
X142166118Y-61401177D01*
X142168440Y-61396196D01*
X142225978Y-61181463D01*
X142245353Y-60960000D01*
X142225978Y-60738537D01*
X142183557Y-60580222D01*
X142169863Y-60529114D01*
X142169862Y-60529112D01*
X142168440Y-60523804D01*
X142122263Y-60424777D01*
X142076814Y-60327311D01*
X142076811Y-60327306D01*
X142074488Y-60322324D01*
X142071331Y-60317815D01*
X141950136Y-60144730D01*
X141950134Y-60144727D01*
X141946977Y-60140219D01*
X141789781Y-59983023D01*
X141785273Y-59979866D01*
X141785270Y-59979864D01*
X141709505Y-59926813D01*
X141607677Y-59855512D01*
X141602695Y-59853189D01*
X141602690Y-59853186D01*
X141411178Y-59763883D01*
X141411177Y-59763882D01*
X141406196Y-59761560D01*
X141400888Y-59760138D01*
X141400886Y-59760137D01*
X141335051Y-59742497D01*
X141191463Y-59704022D01*
X140970000Y-59684647D01*
X140748537Y-59704022D01*
X140604949Y-59742497D01*
X140539114Y-59760137D01*
X140539112Y-59760138D01*
X140533804Y-59761560D01*
X140528823Y-59763882D01*
X140528822Y-59763883D01*
X140337311Y-59853186D01*
X140337306Y-59853189D01*
X140332324Y-59855512D01*
X140327817Y-59858668D01*
X140327815Y-59858669D01*
X140154730Y-59979864D01*
X140154727Y-59979866D01*
X140150219Y-59983023D01*
X139993023Y-60140219D01*
X139989866Y-60144727D01*
X139989864Y-60144730D01*
X139868669Y-60317815D01*
X139865512Y-60322324D01*
X139863189Y-60327306D01*
X139863186Y-60327311D01*
X139817737Y-60424777D01*
X139771560Y-60523804D01*
X139770138Y-60529112D01*
X139770137Y-60529114D01*
X139756443Y-60580222D01*
X139714022Y-60738537D01*
X139694647Y-60960000D01*
X139714022Y-61181463D01*
X139771560Y-61396196D01*
X139773882Y-61401177D01*
X139773883Y-61401178D01*
X139863186Y-61592689D01*
X139863189Y-61592694D01*
X139865512Y-61597676D01*
X139993023Y-61779781D01*
X140150219Y-61936977D01*
X140154727Y-61940134D01*
X140154730Y-61940136D01*
X140230495Y-61993187D01*
X140332323Y-62064488D01*
X140337305Y-62066811D01*
X140337310Y-62066814D01*
X140442373Y-62115805D01*
X140495658Y-62162722D01*
X140515119Y-62230999D01*
X140494577Y-62298959D01*
X140442373Y-62344195D01*
X140337311Y-62393186D01*
X140337306Y-62393189D01*
X140332324Y-62395512D01*
X140327817Y-62398668D01*
X140327815Y-62398669D01*
X140154730Y-62519864D01*
X140154727Y-62519866D01*
X140150219Y-62523023D01*
X139993023Y-62680219D01*
X139989866Y-62684727D01*
X139989864Y-62684730D01*
X139911559Y-62796562D01*
X139865512Y-62862324D01*
X139863189Y-62867306D01*
X139863186Y-62867311D01*
X139784543Y-63035961D01*
X139771560Y-63063804D01*
X139714022Y-63278537D01*
X139694647Y-63500000D01*
X126089500Y-63500000D01*
X126089500Y-63326594D01*
X126109502Y-63258473D01*
X126126405Y-63237499D01*
X127887779Y-61476126D01*
X127950091Y-61442100D01*
X128009486Y-61443515D01*
X128043217Y-61452553D01*
X128043223Y-61452554D01*
X128048537Y-61453978D01*
X128270000Y-61473353D01*
X128491463Y-61453978D01*
X128688514Y-61401178D01*
X128700886Y-61397863D01*
X128700888Y-61397862D01*
X128706196Y-61396440D01*
X128782142Y-61361026D01*
X128902690Y-61304814D01*
X128902695Y-61304811D01*
X128907677Y-61302488D01*
X129009505Y-61231187D01*
X129085270Y-61178136D01*
X129085273Y-61178134D01*
X129089781Y-61174977D01*
X129246977Y-61017781D01*
X129291270Y-60954525D01*
X129371331Y-60840185D01*
X129371332Y-60840183D01*
X129374488Y-60835676D01*
X129376811Y-60830694D01*
X129376814Y-60830689D01*
X129466117Y-60639178D01*
X129466118Y-60639177D01*
X129468440Y-60634196D01*
X129525978Y-60419463D01*
X129545353Y-60198000D01*
X129525978Y-59976537D01*
X129468440Y-59761804D01*
X129441496Y-59704022D01*
X129376814Y-59565311D01*
X129376811Y-59565306D01*
X129374488Y-59560324D01*
X129246977Y-59378219D01*
X129089781Y-59221023D01*
X129085273Y-59217866D01*
X129085270Y-59217864D01*
X129009505Y-59164813D01*
X128907677Y-59093512D01*
X128902695Y-59091189D01*
X128902690Y-59091186D01*
X128711178Y-59001883D01*
X128711177Y-59001882D01*
X128706196Y-58999560D01*
X128700888Y-58998138D01*
X128700886Y-58998137D01*
X128635051Y-58980497D01*
X128491463Y-58942022D01*
X128270000Y-58922647D01*
X128048537Y-58942022D01*
X127904949Y-58980497D01*
X127839114Y-58998137D01*
X127839112Y-58998138D01*
X127833804Y-58999560D01*
X127828823Y-59001882D01*
X127828822Y-59001883D01*
X127637311Y-59091186D01*
X127637306Y-59091189D01*
X127632324Y-59093512D01*
X127627817Y-59096668D01*
X127627815Y-59096669D01*
X127454730Y-59217864D01*
X127454727Y-59217866D01*
X127450219Y-59221023D01*
X127293023Y-59378219D01*
X127165512Y-59560324D01*
X127163189Y-59565306D01*
X127163186Y-59565311D01*
X127098504Y-59704022D01*
X127071560Y-59761804D01*
X127014022Y-59976537D01*
X126994647Y-60198000D01*
X127014022Y-60419463D01*
X127015446Y-60424776D01*
X127015446Y-60424777D01*
X127024486Y-60458516D01*
X127022796Y-60529493D01*
X126991874Y-60580222D01*
X126022219Y-61549876D01*
X125063747Y-62508348D01*
X125055461Y-62515888D01*
X125048982Y-62520000D01*
X125043557Y-62525777D01*
X125002357Y-62569651D01*
X124999602Y-62572493D01*
X124979865Y-62592230D01*
X124977385Y-62595427D01*
X124969682Y-62604447D01*
X124939414Y-62636679D01*
X124935595Y-62643625D01*
X124935593Y-62643628D01*
X124929652Y-62654434D01*
X124918801Y-62670953D01*
X124906386Y-62686959D01*
X124903241Y-62694228D01*
X124903238Y-62694232D01*
X124888826Y-62727537D01*
X124883609Y-62738187D01*
X124862305Y-62776940D01*
X124860334Y-62784615D01*
X124860334Y-62784616D01*
X124857267Y-62796562D01*
X124850863Y-62815266D01*
X124842819Y-62833855D01*
X124841580Y-62841678D01*
X124841577Y-62841688D01*
X124835901Y-62877524D01*
X124833495Y-62889144D01*
X124822500Y-62931970D01*
X124822500Y-62952224D01*
X124820949Y-62971934D01*
X124817780Y-62991943D01*
X124818526Y-62999835D01*
X124821941Y-63035961D01*
X124822500Y-63047819D01*
X124822500Y-69423404D01*
X124802498Y-69491525D01*
X124761867Y-69531122D01*
X124652683Y-69597377D01*
X124648653Y-69600874D01*
X124549616Y-69686814D01*
X124478555Y-69748477D01*
X124449330Y-69784120D01*
X124390671Y-69824114D01*
X124319701Y-69826046D01*
X124258952Y-69789302D01*
X124244752Y-69770532D01*
X124158332Y-69630880D01*
X124154478Y-69624652D01*
X124029303Y-69499695D01*
X123905537Y-69423404D01*
X123884968Y-69410725D01*
X123884966Y-69410724D01*
X123878738Y-69406885D01*
X123798995Y-69380436D01*
X123717389Y-69353368D01*
X123717387Y-69353368D01*
X123710861Y-69351203D01*
X123704025Y-69350503D01*
X123704022Y-69350502D01*
X123660969Y-69346091D01*
X123606400Y-69340500D01*
X122395595Y-69340500D01*
X122327474Y-69320498D01*
X122306500Y-69303595D01*
X121320405Y-68317500D01*
X121286379Y-68255188D01*
X121283500Y-68228405D01*
X121283500Y-61371004D01*
X121303502Y-61302883D01*
X121337229Y-61267791D01*
X121465270Y-61178136D01*
X121465273Y-61178134D01*
X121469781Y-61174977D01*
X121626977Y-61017781D01*
X121671270Y-60954525D01*
X121751331Y-60840185D01*
X121751332Y-60840183D01*
X121754488Y-60835676D01*
X121756811Y-60830694D01*
X121756814Y-60830689D01*
X121846117Y-60639178D01*
X121846118Y-60639177D01*
X121848440Y-60634196D01*
X121905978Y-60419463D01*
X121925353Y-60198000D01*
X121905978Y-59976537D01*
X121848440Y-59761804D01*
X121821496Y-59704022D01*
X121756814Y-59565311D01*
X121756811Y-59565306D01*
X121754488Y-59560324D01*
X121626977Y-59378219D01*
X121469781Y-59221023D01*
X121465273Y-59217866D01*
X121465270Y-59217864D01*
X121389505Y-59164813D01*
X121287677Y-59093512D01*
X121282695Y-59091189D01*
X121282690Y-59091186D01*
X121091178Y-59001883D01*
X121091177Y-59001882D01*
X121086196Y-58999560D01*
X121080888Y-58998138D01*
X121080886Y-58998137D01*
X121015051Y-58980497D01*
X120871463Y-58942022D01*
X120650000Y-58922647D01*
X120428537Y-58942022D01*
X120284949Y-58980497D01*
X120219114Y-58998137D01*
X120219112Y-58998138D01*
X120213804Y-58999560D01*
X120208823Y-59001882D01*
X120208822Y-59001883D01*
X120017311Y-59091186D01*
X120017306Y-59091189D01*
X120012324Y-59093512D01*
X120007817Y-59096668D01*
X120007815Y-59096669D01*
X119834730Y-59217864D01*
X119834727Y-59217866D01*
X119830219Y-59221023D01*
X119673023Y-59378219D01*
X119545512Y-59560324D01*
X119543189Y-59565306D01*
X119543186Y-59565311D01*
X119478504Y-59704022D01*
X119451560Y-59761804D01*
X119394022Y-59976537D01*
X119374647Y-60198000D01*
X94944500Y-60198000D01*
X94944500Y-55118000D01*
X119374647Y-55118000D01*
X119394022Y-55339463D01*
X119451560Y-55554196D01*
X119453882Y-55559177D01*
X119453883Y-55559178D01*
X119543186Y-55750689D01*
X119543189Y-55750694D01*
X119545512Y-55755676D01*
X119673023Y-55937781D01*
X119830219Y-56094977D01*
X119834727Y-56098134D01*
X119834730Y-56098136D01*
X119837661Y-56100188D01*
X120012323Y-56222488D01*
X120017305Y-56224811D01*
X120017310Y-56224814D01*
X120208822Y-56314117D01*
X120213804Y-56316440D01*
X120219112Y-56317862D01*
X120219114Y-56317863D01*
X120284949Y-56335503D01*
X120428537Y-56373978D01*
X120650000Y-56393353D01*
X120871463Y-56373978D01*
X121015051Y-56335503D01*
X121080886Y-56317863D01*
X121080888Y-56317862D01*
X121086196Y-56316440D01*
X121091178Y-56314117D01*
X121282690Y-56224814D01*
X121282695Y-56224811D01*
X121287677Y-56222488D01*
X121462339Y-56100188D01*
X121465270Y-56098136D01*
X121465273Y-56098134D01*
X121469781Y-56094977D01*
X121626977Y-55937781D01*
X121754488Y-55755676D01*
X121756811Y-55750694D01*
X121756814Y-55750689D01*
X121846117Y-55559178D01*
X121846118Y-55559177D01*
X121848440Y-55554196D01*
X121905978Y-55339463D01*
X121925353Y-55118000D01*
X126994647Y-55118000D01*
X127014022Y-55339463D01*
X127071560Y-55554196D01*
X127073882Y-55559177D01*
X127073883Y-55559178D01*
X127163186Y-55750689D01*
X127163189Y-55750694D01*
X127165512Y-55755676D01*
X127293023Y-55937781D01*
X127450219Y-56094977D01*
X127454727Y-56098134D01*
X127454730Y-56098136D01*
X127457661Y-56100188D01*
X127632323Y-56222488D01*
X127637305Y-56224811D01*
X127637310Y-56224814D01*
X127828822Y-56314117D01*
X127833804Y-56316440D01*
X127839112Y-56317862D01*
X127839114Y-56317863D01*
X127904949Y-56335503D01*
X128048537Y-56373978D01*
X128270000Y-56393353D01*
X128491463Y-56373978D01*
X128635051Y-56335503D01*
X128700886Y-56317863D01*
X128700888Y-56317862D01*
X128706196Y-56316440D01*
X128711178Y-56314117D01*
X128902690Y-56224814D01*
X128902695Y-56224811D01*
X128907677Y-56222488D01*
X129082339Y-56100188D01*
X129085270Y-56098136D01*
X129085273Y-56098134D01*
X129089781Y-56094977D01*
X129246977Y-55937781D01*
X129374488Y-55755676D01*
X129376811Y-55750694D01*
X129376814Y-55750689D01*
X129466117Y-55559178D01*
X129466118Y-55559177D01*
X129468440Y-55554196D01*
X129525978Y-55339463D01*
X129545353Y-55118000D01*
X129525978Y-54896537D01*
X129468440Y-54681804D01*
X129466117Y-54676822D01*
X129376814Y-54485311D01*
X129376811Y-54485306D01*
X129374488Y-54480324D01*
X129246977Y-54298219D01*
X129089781Y-54141023D01*
X129085273Y-54137866D01*
X129085270Y-54137864D01*
X129009505Y-54084813D01*
X128907677Y-54013512D01*
X128902695Y-54011189D01*
X128902690Y-54011186D01*
X128711178Y-53921883D01*
X128711177Y-53921882D01*
X128706196Y-53919560D01*
X128700888Y-53918138D01*
X128700886Y-53918137D01*
X128635051Y-53900497D01*
X128491463Y-53862022D01*
X128270000Y-53842647D01*
X128048537Y-53862022D01*
X127904949Y-53900497D01*
X127839114Y-53918137D01*
X127839112Y-53918138D01*
X127833804Y-53919560D01*
X127828823Y-53921882D01*
X127828822Y-53921883D01*
X127637311Y-54011186D01*
X127637306Y-54011189D01*
X127632324Y-54013512D01*
X127627817Y-54016668D01*
X127627815Y-54016669D01*
X127454730Y-54137864D01*
X127454727Y-54137866D01*
X127450219Y-54141023D01*
X127293023Y-54298219D01*
X127165512Y-54480324D01*
X127163189Y-54485306D01*
X127163186Y-54485311D01*
X127073883Y-54676822D01*
X127071560Y-54681804D01*
X127014022Y-54896537D01*
X126994647Y-55118000D01*
X121925353Y-55118000D01*
X121905978Y-54896537D01*
X121848440Y-54681804D01*
X121846117Y-54676822D01*
X121756814Y-54485311D01*
X121756811Y-54485306D01*
X121754488Y-54480324D01*
X121626977Y-54298219D01*
X121469781Y-54141023D01*
X121465273Y-54137866D01*
X121465270Y-54137864D01*
X121389505Y-54084813D01*
X121287677Y-54013512D01*
X121282695Y-54011189D01*
X121282690Y-54011186D01*
X121091178Y-53921883D01*
X121091177Y-53921882D01*
X121086196Y-53919560D01*
X121080888Y-53918138D01*
X121080886Y-53918137D01*
X121015051Y-53900497D01*
X120871463Y-53862022D01*
X120650000Y-53842647D01*
X120428537Y-53862022D01*
X120284949Y-53900497D01*
X120219114Y-53918137D01*
X120219112Y-53918138D01*
X120213804Y-53919560D01*
X120208823Y-53921882D01*
X120208822Y-53921883D01*
X120017311Y-54011186D01*
X120017306Y-54011189D01*
X120012324Y-54013512D01*
X120007817Y-54016668D01*
X120007815Y-54016669D01*
X119834730Y-54137864D01*
X119834727Y-54137866D01*
X119830219Y-54141023D01*
X119673023Y-54298219D01*
X119545512Y-54480324D01*
X119543189Y-54485306D01*
X119543186Y-54485311D01*
X119453883Y-54676822D01*
X119451560Y-54681804D01*
X119394022Y-54896537D01*
X119374647Y-55118000D01*
X94944500Y-55118000D01*
X94944500Y-51637452D01*
X94964502Y-51569331D01*
X95018158Y-51522838D01*
X95088432Y-51512734D01*
X95150730Y-51540297D01*
X95185889Y-51569331D01*
X95276486Y-51644147D01*
X95276494Y-51644153D01*
X95278727Y-51645997D01*
X95281136Y-51647637D01*
X95281137Y-51647638D01*
X95628332Y-51884035D01*
X95628337Y-51884038D01*
X95630750Y-51885681D01*
X95633298Y-51887091D01*
X95633307Y-51887096D01*
X95900375Y-52034829D01*
X96003408Y-52091824D01*
X96393514Y-52262663D01*
X96797733Y-52396737D01*
X96800559Y-52397392D01*
X96800566Y-52397394D01*
X97209763Y-52492240D01*
X97209772Y-52492242D01*
X97212608Y-52492899D01*
X97634592Y-52550329D01*
X97637442Y-52550456D01*
X97637443Y-52550456D01*
X97928914Y-52563437D01*
X97928931Y-52563437D01*
X97930337Y-52563500D01*
X98153369Y-52563500D01*
X98154809Y-52563433D01*
X98154824Y-52563433D01*
X98293718Y-52557004D01*
X98469418Y-52548872D01*
X98891199Y-52489970D01*
X98894021Y-52489305D01*
X98894029Y-52489304D01*
X99302896Y-52393028D01*
X99302901Y-52393026D01*
X99305736Y-52392359D01*
X99564094Y-52305663D01*
X99706728Y-52257800D01*
X99706731Y-52257799D01*
X99709484Y-52256875D01*
X99712142Y-52255700D01*
X100096344Y-52085847D01*
X100096350Y-52085844D01*
X100098992Y-52084676D01*
X100470928Y-51877233D01*
X100757023Y-51680973D01*
X100819706Y-51637973D01*
X100819713Y-51637968D01*
X100822112Y-51636322D01*
X101014089Y-51476656D01*
X101147300Y-51365866D01*
X101147302Y-51365864D01*
X101149541Y-51364002D01*
X101395641Y-51117473D01*
X101448363Y-51064659D01*
X101448367Y-51064654D01*
X101450417Y-51062601D01*
X101722165Y-50734696D01*
X101870237Y-50518037D01*
X101960820Y-50385497D01*
X101960826Y-50385487D01*
X101962463Y-50383092D01*
X101963869Y-50380561D01*
X101963875Y-50380551D01*
X102167839Y-50013347D01*
X102167843Y-50013338D01*
X102169256Y-50010795D01*
X102170429Y-50008128D01*
X102170434Y-50008119D01*
X102339601Y-49623657D01*
X102339604Y-49623650D01*
X102340775Y-49620988D01*
X102475555Y-49217004D01*
X102519285Y-49029822D01*
X102571776Y-48805145D01*
X102571777Y-48805137D01*
X102572441Y-48802297D01*
X102575018Y-48783610D01*
X102600822Y-48596450D01*
X102630607Y-48380414D01*
X102649555Y-47954962D01*
X102632096Y-47591494D01*
X102629262Y-47532483D01*
X102629261Y-47532473D01*
X102629122Y-47529578D01*
X102578211Y-47169603D01*
X102569892Y-47110785D01*
X102569892Y-47110783D01*
X102569484Y-47107901D01*
X102471150Y-46693535D01*
X102470219Y-46690777D01*
X102470216Y-46690766D01*
X102353633Y-46345343D01*
X102334962Y-46290024D01*
X102188762Y-45960881D01*
X102163271Y-45903492D01*
X102163269Y-45903488D01*
X102162083Y-45900818D01*
X101984379Y-45583503D01*
X101955414Y-45531783D01*
X101955413Y-45531781D01*
X101953992Y-45529244D01*
X101712468Y-45178481D01*
X101710605Y-45176249D01*
X101710599Y-45176241D01*
X101499430Y-44923238D01*
X101471135Y-44858123D01*
X101482536Y-44788048D01*
X101530013Y-44735261D01*
X101596163Y-44716500D01*
X191526893Y-44716500D01*
X191595014Y-44736502D01*
G37*
%TD.AperFunction*%
M02*
