%TF.GenerationSoftware,KiCad,Pcbnew,6.0.11-2627ca5db0~126~ubuntu20.04.1*%
%TF.CreationDate,2023-02-06T13:12:04-05:00*%
%TF.ProjectId,PowerSwitches,506f7765-7253-4776-9974-636865732e6b,rev?*%
%TF.SameCoordinates,Original*%
%TF.FileFunction,Drillmap*%
%TF.FilePolarity,Positive*%
%FSLAX45Y45*%
G04 Gerber Fmt 4.5, Leading zero omitted, Abs format (unit mm)*
G04 Created by KiCad (PCBNEW 6.0.11-2627ca5db0~126~ubuntu20.04.1) date 2023-02-06 13:12:04*
%MOMM*%
%LPD*%
G01*
G04 APERTURE LIST*
%ADD10C,0.100000*%
%ADD11C,0.200000*%
%ADD12C,0.320000*%
G04 APERTURE END LIST*
D10*
X9443600Y-4420800D02*
X19888200Y-4420800D01*
X19888200Y-4420800D02*
X19888200Y-10819200D01*
X19888200Y-10819200D02*
X9443600Y-10819200D01*
X9443600Y-10819200D02*
X9443600Y-4420800D01*
D11*
D12*
X9644400Y-4636300D02*
X9964400Y-4956300D01*
X9964400Y-4636300D02*
X9644400Y-4956300D01*
X9644400Y-10240600D02*
X9964400Y-10560600D01*
X9964400Y-10240600D02*
X9644400Y-10560600D01*
X19344400Y-4640600D02*
X19664400Y-4960600D01*
X19664400Y-4640600D02*
X19344400Y-4960600D01*
X19344400Y-10240600D02*
X19664400Y-10560600D01*
X19664400Y-10240600D02*
X19344400Y-10560600D01*
D11*
X9696219Y-11134676D02*
X9696219Y-10934676D01*
X9743838Y-10934676D01*
X9772410Y-10944200D01*
X9791457Y-10963248D01*
X9800981Y-10982295D01*
X9810505Y-11020390D01*
X9810505Y-11048962D01*
X9800981Y-11087057D01*
X9791457Y-11106105D01*
X9772410Y-11125152D01*
X9743838Y-11134676D01*
X9696219Y-11134676D01*
X9896219Y-11134676D02*
X9896219Y-11001343D01*
X9896219Y-11039438D02*
X9905743Y-11020390D01*
X9915267Y-11010867D01*
X9934314Y-11001343D01*
X9953362Y-11001343D01*
X10020029Y-11134676D02*
X10020029Y-11001343D01*
X10020029Y-10934676D02*
X10010505Y-10944200D01*
X10020029Y-10953724D01*
X10029552Y-10944200D01*
X10020029Y-10934676D01*
X10020029Y-10953724D01*
X10143838Y-11134676D02*
X10124790Y-11125152D01*
X10115267Y-11106105D01*
X10115267Y-10934676D01*
X10248600Y-11134676D02*
X10229552Y-11125152D01*
X10220029Y-11106105D01*
X10220029Y-10934676D01*
X10477171Y-11134676D02*
X10477171Y-10934676D01*
X10543838Y-11077533D01*
X10610505Y-10934676D01*
X10610505Y-11134676D01*
X10791457Y-11134676D02*
X10791457Y-11029914D01*
X10781933Y-11010867D01*
X10762886Y-11001343D01*
X10724790Y-11001343D01*
X10705743Y-11010867D01*
X10791457Y-11125152D02*
X10772410Y-11134676D01*
X10724790Y-11134676D01*
X10705743Y-11125152D01*
X10696219Y-11106105D01*
X10696219Y-11087057D01*
X10705743Y-11068010D01*
X10724790Y-11058486D01*
X10772410Y-11058486D01*
X10791457Y-11048962D01*
X10886695Y-11001343D02*
X10886695Y-11201343D01*
X10886695Y-11010867D02*
X10905743Y-11001343D01*
X10943838Y-11001343D01*
X10962886Y-11010867D01*
X10972410Y-11020390D01*
X10981933Y-11039438D01*
X10981933Y-11096581D01*
X10972410Y-11115629D01*
X10962886Y-11125152D01*
X10943838Y-11134676D01*
X10905743Y-11134676D01*
X10886695Y-11125152D01*
X11067648Y-11115629D02*
X11077171Y-11125152D01*
X11067648Y-11134676D01*
X11058124Y-11125152D01*
X11067648Y-11115629D01*
X11067648Y-11134676D01*
X11067648Y-11010867D02*
X11077171Y-11020390D01*
X11067648Y-11029914D01*
X11058124Y-11020390D01*
X11067648Y-11010867D01*
X11067648Y-11029914D01*
X9238600Y-11364200D02*
X9438600Y-11564200D01*
X9438600Y-11364200D02*
X9238600Y-11564200D01*
X9677171Y-11354676D02*
X9800981Y-11354676D01*
X9734314Y-11430867D01*
X9762886Y-11430867D01*
X9781933Y-11440390D01*
X9791457Y-11449914D01*
X9800981Y-11468962D01*
X9800981Y-11516581D01*
X9791457Y-11535628D01*
X9781933Y-11545152D01*
X9762886Y-11554676D01*
X9705743Y-11554676D01*
X9686695Y-11545152D01*
X9677171Y-11535628D01*
X9886695Y-11535628D02*
X9896219Y-11545152D01*
X9886695Y-11554676D01*
X9877171Y-11545152D01*
X9886695Y-11535628D01*
X9886695Y-11554676D01*
X9972410Y-11373724D02*
X9981933Y-11364200D01*
X10000981Y-11354676D01*
X10048600Y-11354676D01*
X10067648Y-11364200D01*
X10077171Y-11373724D01*
X10086695Y-11392771D01*
X10086695Y-11411819D01*
X10077171Y-11440390D01*
X9962886Y-11554676D01*
X10086695Y-11554676D01*
X10210505Y-11354676D02*
X10229552Y-11354676D01*
X10248600Y-11364200D01*
X10258124Y-11373724D01*
X10267648Y-11392771D01*
X10277171Y-11430867D01*
X10277171Y-11478486D01*
X10267648Y-11516581D01*
X10258124Y-11535628D01*
X10248600Y-11545152D01*
X10229552Y-11554676D01*
X10210505Y-11554676D01*
X10191457Y-11545152D01*
X10181933Y-11535628D01*
X10172410Y-11516581D01*
X10162886Y-11478486D01*
X10162886Y-11430867D01*
X10172410Y-11392771D01*
X10181933Y-11373724D01*
X10191457Y-11364200D01*
X10210505Y-11354676D01*
X10400981Y-11354676D02*
X10420029Y-11354676D01*
X10439076Y-11364200D01*
X10448600Y-11373724D01*
X10458124Y-11392771D01*
X10467648Y-11430867D01*
X10467648Y-11478486D01*
X10458124Y-11516581D01*
X10448600Y-11535628D01*
X10439076Y-11545152D01*
X10420029Y-11554676D01*
X10400981Y-11554676D01*
X10381933Y-11545152D01*
X10372410Y-11535628D01*
X10362886Y-11516581D01*
X10353362Y-11478486D01*
X10353362Y-11430867D01*
X10362886Y-11392771D01*
X10372410Y-11373724D01*
X10381933Y-11364200D01*
X10400981Y-11354676D01*
X10553362Y-11554676D02*
X10553362Y-11421343D01*
X10553362Y-11440390D02*
X10562886Y-11430867D01*
X10581933Y-11421343D01*
X10610505Y-11421343D01*
X10629552Y-11430867D01*
X10639076Y-11449914D01*
X10639076Y-11554676D01*
X10639076Y-11449914D02*
X10648600Y-11430867D01*
X10667648Y-11421343D01*
X10696219Y-11421343D01*
X10715267Y-11430867D01*
X10724790Y-11449914D01*
X10724790Y-11554676D01*
X10820029Y-11554676D02*
X10820029Y-11421343D01*
X10820029Y-11440390D02*
X10829552Y-11430867D01*
X10848600Y-11421343D01*
X10877171Y-11421343D01*
X10896219Y-11430867D01*
X10905743Y-11449914D01*
X10905743Y-11554676D01*
X10905743Y-11449914D02*
X10915267Y-11430867D01*
X10934314Y-11421343D01*
X10962886Y-11421343D01*
X10981933Y-11430867D01*
X10991457Y-11449914D01*
X10991457Y-11554676D01*
X11381933Y-11345152D02*
X11210505Y-11602295D01*
X11639076Y-11354676D02*
X11658124Y-11354676D01*
X11677171Y-11364200D01*
X11686695Y-11373724D01*
X11696219Y-11392771D01*
X11705743Y-11430867D01*
X11705743Y-11478486D01*
X11696219Y-11516581D01*
X11686695Y-11535628D01*
X11677171Y-11545152D01*
X11658124Y-11554676D01*
X11639076Y-11554676D01*
X11620028Y-11545152D01*
X11610505Y-11535628D01*
X11600981Y-11516581D01*
X11591457Y-11478486D01*
X11591457Y-11430867D01*
X11600981Y-11392771D01*
X11610505Y-11373724D01*
X11620028Y-11364200D01*
X11639076Y-11354676D01*
X11791457Y-11535628D02*
X11800981Y-11545152D01*
X11791457Y-11554676D01*
X11781933Y-11545152D01*
X11791457Y-11535628D01*
X11791457Y-11554676D01*
X11991457Y-11554676D02*
X11877171Y-11554676D01*
X11934314Y-11554676D02*
X11934314Y-11354676D01*
X11915267Y-11383248D01*
X11896219Y-11402295D01*
X11877171Y-11411819D01*
X12067648Y-11373724D02*
X12077171Y-11364200D01*
X12096219Y-11354676D01*
X12143838Y-11354676D01*
X12162886Y-11364200D01*
X12172409Y-11373724D01*
X12181933Y-11392771D01*
X12181933Y-11411819D01*
X12172409Y-11440390D01*
X12058124Y-11554676D01*
X12181933Y-11554676D01*
X12353362Y-11354676D02*
X12315267Y-11354676D01*
X12296219Y-11364200D01*
X12286695Y-11373724D01*
X12267648Y-11402295D01*
X12258124Y-11440390D01*
X12258124Y-11516581D01*
X12267648Y-11535628D01*
X12277171Y-11545152D01*
X12296219Y-11554676D01*
X12334314Y-11554676D01*
X12353362Y-11545152D01*
X12362886Y-11535628D01*
X12372409Y-11516581D01*
X12372409Y-11468962D01*
X12362886Y-11449914D01*
X12353362Y-11440390D01*
X12334314Y-11430867D01*
X12296219Y-11430867D01*
X12277171Y-11440390D01*
X12267648Y-11449914D01*
X12258124Y-11468962D01*
X12496219Y-11354676D02*
X12515267Y-11354676D01*
X12534314Y-11364200D01*
X12543838Y-11373724D01*
X12553362Y-11392771D01*
X12562886Y-11430867D01*
X12562886Y-11478486D01*
X12553362Y-11516581D01*
X12543838Y-11535628D01*
X12534314Y-11545152D01*
X12515267Y-11554676D01*
X12496219Y-11554676D01*
X12477171Y-11545152D01*
X12467648Y-11535628D01*
X12458124Y-11516581D01*
X12448600Y-11478486D01*
X12448600Y-11430867D01*
X12458124Y-11392771D01*
X12467648Y-11373724D01*
X12477171Y-11364200D01*
X12496219Y-11354676D01*
X12639076Y-11354676D02*
X12639076Y-11392771D01*
X12715267Y-11354676D02*
X12715267Y-11392771D01*
X13010505Y-11630867D02*
X13000981Y-11621343D01*
X12981933Y-11592771D01*
X12972409Y-11573724D01*
X12962886Y-11545152D01*
X12953362Y-11497533D01*
X12953362Y-11459438D01*
X12962886Y-11411819D01*
X12972409Y-11383248D01*
X12981933Y-11364200D01*
X13000981Y-11335628D01*
X13010505Y-11326105D01*
X13172409Y-11421343D02*
X13172409Y-11554676D01*
X13124790Y-11345152D02*
X13077171Y-11488009D01*
X13200981Y-11488009D01*
X13429552Y-11554676D02*
X13429552Y-11354676D01*
X13515267Y-11554676D02*
X13515267Y-11449914D01*
X13505743Y-11430867D01*
X13486695Y-11421343D01*
X13458124Y-11421343D01*
X13439076Y-11430867D01*
X13429552Y-11440390D01*
X13639076Y-11554676D02*
X13620028Y-11545152D01*
X13610505Y-11535628D01*
X13600981Y-11516581D01*
X13600981Y-11459438D01*
X13610505Y-11440390D01*
X13620028Y-11430867D01*
X13639076Y-11421343D01*
X13667648Y-11421343D01*
X13686695Y-11430867D01*
X13696219Y-11440390D01*
X13705743Y-11459438D01*
X13705743Y-11516581D01*
X13696219Y-11535628D01*
X13686695Y-11545152D01*
X13667648Y-11554676D01*
X13639076Y-11554676D01*
X13820028Y-11554676D02*
X13800981Y-11545152D01*
X13791457Y-11526105D01*
X13791457Y-11354676D01*
X13972409Y-11545152D02*
X13953362Y-11554676D01*
X13915267Y-11554676D01*
X13896219Y-11545152D01*
X13886695Y-11526105D01*
X13886695Y-11449914D01*
X13896219Y-11430867D01*
X13915267Y-11421343D01*
X13953362Y-11421343D01*
X13972409Y-11430867D01*
X13981933Y-11449914D01*
X13981933Y-11468962D01*
X13886695Y-11488009D01*
X14058124Y-11545152D02*
X14077171Y-11554676D01*
X14115267Y-11554676D01*
X14134314Y-11545152D01*
X14143838Y-11526105D01*
X14143838Y-11516581D01*
X14134314Y-11497533D01*
X14115267Y-11488009D01*
X14086695Y-11488009D01*
X14067648Y-11478486D01*
X14058124Y-11459438D01*
X14058124Y-11449914D01*
X14067648Y-11430867D01*
X14086695Y-11421343D01*
X14115267Y-11421343D01*
X14134314Y-11430867D01*
X14210505Y-11630867D02*
X14220028Y-11621343D01*
X14239076Y-11592771D01*
X14248600Y-11573724D01*
X14258124Y-11545152D01*
X14267648Y-11497533D01*
X14267648Y-11459438D01*
X14258124Y-11411819D01*
X14248600Y-11383248D01*
X14239076Y-11364200D01*
X14220028Y-11335628D01*
X14210505Y-11326105D01*
X14572409Y-11630867D02*
X14562886Y-11621343D01*
X14543838Y-11592771D01*
X14534314Y-11573724D01*
X14524790Y-11545152D01*
X14515267Y-11497533D01*
X14515267Y-11459438D01*
X14524790Y-11411819D01*
X14534314Y-11383248D01*
X14543838Y-11364200D01*
X14562886Y-11335628D01*
X14572409Y-11326105D01*
X14648600Y-11421343D02*
X14648600Y-11554676D01*
X14648600Y-11440390D02*
X14658124Y-11430867D01*
X14677171Y-11421343D01*
X14705743Y-11421343D01*
X14724790Y-11430867D01*
X14734314Y-11449914D01*
X14734314Y-11554676D01*
X14858124Y-11554676D02*
X14839076Y-11545152D01*
X14829552Y-11535628D01*
X14820028Y-11516581D01*
X14820028Y-11459438D01*
X14829552Y-11440390D01*
X14839076Y-11430867D01*
X14858124Y-11421343D01*
X14886695Y-11421343D01*
X14905743Y-11430867D01*
X14915267Y-11440390D01*
X14924790Y-11459438D01*
X14924790Y-11516581D01*
X14915267Y-11535628D01*
X14905743Y-11545152D01*
X14886695Y-11554676D01*
X14858124Y-11554676D01*
X14981933Y-11421343D02*
X15058124Y-11421343D01*
X15010505Y-11354676D02*
X15010505Y-11526105D01*
X15020028Y-11545152D01*
X15039076Y-11554676D01*
X15058124Y-11554676D01*
X15277171Y-11421343D02*
X15277171Y-11621343D01*
X15277171Y-11430867D02*
X15296219Y-11421343D01*
X15334314Y-11421343D01*
X15353362Y-11430867D01*
X15362886Y-11440390D01*
X15372409Y-11459438D01*
X15372409Y-11516581D01*
X15362886Y-11535628D01*
X15353362Y-11545152D01*
X15334314Y-11554676D01*
X15296219Y-11554676D01*
X15277171Y-11545152D01*
X15486695Y-11554676D02*
X15467648Y-11545152D01*
X15458124Y-11526105D01*
X15458124Y-11354676D01*
X15648600Y-11554676D02*
X15648600Y-11449914D01*
X15639076Y-11430867D01*
X15620028Y-11421343D01*
X15581933Y-11421343D01*
X15562886Y-11430867D01*
X15648600Y-11545152D02*
X15629552Y-11554676D01*
X15581933Y-11554676D01*
X15562886Y-11545152D01*
X15553362Y-11526105D01*
X15553362Y-11507057D01*
X15562886Y-11488009D01*
X15581933Y-11478486D01*
X15629552Y-11478486D01*
X15648600Y-11468962D01*
X15715267Y-11421343D02*
X15791457Y-11421343D01*
X15743838Y-11354676D02*
X15743838Y-11526105D01*
X15753362Y-11545152D01*
X15772409Y-11554676D01*
X15791457Y-11554676D01*
X15934314Y-11545152D02*
X15915267Y-11554676D01*
X15877171Y-11554676D01*
X15858124Y-11545152D01*
X15848600Y-11526105D01*
X15848600Y-11449914D01*
X15858124Y-11430867D01*
X15877171Y-11421343D01*
X15915267Y-11421343D01*
X15934314Y-11430867D01*
X15943838Y-11449914D01*
X15943838Y-11468962D01*
X15848600Y-11488009D01*
X16115267Y-11554676D02*
X16115267Y-11354676D01*
X16115267Y-11545152D02*
X16096219Y-11554676D01*
X16058124Y-11554676D01*
X16039076Y-11545152D01*
X16029552Y-11535628D01*
X16020028Y-11516581D01*
X16020028Y-11459438D01*
X16029552Y-11440390D01*
X16039076Y-11430867D01*
X16058124Y-11421343D01*
X16096219Y-11421343D01*
X16115267Y-11430867D01*
X16191457Y-11630867D02*
X16200981Y-11621343D01*
X16220028Y-11592771D01*
X16229552Y-11573724D01*
X16239076Y-11545152D01*
X16248600Y-11497533D01*
X16248600Y-11459438D01*
X16239076Y-11411819D01*
X16229552Y-11383248D01*
X16220028Y-11364200D01*
X16200981Y-11335628D01*
X16191457Y-11326105D01*
M02*
