%TF.GenerationSoftware,KiCad,Pcbnew,6.0.11-2627ca5db0~126~ubuntu20.04.1*%
%TF.CreationDate,2023-02-06T13:13:29-05:00*%
%TF.ProjectId,ScooterBLDCMotorController,53636f6f-7465-4724-924c-44434d6f746f,rev?*%
%TF.SameCoordinates,Original*%
%TF.FileFunction,Soldermask,Bot*%
%TF.FilePolarity,Negative*%
%FSLAX46Y46*%
G04 Gerber Fmt 4.6, Leading zero omitted, Abs format (unit mm)*
G04 Created by KiCad (PCBNEW 6.0.11-2627ca5db0~126~ubuntu20.04.1) date 2023-02-06 13:13:29*
%MOMM*%
%LPD*%
G01*
G04 APERTURE LIST*
G04 Aperture macros list*
%AMRoundRect*
0 Rectangle with rounded corners*
0 $1 Rounding radius*
0 $2 $3 $4 $5 $6 $7 $8 $9 X,Y pos of 4 corners*
0 Add a 4 corners polygon primitive as box body*
4,1,4,$2,$3,$4,$5,$6,$7,$8,$9,$2,$3,0*
0 Add four circle primitives for the rounded corners*
1,1,$1+$1,$2,$3*
1,1,$1+$1,$4,$5*
1,1,$1+$1,$6,$7*
1,1,$1+$1,$8,$9*
0 Add four rect primitives between the rounded corners*
20,1,$1+$1,$2,$3,$4,$5,0*
20,1,$1+$1,$4,$5,$6,$7,0*
20,1,$1+$1,$6,$7,$8,$9,0*
20,1,$1+$1,$8,$9,$2,$3,0*%
G04 Aperture macros list end*
%ADD10RoundRect,0.250000X0.600000X0.725000X-0.600000X0.725000X-0.600000X-0.725000X0.600000X-0.725000X0*%
%ADD11O,1.700000X1.950000*%
%ADD12C,8.500000*%
%ADD13C,1.600000*%
%ADD14O,1.600000X1.600000*%
%ADD15C,7.200000*%
%ADD16C,1.524000*%
%ADD17R,1.524000X1.524000*%
%ADD18RoundRect,0.250000X0.725000X-0.600000X0.725000X0.600000X-0.725000X0.600000X-0.725000X-0.600000X0*%
%ADD19O,1.950000X1.700000*%
%ADD20RoundRect,0.250000X-0.750000X0.600000X-0.750000X-0.600000X0.750000X-0.600000X0.750000X0.600000X0*%
%ADD21O,2.000000X1.700000*%
%ADD22C,9.200000*%
%ADD23RoundRect,0.250000X-0.600000X-0.750000X0.600000X-0.750000X0.600000X0.750000X-0.600000X0.750000X0*%
%ADD24O,1.700000X2.000000*%
%ADD25C,1.400000*%
%ADD26O,1.400000X1.400000*%
%ADD27R,1.600000X1.600000*%
%ADD28R,1.700000X1.700000*%
%ADD29O,1.700000X1.700000*%
%ADD30RoundRect,0.250000X-0.725000X0.600000X-0.725000X-0.600000X0.725000X-0.600000X0.725000X0.600000X0*%
G04 APERTURE END LIST*
D10*
X133310000Y-136288000D03*
D11*
X130810000Y-136288000D03*
X128310000Y-136288000D03*
X125810000Y-136288000D03*
X123310000Y-136288000D03*
D12*
X247142000Y-140208000D03*
D13*
X175240000Y-137016000D03*
D14*
X167740000Y-137016000D03*
D15*
X208448000Y-62738000D03*
D16*
X137708000Y-61578000D03*
X135168000Y-61578000D03*
X132628000Y-61578000D03*
X130088000Y-61578000D03*
X127548000Y-61578000D03*
X125008000Y-61578000D03*
X125008000Y-71738000D03*
X127548000Y-71738000D03*
X130088000Y-71738000D03*
X132628000Y-71738000D03*
X135168000Y-71738000D03*
X137708000Y-71738000D03*
D13*
X128564000Y-92566000D03*
X131104000Y-92566000D03*
X133644000Y-92566000D03*
X136184000Y-92566000D03*
X138724000Y-92566000D03*
X141264000Y-92566000D03*
X143804000Y-92566000D03*
X146344000Y-92566000D03*
X148884000Y-92566000D03*
X151424000Y-92566000D03*
X153964000Y-92566000D03*
X156504000Y-92566000D03*
X159044000Y-92566000D03*
X161584000Y-92566000D03*
X161584000Y-77326000D03*
X159044000Y-77326000D03*
X156504000Y-77326000D03*
X153964000Y-77326000D03*
X151424000Y-77326000D03*
X148884000Y-77326000D03*
X146344000Y-77326000D03*
X143804000Y-77326000D03*
X141264000Y-77326000D03*
X138724000Y-77326000D03*
X136184000Y-77326000D03*
X133644000Y-77326000D03*
X131104000Y-77326000D03*
X128564000Y-77326000D03*
D16*
X157540000Y-69978500D03*
X160080000Y-69978500D03*
X162620000Y-69978500D03*
D17*
X165160000Y-69978500D03*
X165160000Y-54738500D03*
D16*
X162620000Y-54738500D03*
X160080000Y-54738500D03*
X157540000Y-54738500D03*
X155000000Y-54738500D03*
D18*
X134700000Y-52942000D03*
D19*
X134700000Y-50442000D03*
X134700000Y-47942000D03*
D20*
X176841000Y-78108000D03*
D21*
X176841000Y-80608000D03*
D15*
X88392000Y-118750000D03*
D22*
X197344000Y-124580000D03*
D12*
X50800000Y-43688000D03*
D22*
X100344000Y-68580000D03*
D23*
X111820000Y-68419000D03*
D24*
X114320000Y-68419000D03*
D16*
X139994000Y-112886000D03*
X142534000Y-112886000D03*
X145074000Y-112886000D03*
X147614000Y-112886000D03*
X150154000Y-112886000D03*
X152694000Y-112886000D03*
X152694000Y-102726000D03*
X150154000Y-102726000D03*
X147614000Y-102726000D03*
X145074000Y-102726000D03*
X142534000Y-102726000D03*
X139994000Y-102726000D03*
D10*
X162092000Y-136525000D03*
D11*
X159592000Y-136525000D03*
X157092000Y-136525000D03*
X154592000Y-136525000D03*
X152092000Y-136525000D03*
D16*
X167172000Y-85725000D03*
D17*
X167172000Y-88265000D03*
D16*
X167172000Y-90805000D03*
D13*
X175240000Y-132952000D03*
D14*
X167740000Y-132952000D03*
D22*
X197344000Y-68580000D03*
D23*
X157560000Y-47845000D03*
D24*
X160060000Y-47845000D03*
D25*
X116830000Y-74786000D03*
D26*
X109210000Y-74786000D03*
D10*
X115864000Y-136271000D03*
D11*
X113364000Y-136271000D03*
X110864000Y-136271000D03*
D18*
X186419000Y-107108000D03*
D19*
X186419000Y-104608000D03*
X186419000Y-102108000D03*
X186419000Y-99608000D03*
X186419000Y-97108000D03*
D27*
X165399000Y-116706000D03*
D14*
X162859000Y-116706000D03*
X160319000Y-116706000D03*
X157779000Y-116706000D03*
X155239000Y-116706000D03*
X152699000Y-116706000D03*
X150159000Y-116706000D03*
X150159000Y-124326000D03*
X152699000Y-124326000D03*
X155239000Y-124326000D03*
X157779000Y-124326000D03*
X160319000Y-124326000D03*
X162859000Y-124326000D03*
X165399000Y-124326000D03*
D28*
X119674000Y-55736000D03*
D29*
X117134000Y-55736000D03*
D12*
X50038000Y-140208000D03*
D28*
X119674000Y-50402000D03*
D29*
X117134000Y-50402000D03*
D16*
X159044000Y-112886000D03*
X161584000Y-112886000D03*
X164124000Y-112886000D03*
X166664000Y-112886000D03*
X169204000Y-112886000D03*
X171744000Y-112886000D03*
X171744000Y-102726000D03*
X169204000Y-102726000D03*
X166664000Y-102726000D03*
X164124000Y-102726000D03*
X161584000Y-102726000D03*
X159044000Y-102726000D03*
D22*
X100344000Y-124580000D03*
D16*
X167172000Y-76056000D03*
D17*
X167172000Y-78596000D03*
D16*
X167172000Y-81136000D03*
D23*
X144586000Y-47845000D03*
D24*
X147086000Y-47845000D03*
D16*
X119674000Y-112886000D03*
X122214000Y-112886000D03*
X124754000Y-112886000D03*
X127294000Y-112886000D03*
X129834000Y-112886000D03*
X132374000Y-112886000D03*
X132374000Y-102726000D03*
X129834000Y-102726000D03*
X127294000Y-102726000D03*
X124754000Y-102726000D03*
X122214000Y-102726000D03*
X119674000Y-102726000D03*
D13*
X139232000Y-129667000D03*
D14*
X146732000Y-129667000D03*
D27*
X169204000Y-72246000D03*
D14*
X176824000Y-72246000D03*
D13*
X139232000Y-133731000D03*
D14*
X146732000Y-133731000D03*
D27*
X141015000Y-116706000D03*
D14*
X138475000Y-116706000D03*
X135935000Y-116706000D03*
X133395000Y-116706000D03*
X130855000Y-116706000D03*
X128315000Y-116706000D03*
X125775000Y-116706000D03*
X125775000Y-124326000D03*
X128315000Y-124326000D03*
X130855000Y-124326000D03*
X133395000Y-124326000D03*
X135935000Y-124326000D03*
X138475000Y-124326000D03*
X141015000Y-124326000D03*
D13*
X139232000Y-137795000D03*
D14*
X146732000Y-137795000D03*
D15*
X246888000Y-119000000D03*
X49952000Y-62488000D03*
D13*
X167740000Y-128888000D03*
D14*
X175240000Y-128888000D03*
D18*
X126301000Y-52902000D03*
D19*
X126301000Y-50402000D03*
X126301000Y-47902000D03*
D12*
X247904000Y-43688000D03*
D10*
X186436000Y-136525000D03*
D11*
X183936000Y-136525000D03*
X181436000Y-136525000D03*
D30*
X112014000Y-97028000D03*
D19*
X112014000Y-99528000D03*
X112014000Y-102028000D03*
X112014000Y-104528000D03*
X112014000Y-107028000D03*
M02*
