M48
; DRILL file {KiCad 6.0.11-2627ca5db0~126~ubuntu20.04.1} date Wed 22 Feb 2023 04:00:56 PM EST
; FORMAT={-:-/ absolute / metric / decimal}
; #@! TF.CreationDate,2023-02-22T16:00:56-05:00
; #@! TF.GenerationSoftware,Kicad,Pcbnew,6.0.11-2627ca5db0~126~ubuntu20.04.1
; #@! TF.FileFunction,Plated,1,2,PTH
FMAT,2
METRIC
; #@! TA.AperFunction,Plated,PTH,ComponentDrill
T1C0.700
; #@! TA.AperFunction,Plated,PTH,ComponentDrill
T2C0.762
; #@! TA.AperFunction,Plated,PTH,ComponentDrill
T3C0.800
; #@! TA.AperFunction,Plated,PTH,ComponentDrill
T4C0.950
; #@! TA.AperFunction,Plated,PTH,ComponentDrill
T5C1.000
; #@! TA.AperFunction,Plated,PTH,ComponentDrill
T6C1.100
%
G90
G05
T1
X109.21Y-74.786
X116.83Y-74.786
T2
X119.674Y-102.726
X119.674Y-112.886
X122.214Y-102.726
X122.214Y-112.886
X124.754Y-102.726
X124.754Y-112.886
X125.008Y-61.578
X125.008Y-71.738
X127.294Y-102.726
X127.294Y-112.886
X127.548Y-61.578
X127.548Y-71.738
X129.834Y-102.726
X129.834Y-112.886
X130.088Y-61.578
X130.088Y-71.738
X132.374Y-102.726
X132.374Y-112.886
X132.628Y-61.578
X132.628Y-71.738
X135.168Y-61.578
X135.168Y-71.738
X137.708Y-61.578
X137.708Y-71.738
X139.994Y-102.726
X139.994Y-112.886
X142.534Y-102.726
X142.534Y-112.886
X145.074Y-102.726
X145.074Y-112.886
X147.614Y-102.726
X147.614Y-112.886
X150.154Y-102.726
X150.154Y-112.886
X152.694Y-102.726
X152.694Y-112.886
X154.94Y-53.848
X157.48Y-53.848
X157.48Y-71.628
X159.044Y-102.726
X159.044Y-112.886
X160.02Y-53.848
X160.02Y-71.628
X161.584Y-102.726
X161.584Y-112.886
X162.56Y-53.848
X162.56Y-71.628
X164.124Y-102.726
X164.124Y-112.886
X165.1Y-53.848
X165.1Y-71.628
X166.664Y-102.726
X166.664Y-112.886
X167.172Y-76.056
X167.172Y-78.596
X167.172Y-81.136
X167.172Y-85.725
X167.172Y-88.265
X167.172Y-90.805
X169.204Y-102.726
X169.204Y-112.886
X171.744Y-102.726
X171.744Y-112.886
T3
X125.775Y-116.706
X125.775Y-124.326
X128.315Y-116.706
X128.315Y-124.326
X130.855Y-116.706
X130.855Y-124.326
X133.395Y-116.706
X133.395Y-124.326
X135.935Y-116.706
X135.935Y-124.326
X138.475Y-116.706
X138.475Y-124.326
X139.232Y-129.667
X139.232Y-133.731
X139.232Y-137.795
X141.015Y-116.706
X141.015Y-124.326
X146.732Y-129.667
X146.732Y-133.731
X146.732Y-137.795
X150.159Y-116.706
X150.159Y-124.326
X152.699Y-116.706
X152.699Y-124.326
X155.239Y-116.706
X155.239Y-124.326
X157.779Y-116.706
X157.779Y-124.326
X160.319Y-116.706
X160.319Y-124.326
X162.859Y-116.706
X162.859Y-124.326
X165.399Y-116.706
X165.399Y-124.326
X167.74Y-128.888
X167.74Y-132.952
X167.74Y-137.016
X169.204Y-72.246
X175.24Y-128.888
X175.24Y-132.952
X175.24Y-137.016
X176.824Y-72.246
T4
X110.864Y-136.271
X112.014Y-97.028
X112.014Y-99.528
X112.014Y-102.028
X112.014Y-104.528
X112.014Y-107.028
X113.364Y-136.271
X115.864Y-136.271
X123.31Y-136.288
X125.81Y-136.288
X126.301Y-47.902
X126.301Y-50.402
X126.301Y-52.902
X128.31Y-136.288
X130.81Y-136.288
X133.31Y-136.288
X134.7Y-47.942
X134.7Y-50.442
X134.7Y-52.942
X152.092Y-136.525
X154.592Y-136.525
X157.092Y-136.525
X159.592Y-136.525
X162.092Y-136.525
X181.436Y-136.525
X183.936Y-136.525
X186.419Y-97.108
X186.419Y-99.608
X186.419Y-102.108
X186.419Y-104.608
X186.419Y-107.108
X186.436Y-136.525
T5
X111.82Y-68.419
X114.32Y-68.419
X117.134Y-50.402
X117.134Y-55.736
X119.674Y-50.402
X119.674Y-55.736
X144.586Y-47.845
X147.086Y-47.845
X157.56Y-47.845
X160.06Y-47.845
X176.841Y-78.108
X176.841Y-80.608
T6
X128.564Y-77.326
X128.564Y-92.566
X131.104Y-77.326
X131.104Y-92.566
X133.644Y-77.326
X133.644Y-92.566
X136.184Y-77.326
X136.184Y-92.566
X138.724Y-77.326
X138.724Y-92.566
X141.264Y-77.326
X141.264Y-92.566
X143.804Y-77.326
X143.804Y-92.566
X146.344Y-77.326
X146.344Y-92.566
X148.884Y-77.326
X148.884Y-92.566
X151.424Y-77.326
X151.424Y-92.566
X153.964Y-77.326
X153.964Y-92.566
X156.504Y-77.326
X156.504Y-92.566
X159.044Y-77.326
X159.044Y-92.566
X161.584Y-77.326
X161.584Y-92.566
T0
M30
