%TF.GenerationSoftware,KiCad,Pcbnew,6.0.11-2627ca5db0~126~ubuntu20.04.1*%
%TF.CreationDate,2023-02-22T16:00:47-05:00*%
%TF.ProjectId,ScooterBLDCMotorController,53636f6f-7465-4724-924c-44434d6f746f,rev?*%
%TF.SameCoordinates,Original*%
%TF.FileFunction,Legend,Top*%
%TF.FilePolarity,Positive*%
%FSLAX46Y46*%
G04 Gerber Fmt 4.6, Leading zero omitted, Abs format (unit mm)*
G04 Created by KiCad (PCBNEW 6.0.11-2627ca5db0~126~ubuntu20.04.1) date 2023-02-22 16:00:47*
%MOMM*%
%LPD*%
G01*
G04 APERTURE LIST*
G04 Aperture macros list*
%AMRoundRect*
0 Rectangle with rounded corners*
0 $1 Rounding radius*
0 $2 $3 $4 $5 $6 $7 $8 $9 X,Y pos of 4 corners*
0 Add a 4 corners polygon primitive as box body*
4,1,4,$2,$3,$4,$5,$6,$7,$8,$9,$2,$3,0*
0 Add four circle primitives for the rounded corners*
1,1,$1+$1,$2,$3*
1,1,$1+$1,$4,$5*
1,1,$1+$1,$6,$7*
1,1,$1+$1,$8,$9*
0 Add four rect primitives between the rounded corners*
20,1,$1+$1,$2,$3,$4,$5,0*
20,1,$1+$1,$4,$5,$6,$7,0*
20,1,$1+$1,$6,$7,$8,$9,0*
20,1,$1+$1,$8,$9,$2,$3,0*%
G04 Aperture macros list end*
%ADD10C,0.150000*%
%ADD11C,0.120000*%
%ADD12C,0.100000*%
%ADD13RoundRect,0.250000X0.600000X0.725000X-0.600000X0.725000X-0.600000X-0.725000X0.600000X-0.725000X0*%
%ADD14O,1.700000X1.950000*%
%ADD15C,8.500000*%
%ADD16C,1.600000*%
%ADD17O,1.600000X1.600000*%
%ADD18C,7.200000*%
%ADD19C,1.524000*%
%ADD20R,1.524000X1.524000*%
%ADD21RoundRect,0.250000X0.725000X-0.600000X0.725000X0.600000X-0.725000X0.600000X-0.725000X-0.600000X0*%
%ADD22O,1.950000X1.700000*%
%ADD23RoundRect,0.250000X-0.750000X0.600000X-0.750000X-0.600000X0.750000X-0.600000X0.750000X0.600000X0*%
%ADD24O,2.000000X1.700000*%
%ADD25C,9.200000*%
%ADD26RoundRect,0.250000X-0.600000X-0.750000X0.600000X-0.750000X0.600000X0.750000X-0.600000X0.750000X0*%
%ADD27O,1.700000X2.000000*%
%ADD28C,1.400000*%
%ADD29O,1.400000X1.400000*%
%ADD30R,1.600000X1.600000*%
%ADD31R,1.700000X1.700000*%
%ADD32O,1.700000X1.700000*%
%ADD33RoundRect,0.250000X-0.725000X0.600000X-0.725000X-0.600000X0.725000X-0.600000X0.725000X0.600000X0*%
G04 APERTURE END LIST*
D10*
X194564000Y-144145000D02*
X103124000Y-144145000D01*
X103124000Y-144145000D02*
X103124000Y-39751000D01*
X103124000Y-39751000D02*
X194564000Y-39751000D01*
X194564000Y-39751000D02*
X194564000Y-144145000D01*
X205190000Y-59428000D02*
X250190000Y-59428000D01*
X250190000Y-59428000D02*
X250190000Y-122428000D01*
X250190000Y-122428000D02*
X205190000Y-122428000D01*
X205190000Y-122428000D02*
X205190000Y-59428000D01*
X46694000Y-59178000D02*
X91694000Y-59178000D01*
X91694000Y-59178000D02*
X91694000Y-122178000D01*
X91694000Y-122178000D02*
X46694000Y-122178000D01*
X46694000Y-122178000D02*
X46694000Y-59178000D01*
X154138380Y-131770190D02*
X155138380Y-131532095D01*
X154424095Y-131341619D01*
X155138380Y-131151142D01*
X154138380Y-130913047D01*
X155519333Y-129484476D02*
X155471714Y-129532095D01*
X155328857Y-129627333D01*
X155233619Y-129674952D01*
X155090761Y-129722571D01*
X154852666Y-129770190D01*
X154662190Y-129770190D01*
X154424095Y-129722571D01*
X154281238Y-129674952D01*
X154186000Y-129627333D01*
X154043142Y-129532095D01*
X153995523Y-129484476D01*
X154186000Y-128579714D02*
X154138380Y-128674952D01*
X154138380Y-128817809D01*
X154186000Y-128960666D01*
X154281238Y-129055904D01*
X154376476Y-129103523D01*
X154566952Y-129151142D01*
X154709809Y-129151142D01*
X154900285Y-129103523D01*
X154995523Y-129055904D01*
X155090761Y-128960666D01*
X155138380Y-128817809D01*
X155138380Y-128722571D01*
X155090761Y-128579714D01*
X155043142Y-128532095D01*
X154709809Y-128532095D01*
X154709809Y-128722571D01*
X155519333Y-128198761D02*
X155471714Y-128151142D01*
X155328857Y-128055904D01*
X155233619Y-128008285D01*
X155090761Y-127960666D01*
X154852666Y-127913047D01*
X154662190Y-127913047D01*
X154424095Y-127960666D01*
X154281238Y-128008285D01*
X154186000Y-128055904D01*
X154043142Y-128151142D01*
X153995523Y-128198761D01*
X181848380Y-131666000D02*
X180848380Y-131666000D01*
X180848380Y-131427904D01*
X180896000Y-131285047D01*
X180991238Y-131189809D01*
X181086476Y-131142190D01*
X181276952Y-131094571D01*
X181419809Y-131094571D01*
X181610285Y-131142190D01*
X181705523Y-131189809D01*
X181800761Y-131285047D01*
X181848380Y-131427904D01*
X181848380Y-131666000D01*
X181848380Y-130666000D02*
X180848380Y-130666000D01*
X181848380Y-129618380D02*
X181372190Y-129951714D01*
X181848380Y-130189809D02*
X180848380Y-130189809D01*
X180848380Y-129808857D01*
X180896000Y-129713619D01*
X180943619Y-129666000D01*
X181038857Y-129618380D01*
X181181714Y-129618380D01*
X181276952Y-129666000D01*
X181324571Y-129713619D01*
X181372190Y-129808857D01*
X181372190Y-130189809D01*
X143716952Y-43504380D02*
X144288380Y-43504380D01*
X144002666Y-44504380D02*
X144002666Y-43504380D01*
X144526476Y-43504380D02*
X145193142Y-44504380D01*
X145193142Y-43504380D02*
X144526476Y-44504380D01*
X146907428Y-44504380D02*
X146574095Y-44028190D01*
X146336000Y-44504380D02*
X146336000Y-43504380D01*
X146716952Y-43504380D01*
X146812190Y-43552000D01*
X146859809Y-43599619D01*
X146907428Y-43694857D01*
X146907428Y-43837714D01*
X146859809Y-43932952D01*
X146812190Y-43980571D01*
X146716952Y-44028190D01*
X146336000Y-44028190D01*
X147240761Y-43504380D02*
X147907428Y-44504380D01*
X147907428Y-43504380D02*
X147240761Y-44504380D01*
X155813809Y-44456761D02*
X155956666Y-44504380D01*
X156194761Y-44504380D01*
X156290000Y-44456761D01*
X156337619Y-44409142D01*
X156385238Y-44313904D01*
X156385238Y-44218666D01*
X156337619Y-44123428D01*
X156290000Y-44075809D01*
X156194761Y-44028190D01*
X156004285Y-43980571D01*
X155909047Y-43932952D01*
X155861428Y-43885333D01*
X155813809Y-43790095D01*
X155813809Y-43694857D01*
X155861428Y-43599619D01*
X155909047Y-43552000D01*
X156004285Y-43504380D01*
X156242380Y-43504380D01*
X156385238Y-43552000D01*
X157385238Y-44409142D02*
X157337619Y-44456761D01*
X157194761Y-44504380D01*
X157099523Y-44504380D01*
X156956666Y-44456761D01*
X156861428Y-44361523D01*
X156813809Y-44266285D01*
X156766190Y-44075809D01*
X156766190Y-43932952D01*
X156813809Y-43742476D01*
X156861428Y-43647238D01*
X156956666Y-43552000D01*
X157099523Y-43504380D01*
X157194761Y-43504380D01*
X157337619Y-43552000D01*
X157385238Y-43599619D01*
X158290000Y-44504380D02*
X157813809Y-44504380D01*
X157813809Y-43504380D01*
X159337619Y-44456761D02*
X159480476Y-44504380D01*
X159718571Y-44504380D01*
X159813809Y-44456761D01*
X159861428Y-44409142D01*
X159909047Y-44313904D01*
X159909047Y-44218666D01*
X159861428Y-44123428D01*
X159813809Y-44075809D01*
X159718571Y-44028190D01*
X159528095Y-43980571D01*
X159432857Y-43932952D01*
X159385238Y-43885333D01*
X159337619Y-43790095D01*
X159337619Y-43694857D01*
X159385238Y-43599619D01*
X159432857Y-43552000D01*
X159528095Y-43504380D01*
X159766190Y-43504380D01*
X159909047Y-43552000D01*
X160337619Y-44504380D02*
X160337619Y-43504380D01*
X160575714Y-43504380D01*
X160718571Y-43552000D01*
X160813809Y-43647238D01*
X160861428Y-43742476D01*
X160909047Y-43932952D01*
X160909047Y-44075809D01*
X160861428Y-44266285D01*
X160813809Y-44361523D01*
X160718571Y-44456761D01*
X160575714Y-44504380D01*
X160337619Y-44504380D01*
X161290000Y-44218666D02*
X161766190Y-44218666D01*
X161194761Y-44504380D02*
X161528095Y-43504380D01*
X161861428Y-44504380D01*
X134096571Y-44155142D02*
X134048952Y-44202761D01*
X133906095Y-44250380D01*
X133810857Y-44250380D01*
X133668000Y-44202761D01*
X133572761Y-44107523D01*
X133525142Y-44012285D01*
X133477523Y-43821809D01*
X133477523Y-43678952D01*
X133525142Y-43488476D01*
X133572761Y-43393238D01*
X133668000Y-43298000D01*
X133810857Y-43250380D01*
X133906095Y-43250380D01*
X134048952Y-43298000D01*
X134096571Y-43345619D01*
X134525142Y-44250380D02*
X134525142Y-43250380D01*
X134525142Y-43726571D02*
X135096571Y-43726571D01*
X135096571Y-44250380D02*
X135096571Y-43250380D01*
X136858476Y-44250380D02*
X136287047Y-44250380D01*
X136572761Y-44250380D02*
X136572761Y-43250380D01*
X136477523Y-43393238D01*
X136382285Y-43488476D01*
X136287047Y-43536095D01*
X63183238Y-89352380D02*
X63183238Y-88352380D01*
X63516571Y-89066666D01*
X63849904Y-88352380D01*
X63849904Y-89352380D01*
X64849904Y-89352380D02*
X64278476Y-89352380D01*
X64564190Y-89352380D02*
X64564190Y-88352380D01*
X64468952Y-88495238D01*
X64373714Y-88590476D01*
X64278476Y-88638095D01*
X66611809Y-89257142D02*
X66564190Y-89304761D01*
X66421333Y-89352380D01*
X66326095Y-89352380D01*
X66183238Y-89304761D01*
X66088000Y-89209523D01*
X66040380Y-89114285D01*
X65992761Y-88923809D01*
X65992761Y-88780952D01*
X66040380Y-88590476D01*
X66088000Y-88495238D01*
X66183238Y-88400000D01*
X66326095Y-88352380D01*
X66421333Y-88352380D01*
X66564190Y-88400000D01*
X66611809Y-88447619D01*
X67230857Y-88352380D02*
X67421333Y-88352380D01*
X67516571Y-88400000D01*
X67611809Y-88495238D01*
X67659428Y-88685714D01*
X67659428Y-89019047D01*
X67611809Y-89209523D01*
X67516571Y-89304761D01*
X67421333Y-89352380D01*
X67230857Y-89352380D01*
X67135619Y-89304761D01*
X67040380Y-89209523D01*
X66992761Y-89019047D01*
X66992761Y-88685714D01*
X67040380Y-88495238D01*
X67135619Y-88400000D01*
X67230857Y-88352380D01*
X68088000Y-89352380D02*
X68088000Y-88352380D01*
X68659428Y-89352380D01*
X68659428Y-88352380D01*
X68992761Y-88352380D02*
X69564190Y-88352380D01*
X69278476Y-89352380D02*
X69278476Y-88352380D01*
X70468952Y-89352380D02*
X70135619Y-88876190D01*
X69897523Y-89352380D02*
X69897523Y-88352380D01*
X70278476Y-88352380D01*
X70373714Y-88400000D01*
X70421333Y-88447619D01*
X70468952Y-88542857D01*
X70468952Y-88685714D01*
X70421333Y-88780952D01*
X70373714Y-88828571D01*
X70278476Y-88876190D01*
X69897523Y-88876190D01*
X71088000Y-88352380D02*
X71278476Y-88352380D01*
X71373714Y-88400000D01*
X71468952Y-88495238D01*
X71516571Y-88685714D01*
X71516571Y-89019047D01*
X71468952Y-89209523D01*
X71373714Y-89304761D01*
X71278476Y-89352380D01*
X71088000Y-89352380D01*
X70992761Y-89304761D01*
X70897523Y-89209523D01*
X70849904Y-89019047D01*
X70849904Y-88685714D01*
X70897523Y-88495238D01*
X70992761Y-88400000D01*
X71088000Y-88352380D01*
X72421333Y-89352380D02*
X71945142Y-89352380D01*
X71945142Y-88352380D01*
X73230857Y-89352380D02*
X72754666Y-89352380D01*
X72754666Y-88352380D01*
X73564190Y-88828571D02*
X73897523Y-88828571D01*
X74040380Y-89352380D02*
X73564190Y-89352380D01*
X73564190Y-88352380D01*
X74040380Y-88352380D01*
X75040380Y-89352380D02*
X74707047Y-88876190D01*
X74468952Y-89352380D02*
X74468952Y-88352380D01*
X74849904Y-88352380D01*
X74945142Y-88400000D01*
X74992761Y-88447619D01*
X75040380Y-88542857D01*
X75040380Y-88685714D01*
X74992761Y-88780952D01*
X74945142Y-88828571D01*
X74849904Y-88876190D01*
X74468952Y-88876190D01*
X152884666Y-141278380D02*
X152884666Y-140278380D01*
X153218000Y-140992666D01*
X153551333Y-140278380D01*
X153551333Y-141278380D01*
X153979904Y-140373619D02*
X154027523Y-140326000D01*
X154122761Y-140278380D01*
X154360857Y-140278380D01*
X154456095Y-140326000D01*
X154503714Y-140373619D01*
X154551333Y-140468857D01*
X154551333Y-140564095D01*
X154503714Y-140706952D01*
X153932285Y-141278380D01*
X154551333Y-141278380D01*
X155741809Y-141278380D02*
X155741809Y-140278380D01*
X156218000Y-141278380D02*
X156218000Y-140278380D01*
X156789428Y-141278380D01*
X156789428Y-140278380D01*
X157265619Y-141278380D02*
X157265619Y-140278380D01*
X157646571Y-140278380D01*
X157741809Y-140326000D01*
X157789428Y-140373619D01*
X157837047Y-140468857D01*
X157837047Y-140611714D01*
X157789428Y-140706952D01*
X157741809Y-140754571D01*
X157646571Y-140802190D01*
X157265619Y-140802190D01*
X158265619Y-140278380D02*
X158265619Y-141087904D01*
X158313238Y-141183142D01*
X158360857Y-141230761D01*
X158456095Y-141278380D01*
X158646571Y-141278380D01*
X158741809Y-141230761D01*
X158789428Y-141183142D01*
X158837047Y-141087904D01*
X158837047Y-140278380D01*
X159170380Y-140278380D02*
X159741809Y-140278380D01*
X159456095Y-141278380D02*
X159456095Y-140278380D01*
X160027523Y-141230761D02*
X160170380Y-141278380D01*
X160408476Y-141278380D01*
X160503714Y-141230761D01*
X160551333Y-141183142D01*
X160598952Y-141087904D01*
X160598952Y-140992666D01*
X160551333Y-140897428D01*
X160503714Y-140849809D01*
X160408476Y-140802190D01*
X160218000Y-140754571D01*
X160122761Y-140706952D01*
X160075142Y-140659333D01*
X160027523Y-140564095D01*
X160027523Y-140468857D01*
X160075142Y-140373619D01*
X160122761Y-140326000D01*
X160218000Y-140278380D01*
X160456095Y-140278380D01*
X160598952Y-140326000D01*
X107227619Y-95560380D02*
X107227619Y-96131809D01*
X106227619Y-95846095D02*
X107227619Y-95846095D01*
X107227619Y-96655619D02*
X107227619Y-96846095D01*
X107180000Y-96941333D01*
X107084761Y-97036571D01*
X106894285Y-97084190D01*
X106560952Y-97084190D01*
X106370476Y-97036571D01*
X106275238Y-96941333D01*
X106227619Y-96846095D01*
X106227619Y-96655619D01*
X106275238Y-96560380D01*
X106370476Y-96465142D01*
X106560952Y-96417523D01*
X106894285Y-96417523D01*
X107084761Y-96465142D01*
X107180000Y-96560380D01*
X107227619Y-96655619D01*
X106227619Y-98274666D02*
X107227619Y-98274666D01*
X106513333Y-98608000D01*
X107227619Y-98941333D01*
X106227619Y-98941333D01*
X106227619Y-99941333D02*
X106227619Y-99369904D01*
X106227619Y-99655619D02*
X107227619Y-99655619D01*
X107084761Y-99560380D01*
X106989523Y-99465142D01*
X106941904Y-99369904D01*
X106751428Y-101131809D02*
X106751428Y-101465142D01*
X106227619Y-101608000D02*
X106227619Y-101131809D01*
X107227619Y-101131809D01*
X107227619Y-101608000D01*
X106227619Y-102036571D02*
X107227619Y-102036571D01*
X106227619Y-102608000D01*
X107227619Y-102608000D01*
X106322857Y-103655619D02*
X106275238Y-103608000D01*
X106227619Y-103465142D01*
X106227619Y-103369904D01*
X106275238Y-103227047D01*
X106370476Y-103131809D01*
X106465714Y-103084190D01*
X106656190Y-103036571D01*
X106799047Y-103036571D01*
X106989523Y-103084190D01*
X107084761Y-103131809D01*
X107180000Y-103227047D01*
X107227619Y-103369904D01*
X107227619Y-103465142D01*
X107180000Y-103608000D01*
X107132380Y-103655619D01*
X107227619Y-104274666D02*
X107227619Y-104465142D01*
X107180000Y-104560380D01*
X107084761Y-104655619D01*
X106894285Y-104703238D01*
X106560952Y-104703238D01*
X106370476Y-104655619D01*
X106275238Y-104560380D01*
X106227619Y-104465142D01*
X106227619Y-104274666D01*
X106275238Y-104179428D01*
X106370476Y-104084190D01*
X106560952Y-104036571D01*
X106894285Y-104036571D01*
X107084761Y-104084190D01*
X107180000Y-104179428D01*
X107227619Y-104274666D01*
X106227619Y-105131809D02*
X107227619Y-105131809D01*
X107227619Y-105369904D01*
X107180000Y-105512761D01*
X107084761Y-105608000D01*
X106989523Y-105655619D01*
X106799047Y-105703238D01*
X106656190Y-105703238D01*
X106465714Y-105655619D01*
X106370476Y-105608000D01*
X106275238Y-105512761D01*
X106227619Y-105369904D01*
X106227619Y-105131809D01*
X106751428Y-106131809D02*
X106751428Y-106465142D01*
X106227619Y-106608000D02*
X106227619Y-106131809D01*
X107227619Y-106131809D01*
X107227619Y-106608000D01*
X106227619Y-107608000D02*
X106703809Y-107274666D01*
X106227619Y-107036571D02*
X107227619Y-107036571D01*
X107227619Y-107417523D01*
X107180000Y-107512761D01*
X107132380Y-107560380D01*
X107037142Y-107608000D01*
X106894285Y-107608000D01*
X106799047Y-107560380D01*
X106751428Y-107512761D01*
X106703809Y-107417523D01*
X106703809Y-107036571D01*
X106275238Y-107988952D02*
X106227619Y-108131809D01*
X106227619Y-108369904D01*
X106275238Y-108465142D01*
X106322857Y-108512761D01*
X106418095Y-108560380D01*
X106513333Y-108560380D01*
X106608571Y-108512761D01*
X106656190Y-108465142D01*
X106703809Y-108369904D01*
X106751428Y-108179428D01*
X106799047Y-108084190D01*
X106846666Y-108036571D01*
X106941904Y-107988952D01*
X107037142Y-107988952D01*
X107132380Y-108036571D01*
X107180000Y-108084190D01*
X107227619Y-108179428D01*
X107227619Y-108417523D01*
X107180000Y-108560380D01*
X179436000Y-141278380D02*
X179436000Y-140278380D01*
X179769333Y-140992666D01*
X180102666Y-140278380D01*
X180102666Y-141278380D01*
X180531238Y-140373619D02*
X180578857Y-140326000D01*
X180674095Y-140278380D01*
X180912190Y-140278380D01*
X181007428Y-140326000D01*
X181055047Y-140373619D01*
X181102666Y-140468857D01*
X181102666Y-140564095D01*
X181055047Y-140706952D01*
X180483619Y-141278380D01*
X181102666Y-141278380D01*
X182483619Y-140278380D02*
X182674095Y-140278380D01*
X182769333Y-140326000D01*
X182864571Y-140421238D01*
X182912190Y-140611714D01*
X182912190Y-140945047D01*
X182864571Y-141135523D01*
X182769333Y-141230761D01*
X182674095Y-141278380D01*
X182483619Y-141278380D01*
X182388380Y-141230761D01*
X182293142Y-141135523D01*
X182245523Y-140945047D01*
X182245523Y-140611714D01*
X182293142Y-140421238D01*
X182388380Y-140326000D01*
X182483619Y-140278380D01*
X183340761Y-140278380D02*
X183340761Y-141087904D01*
X183388380Y-141183142D01*
X183436000Y-141230761D01*
X183531238Y-141278380D01*
X183721714Y-141278380D01*
X183816952Y-141230761D01*
X183864571Y-141183142D01*
X183912190Y-141087904D01*
X183912190Y-140278380D01*
X184245523Y-140278380D02*
X184816952Y-140278380D01*
X184531238Y-141278380D02*
X184531238Y-140278380D01*
X185150285Y-141278380D02*
X185150285Y-140278380D01*
X185531238Y-140278380D01*
X185626476Y-140326000D01*
X185674095Y-140373619D01*
X185721714Y-140468857D01*
X185721714Y-140611714D01*
X185674095Y-140706952D01*
X185626476Y-140754571D01*
X185531238Y-140802190D01*
X185150285Y-140802190D01*
X186150285Y-140278380D02*
X186150285Y-141087904D01*
X186197904Y-141183142D01*
X186245523Y-141230761D01*
X186340761Y-141278380D01*
X186531238Y-141278380D01*
X186626476Y-141230761D01*
X186674095Y-141183142D01*
X186721714Y-141087904D01*
X186721714Y-140278380D01*
X187055047Y-140278380D02*
X187626476Y-140278380D01*
X187340761Y-141278380D02*
X187340761Y-140278380D01*
X187912190Y-141230761D02*
X188055047Y-141278380D01*
X188293142Y-141278380D01*
X188388380Y-141230761D01*
X188436000Y-141183142D01*
X188483619Y-141087904D01*
X188483619Y-140992666D01*
X188436000Y-140897428D01*
X188388380Y-140849809D01*
X188293142Y-140802190D01*
X188102666Y-140754571D01*
X188007428Y-140706952D01*
X187959809Y-140659333D01*
X187912190Y-140564095D01*
X187912190Y-140468857D01*
X187959809Y-140373619D01*
X188007428Y-140326000D01*
X188102666Y-140278380D01*
X188340761Y-140278380D01*
X188483619Y-140326000D01*
X180951523Y-77540380D02*
X180475333Y-77540380D01*
X180427714Y-78016571D01*
X180475333Y-77968952D01*
X180570571Y-77921333D01*
X180808666Y-77921333D01*
X180903904Y-77968952D01*
X180951523Y-78016571D01*
X180999142Y-78111809D01*
X180999142Y-78349904D01*
X180951523Y-78445142D01*
X180903904Y-78492761D01*
X180808666Y-78540380D01*
X180570571Y-78540380D01*
X180475333Y-78492761D01*
X180427714Y-78445142D01*
X181284857Y-77540380D02*
X181618190Y-78540380D01*
X181951523Y-77540380D01*
X222441238Y-89352380D02*
X222441238Y-88352380D01*
X222774571Y-89066666D01*
X223107904Y-88352380D01*
X223107904Y-89352380D01*
X223536476Y-88447619D02*
X223584095Y-88400000D01*
X223679333Y-88352380D01*
X223917428Y-88352380D01*
X224012666Y-88400000D01*
X224060285Y-88447619D01*
X224107904Y-88542857D01*
X224107904Y-88638095D01*
X224060285Y-88780952D01*
X223488857Y-89352380D01*
X224107904Y-89352380D01*
X225869809Y-89257142D02*
X225822190Y-89304761D01*
X225679333Y-89352380D01*
X225584095Y-89352380D01*
X225441238Y-89304761D01*
X225346000Y-89209523D01*
X225298380Y-89114285D01*
X225250761Y-88923809D01*
X225250761Y-88780952D01*
X225298380Y-88590476D01*
X225346000Y-88495238D01*
X225441238Y-88400000D01*
X225584095Y-88352380D01*
X225679333Y-88352380D01*
X225822190Y-88400000D01*
X225869809Y-88447619D01*
X226488857Y-88352380D02*
X226679333Y-88352380D01*
X226774571Y-88400000D01*
X226869809Y-88495238D01*
X226917428Y-88685714D01*
X226917428Y-89019047D01*
X226869809Y-89209523D01*
X226774571Y-89304761D01*
X226679333Y-89352380D01*
X226488857Y-89352380D01*
X226393619Y-89304761D01*
X226298380Y-89209523D01*
X226250761Y-89019047D01*
X226250761Y-88685714D01*
X226298380Y-88495238D01*
X226393619Y-88400000D01*
X226488857Y-88352380D01*
X227346000Y-89352380D02*
X227346000Y-88352380D01*
X227917428Y-89352380D01*
X227917428Y-88352380D01*
X228250761Y-88352380D02*
X228822190Y-88352380D01*
X228536476Y-89352380D02*
X228536476Y-88352380D01*
X229726952Y-89352380D02*
X229393619Y-88876190D01*
X229155523Y-89352380D02*
X229155523Y-88352380D01*
X229536476Y-88352380D01*
X229631714Y-88400000D01*
X229679333Y-88447619D01*
X229726952Y-88542857D01*
X229726952Y-88685714D01*
X229679333Y-88780952D01*
X229631714Y-88828571D01*
X229536476Y-88876190D01*
X229155523Y-88876190D01*
X230346000Y-88352380D02*
X230536476Y-88352380D01*
X230631714Y-88400000D01*
X230726952Y-88495238D01*
X230774571Y-88685714D01*
X230774571Y-89019047D01*
X230726952Y-89209523D01*
X230631714Y-89304761D01*
X230536476Y-89352380D01*
X230346000Y-89352380D01*
X230250761Y-89304761D01*
X230155523Y-89209523D01*
X230107904Y-89019047D01*
X230107904Y-88685714D01*
X230155523Y-88495238D01*
X230250761Y-88400000D01*
X230346000Y-88352380D01*
X231679333Y-89352380D02*
X231203142Y-89352380D01*
X231203142Y-88352380D01*
X232488857Y-89352380D02*
X232012666Y-89352380D01*
X232012666Y-88352380D01*
X232822190Y-88828571D02*
X233155523Y-88828571D01*
X233298380Y-89352380D02*
X232822190Y-89352380D01*
X232822190Y-88352380D01*
X233298380Y-88352380D01*
X234298380Y-89352380D02*
X233965047Y-88876190D01*
X233726952Y-89352380D02*
X233726952Y-88352380D01*
X234107904Y-88352380D01*
X234203142Y-88400000D01*
X234250761Y-88447619D01*
X234298380Y-88542857D01*
X234298380Y-88685714D01*
X234250761Y-88780952D01*
X234203142Y-88828571D01*
X234107904Y-88876190D01*
X233726952Y-88876190D01*
X111728761Y-63824380D02*
X112300190Y-63824380D01*
X112014476Y-64824380D02*
X112014476Y-63824380D01*
X112633523Y-64300571D02*
X112966857Y-64300571D01*
X113109714Y-64824380D02*
X112633523Y-64824380D01*
X112633523Y-63824380D01*
X113109714Y-63824380D01*
X113490666Y-64776761D02*
X113633523Y-64824380D01*
X113871619Y-64824380D01*
X113966857Y-64776761D01*
X114014476Y-64729142D01*
X114062095Y-64633904D01*
X114062095Y-64538666D01*
X114014476Y-64443428D01*
X113966857Y-64395809D01*
X113871619Y-64348190D01*
X113681142Y-64300571D01*
X113585904Y-64252952D01*
X113538285Y-64205333D01*
X113490666Y-64110095D01*
X113490666Y-64014857D01*
X113538285Y-63919619D01*
X113585904Y-63872000D01*
X113681142Y-63824380D01*
X113919238Y-63824380D01*
X114062095Y-63872000D01*
X114347809Y-63824380D02*
X114919238Y-63824380D01*
X114633523Y-64824380D02*
X114633523Y-63824380D01*
X156718380Y-131674952D02*
X157718380Y-131341619D01*
X156718380Y-131008285D01*
X158099333Y-129627333D02*
X158051714Y-129674952D01*
X157908857Y-129770190D01*
X157813619Y-129817809D01*
X157670761Y-129865428D01*
X157432666Y-129913047D01*
X157242190Y-129913047D01*
X157004095Y-129865428D01*
X156861238Y-129817809D01*
X156766000Y-129770190D01*
X156623142Y-129674952D01*
X156575523Y-129627333D01*
X157194571Y-128913047D02*
X157242190Y-128770190D01*
X157289809Y-128722571D01*
X157385047Y-128674952D01*
X157527904Y-128674952D01*
X157623142Y-128722571D01*
X157670761Y-128770190D01*
X157718380Y-128865428D01*
X157718380Y-129246380D01*
X156718380Y-129246380D01*
X156718380Y-128913047D01*
X156766000Y-128817809D01*
X156813619Y-128770190D01*
X156908857Y-128722571D01*
X157004095Y-128722571D01*
X157099333Y-128770190D01*
X157146952Y-128817809D01*
X157194571Y-128913047D01*
X157194571Y-129246380D01*
X158099333Y-128341619D02*
X158051714Y-128294000D01*
X157908857Y-128198761D01*
X157813619Y-128151142D01*
X157670761Y-128103523D01*
X157432666Y-128055904D01*
X157242190Y-128055904D01*
X157004095Y-128103523D01*
X156861238Y-128151142D01*
X156766000Y-128198761D01*
X156623142Y-128294000D01*
X156575523Y-128341619D01*
X125182380Y-131516190D02*
X126182380Y-131278095D01*
X125468095Y-131087619D01*
X126182380Y-130897142D01*
X125182380Y-130659047D01*
X126563333Y-129230476D02*
X126515714Y-129278095D01*
X126372857Y-129373333D01*
X126277619Y-129420952D01*
X126134761Y-129468571D01*
X125896666Y-129516190D01*
X125706190Y-129516190D01*
X125468095Y-129468571D01*
X125325238Y-129420952D01*
X125230000Y-129373333D01*
X125087142Y-129278095D01*
X125039523Y-129230476D01*
X125230000Y-128325714D02*
X125182380Y-128420952D01*
X125182380Y-128563809D01*
X125230000Y-128706666D01*
X125325238Y-128801904D01*
X125420476Y-128849523D01*
X125610952Y-128897142D01*
X125753809Y-128897142D01*
X125944285Y-128849523D01*
X126039523Y-128801904D01*
X126134761Y-128706666D01*
X126182380Y-128563809D01*
X126182380Y-128468571D01*
X126134761Y-128325714D01*
X126087142Y-128278095D01*
X125753809Y-128278095D01*
X125753809Y-128468571D01*
X126563333Y-127944761D02*
X126515714Y-127897142D01*
X126372857Y-127801904D01*
X126277619Y-127754285D01*
X126134761Y-127706666D01*
X125896666Y-127659047D01*
X125706190Y-127659047D01*
X125468095Y-127706666D01*
X125325238Y-127754285D01*
X125230000Y-127801904D01*
X125087142Y-127897142D01*
X125039523Y-127944761D01*
X124222666Y-141295380D02*
X124222666Y-140295380D01*
X124556000Y-141009666D01*
X124889333Y-140295380D01*
X124889333Y-141295380D01*
X125889333Y-141295380D02*
X125317904Y-141295380D01*
X125603619Y-141295380D02*
X125603619Y-140295380D01*
X125508380Y-140438238D01*
X125413142Y-140533476D01*
X125317904Y-140581095D01*
X127079809Y-141295380D02*
X127079809Y-140295380D01*
X127556000Y-141295380D02*
X127556000Y-140295380D01*
X128127428Y-141295380D01*
X128127428Y-140295380D01*
X128603619Y-141295380D02*
X128603619Y-140295380D01*
X128984571Y-140295380D01*
X129079809Y-140343000D01*
X129127428Y-140390619D01*
X129175047Y-140485857D01*
X129175047Y-140628714D01*
X129127428Y-140723952D01*
X129079809Y-140771571D01*
X128984571Y-140819190D01*
X128603619Y-140819190D01*
X129603619Y-140295380D02*
X129603619Y-141104904D01*
X129651238Y-141200142D01*
X129698857Y-141247761D01*
X129794095Y-141295380D01*
X129984571Y-141295380D01*
X130079809Y-141247761D01*
X130127428Y-141200142D01*
X130175047Y-141104904D01*
X130175047Y-140295380D01*
X130508380Y-140295380D02*
X131079809Y-140295380D01*
X130794095Y-141295380D02*
X130794095Y-140295380D01*
X131365523Y-141247761D02*
X131508380Y-141295380D01*
X131746476Y-141295380D01*
X131841714Y-141247761D01*
X131889333Y-141200142D01*
X131936952Y-141104904D01*
X131936952Y-141009666D01*
X131889333Y-140914428D01*
X131841714Y-140866809D01*
X131746476Y-140819190D01*
X131556000Y-140771571D01*
X131460761Y-140723952D01*
X131413142Y-140676333D01*
X131365523Y-140581095D01*
X131365523Y-140485857D01*
X131413142Y-140390619D01*
X131460761Y-140343000D01*
X131556000Y-140295380D01*
X131794095Y-140295380D01*
X131936952Y-140343000D01*
X173831904Y-83890380D02*
X173355714Y-83890380D01*
X173308095Y-84366571D01*
X173355714Y-84318952D01*
X173450952Y-84271333D01*
X173689047Y-84271333D01*
X173784285Y-84318952D01*
X173831904Y-84366571D01*
X173879523Y-84461809D01*
X173879523Y-84699904D01*
X173831904Y-84795142D01*
X173784285Y-84842761D01*
X173689047Y-84890380D01*
X173450952Y-84890380D01*
X173355714Y-84842761D01*
X173308095Y-84795142D01*
X174165238Y-83890380D02*
X174498571Y-84890380D01*
X174831904Y-83890380D01*
X175927142Y-84890380D02*
X175927142Y-83890380D01*
X176403333Y-84890380D02*
X176403333Y-83890380D01*
X176974761Y-84890380D01*
X176974761Y-83890380D01*
X177450952Y-84890380D02*
X177450952Y-83890380D01*
X177831904Y-83890380D01*
X177927142Y-83938000D01*
X177974761Y-83985619D01*
X178022380Y-84080857D01*
X178022380Y-84223714D01*
X177974761Y-84318952D01*
X177927142Y-84366571D01*
X177831904Y-84414190D01*
X177450952Y-84414190D01*
X178450952Y-83890380D02*
X178450952Y-84699904D01*
X178498571Y-84795142D01*
X178546190Y-84842761D01*
X178641428Y-84890380D01*
X178831904Y-84890380D01*
X178927142Y-84842761D01*
X178974761Y-84795142D01*
X179022380Y-84699904D01*
X179022380Y-83890380D01*
X179355714Y-83890380D02*
X179927142Y-83890380D01*
X179641428Y-84890380D02*
X179641428Y-83890380D01*
X180888095Y-80128000D02*
X180792857Y-80080380D01*
X180650000Y-80080380D01*
X180507142Y-80128000D01*
X180411904Y-80223238D01*
X180364285Y-80318476D01*
X180316666Y-80508952D01*
X180316666Y-80651809D01*
X180364285Y-80842285D01*
X180411904Y-80937523D01*
X180507142Y-81032761D01*
X180650000Y-81080380D01*
X180745238Y-81080380D01*
X180888095Y-81032761D01*
X180935714Y-80985142D01*
X180935714Y-80651809D01*
X180745238Y-80651809D01*
X181364285Y-81080380D02*
X181364285Y-80080380D01*
X181935714Y-81080380D01*
X181935714Y-80080380D01*
X182411904Y-81080380D02*
X182411904Y-80080380D01*
X182650000Y-80080380D01*
X182792857Y-80128000D01*
X182888095Y-80223238D01*
X182935714Y-80318476D01*
X182983333Y-80508952D01*
X182983333Y-80651809D01*
X182935714Y-80842285D01*
X182888095Y-80937523D01*
X182792857Y-81032761D01*
X182650000Y-81080380D01*
X182411904Y-81080380D01*
X130262380Y-131301904D02*
X131071904Y-131301904D01*
X131167142Y-131254285D01*
X131214761Y-131206666D01*
X131262380Y-131111428D01*
X131262380Y-130920952D01*
X131214761Y-130825714D01*
X131167142Y-130778095D01*
X131071904Y-130730476D01*
X130262380Y-130730476D01*
X131643333Y-129206666D02*
X131595714Y-129254285D01*
X131452857Y-129349523D01*
X131357619Y-129397142D01*
X131214761Y-129444761D01*
X130976666Y-129492380D01*
X130786190Y-129492380D01*
X130548095Y-129444761D01*
X130405238Y-129397142D01*
X130310000Y-129349523D01*
X130167142Y-129254285D01*
X130119523Y-129206666D01*
X130786190Y-128635238D02*
X131262380Y-128635238D01*
X130262380Y-128968571D02*
X130786190Y-128635238D01*
X130262380Y-128301904D01*
X131643333Y-128063809D02*
X131595714Y-128016190D01*
X131452857Y-127920952D01*
X131357619Y-127873333D01*
X131214761Y-127825714D01*
X130976666Y-127778095D01*
X130786190Y-127778095D01*
X130548095Y-127825714D01*
X130405238Y-127873333D01*
X130310000Y-127920952D01*
X130167142Y-128016190D01*
X130119523Y-128063809D01*
X169521523Y-78302380D02*
X169045333Y-78302380D01*
X168997714Y-78778571D01*
X169045333Y-78730952D01*
X169140571Y-78683333D01*
X169378666Y-78683333D01*
X169473904Y-78730952D01*
X169521523Y-78778571D01*
X169569142Y-78873809D01*
X169569142Y-79111904D01*
X169521523Y-79207142D01*
X169473904Y-79254761D01*
X169378666Y-79302380D01*
X169140571Y-79302380D01*
X169045333Y-79254761D01*
X168997714Y-79207142D01*
X169854857Y-78302380D02*
X170188190Y-79302380D01*
X170521523Y-78302380D01*
X159218380Y-131555904D02*
X160027904Y-131555904D01*
X160123142Y-131508285D01*
X160170761Y-131460666D01*
X160218380Y-131365428D01*
X160218380Y-131174952D01*
X160170761Y-131079714D01*
X160123142Y-131032095D01*
X160027904Y-130984476D01*
X159218380Y-130984476D01*
X160599333Y-129460666D02*
X160551714Y-129508285D01*
X160408857Y-129603523D01*
X160313619Y-129651142D01*
X160170761Y-129698761D01*
X159932666Y-129746380D01*
X159742190Y-129746380D01*
X159504095Y-129698761D01*
X159361238Y-129651142D01*
X159266000Y-129603523D01*
X159123142Y-129508285D01*
X159075523Y-129460666D01*
X159742190Y-128889238D02*
X160218380Y-128889238D01*
X159218380Y-129222571D02*
X159742190Y-128889238D01*
X159218380Y-128555904D01*
X160599333Y-128317809D02*
X160551714Y-128270190D01*
X160408857Y-128174952D01*
X160313619Y-128127333D01*
X160170761Y-128079714D01*
X159932666Y-128032095D01*
X159742190Y-128032095D01*
X159504095Y-128079714D01*
X159361238Y-128127333D01*
X159266000Y-128174952D01*
X159123142Y-128270190D01*
X159075523Y-128317809D01*
X161758380Y-131000476D02*
X161758380Y-131476666D01*
X162234571Y-131524285D01*
X162186952Y-131476666D01*
X162139333Y-131381428D01*
X162139333Y-131143333D01*
X162186952Y-131048095D01*
X162234571Y-131000476D01*
X162329809Y-130952857D01*
X162567904Y-130952857D01*
X162663142Y-131000476D01*
X162710761Y-131048095D01*
X162758380Y-131143333D01*
X162758380Y-131381428D01*
X162710761Y-131476666D01*
X162663142Y-131524285D01*
X161758380Y-130667142D02*
X162758380Y-130333809D01*
X161758380Y-130000476D01*
X113292571Y-131476523D02*
X113340190Y-131333666D01*
X113387809Y-131286047D01*
X113483047Y-131238428D01*
X113625904Y-131238428D01*
X113721142Y-131286047D01*
X113768761Y-131333666D01*
X113816380Y-131428904D01*
X113816380Y-131809857D01*
X112816380Y-131809857D01*
X112816380Y-131476523D01*
X112864000Y-131381285D01*
X112911619Y-131333666D01*
X113006857Y-131286047D01*
X113102095Y-131286047D01*
X113197333Y-131333666D01*
X113244952Y-131381285D01*
X113292571Y-131476523D01*
X113292571Y-131809857D01*
X113816380Y-130238428D02*
X113340190Y-130571761D01*
X113816380Y-130809857D02*
X112816380Y-130809857D01*
X112816380Y-130428904D01*
X112864000Y-130333666D01*
X112911619Y-130286047D01*
X113006857Y-130238428D01*
X113149714Y-130238428D01*
X113244952Y-130286047D01*
X113292571Y-130333666D01*
X113340190Y-130428904D01*
X113340190Y-130809857D01*
X113530666Y-129857476D02*
X113530666Y-129381285D01*
X113816380Y-129952714D02*
X112816380Y-129619380D01*
X113816380Y-129286047D01*
X113816380Y-128952714D02*
X112816380Y-128952714D01*
X113816380Y-128381285D02*
X113244952Y-128809857D01*
X112816380Y-128381285D02*
X113387809Y-128952714D01*
X113292571Y-127952714D02*
X113292571Y-127619380D01*
X113816380Y-127476523D02*
X113816380Y-127952714D01*
X112816380Y-127952714D01*
X112816380Y-127476523D01*
X116515142Y-47806380D02*
X116181809Y-47330190D01*
X115943714Y-47806380D02*
X115943714Y-46806380D01*
X116324666Y-46806380D01*
X116419904Y-46854000D01*
X116467523Y-46901619D01*
X116515142Y-46996857D01*
X116515142Y-47139714D01*
X116467523Y-47234952D01*
X116419904Y-47282571D01*
X116324666Y-47330190D01*
X115943714Y-47330190D01*
X117515142Y-47711142D02*
X117467523Y-47758761D01*
X117324666Y-47806380D01*
X117229428Y-47806380D01*
X117086571Y-47758761D01*
X116991333Y-47663523D01*
X116943714Y-47568285D01*
X116896095Y-47377809D01*
X116896095Y-47234952D01*
X116943714Y-47044476D01*
X116991333Y-46949238D01*
X117086571Y-46854000D01*
X117229428Y-46806380D01*
X117324666Y-46806380D01*
X117467523Y-46854000D01*
X117515142Y-46901619D01*
X118705619Y-47806380D02*
X118705619Y-46806380D01*
X119086571Y-46806380D01*
X119181809Y-46854000D01*
X119229428Y-46901619D01*
X119277047Y-46996857D01*
X119277047Y-47139714D01*
X119229428Y-47234952D01*
X119181809Y-47282571D01*
X119086571Y-47330190D01*
X118705619Y-47330190D01*
X119610380Y-46806380D02*
X119848476Y-47806380D01*
X120038952Y-47092095D01*
X120229428Y-47806380D01*
X120467523Y-46806380D01*
X121419904Y-47806380D02*
X121086571Y-47330190D01*
X120848476Y-47806380D02*
X120848476Y-46806380D01*
X121229428Y-46806380D01*
X121324666Y-46854000D01*
X121372285Y-46901619D01*
X121419904Y-46996857D01*
X121419904Y-47139714D01*
X121372285Y-47234952D01*
X121324666Y-47282571D01*
X121229428Y-47330190D01*
X120848476Y-47330190D01*
X190968380Y-108655619D02*
X190968380Y-108084190D01*
X191968380Y-108369904D02*
X190968380Y-108369904D01*
X190968380Y-107560380D02*
X190968380Y-107369904D01*
X191016000Y-107274666D01*
X191111238Y-107179428D01*
X191301714Y-107131809D01*
X191635047Y-107131809D01*
X191825523Y-107179428D01*
X191920761Y-107274666D01*
X191968380Y-107369904D01*
X191968380Y-107560380D01*
X191920761Y-107655619D01*
X191825523Y-107750857D01*
X191635047Y-107798476D01*
X191301714Y-107798476D01*
X191111238Y-107750857D01*
X191016000Y-107655619D01*
X190968380Y-107560380D01*
X191968380Y-105941333D02*
X190968380Y-105941333D01*
X191682666Y-105608000D01*
X190968380Y-105274666D01*
X191968380Y-105274666D01*
X191063619Y-104846095D02*
X191016000Y-104798476D01*
X190968380Y-104703238D01*
X190968380Y-104465142D01*
X191016000Y-104369904D01*
X191063619Y-104322285D01*
X191158857Y-104274666D01*
X191254095Y-104274666D01*
X191396952Y-104322285D01*
X191968380Y-104893714D01*
X191968380Y-104274666D01*
X191444571Y-103084190D02*
X191444571Y-102750857D01*
X191968380Y-102608000D02*
X191968380Y-103084190D01*
X190968380Y-103084190D01*
X190968380Y-102608000D01*
X191968380Y-102179428D02*
X190968380Y-102179428D01*
X191968380Y-101608000D01*
X190968380Y-101608000D01*
X191873142Y-100560380D02*
X191920761Y-100608000D01*
X191968380Y-100750857D01*
X191968380Y-100846095D01*
X191920761Y-100988952D01*
X191825523Y-101084190D01*
X191730285Y-101131809D01*
X191539809Y-101179428D01*
X191396952Y-101179428D01*
X191206476Y-101131809D01*
X191111238Y-101084190D01*
X191016000Y-100988952D01*
X190968380Y-100846095D01*
X190968380Y-100750857D01*
X191016000Y-100608000D01*
X191063619Y-100560380D01*
X190968380Y-99941333D02*
X190968380Y-99750857D01*
X191016000Y-99655619D01*
X191111238Y-99560380D01*
X191301714Y-99512761D01*
X191635047Y-99512761D01*
X191825523Y-99560380D01*
X191920761Y-99655619D01*
X191968380Y-99750857D01*
X191968380Y-99941333D01*
X191920761Y-100036571D01*
X191825523Y-100131809D01*
X191635047Y-100179428D01*
X191301714Y-100179428D01*
X191111238Y-100131809D01*
X191016000Y-100036571D01*
X190968380Y-99941333D01*
X191968380Y-99084190D02*
X190968380Y-99084190D01*
X190968380Y-98846095D01*
X191016000Y-98703238D01*
X191111238Y-98608000D01*
X191206476Y-98560380D01*
X191396952Y-98512761D01*
X191539809Y-98512761D01*
X191730285Y-98560380D01*
X191825523Y-98608000D01*
X191920761Y-98703238D01*
X191968380Y-98846095D01*
X191968380Y-99084190D01*
X191444571Y-98084190D02*
X191444571Y-97750857D01*
X191968380Y-97608000D02*
X191968380Y-98084190D01*
X190968380Y-98084190D01*
X190968380Y-97608000D01*
X191968380Y-96608000D02*
X191492190Y-96941333D01*
X191968380Y-97179428D02*
X190968380Y-97179428D01*
X190968380Y-96798476D01*
X191016000Y-96703238D01*
X191063619Y-96655619D01*
X191158857Y-96608000D01*
X191301714Y-96608000D01*
X191396952Y-96655619D01*
X191444571Y-96703238D01*
X191492190Y-96798476D01*
X191492190Y-97179428D01*
X191920761Y-96227047D02*
X191968380Y-96084190D01*
X191968380Y-95846095D01*
X191920761Y-95750857D01*
X191873142Y-95703238D01*
X191777904Y-95655619D01*
X191682666Y-95655619D01*
X191587428Y-95703238D01*
X191539809Y-95750857D01*
X191492190Y-95846095D01*
X191444571Y-96036571D01*
X191396952Y-96131809D01*
X191349333Y-96179428D01*
X191254095Y-96227047D01*
X191158857Y-96227047D01*
X191063619Y-96179428D01*
X191016000Y-96131809D01*
X190968380Y-96036571D01*
X190968380Y-95798476D01*
X191016000Y-95655619D01*
X126095523Y-44155142D02*
X126047904Y-44202761D01*
X125905047Y-44250380D01*
X125809809Y-44250380D01*
X125666952Y-44202761D01*
X125571714Y-44107523D01*
X125524095Y-44012285D01*
X125476476Y-43821809D01*
X125476476Y-43678952D01*
X125524095Y-43488476D01*
X125571714Y-43393238D01*
X125666952Y-43298000D01*
X125809809Y-43250380D01*
X125905047Y-43250380D01*
X126047904Y-43298000D01*
X126095523Y-43345619D01*
X126524095Y-44250380D02*
X126524095Y-43250380D01*
X126524095Y-43726571D02*
X127095523Y-43726571D01*
X127095523Y-44250380D02*
X127095523Y-43250380D01*
X127524095Y-43345619D02*
X127571714Y-43298000D01*
X127666952Y-43250380D01*
X127905047Y-43250380D01*
X128000285Y-43298000D01*
X128047904Y-43345619D01*
X128095523Y-43440857D01*
X128095523Y-43536095D01*
X128047904Y-43678952D01*
X127476476Y-44250380D01*
X128095523Y-44250380D01*
X119221523Y-75238380D02*
X118888190Y-74762190D01*
X118650095Y-75238380D02*
X118650095Y-74238380D01*
X119031047Y-74238380D01*
X119126285Y-74286000D01*
X119173904Y-74333619D01*
X119221523Y-74428857D01*
X119221523Y-74571714D01*
X119173904Y-74666952D01*
X119126285Y-74714571D01*
X119031047Y-74762190D01*
X118650095Y-74762190D01*
X169505809Y-87700380D02*
X170124857Y-87700380D01*
X169791523Y-88081333D01*
X169934380Y-88081333D01*
X170029619Y-88128952D01*
X170077238Y-88176571D01*
X170124857Y-88271809D01*
X170124857Y-88509904D01*
X170077238Y-88605142D01*
X170029619Y-88652761D01*
X169934380Y-88700380D01*
X169648666Y-88700380D01*
X169553428Y-88652761D01*
X169505809Y-88605142D01*
X170553428Y-88605142D02*
X170601047Y-88652761D01*
X170553428Y-88700380D01*
X170505809Y-88652761D01*
X170553428Y-88605142D01*
X170553428Y-88700380D01*
X170934380Y-87700380D02*
X171553428Y-87700380D01*
X171220095Y-88081333D01*
X171362952Y-88081333D01*
X171458190Y-88128952D01*
X171505809Y-88176571D01*
X171553428Y-88271809D01*
X171553428Y-88509904D01*
X171505809Y-88605142D01*
X171458190Y-88652761D01*
X171362952Y-88700380D01*
X171077238Y-88700380D01*
X170982000Y-88652761D01*
X170934380Y-88605142D01*
X171839142Y-87700380D02*
X172172476Y-88700380D01*
X172505809Y-87700380D01*
X122690000Y-130809904D02*
X122642380Y-130905142D01*
X122642380Y-131048000D01*
X122690000Y-131190857D01*
X122785238Y-131286095D01*
X122880476Y-131333714D01*
X123070952Y-131381333D01*
X123213809Y-131381333D01*
X123404285Y-131333714D01*
X123499523Y-131286095D01*
X123594761Y-131190857D01*
X123642380Y-131048000D01*
X123642380Y-130952761D01*
X123594761Y-130809904D01*
X123547142Y-130762285D01*
X123213809Y-130762285D01*
X123213809Y-130952761D01*
X123642380Y-130333714D02*
X122642380Y-130333714D01*
X123642380Y-129762285D01*
X122642380Y-129762285D01*
X123642380Y-129286095D02*
X122642380Y-129286095D01*
X122642380Y-129048000D01*
X122690000Y-128905142D01*
X122785238Y-128809904D01*
X122880476Y-128762285D01*
X123070952Y-128714666D01*
X123213809Y-128714666D01*
X123404285Y-128762285D01*
X123499523Y-128809904D01*
X123594761Y-128905142D01*
X123642380Y-129048000D01*
X123642380Y-129286095D01*
X150622380Y-53100190D02*
X150622380Y-52528761D01*
X151622380Y-52814476D02*
X150622380Y-52814476D01*
X151098571Y-52195428D02*
X151098571Y-51862095D01*
X151622380Y-51719238D02*
X151622380Y-52195428D01*
X150622380Y-52195428D01*
X150622380Y-51719238D01*
X151574761Y-51338285D02*
X151622380Y-51195428D01*
X151622380Y-50957333D01*
X151574761Y-50862095D01*
X151527142Y-50814476D01*
X151431904Y-50766857D01*
X151336666Y-50766857D01*
X151241428Y-50814476D01*
X151193809Y-50862095D01*
X151146190Y-50957333D01*
X151098571Y-51147809D01*
X151050952Y-51243047D01*
X151003333Y-51290666D01*
X150908095Y-51338285D01*
X150812857Y-51338285D01*
X150717619Y-51290666D01*
X150670000Y-51243047D01*
X150622380Y-51147809D01*
X150622380Y-50909714D01*
X150670000Y-50766857D01*
X150622380Y-50481142D02*
X150622380Y-49909714D01*
X151622380Y-50195428D02*
X150622380Y-50195428D01*
X151574761Y-48862095D02*
X151622380Y-48719238D01*
X151622380Y-48481142D01*
X151574761Y-48385904D01*
X151527142Y-48338285D01*
X151431904Y-48290666D01*
X151336666Y-48290666D01*
X151241428Y-48338285D01*
X151193809Y-48385904D01*
X151146190Y-48481142D01*
X151098571Y-48671619D01*
X151050952Y-48766857D01*
X151003333Y-48814476D01*
X150908095Y-48862095D01*
X150812857Y-48862095D01*
X150717619Y-48814476D01*
X150670000Y-48766857D01*
X150622380Y-48671619D01*
X150622380Y-48433523D01*
X150670000Y-48290666D01*
X151098571Y-47862095D02*
X151098571Y-47528761D01*
X151622380Y-47385904D02*
X151622380Y-47862095D01*
X150622380Y-47862095D01*
X150622380Y-47385904D01*
X151622380Y-46385904D02*
X151146190Y-46719238D01*
X151622380Y-46957333D02*
X150622380Y-46957333D01*
X150622380Y-46576380D01*
X150670000Y-46481142D01*
X150717619Y-46433523D01*
X150812857Y-46385904D01*
X150955714Y-46385904D01*
X151050952Y-46433523D01*
X151098571Y-46481142D01*
X151146190Y-46576380D01*
X151146190Y-46957333D01*
X151622380Y-45957333D02*
X150622380Y-45957333D01*
X151336666Y-45528761D02*
X151336666Y-45052571D01*
X151622380Y-45624000D02*
X150622380Y-45290666D01*
X151622380Y-44957333D01*
X151622380Y-44147809D02*
X151622380Y-44624000D01*
X150622380Y-44624000D01*
X111236380Y-131683000D02*
X110236380Y-131683000D01*
X110236380Y-131444904D01*
X110284000Y-131302047D01*
X110379238Y-131206809D01*
X110474476Y-131159190D01*
X110664952Y-131111571D01*
X110807809Y-131111571D01*
X110998285Y-131159190D01*
X111093523Y-131206809D01*
X111188761Y-131302047D01*
X111236380Y-131444904D01*
X111236380Y-131683000D01*
X111236380Y-130683000D02*
X110236380Y-130683000D01*
X111236380Y-129635380D02*
X110760190Y-129968714D01*
X111236380Y-130206809D02*
X110236380Y-130206809D01*
X110236380Y-129825857D01*
X110284000Y-129730619D01*
X110331619Y-129683000D01*
X110426857Y-129635380D01*
X110569714Y-129635380D01*
X110664952Y-129683000D01*
X110712571Y-129730619D01*
X110760190Y-129825857D01*
X110760190Y-130206809D01*
X115324666Y-59490380D02*
X114991333Y-59014190D01*
X114753238Y-59490380D02*
X114753238Y-58490380D01*
X115134190Y-58490380D01*
X115229428Y-58538000D01*
X115277047Y-58585619D01*
X115324666Y-58680857D01*
X115324666Y-58823714D01*
X115277047Y-58918952D01*
X115229428Y-58966571D01*
X115134190Y-59014190D01*
X114753238Y-59014190D01*
X116324666Y-59395142D02*
X116277047Y-59442761D01*
X116134190Y-59490380D01*
X116038952Y-59490380D01*
X115896095Y-59442761D01*
X115800857Y-59347523D01*
X115753238Y-59252285D01*
X115705619Y-59061809D01*
X115705619Y-58918952D01*
X115753238Y-58728476D01*
X115800857Y-58633238D01*
X115896095Y-58538000D01*
X116038952Y-58490380D01*
X116134190Y-58490380D01*
X116277047Y-58538000D01*
X116324666Y-58585619D01*
X117515142Y-58966571D02*
X117848476Y-58966571D01*
X117991333Y-59490380D02*
X117515142Y-59490380D01*
X117515142Y-58490380D01*
X117991333Y-58490380D01*
X118419904Y-59490380D02*
X118419904Y-58490380D01*
X118991333Y-59490380D01*
X118991333Y-58490380D01*
X119419904Y-59204666D02*
X119896095Y-59204666D01*
X119324666Y-59490380D02*
X119658000Y-58490380D01*
X119991333Y-59490380D01*
X120658000Y-58966571D02*
X120800857Y-59014190D01*
X120848476Y-59061809D01*
X120896095Y-59157047D01*
X120896095Y-59299904D01*
X120848476Y-59395142D01*
X120800857Y-59442761D01*
X120705619Y-59490380D01*
X120324666Y-59490380D01*
X120324666Y-58490380D01*
X120658000Y-58490380D01*
X120753238Y-58538000D01*
X120800857Y-58585619D01*
X120848476Y-58680857D01*
X120848476Y-58776095D01*
X120800857Y-58871333D01*
X120753238Y-58918952D01*
X120658000Y-58966571D01*
X120324666Y-58966571D01*
X121800857Y-59490380D02*
X121324666Y-59490380D01*
X121324666Y-58490380D01*
X122134190Y-58966571D02*
X122467523Y-58966571D01*
X122610380Y-59490380D02*
X122134190Y-59490380D01*
X122134190Y-58490380D01*
X122610380Y-58490380D01*
X164576380Y-49346190D02*
X163576380Y-49346190D01*
X163671619Y-48917619D02*
X163624000Y-48870000D01*
X163576380Y-48774761D01*
X163576380Y-48536666D01*
X163624000Y-48441428D01*
X163671619Y-48393809D01*
X163766857Y-48346190D01*
X163862095Y-48346190D01*
X164004952Y-48393809D01*
X164576380Y-48965238D01*
X164576380Y-48346190D01*
X164481142Y-47346190D02*
X164528761Y-47393809D01*
X164576380Y-47536666D01*
X164576380Y-47631904D01*
X164528761Y-47774761D01*
X164433523Y-47870000D01*
X164338285Y-47917619D01*
X164147809Y-47965238D01*
X164004952Y-47965238D01*
X163814476Y-47917619D01*
X163719238Y-47870000D01*
X163624000Y-47774761D01*
X163576380Y-47631904D01*
X163576380Y-47536666D01*
X163624000Y-47393809D01*
X163671619Y-47346190D01*
X116268761Y-131857476D02*
X116316380Y-131714619D01*
X116316380Y-131476523D01*
X116268761Y-131381285D01*
X116221142Y-131333666D01*
X116125904Y-131286047D01*
X116030666Y-131286047D01*
X115935428Y-131333666D01*
X115887809Y-131381285D01*
X115840190Y-131476523D01*
X115792571Y-131667000D01*
X115744952Y-131762238D01*
X115697333Y-131809857D01*
X115602095Y-131857476D01*
X115506857Y-131857476D01*
X115411619Y-131809857D01*
X115364000Y-131762238D01*
X115316380Y-131667000D01*
X115316380Y-131428904D01*
X115364000Y-131286047D01*
X116316380Y-130857476D02*
X115316380Y-130857476D01*
X115316380Y-130476523D01*
X115364000Y-130381285D01*
X115411619Y-130333666D01*
X115506857Y-130286047D01*
X115649714Y-130286047D01*
X115744952Y-130333666D01*
X115792571Y-130381285D01*
X115840190Y-130476523D01*
X115840190Y-130857476D01*
X115792571Y-129857476D02*
X115792571Y-129524142D01*
X116316380Y-129381285D02*
X116316380Y-129857476D01*
X115316380Y-129857476D01*
X115316380Y-129381285D01*
X115792571Y-128952714D02*
X115792571Y-128619380D01*
X116316380Y-128476523D02*
X116316380Y-128952714D01*
X115316380Y-128952714D01*
X115316380Y-128476523D01*
X116316380Y-128047952D02*
X115316380Y-128047952D01*
X115316380Y-127809857D01*
X115364000Y-127667000D01*
X115459238Y-127571761D01*
X115554476Y-127524142D01*
X115744952Y-127476523D01*
X115887809Y-127476523D01*
X116078285Y-127524142D01*
X116173523Y-127571761D01*
X116268761Y-127667000D01*
X116316380Y-127809857D01*
X116316380Y-128047952D01*
X108824000Y-141295380D02*
X108824000Y-140295380D01*
X109157333Y-141009666D01*
X109490666Y-140295380D01*
X109490666Y-141295380D01*
X110490666Y-141295380D02*
X109919238Y-141295380D01*
X110204952Y-141295380D02*
X110204952Y-140295380D01*
X110109714Y-140438238D01*
X110014476Y-140533476D01*
X109919238Y-140581095D01*
X111871619Y-140295380D02*
X112062095Y-140295380D01*
X112157333Y-140343000D01*
X112252571Y-140438238D01*
X112300190Y-140628714D01*
X112300190Y-140962047D01*
X112252571Y-141152523D01*
X112157333Y-141247761D01*
X112062095Y-141295380D01*
X111871619Y-141295380D01*
X111776380Y-141247761D01*
X111681142Y-141152523D01*
X111633523Y-140962047D01*
X111633523Y-140628714D01*
X111681142Y-140438238D01*
X111776380Y-140343000D01*
X111871619Y-140295380D01*
X112728761Y-140295380D02*
X112728761Y-141104904D01*
X112776380Y-141200142D01*
X112824000Y-141247761D01*
X112919238Y-141295380D01*
X113109714Y-141295380D01*
X113204952Y-141247761D01*
X113252571Y-141200142D01*
X113300190Y-141104904D01*
X113300190Y-140295380D01*
X113633523Y-140295380D02*
X114204952Y-140295380D01*
X113919238Y-141295380D02*
X113919238Y-140295380D01*
X114538285Y-141295380D02*
X114538285Y-140295380D01*
X114919238Y-140295380D01*
X115014476Y-140343000D01*
X115062095Y-140390619D01*
X115109714Y-140485857D01*
X115109714Y-140628714D01*
X115062095Y-140723952D01*
X115014476Y-140771571D01*
X114919238Y-140819190D01*
X114538285Y-140819190D01*
X115538285Y-140295380D02*
X115538285Y-141104904D01*
X115585904Y-141200142D01*
X115633523Y-141247761D01*
X115728761Y-141295380D01*
X115919238Y-141295380D01*
X116014476Y-141247761D01*
X116062095Y-141200142D01*
X116109714Y-141104904D01*
X116109714Y-140295380D01*
X116443047Y-140295380D02*
X117014476Y-140295380D01*
X116728761Y-141295380D02*
X116728761Y-140295380D01*
X117300190Y-141247761D02*
X117443047Y-141295380D01*
X117681142Y-141295380D01*
X117776380Y-141247761D01*
X117824000Y-141200142D01*
X117871619Y-141104904D01*
X117871619Y-141009666D01*
X117824000Y-140914428D01*
X117776380Y-140866809D01*
X117681142Y-140819190D01*
X117490666Y-140771571D01*
X117395428Y-140723952D01*
X117347809Y-140676333D01*
X117300190Y-140581095D01*
X117300190Y-140485857D01*
X117347809Y-140390619D01*
X117395428Y-140343000D01*
X117490666Y-140295380D01*
X117728761Y-140295380D01*
X117871619Y-140343000D01*
X186880761Y-131840476D02*
X186928380Y-131697619D01*
X186928380Y-131459523D01*
X186880761Y-131364285D01*
X186833142Y-131316666D01*
X186737904Y-131269047D01*
X186642666Y-131269047D01*
X186547428Y-131316666D01*
X186499809Y-131364285D01*
X186452190Y-131459523D01*
X186404571Y-131650000D01*
X186356952Y-131745238D01*
X186309333Y-131792857D01*
X186214095Y-131840476D01*
X186118857Y-131840476D01*
X186023619Y-131792857D01*
X185976000Y-131745238D01*
X185928380Y-131650000D01*
X185928380Y-131411904D01*
X185976000Y-131269047D01*
X186928380Y-130840476D02*
X185928380Y-130840476D01*
X185928380Y-130459523D01*
X185976000Y-130364285D01*
X186023619Y-130316666D01*
X186118857Y-130269047D01*
X186261714Y-130269047D01*
X186356952Y-130316666D01*
X186404571Y-130364285D01*
X186452190Y-130459523D01*
X186452190Y-130840476D01*
X186404571Y-129840476D02*
X186404571Y-129507142D01*
X186928380Y-129364285D02*
X186928380Y-129840476D01*
X185928380Y-129840476D01*
X185928380Y-129364285D01*
X186404571Y-128935714D02*
X186404571Y-128602380D01*
X186928380Y-128459523D02*
X186928380Y-128935714D01*
X185928380Y-128935714D01*
X185928380Y-128459523D01*
X186928380Y-128030952D02*
X185928380Y-128030952D01*
X185928380Y-127792857D01*
X185976000Y-127650000D01*
X186071238Y-127554761D01*
X186166476Y-127507142D01*
X186356952Y-127459523D01*
X186499809Y-127459523D01*
X186690285Y-127507142D01*
X186785523Y-127554761D01*
X186880761Y-127650000D01*
X186928380Y-127792857D01*
X186928380Y-128030952D01*
X132802380Y-130746476D02*
X132802380Y-131222666D01*
X133278571Y-131270285D01*
X133230952Y-131222666D01*
X133183333Y-131127428D01*
X133183333Y-130889333D01*
X133230952Y-130794095D01*
X133278571Y-130746476D01*
X133373809Y-130698857D01*
X133611904Y-130698857D01*
X133707142Y-130746476D01*
X133754761Y-130794095D01*
X133802380Y-130889333D01*
X133802380Y-131127428D01*
X133754761Y-131222666D01*
X133707142Y-131270285D01*
X132802380Y-130413142D02*
X133802380Y-130079809D01*
X132802380Y-129746476D01*
X192392428Y-42070928D02*
X192344809Y-42213785D01*
X192297190Y-42261404D01*
X192201952Y-42309023D01*
X192059095Y-42309023D01*
X191963857Y-42261404D01*
X191916238Y-42213785D01*
X191868619Y-42118547D01*
X191868619Y-41737595D01*
X192868619Y-41737595D01*
X192868619Y-42070928D01*
X192821000Y-42166166D01*
X192773380Y-42213785D01*
X192678142Y-42261404D01*
X192582904Y-42261404D01*
X192487666Y-42213785D01*
X192440047Y-42166166D01*
X192392428Y-42070928D01*
X192392428Y-41737595D01*
X191868619Y-43213785D02*
X191868619Y-42737595D01*
X192868619Y-42737595D01*
X191868619Y-43547119D02*
X192868619Y-43547119D01*
X192868619Y-43785214D01*
X192821000Y-43928071D01*
X192725761Y-44023309D01*
X192630523Y-44070928D01*
X192440047Y-44118547D01*
X192297190Y-44118547D01*
X192106714Y-44070928D01*
X192011476Y-44023309D01*
X191916238Y-43928071D01*
X191868619Y-43785214D01*
X191868619Y-43547119D01*
X191963857Y-45118547D02*
X191916238Y-45070928D01*
X191868619Y-44928071D01*
X191868619Y-44832833D01*
X191916238Y-44689976D01*
X192011476Y-44594738D01*
X192106714Y-44547119D01*
X192297190Y-44499500D01*
X192440047Y-44499500D01*
X192630523Y-44547119D01*
X192725761Y-44594738D01*
X192821000Y-44689976D01*
X192868619Y-44832833D01*
X192868619Y-44928071D01*
X192821000Y-45070928D01*
X192773380Y-45118547D01*
X191868619Y-46309023D02*
X192868619Y-46309023D01*
X192154333Y-46642357D01*
X192868619Y-46975690D01*
X191868619Y-46975690D01*
X192868619Y-47642357D02*
X192868619Y-47832833D01*
X192821000Y-47928071D01*
X192725761Y-48023309D01*
X192535285Y-48070928D01*
X192201952Y-48070928D01*
X192011476Y-48023309D01*
X191916238Y-47928071D01*
X191868619Y-47832833D01*
X191868619Y-47642357D01*
X191916238Y-47547119D01*
X192011476Y-47451880D01*
X192201952Y-47404261D01*
X192535285Y-47404261D01*
X192725761Y-47451880D01*
X192821000Y-47547119D01*
X192868619Y-47642357D01*
X192868619Y-48356642D02*
X192868619Y-48928071D01*
X191868619Y-48642357D02*
X192868619Y-48642357D01*
X192868619Y-49451880D02*
X192868619Y-49642357D01*
X192821000Y-49737595D01*
X192725761Y-49832833D01*
X192535285Y-49880452D01*
X192201952Y-49880452D01*
X192011476Y-49832833D01*
X191916238Y-49737595D01*
X191868619Y-49642357D01*
X191868619Y-49451880D01*
X191916238Y-49356642D01*
X192011476Y-49261404D01*
X192201952Y-49213785D01*
X192535285Y-49213785D01*
X192725761Y-49261404D01*
X192821000Y-49356642D01*
X192868619Y-49451880D01*
X191868619Y-50880452D02*
X192344809Y-50547119D01*
X191868619Y-50309023D02*
X192868619Y-50309023D01*
X192868619Y-50689976D01*
X192821000Y-50785214D01*
X192773380Y-50832833D01*
X192678142Y-50880452D01*
X192535285Y-50880452D01*
X192440047Y-50832833D01*
X192392428Y-50785214D01*
X192344809Y-50689976D01*
X192344809Y-50309023D01*
X191963857Y-52642357D02*
X191916238Y-52594738D01*
X191868619Y-52451880D01*
X191868619Y-52356642D01*
X191916238Y-52213785D01*
X192011476Y-52118547D01*
X192106714Y-52070928D01*
X192297190Y-52023309D01*
X192440047Y-52023309D01*
X192630523Y-52070928D01*
X192725761Y-52118547D01*
X192821000Y-52213785D01*
X192868619Y-52356642D01*
X192868619Y-52451880D01*
X192821000Y-52594738D01*
X192773380Y-52642357D01*
X192868619Y-53261404D02*
X192868619Y-53451880D01*
X192821000Y-53547119D01*
X192725761Y-53642357D01*
X192535285Y-53689976D01*
X192201952Y-53689976D01*
X192011476Y-53642357D01*
X191916238Y-53547119D01*
X191868619Y-53451880D01*
X191868619Y-53261404D01*
X191916238Y-53166166D01*
X192011476Y-53070928D01*
X192201952Y-53023309D01*
X192535285Y-53023309D01*
X192725761Y-53070928D01*
X192821000Y-53166166D01*
X192868619Y-53261404D01*
X191868619Y-54118547D02*
X192868619Y-54118547D01*
X191868619Y-54689976D01*
X192868619Y-54689976D01*
X192868619Y-55023309D02*
X192868619Y-55594738D01*
X191868619Y-55309023D02*
X192868619Y-55309023D01*
X191868619Y-56499500D02*
X192344809Y-56166166D01*
X191868619Y-55928071D02*
X192868619Y-55928071D01*
X192868619Y-56309023D01*
X192821000Y-56404261D01*
X192773380Y-56451880D01*
X192678142Y-56499500D01*
X192535285Y-56499500D01*
X192440047Y-56451880D01*
X192392428Y-56404261D01*
X192344809Y-56309023D01*
X192344809Y-55928071D01*
X192868619Y-57118547D02*
X192868619Y-57309023D01*
X192821000Y-57404261D01*
X192725761Y-57499500D01*
X192535285Y-57547119D01*
X192201952Y-57547119D01*
X192011476Y-57499500D01*
X191916238Y-57404261D01*
X191868619Y-57309023D01*
X191868619Y-57118547D01*
X191916238Y-57023309D01*
X192011476Y-56928071D01*
X192201952Y-56880452D01*
X192535285Y-56880452D01*
X192725761Y-56928071D01*
X192821000Y-57023309D01*
X192868619Y-57118547D01*
X191868619Y-58451880D02*
X191868619Y-57975690D01*
X192868619Y-57975690D01*
X191868619Y-59261404D02*
X191868619Y-58785214D01*
X192868619Y-58785214D01*
X192392428Y-59594738D02*
X192392428Y-59928071D01*
X191868619Y-60070928D02*
X191868619Y-59594738D01*
X192868619Y-59594738D01*
X192868619Y-60070928D01*
X191868619Y-61070928D02*
X192344809Y-60737595D01*
X191868619Y-60499500D02*
X192868619Y-60499500D01*
X192868619Y-60880452D01*
X192821000Y-60975690D01*
X192773380Y-61023309D01*
X192678142Y-61070928D01*
X192535285Y-61070928D01*
X192440047Y-61023309D01*
X192392428Y-60975690D01*
X192344809Y-60880452D01*
X192344809Y-60499500D01*
X190258619Y-42309023D02*
X190734809Y-41975690D01*
X190258619Y-41737595D02*
X191258619Y-41737595D01*
X191258619Y-42118547D01*
X191211000Y-42213785D01*
X191163380Y-42261404D01*
X191068142Y-42309023D01*
X190925285Y-42309023D01*
X190830047Y-42261404D01*
X190782428Y-42213785D01*
X190734809Y-42118547D01*
X190734809Y-41737595D01*
X190782428Y-42737595D02*
X190782428Y-43070928D01*
X190258619Y-43213785D02*
X190258619Y-42737595D01*
X191258619Y-42737595D01*
X191258619Y-43213785D01*
X191258619Y-43499500D02*
X190258619Y-43832833D01*
X191258619Y-44166166D01*
X190258619Y-45785214D02*
X190258619Y-45213785D01*
X190258619Y-45499500D02*
X191258619Y-45499500D01*
X191115761Y-45404261D01*
X191020523Y-45309023D01*
X190972904Y-45213785D01*
X190353857Y-46213785D02*
X190306238Y-46261404D01*
X190258619Y-46213785D01*
X190306238Y-46166166D01*
X190353857Y-46213785D01*
X190258619Y-46213785D01*
X190258619Y-47213785D02*
X190258619Y-46642357D01*
X190258619Y-46928071D02*
X191258619Y-46928071D01*
X191115761Y-46832833D01*
X191020523Y-46737595D01*
X190972904Y-46642357D01*
X151646000Y-131063904D02*
X151598380Y-131159142D01*
X151598380Y-131302000D01*
X151646000Y-131444857D01*
X151741238Y-131540095D01*
X151836476Y-131587714D01*
X152026952Y-131635333D01*
X152169809Y-131635333D01*
X152360285Y-131587714D01*
X152455523Y-131540095D01*
X152550761Y-131444857D01*
X152598380Y-131302000D01*
X152598380Y-131206761D01*
X152550761Y-131063904D01*
X152503142Y-131016285D01*
X152169809Y-131016285D01*
X152169809Y-131206761D01*
X152598380Y-130587714D02*
X151598380Y-130587714D01*
X152598380Y-130016285D01*
X151598380Y-130016285D01*
X152598380Y-129540095D02*
X151598380Y-129540095D01*
X151598380Y-129302000D01*
X151646000Y-129159142D01*
X151741238Y-129063904D01*
X151836476Y-129016285D01*
X152026952Y-128968666D01*
X152169809Y-128968666D01*
X152360285Y-129016285D01*
X152455523Y-129063904D01*
X152550761Y-129159142D01*
X152598380Y-129302000D01*
X152598380Y-129540095D01*
X127762380Y-131420952D02*
X128762380Y-131087619D01*
X127762380Y-130754285D01*
X129143333Y-129373333D02*
X129095714Y-129420952D01*
X128952857Y-129516190D01*
X128857619Y-129563809D01*
X128714761Y-129611428D01*
X128476666Y-129659047D01*
X128286190Y-129659047D01*
X128048095Y-129611428D01*
X127905238Y-129563809D01*
X127810000Y-129516190D01*
X127667142Y-129420952D01*
X127619523Y-129373333D01*
X128238571Y-128659047D02*
X128286190Y-128516190D01*
X128333809Y-128468571D01*
X128429047Y-128420952D01*
X128571904Y-128420952D01*
X128667142Y-128468571D01*
X128714761Y-128516190D01*
X128762380Y-128611428D01*
X128762380Y-128992380D01*
X127762380Y-128992380D01*
X127762380Y-128659047D01*
X127810000Y-128563809D01*
X127857619Y-128516190D01*
X127952857Y-128468571D01*
X128048095Y-128468571D01*
X128143333Y-128516190D01*
X128190952Y-128563809D01*
X128238571Y-128659047D01*
X128238571Y-128992380D01*
X129143333Y-128087619D02*
X129095714Y-128040000D01*
X128952857Y-127944761D01*
X128857619Y-127897142D01*
X128714761Y-127849523D01*
X128476666Y-127801904D01*
X128286190Y-127801904D01*
X128048095Y-127849523D01*
X127905238Y-127897142D01*
X127810000Y-127944761D01*
X127667142Y-128040000D01*
X127619523Y-128087619D01*
X179102095Y-72698380D02*
X179102095Y-71698380D01*
X179340190Y-71698380D01*
X179483047Y-71746000D01*
X179578285Y-71841238D01*
X179625904Y-71936476D01*
X179673523Y-72126952D01*
X179673523Y-72269809D01*
X179625904Y-72460285D01*
X179578285Y-72555523D01*
X179483047Y-72650761D01*
X179340190Y-72698380D01*
X179102095Y-72698380D01*
X183904571Y-131459523D02*
X183952190Y-131316666D01*
X183999809Y-131269047D01*
X184095047Y-131221428D01*
X184237904Y-131221428D01*
X184333142Y-131269047D01*
X184380761Y-131316666D01*
X184428380Y-131411904D01*
X184428380Y-131792857D01*
X183428380Y-131792857D01*
X183428380Y-131459523D01*
X183476000Y-131364285D01*
X183523619Y-131316666D01*
X183618857Y-131269047D01*
X183714095Y-131269047D01*
X183809333Y-131316666D01*
X183856952Y-131364285D01*
X183904571Y-131459523D01*
X183904571Y-131792857D01*
X184428380Y-130221428D02*
X183952190Y-130554761D01*
X184428380Y-130792857D02*
X183428380Y-130792857D01*
X183428380Y-130411904D01*
X183476000Y-130316666D01*
X183523619Y-130269047D01*
X183618857Y-130221428D01*
X183761714Y-130221428D01*
X183856952Y-130269047D01*
X183904571Y-130316666D01*
X183952190Y-130411904D01*
X183952190Y-130792857D01*
X184142666Y-129840476D02*
X184142666Y-129364285D01*
X184428380Y-129935714D02*
X183428380Y-129602380D01*
X184428380Y-129269047D01*
X184428380Y-128935714D02*
X183428380Y-128935714D01*
X184428380Y-128364285D02*
X183856952Y-128792857D01*
X183428380Y-128364285D02*
X183999809Y-128935714D01*
X183904571Y-127935714D02*
X183904571Y-127602380D01*
X184428380Y-127459523D02*
X184428380Y-127935714D01*
X183428380Y-127935714D01*
X183428380Y-127459523D01*
X145644666Y-88029333D02*
X144944666Y-88029333D01*
X145444666Y-87796000D01*
X144944666Y-87562666D01*
X145644666Y-87562666D01*
X145644666Y-87229333D02*
X144944666Y-87229333D01*
X145644666Y-86896000D02*
X144944666Y-86896000D01*
X145444666Y-86662666D01*
X144944666Y-86429333D01*
X145644666Y-86429333D01*
X144944666Y-86162666D02*
X145644666Y-85696000D01*
X144944666Y-85696000D02*
X145644666Y-86162666D01*
X145644666Y-85029333D02*
X145311333Y-85262666D01*
X145644666Y-85429333D02*
X144944666Y-85429333D01*
X144944666Y-85162666D01*
X144978000Y-85096000D01*
X145011333Y-85062666D01*
X145078000Y-85029333D01*
X145178000Y-85029333D01*
X145244666Y-85062666D01*
X145278000Y-85096000D01*
X145311333Y-85162666D01*
X145311333Y-85429333D01*
X144944666Y-84829333D02*
X144944666Y-84429333D01*
X145644666Y-84629333D02*
X144944666Y-84629333D01*
X145644666Y-83829333D02*
X145644666Y-84229333D01*
X145644666Y-84029333D02*
X144944666Y-84029333D01*
X145044666Y-84096000D01*
X145111333Y-84162666D01*
X145144666Y-84229333D01*
X144944666Y-83396000D02*
X144944666Y-83329333D01*
X144978000Y-83262666D01*
X145011333Y-83229333D01*
X145078000Y-83196000D01*
X145211333Y-83162666D01*
X145378000Y-83162666D01*
X145511333Y-83196000D01*
X145578000Y-83229333D01*
X145611333Y-83262666D01*
X145644666Y-83329333D01*
X145644666Y-83396000D01*
X145611333Y-83462666D01*
X145578000Y-83496000D01*
X145511333Y-83529333D01*
X145378000Y-83562666D01*
X145211333Y-83562666D01*
X145078000Y-83529333D01*
X145011333Y-83496000D01*
X144978000Y-83462666D01*
X144944666Y-83396000D01*
X144944666Y-82562666D02*
X144944666Y-82696000D01*
X144978000Y-82762666D01*
X145011333Y-82796000D01*
X145111333Y-82862666D01*
X145244666Y-82896000D01*
X145511333Y-82896000D01*
X145578000Y-82862666D01*
X145611333Y-82829333D01*
X145644666Y-82762666D01*
X145644666Y-82629333D01*
X145611333Y-82562666D01*
X145578000Y-82529333D01*
X145511333Y-82496000D01*
X145344666Y-82496000D01*
X145278000Y-82529333D01*
X145244666Y-82562666D01*
X145211333Y-82629333D01*
X145211333Y-82762666D01*
X145244666Y-82829333D01*
X145278000Y-82862666D01*
X145344666Y-82896000D01*
X145011333Y-82229333D02*
X144978000Y-82196000D01*
X144944666Y-82129333D01*
X144944666Y-81962666D01*
X144978000Y-81896000D01*
X145011333Y-81862666D01*
X145078000Y-81829333D01*
X145144666Y-81829333D01*
X145244666Y-81862666D01*
X145644666Y-82262666D01*
X145644666Y-81829333D01*
X147168666Y-86346000D02*
X146468666Y-86346000D01*
X146468666Y-86179333D01*
X146502000Y-86079333D01*
X146568666Y-86012666D01*
X146635333Y-85979333D01*
X146768666Y-85946000D01*
X146868666Y-85946000D01*
X147002000Y-85979333D01*
X147068666Y-86012666D01*
X147135333Y-86079333D01*
X147168666Y-86179333D01*
X147168666Y-86346000D01*
X146468666Y-85746000D02*
X147168666Y-85512666D01*
X146468666Y-85279333D01*
X147168666Y-84712666D02*
X147168666Y-85046000D01*
X146468666Y-85046000D01*
X146468666Y-84179333D02*
X146468666Y-84312666D01*
X146502000Y-84379333D01*
X146535333Y-84412666D01*
X146635333Y-84479333D01*
X146768666Y-84512666D01*
X147035333Y-84512666D01*
X147102000Y-84479333D01*
X147135333Y-84446000D01*
X147168666Y-84379333D01*
X147168666Y-84246000D01*
X147135333Y-84179333D01*
X147102000Y-84146000D01*
X147035333Y-84112666D01*
X146868666Y-84112666D01*
X146802000Y-84146000D01*
X146768666Y-84179333D01*
X146735333Y-84246000D01*
X146735333Y-84379333D01*
X146768666Y-84446000D01*
X146802000Y-84479333D01*
X146868666Y-84512666D01*
X146968666Y-83846000D02*
X146968666Y-83512666D01*
X147168666Y-83912666D02*
X146468666Y-83679333D01*
X147168666Y-83446000D01*
D11*
X124060000Y-138738000D02*
X132560000Y-138738000D01*
X122560000Y-138738000D02*
X122560000Y-137988000D01*
X135860000Y-138738000D02*
X135860000Y-137988000D01*
X135860000Y-137988000D02*
X134060000Y-137988000D01*
X132560000Y-137988000D02*
X124060000Y-137988000D01*
X134060000Y-138738000D02*
X135860000Y-138738000D01*
X120760000Y-138738000D02*
X122560000Y-138738000D01*
X120760000Y-137988000D02*
X120760000Y-138738000D01*
X136160000Y-139038000D02*
X136160000Y-137788000D01*
X135870000Y-138748000D02*
X135870000Y-132778000D01*
X135870000Y-132778000D02*
X120750000Y-132778000D01*
X134060000Y-137988000D02*
X134060000Y-138738000D01*
X121510000Y-133538000D02*
X128310000Y-133538000D01*
X120750000Y-132778000D02*
X120750000Y-138748000D01*
X135110000Y-136488000D02*
X135110000Y-133538000D01*
X135860000Y-136488000D02*
X135110000Y-136488000D01*
X121510000Y-136488000D02*
X121510000Y-133538000D01*
X132560000Y-138738000D02*
X132560000Y-137988000D01*
X134910000Y-139038000D02*
X136160000Y-139038000D01*
X122560000Y-137988000D02*
X120760000Y-137988000D01*
X135110000Y-133538000D02*
X128310000Y-133538000D01*
X124060000Y-137988000D02*
X124060000Y-138738000D01*
X120750000Y-138748000D02*
X135870000Y-138748000D01*
X120760000Y-136488000D02*
X121510000Y-136488000D01*
X169470000Y-135596000D02*
X169470000Y-138436000D01*
X174200000Y-137016000D02*
X173510000Y-137016000D01*
X169470000Y-138436000D02*
X173510000Y-138436000D01*
X173510000Y-138436000D02*
X173510000Y-135596000D01*
X168780000Y-137016000D02*
X169470000Y-137016000D01*
X173510000Y-135596000D02*
X169470000Y-135596000D01*
D10*
X127294000Y-76056000D02*
X162854000Y-76056000D01*
X127294000Y-93836000D02*
X127294000Y-76056000D01*
X162854000Y-76056000D02*
X162854000Y-93836000D01*
X155234000Y-86216000D02*
X155234000Y-83676000D01*
X149519000Y-90026000D02*
X139359000Y-90026000D01*
X149519000Y-79866000D02*
X139359000Y-79866000D01*
X152694000Y-83041000D02*
X150154000Y-83041000D01*
X149519000Y-90026000D02*
X149519000Y-79866000D01*
X139359000Y-79866000D02*
X139359000Y-90026000D01*
X152694000Y-79866000D02*
X152694000Y-83041000D01*
X155234000Y-83676000D02*
X159806000Y-83676000D01*
X159806000Y-83676000D02*
X159806000Y-86216000D01*
X127294000Y-88756000D02*
X126024000Y-88756000D01*
X150154000Y-83041000D02*
X150154000Y-79866000D01*
X159806000Y-86216000D02*
X155234000Y-86216000D01*
X132374000Y-88756000D02*
X127294000Y-88756000D01*
X132374000Y-81136000D02*
X127294000Y-81136000D01*
X126024000Y-81136000D02*
X127294000Y-81136000D01*
X132374000Y-88756000D02*
X132374000Y-81136000D01*
X126024000Y-88756000D02*
X126024000Y-81136000D01*
X162854000Y-93836000D02*
X127294000Y-93836000D01*
X150154000Y-79866000D02*
X152694000Y-79866000D01*
G36*
X143169000Y-85454000D02*
G01*
X142915000Y-85708000D01*
X142661000Y-85327000D01*
X142915000Y-85073000D01*
X143169000Y-85454000D01*
G37*
D12*
X143169000Y-85454000D02*
X142915000Y-85708000D01*
X142661000Y-85327000D01*
X142915000Y-85073000D01*
X143169000Y-85454000D01*
G36*
X141645000Y-85200000D02*
G01*
X141391000Y-85454000D01*
X141137000Y-85073000D01*
X141391000Y-84819000D01*
X141645000Y-85200000D01*
G37*
X141645000Y-85200000D02*
X141391000Y-85454000D01*
X141137000Y-85073000D01*
X141391000Y-84819000D01*
X141645000Y-85200000D01*
G36*
X143931000Y-85581000D02*
G01*
X143677000Y-85835000D01*
X143423000Y-85454000D01*
X143677000Y-85200000D01*
X143931000Y-85581000D01*
G37*
X143931000Y-85581000D02*
X143677000Y-85835000D01*
X143423000Y-85454000D01*
X143677000Y-85200000D01*
X143931000Y-85581000D01*
G36*
X143169000Y-84565000D02*
G01*
X142915000Y-84819000D01*
X142661000Y-84438000D01*
X142915000Y-84184000D01*
X143169000Y-84565000D01*
G37*
X143169000Y-84565000D02*
X142915000Y-84819000D01*
X142661000Y-84438000D01*
X142915000Y-84184000D01*
X143169000Y-84565000D01*
G36*
X142788000Y-84946000D02*
G01*
X142534000Y-85200000D01*
X142280000Y-84819000D01*
X142534000Y-84565000D01*
X142788000Y-84946000D01*
G37*
X142788000Y-84946000D02*
X142534000Y-85200000D01*
X142280000Y-84819000D01*
X142534000Y-84565000D01*
X142788000Y-84946000D01*
G36*
X142407000Y-84438000D02*
G01*
X142153000Y-84692000D01*
X141899000Y-84311000D01*
X142153000Y-84057000D01*
X142407000Y-84438000D01*
G37*
X142407000Y-84438000D02*
X142153000Y-84692000D01*
X141899000Y-84311000D01*
X142153000Y-84057000D01*
X142407000Y-84438000D01*
G36*
X142026000Y-84819000D02*
G01*
X141772000Y-85073000D01*
X141518000Y-84692000D01*
X141772000Y-84438000D01*
X142026000Y-84819000D01*
G37*
X142026000Y-84819000D02*
X141772000Y-85073000D01*
X141518000Y-84692000D01*
X141772000Y-84438000D01*
X142026000Y-84819000D01*
G36*
X143550000Y-85073000D02*
G01*
X143296000Y-85327000D01*
X143042000Y-84946000D01*
X143296000Y-84692000D01*
X143550000Y-85073000D01*
G37*
X143550000Y-85073000D02*
X143296000Y-85327000D01*
X143042000Y-84946000D01*
X143296000Y-84692000D01*
X143550000Y-85073000D01*
D11*
X137450000Y-46142000D02*
X137450000Y-50442000D01*
X133000000Y-53692000D02*
X132250000Y-53692000D01*
X132250000Y-55492000D02*
X133000000Y-55492000D01*
X134500000Y-45392000D02*
X134500000Y-46142000D01*
X132240000Y-45382000D02*
X132240000Y-55502000D01*
X132250000Y-48692000D02*
X132250000Y-52192000D01*
X133000000Y-47192000D02*
X133000000Y-45392000D01*
X133000000Y-52192000D02*
X133000000Y-48692000D01*
X132250000Y-52192000D02*
X133000000Y-52192000D01*
X133000000Y-55492000D02*
X133000000Y-53692000D01*
X138210000Y-45382000D02*
X132240000Y-45382000D01*
X131950000Y-55792000D02*
X133200000Y-55792000D01*
X133000000Y-48692000D02*
X132250000Y-48692000D01*
X138210000Y-55502000D02*
X138210000Y-45382000D01*
X132250000Y-47192000D02*
X133000000Y-47192000D01*
X133000000Y-45392000D02*
X132250000Y-45392000D01*
X134500000Y-54742000D02*
X137450000Y-54742000D01*
X134500000Y-55492000D02*
X134500000Y-54742000D01*
X132250000Y-45392000D02*
X132250000Y-47192000D01*
X134500000Y-46142000D02*
X137450000Y-46142000D01*
X132250000Y-53692000D02*
X132250000Y-55492000D01*
X132240000Y-55502000D02*
X138210000Y-55502000D01*
X131950000Y-54542000D02*
X131950000Y-55792000D01*
X137450000Y-54742000D02*
X137450000Y-50442000D01*
X177041000Y-75558000D02*
X177041000Y-76308000D01*
X177041000Y-83158000D02*
X177041000Y-82408000D01*
X179291000Y-78858000D02*
X178541000Y-78858000D01*
X174091000Y-82408000D02*
X174091000Y-79358000D01*
X177041000Y-76308000D02*
X174091000Y-76308000D01*
X179591000Y-75258000D02*
X178341000Y-75258000D01*
X179301000Y-75548000D02*
X173331000Y-75548000D01*
X179591000Y-76508000D02*
X179591000Y-75258000D01*
X179291000Y-83158000D02*
X179291000Y-81358000D01*
X177041000Y-82408000D02*
X174091000Y-82408000D01*
X178541000Y-79858000D02*
X179291000Y-79858000D01*
X179301000Y-83168000D02*
X179301000Y-75548000D01*
X173331000Y-83168000D02*
X179301000Y-83168000D01*
X178541000Y-75558000D02*
X178541000Y-77358000D01*
X173331000Y-75548000D02*
X173331000Y-83168000D01*
X174091000Y-76308000D02*
X174091000Y-79358000D01*
X178541000Y-81358000D02*
X178541000Y-83158000D01*
X178541000Y-77358000D02*
X179291000Y-77358000D01*
X178541000Y-78858000D02*
X178541000Y-79858000D01*
X179291000Y-81358000D02*
X178541000Y-81358000D01*
X179291000Y-75558000D02*
X178541000Y-75558000D01*
X178541000Y-83158000D02*
X179291000Y-83158000D01*
X179291000Y-77358000D02*
X179291000Y-75558000D01*
X179291000Y-79858000D02*
X179291000Y-78858000D01*
X116120000Y-68219000D02*
X116120000Y-71169000D01*
X116880000Y-65959000D02*
X109260000Y-65959000D01*
X109270000Y-65969000D02*
X109270000Y-66719000D01*
X109270000Y-66719000D02*
X111070000Y-66719000D01*
X112570000Y-65969000D02*
X112570000Y-66719000D01*
X110020000Y-71169000D02*
X113070000Y-71169000D01*
X110220000Y-65669000D02*
X108970000Y-65669000D01*
X116870000Y-66719000D02*
X116870000Y-65969000D01*
X113570000Y-66719000D02*
X113570000Y-65969000D01*
X116120000Y-71169000D02*
X113070000Y-71169000D01*
X112570000Y-66719000D02*
X113570000Y-66719000D01*
X116880000Y-71929000D02*
X116880000Y-65959000D01*
X111070000Y-66719000D02*
X111070000Y-65969000D01*
X115070000Y-65969000D02*
X115070000Y-66719000D01*
X116870000Y-68219000D02*
X116120000Y-68219000D01*
X116870000Y-65969000D02*
X115070000Y-65969000D01*
X109270000Y-68219000D02*
X110020000Y-68219000D01*
X113570000Y-65969000D02*
X112570000Y-65969000D01*
X110020000Y-68219000D02*
X110020000Y-71169000D01*
X111070000Y-65969000D02*
X109270000Y-65969000D01*
X108970000Y-65669000D02*
X108970000Y-66919000D01*
X109260000Y-65959000D02*
X109260000Y-71929000D01*
X115070000Y-66719000D02*
X116870000Y-66719000D01*
X109260000Y-71929000D02*
X116880000Y-71929000D01*
X161342000Y-138975000D02*
X161342000Y-138225000D01*
X161342000Y-138225000D02*
X152842000Y-138225000D01*
X152842000Y-138975000D02*
X161342000Y-138975000D01*
X151342000Y-138225000D02*
X149542000Y-138225000D01*
X164642000Y-138975000D02*
X164642000Y-138225000D01*
X149542000Y-136725000D02*
X150292000Y-136725000D01*
X149532000Y-133015000D02*
X149532000Y-138985000D01*
X164942000Y-139275000D02*
X164942000Y-138025000D01*
X152842000Y-138225000D02*
X152842000Y-138975000D01*
X164652000Y-133015000D02*
X149532000Y-133015000D01*
X162842000Y-138225000D02*
X162842000Y-138975000D01*
X163692000Y-139275000D02*
X164942000Y-139275000D01*
X150292000Y-136725000D02*
X150292000Y-133775000D01*
X164652000Y-138985000D02*
X164652000Y-133015000D01*
X151342000Y-138975000D02*
X151342000Y-138225000D01*
X163892000Y-136725000D02*
X163892000Y-133775000D01*
X149542000Y-138225000D02*
X149542000Y-138975000D01*
X163892000Y-133775000D02*
X157092000Y-133775000D01*
X164642000Y-138225000D02*
X162842000Y-138225000D01*
X150292000Y-133775000D02*
X157092000Y-133775000D01*
X149542000Y-138975000D02*
X151342000Y-138975000D01*
X149532000Y-138985000D02*
X164652000Y-138985000D01*
X164642000Y-136725000D02*
X163892000Y-136725000D01*
X162842000Y-138975000D02*
X164642000Y-138975000D01*
X169470000Y-134372000D02*
X173510000Y-134372000D01*
X169470000Y-131532000D02*
X169470000Y-134372000D01*
X168780000Y-132952000D02*
X169470000Y-132952000D01*
X173510000Y-134372000D02*
X173510000Y-131532000D01*
X174200000Y-132952000D02*
X173510000Y-132952000D01*
X173510000Y-131532000D02*
X169470000Y-131532000D01*
X162620000Y-51355000D02*
X162620000Y-45385000D01*
X156810000Y-46145000D02*
X156810000Y-45395000D01*
X155010000Y-45395000D02*
X155010000Y-46145000D01*
X155000000Y-51355000D02*
X162620000Y-51355000D01*
X156810000Y-45395000D02*
X155010000Y-45395000D01*
X159310000Y-45395000D02*
X158310000Y-45395000D01*
X155760000Y-50595000D02*
X158810000Y-50595000D01*
X162610000Y-45395000D02*
X160810000Y-45395000D01*
X155960000Y-45095000D02*
X154710000Y-45095000D01*
X160810000Y-45395000D02*
X160810000Y-46145000D01*
X161860000Y-47645000D02*
X161860000Y-50595000D01*
X154710000Y-45095000D02*
X154710000Y-46345000D01*
X155010000Y-46145000D02*
X156810000Y-46145000D01*
X155000000Y-45385000D02*
X155000000Y-51355000D01*
X155760000Y-47645000D02*
X155760000Y-50595000D01*
X162620000Y-45385000D02*
X155000000Y-45385000D01*
X160810000Y-46145000D02*
X162610000Y-46145000D01*
X162610000Y-46145000D02*
X162610000Y-45395000D01*
X162610000Y-47645000D02*
X161860000Y-47645000D01*
X155010000Y-47645000D02*
X155760000Y-47645000D01*
X161860000Y-50595000D02*
X158810000Y-50595000D01*
X159310000Y-46145000D02*
X159310000Y-45395000D01*
X158310000Y-46145000D02*
X159310000Y-46145000D01*
X158310000Y-45395000D02*
X158310000Y-46145000D01*
X114940000Y-73866000D02*
X111100000Y-73866000D01*
X111100000Y-75706000D02*
X114940000Y-75706000D01*
X115890000Y-74786000D02*
X114940000Y-74786000D01*
X110150000Y-74786000D02*
X111100000Y-74786000D01*
X114940000Y-75706000D02*
X114940000Y-73866000D01*
X111100000Y-73866000D02*
X111100000Y-75706000D01*
X108314000Y-136471000D02*
X109064000Y-136471000D01*
X111614000Y-138721000D02*
X115114000Y-138721000D01*
X118424000Y-132761000D02*
X108304000Y-132761000D01*
X117464000Y-139021000D02*
X118714000Y-139021000D01*
X116614000Y-138721000D02*
X118414000Y-138721000D01*
X118424000Y-138731000D02*
X118424000Y-132761000D01*
X117664000Y-136471000D02*
X117664000Y-133521000D01*
X109064000Y-136471000D02*
X109064000Y-133521000D01*
X110114000Y-138721000D02*
X110114000Y-137971000D01*
X115114000Y-137971000D02*
X111614000Y-137971000D01*
X111614000Y-137971000D02*
X111614000Y-138721000D01*
X108304000Y-132761000D02*
X108304000Y-138731000D01*
X118414000Y-137971000D02*
X116614000Y-137971000D01*
X118414000Y-138721000D02*
X118414000Y-137971000D01*
X108314000Y-137971000D02*
X108314000Y-138721000D01*
X118714000Y-139021000D02*
X118714000Y-137771000D01*
X117664000Y-133521000D02*
X113364000Y-133521000D01*
X108314000Y-138721000D02*
X110114000Y-138721000D01*
X109064000Y-133521000D02*
X113364000Y-133521000D01*
X110114000Y-137971000D02*
X108314000Y-137971000D01*
X115114000Y-138721000D02*
X115114000Y-137971000D01*
X118414000Y-136471000D02*
X117664000Y-136471000D01*
X116614000Y-137971000D02*
X116614000Y-138721000D01*
X108304000Y-138731000D02*
X118424000Y-138731000D01*
X189929000Y-109668000D02*
X189929000Y-94548000D01*
X184719000Y-106358000D02*
X184719000Y-97858000D01*
X184719000Y-96358000D02*
X184719000Y-94558000D01*
X184719000Y-94558000D02*
X183969000Y-94558000D01*
X184719000Y-107858000D02*
X183969000Y-107858000D01*
X183959000Y-94548000D02*
X183959000Y-109668000D01*
X183969000Y-96358000D02*
X184719000Y-96358000D01*
X183959000Y-109668000D02*
X189929000Y-109668000D01*
X186219000Y-109658000D02*
X186219000Y-108908000D01*
X183969000Y-109658000D02*
X184719000Y-109658000D01*
X184719000Y-97858000D02*
X183969000Y-97858000D01*
X183669000Y-109958000D02*
X184919000Y-109958000D01*
X186219000Y-95308000D02*
X189169000Y-95308000D01*
X186219000Y-94558000D02*
X186219000Y-95308000D01*
X183969000Y-106358000D02*
X184719000Y-106358000D01*
X183669000Y-108708000D02*
X183669000Y-109958000D01*
X183969000Y-107858000D02*
X183969000Y-109658000D01*
X189169000Y-108908000D02*
X189169000Y-102108000D01*
X189169000Y-95308000D02*
X189169000Y-102108000D01*
X183969000Y-94558000D02*
X183969000Y-96358000D01*
X189929000Y-94548000D02*
X183959000Y-94548000D01*
X186219000Y-108908000D02*
X189169000Y-108908000D01*
X183969000Y-97858000D02*
X183969000Y-106358000D01*
X184719000Y-109658000D02*
X184719000Y-107858000D01*
X166729000Y-123166000D02*
X166729000Y-121516000D01*
X148829000Y-123166000D02*
X166729000Y-123166000D01*
X166729000Y-119516000D02*
X166729000Y-117866000D01*
X166729000Y-117866000D02*
X148829000Y-117866000D01*
X148829000Y-117866000D02*
X148829000Y-123166000D01*
X166729000Y-119516000D02*
G75*
G03*
X166729000Y-121516000I0J-1000000D01*
G01*
X115804000Y-54406000D02*
X115804000Y-57066000D01*
X118404000Y-57066000D02*
X115804000Y-57066000D01*
X118404000Y-54406000D02*
X115804000Y-54406000D01*
X118404000Y-54406000D02*
X118404000Y-57066000D01*
X121004000Y-54406000D02*
X121004000Y-55736000D01*
X119674000Y-54406000D02*
X121004000Y-54406000D01*
X118404000Y-51732000D02*
X115804000Y-51732000D01*
X119674000Y-49072000D02*
X121004000Y-49072000D01*
X118404000Y-49072000D02*
X118404000Y-51732000D01*
X115804000Y-49072000D02*
X115804000Y-51732000D01*
X118404000Y-49072000D02*
X115804000Y-49072000D01*
X121004000Y-49072000D02*
X121004000Y-50402000D01*
X149636000Y-47645000D02*
X148886000Y-47645000D01*
X149636000Y-46145000D02*
X149636000Y-45395000D01*
X142036000Y-45395000D02*
X142036000Y-46145000D01*
X149646000Y-51355000D02*
X149646000Y-45385000D01*
X145336000Y-46145000D02*
X146336000Y-46145000D01*
X142986000Y-45095000D02*
X141736000Y-45095000D01*
X147836000Y-45395000D02*
X147836000Y-46145000D01*
X141736000Y-45095000D02*
X141736000Y-46345000D01*
X143836000Y-46145000D02*
X143836000Y-45395000D01*
X147836000Y-46145000D02*
X149636000Y-46145000D01*
X149636000Y-45395000D02*
X147836000Y-45395000D01*
X149646000Y-45385000D02*
X142026000Y-45385000D01*
X142036000Y-47645000D02*
X142786000Y-47645000D01*
X146336000Y-46145000D02*
X146336000Y-45395000D01*
X142786000Y-47645000D02*
X142786000Y-50595000D01*
X142026000Y-45385000D02*
X142026000Y-51355000D01*
X145336000Y-45395000D02*
X145336000Y-46145000D01*
X142786000Y-50595000D02*
X145836000Y-50595000D01*
X142026000Y-51355000D02*
X149646000Y-51355000D01*
X146336000Y-45395000D02*
X145336000Y-45395000D01*
X143836000Y-45395000D02*
X142036000Y-45395000D01*
X148886000Y-47645000D02*
X148886000Y-50595000D01*
X148886000Y-50595000D02*
X145836000Y-50595000D01*
X142036000Y-46145000D02*
X143836000Y-46145000D01*
X145002000Y-131087000D02*
X145002000Y-128247000D01*
X145692000Y-129667000D02*
X145002000Y-129667000D01*
X140272000Y-129667000D02*
X140962000Y-129667000D01*
X140962000Y-131087000D02*
X145002000Y-131087000D01*
X140962000Y-128247000D02*
X140962000Y-131087000D01*
X145002000Y-128247000D02*
X140962000Y-128247000D01*
X170244000Y-72246000D02*
X170894000Y-72246000D01*
X171494000Y-71126000D02*
X171494000Y-73366000D01*
X175134000Y-71126000D02*
X170894000Y-71126000D01*
X175784000Y-72246000D02*
X175134000Y-72246000D01*
X170894000Y-71126000D02*
X170894000Y-73366000D01*
X171734000Y-71126000D02*
X171734000Y-73366000D01*
X171614000Y-71126000D02*
X171614000Y-73366000D01*
X175134000Y-73366000D02*
X175134000Y-71126000D01*
X170894000Y-73366000D02*
X175134000Y-73366000D01*
X140962000Y-135151000D02*
X145002000Y-135151000D01*
X145002000Y-132311000D02*
X140962000Y-132311000D01*
X140962000Y-132311000D02*
X140962000Y-135151000D01*
X140272000Y-133731000D02*
X140962000Y-133731000D01*
X145692000Y-133731000D02*
X145002000Y-133731000D01*
X145002000Y-135151000D02*
X145002000Y-132311000D01*
X142345000Y-123166000D02*
X142345000Y-121516000D01*
X124445000Y-117866000D02*
X124445000Y-123166000D01*
X142345000Y-119516000D02*
X142345000Y-117866000D01*
X124445000Y-123166000D02*
X142345000Y-123166000D01*
X142345000Y-117866000D02*
X124445000Y-117866000D01*
X142345000Y-119516000D02*
G75*
G03*
X142345000Y-121516000I0J-1000000D01*
G01*
X145002000Y-139215000D02*
X145002000Y-136375000D01*
X140962000Y-136375000D02*
X140962000Y-139215000D01*
X140272000Y-137795000D02*
X140962000Y-137795000D01*
X145692000Y-137795000D02*
X145002000Y-137795000D01*
X145002000Y-136375000D02*
X140962000Y-136375000D01*
X140962000Y-139215000D02*
X145002000Y-139215000D01*
X169470000Y-130308000D02*
X173510000Y-130308000D01*
X174200000Y-128888000D02*
X173510000Y-128888000D01*
X173510000Y-130308000D02*
X173510000Y-127468000D01*
X173510000Y-127468000D02*
X169470000Y-127468000D01*
X169470000Y-127468000D02*
X169470000Y-130308000D01*
X168780000Y-128888000D02*
X169470000Y-128888000D01*
X123551000Y-55752000D02*
X124801000Y-55752000D01*
X124601000Y-53652000D02*
X123851000Y-53652000D01*
X129051000Y-46102000D02*
X129051000Y-50402000D01*
X124601000Y-55452000D02*
X124601000Y-53652000D01*
X126101000Y-54702000D02*
X129051000Y-54702000D01*
X123851000Y-48652000D02*
X123851000Y-52152000D01*
X126101000Y-46102000D02*
X129051000Y-46102000D01*
X123551000Y-54502000D02*
X123551000Y-55752000D01*
X129811000Y-55462000D02*
X129811000Y-45342000D01*
X124601000Y-52152000D02*
X124601000Y-48652000D01*
X123841000Y-55462000D02*
X129811000Y-55462000D01*
X126101000Y-55452000D02*
X126101000Y-54702000D01*
X129051000Y-54702000D02*
X129051000Y-50402000D01*
X124601000Y-47152000D02*
X124601000Y-45352000D01*
X129811000Y-45342000D02*
X123841000Y-45342000D01*
X123851000Y-52152000D02*
X124601000Y-52152000D01*
X126101000Y-45352000D02*
X126101000Y-46102000D01*
X123851000Y-47152000D02*
X124601000Y-47152000D01*
X124601000Y-45352000D02*
X123851000Y-45352000D01*
X123841000Y-45342000D02*
X123841000Y-55462000D01*
X123851000Y-45352000D02*
X123851000Y-47152000D01*
X123851000Y-55452000D02*
X124601000Y-55452000D01*
X124601000Y-48652000D02*
X123851000Y-48652000D01*
X123851000Y-53652000D02*
X123851000Y-55452000D01*
X185686000Y-138225000D02*
X182186000Y-138225000D01*
X188986000Y-138225000D02*
X187186000Y-138225000D01*
X178886000Y-136725000D02*
X179636000Y-136725000D01*
X188996000Y-138985000D02*
X188996000Y-133015000D01*
X188996000Y-133015000D02*
X178876000Y-133015000D01*
X188986000Y-136725000D02*
X188236000Y-136725000D01*
X180686000Y-138225000D02*
X178886000Y-138225000D01*
X178876000Y-138985000D02*
X188996000Y-138985000D01*
X179636000Y-136725000D02*
X179636000Y-133775000D01*
X182186000Y-138975000D02*
X185686000Y-138975000D01*
X188236000Y-136725000D02*
X188236000Y-133775000D01*
X178886000Y-138975000D02*
X180686000Y-138975000D01*
X182186000Y-138225000D02*
X182186000Y-138975000D01*
X178876000Y-133015000D02*
X178876000Y-138985000D01*
X187186000Y-138225000D02*
X187186000Y-138975000D01*
X178886000Y-138225000D02*
X178886000Y-138975000D01*
X180686000Y-138975000D02*
X180686000Y-138225000D01*
X188986000Y-138975000D02*
X188986000Y-138225000D01*
X188036000Y-139275000D02*
X189286000Y-139275000D01*
X179636000Y-133775000D02*
X183936000Y-133775000D01*
X188236000Y-133775000D02*
X183936000Y-133775000D01*
X185686000Y-138975000D02*
X185686000Y-138225000D01*
X189286000Y-139275000D02*
X189286000Y-138025000D01*
X187186000Y-138975000D02*
X188986000Y-138975000D01*
X114474000Y-94468000D02*
X108504000Y-94468000D01*
X114464000Y-107778000D02*
X113714000Y-107778000D01*
X109264000Y-95228000D02*
X109264000Y-102028000D01*
X113714000Y-107778000D02*
X113714000Y-109578000D01*
X112214000Y-109578000D02*
X112214000Y-108828000D01*
X108504000Y-109588000D02*
X114474000Y-109588000D01*
X114764000Y-94178000D02*
X113514000Y-94178000D01*
X113714000Y-106278000D02*
X114464000Y-106278000D01*
X112214000Y-94478000D02*
X112214000Y-95228000D01*
X113714000Y-96278000D02*
X114464000Y-96278000D01*
X114474000Y-109588000D02*
X114474000Y-94468000D01*
X114464000Y-109578000D02*
X114464000Y-107778000D01*
X112214000Y-95228000D02*
X109264000Y-95228000D01*
X108504000Y-94468000D02*
X108504000Y-109588000D01*
X114464000Y-106278000D02*
X114464000Y-97778000D01*
X114764000Y-95428000D02*
X114764000Y-94178000D01*
X113714000Y-94478000D02*
X113714000Y-96278000D01*
X113714000Y-97778000D02*
X113714000Y-106278000D01*
X112214000Y-108828000D02*
X109264000Y-108828000D01*
X113714000Y-109578000D02*
X114464000Y-109578000D01*
X114464000Y-97778000D02*
X113714000Y-97778000D01*
X114464000Y-96278000D02*
X114464000Y-94478000D01*
X109264000Y-108828000D02*
X109264000Y-102028000D01*
X114464000Y-94478000D02*
X113714000Y-94478000D01*
%LPC*%
D13*
X133310000Y-136288000D03*
D14*
X130810000Y-136288000D03*
X128310000Y-136288000D03*
X125810000Y-136288000D03*
X123310000Y-136288000D03*
D15*
X247142000Y-140208000D03*
D16*
X175240000Y-137016000D03*
D17*
X167740000Y-137016000D03*
D18*
X208448000Y-62738000D03*
D19*
X137708000Y-61578000D03*
X135168000Y-61578000D03*
X132628000Y-61578000D03*
X130088000Y-61578000D03*
X127548000Y-61578000D03*
X125008000Y-61578000D03*
X125008000Y-71738000D03*
X127548000Y-71738000D03*
X130088000Y-71738000D03*
X132628000Y-71738000D03*
X135168000Y-71738000D03*
X137708000Y-71738000D03*
D16*
X128564000Y-92566000D03*
X131104000Y-92566000D03*
X133644000Y-92566000D03*
X136184000Y-92566000D03*
X138724000Y-92566000D03*
X141264000Y-92566000D03*
X143804000Y-92566000D03*
X146344000Y-92566000D03*
X148884000Y-92566000D03*
X151424000Y-92566000D03*
X153964000Y-92566000D03*
X156504000Y-92566000D03*
X159044000Y-92566000D03*
X161584000Y-92566000D03*
X161584000Y-77326000D03*
X159044000Y-77326000D03*
X156504000Y-77326000D03*
X153964000Y-77326000D03*
X151424000Y-77326000D03*
X148884000Y-77326000D03*
X146344000Y-77326000D03*
X143804000Y-77326000D03*
X141264000Y-77326000D03*
X138724000Y-77326000D03*
X136184000Y-77326000D03*
X133644000Y-77326000D03*
X131104000Y-77326000D03*
X128564000Y-77326000D03*
D19*
X157480000Y-71628000D03*
X160020000Y-71628000D03*
X162560000Y-71628000D03*
D20*
X165100000Y-71628000D03*
X165100000Y-53848000D03*
D19*
X162560000Y-53848000D03*
X160020000Y-53848000D03*
X157480000Y-53848000D03*
X154940000Y-53848000D03*
D21*
X134700000Y-52942000D03*
D22*
X134700000Y-50442000D03*
X134700000Y-47942000D03*
D23*
X176841000Y-78108000D03*
D24*
X176841000Y-80608000D03*
D18*
X88392000Y-118750000D03*
D25*
X197344000Y-124580000D03*
D15*
X50800000Y-43688000D03*
D25*
X100344000Y-68580000D03*
D26*
X111820000Y-68419000D03*
D27*
X114320000Y-68419000D03*
D19*
X139994000Y-112886000D03*
X142534000Y-112886000D03*
X145074000Y-112886000D03*
X147614000Y-112886000D03*
X150154000Y-112886000D03*
X152694000Y-112886000D03*
X152694000Y-102726000D03*
X150154000Y-102726000D03*
X147614000Y-102726000D03*
X145074000Y-102726000D03*
X142534000Y-102726000D03*
X139994000Y-102726000D03*
D13*
X162092000Y-136525000D03*
D14*
X159592000Y-136525000D03*
X157092000Y-136525000D03*
X154592000Y-136525000D03*
X152092000Y-136525000D03*
D19*
X167172000Y-85725000D03*
D20*
X167172000Y-88265000D03*
D19*
X167172000Y-90805000D03*
D16*
X175240000Y-132952000D03*
D17*
X167740000Y-132952000D03*
D25*
X197344000Y-68580000D03*
D26*
X157560000Y-47845000D03*
D27*
X160060000Y-47845000D03*
D28*
X116830000Y-74786000D03*
D29*
X109210000Y-74786000D03*
D13*
X115864000Y-136271000D03*
D14*
X113364000Y-136271000D03*
X110864000Y-136271000D03*
D21*
X186419000Y-107108000D03*
D22*
X186419000Y-104608000D03*
X186419000Y-102108000D03*
X186419000Y-99608000D03*
X186419000Y-97108000D03*
D30*
X165399000Y-116706000D03*
D17*
X162859000Y-116706000D03*
X160319000Y-116706000D03*
X157779000Y-116706000D03*
X155239000Y-116706000D03*
X152699000Y-116706000D03*
X150159000Y-116706000D03*
X150159000Y-124326000D03*
X152699000Y-124326000D03*
X155239000Y-124326000D03*
X157779000Y-124326000D03*
X160319000Y-124326000D03*
X162859000Y-124326000D03*
X165399000Y-124326000D03*
D31*
X119674000Y-55736000D03*
D32*
X117134000Y-55736000D03*
D15*
X50038000Y-140208000D03*
D31*
X119674000Y-50402000D03*
D32*
X117134000Y-50402000D03*
D19*
X159044000Y-112886000D03*
X161584000Y-112886000D03*
X164124000Y-112886000D03*
X166664000Y-112886000D03*
X169204000Y-112886000D03*
X171744000Y-112886000D03*
X171744000Y-102726000D03*
X169204000Y-102726000D03*
X166664000Y-102726000D03*
X164124000Y-102726000D03*
X161584000Y-102726000D03*
X159044000Y-102726000D03*
D25*
X100344000Y-124580000D03*
D19*
X167172000Y-76056000D03*
D20*
X167172000Y-78596000D03*
D19*
X167172000Y-81136000D03*
D26*
X144586000Y-47845000D03*
D27*
X147086000Y-47845000D03*
D19*
X119674000Y-112886000D03*
X122214000Y-112886000D03*
X124754000Y-112886000D03*
X127294000Y-112886000D03*
X129834000Y-112886000D03*
X132374000Y-112886000D03*
X132374000Y-102726000D03*
X129834000Y-102726000D03*
X127294000Y-102726000D03*
X124754000Y-102726000D03*
X122214000Y-102726000D03*
X119674000Y-102726000D03*
D16*
X139232000Y-129667000D03*
D17*
X146732000Y-129667000D03*
D30*
X169204000Y-72246000D03*
D17*
X176824000Y-72246000D03*
D16*
X139232000Y-133731000D03*
D17*
X146732000Y-133731000D03*
D30*
X141015000Y-116706000D03*
D17*
X138475000Y-116706000D03*
X135935000Y-116706000D03*
X133395000Y-116706000D03*
X130855000Y-116706000D03*
X128315000Y-116706000D03*
X125775000Y-116706000D03*
X125775000Y-124326000D03*
X128315000Y-124326000D03*
X130855000Y-124326000D03*
X133395000Y-124326000D03*
X135935000Y-124326000D03*
X138475000Y-124326000D03*
X141015000Y-124326000D03*
D16*
X139232000Y-137795000D03*
D17*
X146732000Y-137795000D03*
D18*
X246888000Y-119000000D03*
X49952000Y-62488000D03*
D16*
X167740000Y-128888000D03*
D17*
X175240000Y-128888000D03*
D21*
X126301000Y-52902000D03*
D22*
X126301000Y-50402000D03*
X126301000Y-47902000D03*
D15*
X247904000Y-43688000D03*
D13*
X186436000Y-136525000D03*
D14*
X183936000Y-136525000D03*
X181436000Y-136525000D03*
D33*
X112014000Y-97028000D03*
D22*
X112014000Y-99528000D03*
X112014000Y-102028000D03*
X112014000Y-104528000D03*
X112014000Y-107028000D03*
M02*
