M48
; DRILL file {KiCad 6.0.11-2627ca5db0~126~ubuntu20.04.1} date Tue 14 Feb 2023 01:26:12 PM EST
; FORMAT={-:-/ absolute / metric / decimal}
; #@! TF.CreationDate,2023-02-14T13:26:12-05:00
; #@! TF.GenerationSoftware,Kicad,Pcbnew,6.0.11-2627ca5db0~126~ubuntu20.04.1
; #@! TF.FileFunction,Plated,1,2,PTH
FMAT,2
METRIC
; #@! TA.AperFunction,Plated,PTH,ComponentDrill
T1C0.762
; #@! TA.AperFunction,Plated,PTH,ComponentDrill
T2C0.800
; #@! TA.AperFunction,Plated,PTH,ComponentDrill
T3C1.000
%
G90
G05
T1
X106.68Y-83.058
X106.68Y-85.598
X106.68Y-88.138
X106.68Y-90.678
X106.68Y-93.218
X106.68Y-95.758
X106.68Y-98.298
X106.68Y-100.838
X120.65Y-55.118
X120.65Y-60.198
X124.46Y-83.058
X124.46Y-85.598
X124.46Y-88.138
X124.46Y-90.678
X124.46Y-93.218
X124.46Y-95.758
X124.46Y-98.298
X124.46Y-100.838
X128.27Y-55.118
X128.27Y-60.198
X140.97Y-60.96
X140.97Y-63.5
X140.97Y-66.04
X140.97Y-68.58
X140.97Y-71.12
X140.97Y-73.66
X140.97Y-76.2
X153.67Y-60.96
X153.67Y-63.5
X153.67Y-66.04
X153.67Y-68.58
X153.67Y-71.12
X153.67Y-73.66
X163.322Y-55.118
X163.322Y-60.198
X168.91Y-83.312
X168.91Y-85.852
X168.91Y-88.392
X168.91Y-90.932
X168.91Y-93.472
X168.91Y-96.012
X168.91Y-98.552
X168.91Y-101.092
X170.942Y-55.118
X170.942Y-60.198
X186.69Y-83.312
X186.69Y-85.852
X186.69Y-88.392
X186.69Y-90.932
X186.69Y-93.472
X186.69Y-96.012
X186.69Y-98.552
X186.69Y-101.092
T2
X142.748Y-84.328
X142.748Y-91.948
X149.86Y-84.328
X149.86Y-91.948
T3
X122.956Y-70.849
X125.456Y-70.849
X145.034Y-50.038
X145.054Y-97.519
X147.534Y-50.038
X147.554Y-97.519
X165.882Y-70.849
X168.382Y-70.849
T0
M30
