%TF.GenerationSoftware,KiCad,Pcbnew,6.0.11-2627ca5db0~126~ubuntu20.04.1*%
%TF.CreationDate,2023-03-05T11:35:36-05:00*%
%TF.ProjectId,ScooterBLDCMotorController,53636f6f-7465-4724-924c-44434d6f746f,rev?*%
%TF.SameCoordinates,Original*%
%TF.FileFunction,Legend,Top*%
%TF.FilePolarity,Positive*%
%FSLAX46Y46*%
G04 Gerber Fmt 4.6, Leading zero omitted, Abs format (unit mm)*
G04 Created by KiCad (PCBNEW 6.0.11-2627ca5db0~126~ubuntu20.04.1) date 2023-03-05 11:35:36*
%MOMM*%
%LPD*%
G01*
G04 APERTURE LIST*
G04 Aperture macros list*
%AMRoundRect*
0 Rectangle with rounded corners*
0 $1 Rounding radius*
0 $2 $3 $4 $5 $6 $7 $8 $9 X,Y pos of 4 corners*
0 Add a 4 corners polygon primitive as box body*
4,1,4,$2,$3,$4,$5,$6,$7,$8,$9,$2,$3,0*
0 Add four circle primitives for the rounded corners*
1,1,$1+$1,$2,$3*
1,1,$1+$1,$4,$5*
1,1,$1+$1,$6,$7*
1,1,$1+$1,$8,$9*
0 Add four rect primitives between the rounded corners*
20,1,$1+$1,$2,$3,$4,$5,0*
20,1,$1+$1,$4,$5,$6,$7,0*
20,1,$1+$1,$6,$7,$8,$9,0*
20,1,$1+$1,$8,$9,$2,$3,0*%
G04 Aperture macros list end*
%ADD10C,0.150000*%
%ADD11C,0.120000*%
%ADD12C,0.100000*%
%ADD13R,1.700000X1.700000*%
%ADD14C,1.524000*%
%ADD15C,1.600000*%
%ADD16R,1.524000X1.524000*%
%ADD17RoundRect,0.250000X0.600000X0.725000X-0.600000X0.725000X-0.600000X-0.725000X0.600000X-0.725000X0*%
%ADD18O,1.700000X1.950000*%
%ADD19C,8.500000*%
%ADD20O,1.600000X1.600000*%
%ADD21C,7.200000*%
%ADD22RoundRect,0.250000X0.725000X-0.600000X0.725000X0.600000X-0.725000X0.600000X-0.725000X-0.600000X0*%
%ADD23O,1.950000X1.700000*%
%ADD24RoundRect,0.250000X-0.750000X0.600000X-0.750000X-0.600000X0.750000X-0.600000X0.750000X0.600000X0*%
%ADD25O,2.000000X1.700000*%
%ADD26C,9.200000*%
%ADD27RoundRect,0.250000X-0.600000X-0.750000X0.600000X-0.750000X0.600000X0.750000X-0.600000X0.750000X0*%
%ADD28O,1.700000X2.000000*%
%ADD29C,1.400000*%
%ADD30O,1.400000X1.400000*%
%ADD31R,1.600000X1.600000*%
%ADD32O,1.700000X1.700000*%
%ADD33RoundRect,0.250000X-0.725000X0.600000X-0.725000X-0.600000X0.725000X-0.600000X0.725000X0.600000X0*%
G04 APERTURE END LIST*
D10*
X110744095Y-137676000D02*
X110648857Y-137628380D01*
X110506000Y-137628380D01*
X110363142Y-137676000D01*
X110267904Y-137771238D01*
X110220285Y-137866476D01*
X110172666Y-138056952D01*
X110172666Y-138199809D01*
X110220285Y-138390285D01*
X110267904Y-138485523D01*
X110363142Y-138580761D01*
X110506000Y-138628380D01*
X110601238Y-138628380D01*
X110744095Y-138580761D01*
X110791714Y-138533142D01*
X110791714Y-138199809D01*
X110601238Y-138199809D01*
X111220285Y-138628380D02*
X111220285Y-137628380D01*
X111791714Y-138628380D01*
X111791714Y-137628380D01*
X112267904Y-138628380D02*
X112267904Y-137628380D01*
X112506000Y-137628380D01*
X112648857Y-137676000D01*
X112744095Y-137771238D01*
X112791714Y-137866476D01*
X112839333Y-138056952D01*
X112839333Y-138199809D01*
X112791714Y-138390285D01*
X112744095Y-138485523D01*
X112648857Y-138580761D01*
X112506000Y-138628380D01*
X112267904Y-138628380D01*
X185928095Y-85098000D02*
X185832857Y-85050380D01*
X185690000Y-85050380D01*
X185547142Y-85098000D01*
X185451904Y-85193238D01*
X185404285Y-85288476D01*
X185356666Y-85478952D01*
X185356666Y-85621809D01*
X185404285Y-85812285D01*
X185451904Y-85907523D01*
X185547142Y-86002761D01*
X185690000Y-86050380D01*
X185785238Y-86050380D01*
X185928095Y-86002761D01*
X185975714Y-85955142D01*
X185975714Y-85621809D01*
X185785238Y-85621809D01*
X186404285Y-86050380D02*
X186404285Y-85050380D01*
X186975714Y-86050380D01*
X186975714Y-85050380D01*
X187451904Y-86050380D02*
X187451904Y-85050380D01*
X187690000Y-85050380D01*
X187832857Y-85098000D01*
X187928095Y-85193238D01*
X187975714Y-85288476D01*
X188023333Y-85478952D01*
X188023333Y-85621809D01*
X187975714Y-85812285D01*
X187928095Y-85907523D01*
X187832857Y-86002761D01*
X187690000Y-86050380D01*
X187451904Y-86050380D01*
X173021809Y-67778380D02*
X173640857Y-67778380D01*
X173307523Y-68159333D01*
X173450380Y-68159333D01*
X173545619Y-68206952D01*
X173593238Y-68254571D01*
X173640857Y-68349809D01*
X173640857Y-68587904D01*
X173593238Y-68683142D01*
X173545619Y-68730761D01*
X173450380Y-68778380D01*
X173164666Y-68778380D01*
X173069428Y-68730761D01*
X173021809Y-68683142D01*
X174069428Y-68683142D02*
X174117047Y-68730761D01*
X174069428Y-68778380D01*
X174021809Y-68730761D01*
X174069428Y-68683142D01*
X174069428Y-68778380D01*
X174450380Y-67778380D02*
X175069428Y-67778380D01*
X174736095Y-68159333D01*
X174878952Y-68159333D01*
X174974190Y-68206952D01*
X175021809Y-68254571D01*
X175069428Y-68349809D01*
X175069428Y-68587904D01*
X175021809Y-68683142D01*
X174974190Y-68730761D01*
X174878952Y-68778380D01*
X174593238Y-68778380D01*
X174498000Y-68730761D01*
X174450380Y-68683142D01*
X175355142Y-67778380D02*
X175688476Y-68778380D01*
X176021809Y-67778380D01*
X173482095Y-65286000D02*
X173386857Y-65238380D01*
X173244000Y-65238380D01*
X173101142Y-65286000D01*
X173005904Y-65381238D01*
X172958285Y-65476476D01*
X172910666Y-65666952D01*
X172910666Y-65809809D01*
X172958285Y-66000285D01*
X173005904Y-66095523D01*
X173101142Y-66190761D01*
X173244000Y-66238380D01*
X173339238Y-66238380D01*
X173482095Y-66190761D01*
X173529714Y-66143142D01*
X173529714Y-65809809D01*
X173339238Y-65809809D01*
X173958285Y-66238380D02*
X173958285Y-65238380D01*
X174529714Y-66238380D01*
X174529714Y-65238380D01*
X175005904Y-66238380D02*
X175005904Y-65238380D01*
X175244000Y-65238380D01*
X175386857Y-65286000D01*
X175482095Y-65381238D01*
X175529714Y-65476476D01*
X175577333Y-65666952D01*
X175577333Y-65809809D01*
X175529714Y-66000285D01*
X175482095Y-66095523D01*
X175386857Y-66190761D01*
X175244000Y-66238380D01*
X175005904Y-66238380D01*
X173482095Y-53348000D02*
X173386857Y-53300380D01*
X173244000Y-53300380D01*
X173101142Y-53348000D01*
X173005904Y-53443238D01*
X172958285Y-53538476D01*
X172910666Y-53728952D01*
X172910666Y-53871809D01*
X172958285Y-54062285D01*
X173005904Y-54157523D01*
X173101142Y-54252761D01*
X173244000Y-54300380D01*
X173339238Y-54300380D01*
X173482095Y-54252761D01*
X173529714Y-54205142D01*
X173529714Y-53871809D01*
X173339238Y-53871809D01*
X173958285Y-54300380D02*
X173958285Y-53300380D01*
X174529714Y-54300380D01*
X174529714Y-53300380D01*
X175005904Y-54300380D02*
X175005904Y-53300380D01*
X175244000Y-53300380D01*
X175386857Y-53348000D01*
X175482095Y-53443238D01*
X175529714Y-53538476D01*
X175577333Y-53728952D01*
X175577333Y-53871809D01*
X175529714Y-54062285D01*
X175482095Y-54157523D01*
X175386857Y-54252761D01*
X175244000Y-54300380D01*
X175005904Y-54300380D01*
X173545523Y-56094380D02*
X173069333Y-56094380D01*
X173021714Y-56570571D01*
X173069333Y-56522952D01*
X173164571Y-56475333D01*
X173402666Y-56475333D01*
X173497904Y-56522952D01*
X173545523Y-56570571D01*
X173593142Y-56665809D01*
X173593142Y-56903904D01*
X173545523Y-56999142D01*
X173497904Y-57046761D01*
X173402666Y-57094380D01*
X173164571Y-57094380D01*
X173069333Y-57046761D01*
X173021714Y-56999142D01*
X173878857Y-56094380D02*
X174212190Y-57094380D01*
X174545523Y-56094380D01*
X194564000Y-144145000D02*
X103124000Y-144145000D01*
X103124000Y-144145000D02*
X103124000Y-39751000D01*
X103124000Y-39751000D02*
X194564000Y-39751000D01*
X194564000Y-39751000D02*
X194564000Y-144145000D01*
X205190000Y-59428000D02*
X250190000Y-59428000D01*
X250190000Y-59428000D02*
X250190000Y-122428000D01*
X250190000Y-122428000D02*
X205190000Y-122428000D01*
X205190000Y-122428000D02*
X205190000Y-59428000D01*
X46694000Y-59178000D02*
X91694000Y-59178000D01*
X91694000Y-59178000D02*
X91694000Y-122178000D01*
X91694000Y-122178000D02*
X46694000Y-122178000D01*
X46694000Y-122178000D02*
X46694000Y-59178000D01*
X154138380Y-131770190D02*
X155138380Y-131532095D01*
X154424095Y-131341619D01*
X155138380Y-131151142D01*
X154138380Y-130913047D01*
X155519333Y-129484476D02*
X155471714Y-129532095D01*
X155328857Y-129627333D01*
X155233619Y-129674952D01*
X155090761Y-129722571D01*
X154852666Y-129770190D01*
X154662190Y-129770190D01*
X154424095Y-129722571D01*
X154281238Y-129674952D01*
X154186000Y-129627333D01*
X154043142Y-129532095D01*
X153995523Y-129484476D01*
X154186000Y-128579714D02*
X154138380Y-128674952D01*
X154138380Y-128817809D01*
X154186000Y-128960666D01*
X154281238Y-129055904D01*
X154376476Y-129103523D01*
X154566952Y-129151142D01*
X154709809Y-129151142D01*
X154900285Y-129103523D01*
X154995523Y-129055904D01*
X155090761Y-128960666D01*
X155138380Y-128817809D01*
X155138380Y-128722571D01*
X155090761Y-128579714D01*
X155043142Y-128532095D01*
X154709809Y-128532095D01*
X154709809Y-128722571D01*
X155519333Y-128198761D02*
X155471714Y-128151142D01*
X155328857Y-128055904D01*
X155233619Y-128008285D01*
X155090761Y-127960666D01*
X154852666Y-127913047D01*
X154662190Y-127913047D01*
X154424095Y-127960666D01*
X154281238Y-128008285D01*
X154186000Y-128055904D01*
X154043142Y-128151142D01*
X153995523Y-128198761D01*
X195071000Y-49942380D02*
X195071000Y-48942380D01*
X195309095Y-48942380D01*
X195451952Y-48990000D01*
X195547190Y-49085238D01*
X195594809Y-49180476D01*
X195642428Y-49370952D01*
X195642428Y-49513809D01*
X195594809Y-49704285D01*
X195547190Y-49799523D01*
X195451952Y-49894761D01*
X195309095Y-49942380D01*
X195071000Y-49942380D01*
X196071000Y-49942380D02*
X196071000Y-48942380D01*
X197118619Y-49942380D02*
X196785285Y-49466190D01*
X196547190Y-49942380D02*
X196547190Y-48942380D01*
X196928142Y-48942380D01*
X197023380Y-48990000D01*
X197071000Y-49037619D01*
X197118619Y-49132857D01*
X197118619Y-49275714D01*
X197071000Y-49370952D01*
X197023380Y-49418571D01*
X196928142Y-49466190D01*
X196547190Y-49466190D01*
X143716952Y-43504380D02*
X144288380Y-43504380D01*
X144002666Y-44504380D02*
X144002666Y-43504380D01*
X144526476Y-43504380D02*
X145193142Y-44504380D01*
X145193142Y-43504380D02*
X144526476Y-44504380D01*
X146907428Y-44504380D02*
X146574095Y-44028190D01*
X146336000Y-44504380D02*
X146336000Y-43504380D01*
X146716952Y-43504380D01*
X146812190Y-43552000D01*
X146859809Y-43599619D01*
X146907428Y-43694857D01*
X146907428Y-43837714D01*
X146859809Y-43932952D01*
X146812190Y-43980571D01*
X146716952Y-44028190D01*
X146336000Y-44028190D01*
X147240761Y-43504380D02*
X147907428Y-44504380D01*
X147907428Y-43504380D02*
X147240761Y-44504380D01*
X155813809Y-44456761D02*
X155956666Y-44504380D01*
X156194761Y-44504380D01*
X156290000Y-44456761D01*
X156337619Y-44409142D01*
X156385238Y-44313904D01*
X156385238Y-44218666D01*
X156337619Y-44123428D01*
X156290000Y-44075809D01*
X156194761Y-44028190D01*
X156004285Y-43980571D01*
X155909047Y-43932952D01*
X155861428Y-43885333D01*
X155813809Y-43790095D01*
X155813809Y-43694857D01*
X155861428Y-43599619D01*
X155909047Y-43552000D01*
X156004285Y-43504380D01*
X156242380Y-43504380D01*
X156385238Y-43552000D01*
X157385238Y-44409142D02*
X157337619Y-44456761D01*
X157194761Y-44504380D01*
X157099523Y-44504380D01*
X156956666Y-44456761D01*
X156861428Y-44361523D01*
X156813809Y-44266285D01*
X156766190Y-44075809D01*
X156766190Y-43932952D01*
X156813809Y-43742476D01*
X156861428Y-43647238D01*
X156956666Y-43552000D01*
X157099523Y-43504380D01*
X157194761Y-43504380D01*
X157337619Y-43552000D01*
X157385238Y-43599619D01*
X158290000Y-44504380D02*
X157813809Y-44504380D01*
X157813809Y-43504380D01*
X159337619Y-44456761D02*
X159480476Y-44504380D01*
X159718571Y-44504380D01*
X159813809Y-44456761D01*
X159861428Y-44409142D01*
X159909047Y-44313904D01*
X159909047Y-44218666D01*
X159861428Y-44123428D01*
X159813809Y-44075809D01*
X159718571Y-44028190D01*
X159528095Y-43980571D01*
X159432857Y-43932952D01*
X159385238Y-43885333D01*
X159337619Y-43790095D01*
X159337619Y-43694857D01*
X159385238Y-43599619D01*
X159432857Y-43552000D01*
X159528095Y-43504380D01*
X159766190Y-43504380D01*
X159909047Y-43552000D01*
X160337619Y-44504380D02*
X160337619Y-43504380D01*
X160575714Y-43504380D01*
X160718571Y-43552000D01*
X160813809Y-43647238D01*
X160861428Y-43742476D01*
X160909047Y-43932952D01*
X160909047Y-44075809D01*
X160861428Y-44266285D01*
X160813809Y-44361523D01*
X160718571Y-44456761D01*
X160575714Y-44504380D01*
X160337619Y-44504380D01*
X161290000Y-44218666D02*
X161766190Y-44218666D01*
X161194761Y-44504380D02*
X161528095Y-43504380D01*
X161861428Y-44504380D01*
X134096571Y-44155142D02*
X134048952Y-44202761D01*
X133906095Y-44250380D01*
X133810857Y-44250380D01*
X133668000Y-44202761D01*
X133572761Y-44107523D01*
X133525142Y-44012285D01*
X133477523Y-43821809D01*
X133477523Y-43678952D01*
X133525142Y-43488476D01*
X133572761Y-43393238D01*
X133668000Y-43298000D01*
X133810857Y-43250380D01*
X133906095Y-43250380D01*
X134048952Y-43298000D01*
X134096571Y-43345619D01*
X134525142Y-44250380D02*
X134525142Y-43250380D01*
X134525142Y-43726571D02*
X135096571Y-43726571D01*
X135096571Y-44250380D02*
X135096571Y-43250380D01*
X136858476Y-44250380D02*
X136287047Y-44250380D01*
X136572761Y-44250380D02*
X136572761Y-43250380D01*
X136477523Y-43393238D01*
X136382285Y-43488476D01*
X136287047Y-43536095D01*
X63183238Y-89352380D02*
X63183238Y-88352380D01*
X63516571Y-89066666D01*
X63849904Y-88352380D01*
X63849904Y-89352380D01*
X64849904Y-89352380D02*
X64278476Y-89352380D01*
X64564190Y-89352380D02*
X64564190Y-88352380D01*
X64468952Y-88495238D01*
X64373714Y-88590476D01*
X64278476Y-88638095D01*
X66611809Y-89257142D02*
X66564190Y-89304761D01*
X66421333Y-89352380D01*
X66326095Y-89352380D01*
X66183238Y-89304761D01*
X66088000Y-89209523D01*
X66040380Y-89114285D01*
X65992761Y-88923809D01*
X65992761Y-88780952D01*
X66040380Y-88590476D01*
X66088000Y-88495238D01*
X66183238Y-88400000D01*
X66326095Y-88352380D01*
X66421333Y-88352380D01*
X66564190Y-88400000D01*
X66611809Y-88447619D01*
X67230857Y-88352380D02*
X67421333Y-88352380D01*
X67516571Y-88400000D01*
X67611809Y-88495238D01*
X67659428Y-88685714D01*
X67659428Y-89019047D01*
X67611809Y-89209523D01*
X67516571Y-89304761D01*
X67421333Y-89352380D01*
X67230857Y-89352380D01*
X67135619Y-89304761D01*
X67040380Y-89209523D01*
X66992761Y-89019047D01*
X66992761Y-88685714D01*
X67040380Y-88495238D01*
X67135619Y-88400000D01*
X67230857Y-88352380D01*
X68088000Y-89352380D02*
X68088000Y-88352380D01*
X68659428Y-89352380D01*
X68659428Y-88352380D01*
X68992761Y-88352380D02*
X69564190Y-88352380D01*
X69278476Y-89352380D02*
X69278476Y-88352380D01*
X70468952Y-89352380D02*
X70135619Y-88876190D01*
X69897523Y-89352380D02*
X69897523Y-88352380D01*
X70278476Y-88352380D01*
X70373714Y-88400000D01*
X70421333Y-88447619D01*
X70468952Y-88542857D01*
X70468952Y-88685714D01*
X70421333Y-88780952D01*
X70373714Y-88828571D01*
X70278476Y-88876190D01*
X69897523Y-88876190D01*
X71088000Y-88352380D02*
X71278476Y-88352380D01*
X71373714Y-88400000D01*
X71468952Y-88495238D01*
X71516571Y-88685714D01*
X71516571Y-89019047D01*
X71468952Y-89209523D01*
X71373714Y-89304761D01*
X71278476Y-89352380D01*
X71088000Y-89352380D01*
X70992761Y-89304761D01*
X70897523Y-89209523D01*
X70849904Y-89019047D01*
X70849904Y-88685714D01*
X70897523Y-88495238D01*
X70992761Y-88400000D01*
X71088000Y-88352380D01*
X72421333Y-89352380D02*
X71945142Y-89352380D01*
X71945142Y-88352380D01*
X73230857Y-89352380D02*
X72754666Y-89352380D01*
X72754666Y-88352380D01*
X73564190Y-88828571D02*
X73897523Y-88828571D01*
X74040380Y-89352380D02*
X73564190Y-89352380D01*
X73564190Y-88352380D01*
X74040380Y-88352380D01*
X75040380Y-89352380D02*
X74707047Y-88876190D01*
X74468952Y-89352380D02*
X74468952Y-88352380D01*
X74849904Y-88352380D01*
X74945142Y-88400000D01*
X74992761Y-88447619D01*
X75040380Y-88542857D01*
X75040380Y-88685714D01*
X74992761Y-88780952D01*
X74945142Y-88828571D01*
X74849904Y-88876190D01*
X74468952Y-88876190D01*
X152884666Y-141278380D02*
X152884666Y-140278380D01*
X153218000Y-140992666D01*
X153551333Y-140278380D01*
X153551333Y-141278380D01*
X153979904Y-140373619D02*
X154027523Y-140326000D01*
X154122761Y-140278380D01*
X154360857Y-140278380D01*
X154456095Y-140326000D01*
X154503714Y-140373619D01*
X154551333Y-140468857D01*
X154551333Y-140564095D01*
X154503714Y-140706952D01*
X153932285Y-141278380D01*
X154551333Y-141278380D01*
X155741809Y-141278380D02*
X155741809Y-140278380D01*
X156218000Y-141278380D02*
X156218000Y-140278380D01*
X156789428Y-141278380D01*
X156789428Y-140278380D01*
X157265619Y-141278380D02*
X157265619Y-140278380D01*
X157646571Y-140278380D01*
X157741809Y-140326000D01*
X157789428Y-140373619D01*
X157837047Y-140468857D01*
X157837047Y-140611714D01*
X157789428Y-140706952D01*
X157741809Y-140754571D01*
X157646571Y-140802190D01*
X157265619Y-140802190D01*
X158265619Y-140278380D02*
X158265619Y-141087904D01*
X158313238Y-141183142D01*
X158360857Y-141230761D01*
X158456095Y-141278380D01*
X158646571Y-141278380D01*
X158741809Y-141230761D01*
X158789428Y-141183142D01*
X158837047Y-141087904D01*
X158837047Y-140278380D01*
X159170380Y-140278380D02*
X159741809Y-140278380D01*
X159456095Y-141278380D02*
X159456095Y-140278380D01*
X160027523Y-141230761D02*
X160170380Y-141278380D01*
X160408476Y-141278380D01*
X160503714Y-141230761D01*
X160551333Y-141183142D01*
X160598952Y-141087904D01*
X160598952Y-140992666D01*
X160551333Y-140897428D01*
X160503714Y-140849809D01*
X160408476Y-140802190D01*
X160218000Y-140754571D01*
X160122761Y-140706952D01*
X160075142Y-140659333D01*
X160027523Y-140564095D01*
X160027523Y-140468857D01*
X160075142Y-140373619D01*
X160122761Y-140326000D01*
X160218000Y-140278380D01*
X160456095Y-140278380D01*
X160598952Y-140326000D01*
X107227619Y-95560380D02*
X107227619Y-96131809D01*
X106227619Y-95846095D02*
X107227619Y-95846095D01*
X107227619Y-96655619D02*
X107227619Y-96846095D01*
X107180000Y-96941333D01*
X107084761Y-97036571D01*
X106894285Y-97084190D01*
X106560952Y-97084190D01*
X106370476Y-97036571D01*
X106275238Y-96941333D01*
X106227619Y-96846095D01*
X106227619Y-96655619D01*
X106275238Y-96560380D01*
X106370476Y-96465142D01*
X106560952Y-96417523D01*
X106894285Y-96417523D01*
X107084761Y-96465142D01*
X107180000Y-96560380D01*
X107227619Y-96655619D01*
X106227619Y-98274666D02*
X107227619Y-98274666D01*
X106513333Y-98608000D01*
X107227619Y-98941333D01*
X106227619Y-98941333D01*
X106227619Y-99941333D02*
X106227619Y-99369904D01*
X106227619Y-99655619D02*
X107227619Y-99655619D01*
X107084761Y-99560380D01*
X106989523Y-99465142D01*
X106941904Y-99369904D01*
X106751428Y-101131809D02*
X106751428Y-101465142D01*
X106227619Y-101608000D02*
X106227619Y-101131809D01*
X107227619Y-101131809D01*
X107227619Y-101608000D01*
X106227619Y-102036571D02*
X107227619Y-102036571D01*
X106227619Y-102608000D01*
X107227619Y-102608000D01*
X106322857Y-103655619D02*
X106275238Y-103608000D01*
X106227619Y-103465142D01*
X106227619Y-103369904D01*
X106275238Y-103227047D01*
X106370476Y-103131809D01*
X106465714Y-103084190D01*
X106656190Y-103036571D01*
X106799047Y-103036571D01*
X106989523Y-103084190D01*
X107084761Y-103131809D01*
X107180000Y-103227047D01*
X107227619Y-103369904D01*
X107227619Y-103465142D01*
X107180000Y-103608000D01*
X107132380Y-103655619D01*
X107227619Y-104274666D02*
X107227619Y-104465142D01*
X107180000Y-104560380D01*
X107084761Y-104655619D01*
X106894285Y-104703238D01*
X106560952Y-104703238D01*
X106370476Y-104655619D01*
X106275238Y-104560380D01*
X106227619Y-104465142D01*
X106227619Y-104274666D01*
X106275238Y-104179428D01*
X106370476Y-104084190D01*
X106560952Y-104036571D01*
X106894285Y-104036571D01*
X107084761Y-104084190D01*
X107180000Y-104179428D01*
X107227619Y-104274666D01*
X106227619Y-105131809D02*
X107227619Y-105131809D01*
X107227619Y-105369904D01*
X107180000Y-105512761D01*
X107084761Y-105608000D01*
X106989523Y-105655619D01*
X106799047Y-105703238D01*
X106656190Y-105703238D01*
X106465714Y-105655619D01*
X106370476Y-105608000D01*
X106275238Y-105512761D01*
X106227619Y-105369904D01*
X106227619Y-105131809D01*
X106751428Y-106131809D02*
X106751428Y-106465142D01*
X106227619Y-106608000D02*
X106227619Y-106131809D01*
X107227619Y-106131809D01*
X107227619Y-106608000D01*
X106227619Y-107608000D02*
X106703809Y-107274666D01*
X106227619Y-107036571D02*
X107227619Y-107036571D01*
X107227619Y-107417523D01*
X107180000Y-107512761D01*
X107132380Y-107560380D01*
X107037142Y-107608000D01*
X106894285Y-107608000D01*
X106799047Y-107560380D01*
X106751428Y-107512761D01*
X106703809Y-107417523D01*
X106703809Y-107036571D01*
X106275238Y-107988952D02*
X106227619Y-108131809D01*
X106227619Y-108369904D01*
X106275238Y-108465142D01*
X106322857Y-108512761D01*
X106418095Y-108560380D01*
X106513333Y-108560380D01*
X106608571Y-108512761D01*
X106656190Y-108465142D01*
X106703809Y-108369904D01*
X106751428Y-108179428D01*
X106799047Y-108084190D01*
X106846666Y-108036571D01*
X106941904Y-107988952D01*
X107037142Y-107988952D01*
X107132380Y-108036571D01*
X107180000Y-108084190D01*
X107227619Y-108179428D01*
X107227619Y-108417523D01*
X107180000Y-108560380D01*
X206683380Y-51450000D02*
X205683380Y-51450000D01*
X206397666Y-51116666D01*
X205683380Y-50783333D01*
X206683380Y-50783333D01*
X205778619Y-50354761D02*
X205731000Y-50307142D01*
X205683380Y-50211904D01*
X205683380Y-49973809D01*
X205731000Y-49878571D01*
X205778619Y-49830952D01*
X205873857Y-49783333D01*
X205969095Y-49783333D01*
X206111952Y-49830952D01*
X206683380Y-50402380D01*
X206683380Y-49783333D01*
X205683380Y-48402380D02*
X205683380Y-48211904D01*
X205731000Y-48116666D01*
X205826238Y-48021428D01*
X206016714Y-47973809D01*
X206350047Y-47973809D01*
X206540523Y-48021428D01*
X206635761Y-48116666D01*
X206683380Y-48211904D01*
X206683380Y-48402380D01*
X206635761Y-48497619D01*
X206540523Y-48592857D01*
X206350047Y-48640476D01*
X206016714Y-48640476D01*
X205826238Y-48592857D01*
X205731000Y-48497619D01*
X205683380Y-48402380D01*
X205683380Y-47545238D02*
X206492904Y-47545238D01*
X206588142Y-47497619D01*
X206635761Y-47450000D01*
X206683380Y-47354761D01*
X206683380Y-47164285D01*
X206635761Y-47069047D01*
X206588142Y-47021428D01*
X206492904Y-46973809D01*
X205683380Y-46973809D01*
X205683380Y-46640476D02*
X205683380Y-46069047D01*
X206683380Y-46354761D02*
X205683380Y-46354761D01*
X206683380Y-45735714D02*
X205683380Y-45735714D01*
X205683380Y-45354761D01*
X205731000Y-45259523D01*
X205778619Y-45211904D01*
X205873857Y-45164285D01*
X206016714Y-45164285D01*
X206111952Y-45211904D01*
X206159571Y-45259523D01*
X206207190Y-45354761D01*
X206207190Y-45735714D01*
X205683380Y-44735714D02*
X206492904Y-44735714D01*
X206588142Y-44688095D01*
X206635761Y-44640476D01*
X206683380Y-44545238D01*
X206683380Y-44354761D01*
X206635761Y-44259523D01*
X206588142Y-44211904D01*
X206492904Y-44164285D01*
X205683380Y-44164285D01*
X205683380Y-43830952D02*
X205683380Y-43259523D01*
X206683380Y-43545238D02*
X205683380Y-43545238D01*
X206635761Y-42973809D02*
X206683380Y-42830952D01*
X206683380Y-42592857D01*
X206635761Y-42497619D01*
X206588142Y-42450000D01*
X206492904Y-42402380D01*
X206397666Y-42402380D01*
X206302428Y-42450000D01*
X206254809Y-42497619D01*
X206207190Y-42592857D01*
X206159571Y-42783333D01*
X206111952Y-42878571D01*
X206064333Y-42926190D01*
X205969095Y-42973809D01*
X205873857Y-42973809D01*
X205778619Y-42926190D01*
X205731000Y-42878571D01*
X205683380Y-42783333D01*
X205683380Y-42545238D01*
X205731000Y-42402380D01*
X185720523Y-53280380D02*
X185244333Y-53280380D01*
X185196714Y-53756571D01*
X185244333Y-53708952D01*
X185339571Y-53661333D01*
X185577666Y-53661333D01*
X185672904Y-53708952D01*
X185720523Y-53756571D01*
X185768142Y-53851809D01*
X185768142Y-54089904D01*
X185720523Y-54185142D01*
X185672904Y-54232761D01*
X185577666Y-54280380D01*
X185339571Y-54280380D01*
X185244333Y-54232761D01*
X185196714Y-54185142D01*
X186053857Y-53280380D02*
X186387190Y-54280380D01*
X186720523Y-53280380D01*
X222441238Y-89352380D02*
X222441238Y-88352380D01*
X222774571Y-89066666D01*
X223107904Y-88352380D01*
X223107904Y-89352380D01*
X223536476Y-88447619D02*
X223584095Y-88400000D01*
X223679333Y-88352380D01*
X223917428Y-88352380D01*
X224012666Y-88400000D01*
X224060285Y-88447619D01*
X224107904Y-88542857D01*
X224107904Y-88638095D01*
X224060285Y-88780952D01*
X223488857Y-89352380D01*
X224107904Y-89352380D01*
X225869809Y-89257142D02*
X225822190Y-89304761D01*
X225679333Y-89352380D01*
X225584095Y-89352380D01*
X225441238Y-89304761D01*
X225346000Y-89209523D01*
X225298380Y-89114285D01*
X225250761Y-88923809D01*
X225250761Y-88780952D01*
X225298380Y-88590476D01*
X225346000Y-88495238D01*
X225441238Y-88400000D01*
X225584095Y-88352380D01*
X225679333Y-88352380D01*
X225822190Y-88400000D01*
X225869809Y-88447619D01*
X226488857Y-88352380D02*
X226679333Y-88352380D01*
X226774571Y-88400000D01*
X226869809Y-88495238D01*
X226917428Y-88685714D01*
X226917428Y-89019047D01*
X226869809Y-89209523D01*
X226774571Y-89304761D01*
X226679333Y-89352380D01*
X226488857Y-89352380D01*
X226393619Y-89304761D01*
X226298380Y-89209523D01*
X226250761Y-89019047D01*
X226250761Y-88685714D01*
X226298380Y-88495238D01*
X226393619Y-88400000D01*
X226488857Y-88352380D01*
X227346000Y-89352380D02*
X227346000Y-88352380D01*
X227917428Y-89352380D01*
X227917428Y-88352380D01*
X228250761Y-88352380D02*
X228822190Y-88352380D01*
X228536476Y-89352380D02*
X228536476Y-88352380D01*
X229726952Y-89352380D02*
X229393619Y-88876190D01*
X229155523Y-89352380D02*
X229155523Y-88352380D01*
X229536476Y-88352380D01*
X229631714Y-88400000D01*
X229679333Y-88447619D01*
X229726952Y-88542857D01*
X229726952Y-88685714D01*
X229679333Y-88780952D01*
X229631714Y-88828571D01*
X229536476Y-88876190D01*
X229155523Y-88876190D01*
X230346000Y-88352380D02*
X230536476Y-88352380D01*
X230631714Y-88400000D01*
X230726952Y-88495238D01*
X230774571Y-88685714D01*
X230774571Y-89019047D01*
X230726952Y-89209523D01*
X230631714Y-89304761D01*
X230536476Y-89352380D01*
X230346000Y-89352380D01*
X230250761Y-89304761D01*
X230155523Y-89209523D01*
X230107904Y-89019047D01*
X230107904Y-88685714D01*
X230155523Y-88495238D01*
X230250761Y-88400000D01*
X230346000Y-88352380D01*
X231679333Y-89352380D02*
X231203142Y-89352380D01*
X231203142Y-88352380D01*
X232488857Y-89352380D02*
X232012666Y-89352380D01*
X232012666Y-88352380D01*
X232822190Y-88828571D02*
X233155523Y-88828571D01*
X233298380Y-89352380D02*
X232822190Y-89352380D01*
X232822190Y-88352380D01*
X233298380Y-88352380D01*
X234298380Y-89352380D02*
X233965047Y-88876190D01*
X233726952Y-89352380D02*
X233726952Y-88352380D01*
X234107904Y-88352380D01*
X234203142Y-88400000D01*
X234250761Y-88447619D01*
X234298380Y-88542857D01*
X234298380Y-88685714D01*
X234250761Y-88780952D01*
X234203142Y-88828571D01*
X234107904Y-88876190D01*
X233726952Y-88876190D01*
X111942761Y-63824380D02*
X112514190Y-63824380D01*
X112228476Y-64824380D02*
X112228476Y-63824380D01*
X112847523Y-64300571D02*
X113180857Y-64300571D01*
X113323714Y-64824380D02*
X112847523Y-64824380D01*
X112847523Y-63824380D01*
X113323714Y-63824380D01*
X113704666Y-64776761D02*
X113847523Y-64824380D01*
X114085619Y-64824380D01*
X114180857Y-64776761D01*
X114228476Y-64729142D01*
X114276095Y-64633904D01*
X114276095Y-64538666D01*
X114228476Y-64443428D01*
X114180857Y-64395809D01*
X114085619Y-64348190D01*
X113895142Y-64300571D01*
X113799904Y-64252952D01*
X113752285Y-64205333D01*
X113704666Y-64110095D01*
X113704666Y-64014857D01*
X113752285Y-63919619D01*
X113799904Y-63872000D01*
X113895142Y-63824380D01*
X114133238Y-63824380D01*
X114276095Y-63872000D01*
X114561809Y-63824380D02*
X115133238Y-63824380D01*
X114847523Y-64824380D02*
X114847523Y-63824380D01*
X156718380Y-131674952D02*
X157718380Y-131341619D01*
X156718380Y-131008285D01*
X158099333Y-129627333D02*
X158051714Y-129674952D01*
X157908857Y-129770190D01*
X157813619Y-129817809D01*
X157670761Y-129865428D01*
X157432666Y-129913047D01*
X157242190Y-129913047D01*
X157004095Y-129865428D01*
X156861238Y-129817809D01*
X156766000Y-129770190D01*
X156623142Y-129674952D01*
X156575523Y-129627333D01*
X157194571Y-128913047D02*
X157242190Y-128770190D01*
X157289809Y-128722571D01*
X157385047Y-128674952D01*
X157527904Y-128674952D01*
X157623142Y-128722571D01*
X157670761Y-128770190D01*
X157718380Y-128865428D01*
X157718380Y-129246380D01*
X156718380Y-129246380D01*
X156718380Y-128913047D01*
X156766000Y-128817809D01*
X156813619Y-128770190D01*
X156908857Y-128722571D01*
X157004095Y-128722571D01*
X157099333Y-128770190D01*
X157146952Y-128817809D01*
X157194571Y-128913047D01*
X157194571Y-129246380D01*
X158099333Y-128341619D02*
X158051714Y-128294000D01*
X157908857Y-128198761D01*
X157813619Y-128151142D01*
X157670761Y-128103523D01*
X157432666Y-128055904D01*
X157242190Y-128055904D01*
X157004095Y-128103523D01*
X156861238Y-128151142D01*
X156766000Y-128198761D01*
X156623142Y-128294000D01*
X156575523Y-128341619D01*
X125182380Y-131516190D02*
X126182380Y-131278095D01*
X125468095Y-131087619D01*
X126182380Y-130897142D01*
X125182380Y-130659047D01*
X126563333Y-129230476D02*
X126515714Y-129278095D01*
X126372857Y-129373333D01*
X126277619Y-129420952D01*
X126134761Y-129468571D01*
X125896666Y-129516190D01*
X125706190Y-129516190D01*
X125468095Y-129468571D01*
X125325238Y-129420952D01*
X125230000Y-129373333D01*
X125087142Y-129278095D01*
X125039523Y-129230476D01*
X125230000Y-128325714D02*
X125182380Y-128420952D01*
X125182380Y-128563809D01*
X125230000Y-128706666D01*
X125325238Y-128801904D01*
X125420476Y-128849523D01*
X125610952Y-128897142D01*
X125753809Y-128897142D01*
X125944285Y-128849523D01*
X126039523Y-128801904D01*
X126134761Y-128706666D01*
X126182380Y-128563809D01*
X126182380Y-128468571D01*
X126134761Y-128325714D01*
X126087142Y-128278095D01*
X125753809Y-128278095D01*
X125753809Y-128468571D01*
X126563333Y-127944761D02*
X126515714Y-127897142D01*
X126372857Y-127801904D01*
X126277619Y-127754285D01*
X126134761Y-127706666D01*
X125896666Y-127659047D01*
X125706190Y-127659047D01*
X125468095Y-127706666D01*
X125325238Y-127754285D01*
X125230000Y-127801904D01*
X125087142Y-127897142D01*
X125039523Y-127944761D01*
X124222666Y-141295380D02*
X124222666Y-140295380D01*
X124556000Y-141009666D01*
X124889333Y-140295380D01*
X124889333Y-141295380D01*
X125889333Y-141295380D02*
X125317904Y-141295380D01*
X125603619Y-141295380D02*
X125603619Y-140295380D01*
X125508380Y-140438238D01*
X125413142Y-140533476D01*
X125317904Y-140581095D01*
X127079809Y-141295380D02*
X127079809Y-140295380D01*
X127556000Y-141295380D02*
X127556000Y-140295380D01*
X128127428Y-141295380D01*
X128127428Y-140295380D01*
X128603619Y-141295380D02*
X128603619Y-140295380D01*
X128984571Y-140295380D01*
X129079809Y-140343000D01*
X129127428Y-140390619D01*
X129175047Y-140485857D01*
X129175047Y-140628714D01*
X129127428Y-140723952D01*
X129079809Y-140771571D01*
X128984571Y-140819190D01*
X128603619Y-140819190D01*
X129603619Y-140295380D02*
X129603619Y-141104904D01*
X129651238Y-141200142D01*
X129698857Y-141247761D01*
X129794095Y-141295380D01*
X129984571Y-141295380D01*
X130079809Y-141247761D01*
X130127428Y-141200142D01*
X130175047Y-141104904D01*
X130175047Y-140295380D01*
X130508380Y-140295380D02*
X131079809Y-140295380D01*
X130794095Y-141295380D02*
X130794095Y-140295380D01*
X131365523Y-141247761D02*
X131508380Y-141295380D01*
X131746476Y-141295380D01*
X131841714Y-141247761D01*
X131889333Y-141200142D01*
X131936952Y-141104904D01*
X131936952Y-141009666D01*
X131889333Y-140914428D01*
X131841714Y-140866809D01*
X131746476Y-140819190D01*
X131556000Y-140771571D01*
X131460761Y-140723952D01*
X131413142Y-140676333D01*
X131365523Y-140581095D01*
X131365523Y-140485857D01*
X131413142Y-140390619D01*
X131460761Y-140343000D01*
X131556000Y-140295380D01*
X131794095Y-140295380D01*
X131936952Y-140343000D01*
X178600904Y-59630380D02*
X178124714Y-59630380D01*
X178077095Y-60106571D01*
X178124714Y-60058952D01*
X178219952Y-60011333D01*
X178458047Y-60011333D01*
X178553285Y-60058952D01*
X178600904Y-60106571D01*
X178648523Y-60201809D01*
X178648523Y-60439904D01*
X178600904Y-60535142D01*
X178553285Y-60582761D01*
X178458047Y-60630380D01*
X178219952Y-60630380D01*
X178124714Y-60582761D01*
X178077095Y-60535142D01*
X178934238Y-59630380D02*
X179267571Y-60630380D01*
X179600904Y-59630380D01*
X180696142Y-60630380D02*
X180696142Y-59630380D01*
X181172333Y-60630380D02*
X181172333Y-59630380D01*
X181743761Y-60630380D01*
X181743761Y-59630380D01*
X182219952Y-60630380D02*
X182219952Y-59630380D01*
X182600904Y-59630380D01*
X182696142Y-59678000D01*
X182743761Y-59725619D01*
X182791380Y-59820857D01*
X182791380Y-59963714D01*
X182743761Y-60058952D01*
X182696142Y-60106571D01*
X182600904Y-60154190D01*
X182219952Y-60154190D01*
X183219952Y-59630380D02*
X183219952Y-60439904D01*
X183267571Y-60535142D01*
X183315190Y-60582761D01*
X183410428Y-60630380D01*
X183600904Y-60630380D01*
X183696142Y-60582761D01*
X183743761Y-60535142D01*
X183791380Y-60439904D01*
X183791380Y-59630380D01*
X184124714Y-59630380D02*
X184696142Y-59630380D01*
X184410428Y-60630380D02*
X184410428Y-59630380D01*
X185657095Y-55868000D02*
X185561857Y-55820380D01*
X185419000Y-55820380D01*
X185276142Y-55868000D01*
X185180904Y-55963238D01*
X185133285Y-56058476D01*
X185085666Y-56248952D01*
X185085666Y-56391809D01*
X185133285Y-56582285D01*
X185180904Y-56677523D01*
X185276142Y-56772761D01*
X185419000Y-56820380D01*
X185514238Y-56820380D01*
X185657095Y-56772761D01*
X185704714Y-56725142D01*
X185704714Y-56391809D01*
X185514238Y-56391809D01*
X186133285Y-56820380D02*
X186133285Y-55820380D01*
X186704714Y-56820380D01*
X186704714Y-55820380D01*
X187180904Y-56820380D02*
X187180904Y-55820380D01*
X187419000Y-55820380D01*
X187561857Y-55868000D01*
X187657095Y-55963238D01*
X187704714Y-56058476D01*
X187752333Y-56248952D01*
X187752333Y-56391809D01*
X187704714Y-56582285D01*
X187657095Y-56677523D01*
X187561857Y-56772761D01*
X187419000Y-56820380D01*
X187180904Y-56820380D01*
X130262380Y-131301904D02*
X131071904Y-131301904D01*
X131167142Y-131254285D01*
X131214761Y-131206666D01*
X131262380Y-131111428D01*
X131262380Y-130920952D01*
X131214761Y-130825714D01*
X131167142Y-130778095D01*
X131071904Y-130730476D01*
X130262380Y-130730476D01*
X131643333Y-129206666D02*
X131595714Y-129254285D01*
X131452857Y-129349523D01*
X131357619Y-129397142D01*
X131214761Y-129444761D01*
X130976666Y-129492380D01*
X130786190Y-129492380D01*
X130548095Y-129444761D01*
X130405238Y-129397142D01*
X130310000Y-129349523D01*
X130167142Y-129254285D01*
X130119523Y-129206666D01*
X130786190Y-128635238D02*
X131262380Y-128635238D01*
X130262380Y-128968571D02*
X130786190Y-128635238D01*
X130262380Y-128301904D01*
X131643333Y-128063809D02*
X131595714Y-128016190D01*
X131452857Y-127920952D01*
X131357619Y-127873333D01*
X131214761Y-127825714D01*
X130976666Y-127778095D01*
X130786190Y-127778095D01*
X130548095Y-127825714D01*
X130405238Y-127873333D01*
X130310000Y-127920952D01*
X130167142Y-128016190D01*
X130119523Y-128063809D01*
X159218380Y-131555904D02*
X160027904Y-131555904D01*
X160123142Y-131508285D01*
X160170761Y-131460666D01*
X160218380Y-131365428D01*
X160218380Y-131174952D01*
X160170761Y-131079714D01*
X160123142Y-131032095D01*
X160027904Y-130984476D01*
X159218380Y-130984476D01*
X160599333Y-129460666D02*
X160551714Y-129508285D01*
X160408857Y-129603523D01*
X160313619Y-129651142D01*
X160170761Y-129698761D01*
X159932666Y-129746380D01*
X159742190Y-129746380D01*
X159504095Y-129698761D01*
X159361238Y-129651142D01*
X159266000Y-129603523D01*
X159123142Y-129508285D01*
X159075523Y-129460666D01*
X159742190Y-128889238D02*
X160218380Y-128889238D01*
X159218380Y-129222571D02*
X159742190Y-128889238D01*
X159218380Y-128555904D01*
X160599333Y-128317809D02*
X160551714Y-128270190D01*
X160408857Y-128174952D01*
X160313619Y-128127333D01*
X160170761Y-128079714D01*
X159932666Y-128032095D01*
X159742190Y-128032095D01*
X159504095Y-128079714D01*
X159361238Y-128127333D01*
X159266000Y-128174952D01*
X159123142Y-128270190D01*
X159075523Y-128317809D01*
X161758380Y-131000476D02*
X161758380Y-131476666D01*
X162234571Y-131524285D01*
X162186952Y-131476666D01*
X162139333Y-131381428D01*
X162139333Y-131143333D01*
X162186952Y-131048095D01*
X162234571Y-131000476D01*
X162329809Y-130952857D01*
X162567904Y-130952857D01*
X162663142Y-131000476D01*
X162710761Y-131048095D01*
X162758380Y-131143333D01*
X162758380Y-131381428D01*
X162710761Y-131476666D01*
X162663142Y-131524285D01*
X161758380Y-130667142D02*
X162758380Y-130333809D01*
X161758380Y-130000476D01*
X100552476Y-46704571D02*
X100695333Y-46752190D01*
X100742952Y-46799809D01*
X100790571Y-46895047D01*
X100790571Y-47037904D01*
X100742952Y-47133142D01*
X100695333Y-47180761D01*
X100600095Y-47228380D01*
X100219142Y-47228380D01*
X100219142Y-46228380D01*
X100552476Y-46228380D01*
X100647714Y-46276000D01*
X100695333Y-46323619D01*
X100742952Y-46418857D01*
X100742952Y-46514095D01*
X100695333Y-46609333D01*
X100647714Y-46656952D01*
X100552476Y-46704571D01*
X100219142Y-46704571D01*
X101790571Y-47228380D02*
X101457238Y-46752190D01*
X101219142Y-47228380D02*
X101219142Y-46228380D01*
X101600095Y-46228380D01*
X101695333Y-46276000D01*
X101742952Y-46323619D01*
X101790571Y-46418857D01*
X101790571Y-46561714D01*
X101742952Y-46656952D01*
X101695333Y-46704571D01*
X101600095Y-46752190D01*
X101219142Y-46752190D01*
X102171523Y-46942666D02*
X102647714Y-46942666D01*
X102076285Y-47228380D02*
X102409619Y-46228380D01*
X102742952Y-47228380D01*
X103076285Y-47228380D02*
X103076285Y-46228380D01*
X103647714Y-47228380D02*
X103219142Y-46656952D01*
X103647714Y-46228380D02*
X103076285Y-46799809D01*
X104076285Y-46704571D02*
X104409619Y-46704571D01*
X104552476Y-47228380D02*
X104076285Y-47228380D01*
X104076285Y-46228380D01*
X104552476Y-46228380D01*
X116515142Y-47806380D02*
X116181809Y-47330190D01*
X115943714Y-47806380D02*
X115943714Y-46806380D01*
X116324666Y-46806380D01*
X116419904Y-46854000D01*
X116467523Y-46901619D01*
X116515142Y-46996857D01*
X116515142Y-47139714D01*
X116467523Y-47234952D01*
X116419904Y-47282571D01*
X116324666Y-47330190D01*
X115943714Y-47330190D01*
X117515142Y-47711142D02*
X117467523Y-47758761D01*
X117324666Y-47806380D01*
X117229428Y-47806380D01*
X117086571Y-47758761D01*
X116991333Y-47663523D01*
X116943714Y-47568285D01*
X116896095Y-47377809D01*
X116896095Y-47234952D01*
X116943714Y-47044476D01*
X116991333Y-46949238D01*
X117086571Y-46854000D01*
X117229428Y-46806380D01*
X117324666Y-46806380D01*
X117467523Y-46854000D01*
X117515142Y-46901619D01*
X118705619Y-47806380D02*
X118705619Y-46806380D01*
X119086571Y-46806380D01*
X119181809Y-46854000D01*
X119229428Y-46901619D01*
X119277047Y-46996857D01*
X119277047Y-47139714D01*
X119229428Y-47234952D01*
X119181809Y-47282571D01*
X119086571Y-47330190D01*
X118705619Y-47330190D01*
X119610380Y-46806380D02*
X119848476Y-47806380D01*
X120038952Y-47092095D01*
X120229428Y-47806380D01*
X120467523Y-46806380D01*
X121419904Y-47806380D02*
X121086571Y-47330190D01*
X120848476Y-47806380D02*
X120848476Y-46806380D01*
X121229428Y-46806380D01*
X121324666Y-46854000D01*
X121372285Y-46901619D01*
X121419904Y-46996857D01*
X121419904Y-47139714D01*
X121372285Y-47234952D01*
X121324666Y-47282571D01*
X121229428Y-47330190D01*
X120848476Y-47330190D01*
X190968380Y-108655619D02*
X190968380Y-108084190D01*
X191968380Y-108369904D02*
X190968380Y-108369904D01*
X190968380Y-107560380D02*
X190968380Y-107369904D01*
X191016000Y-107274666D01*
X191111238Y-107179428D01*
X191301714Y-107131809D01*
X191635047Y-107131809D01*
X191825523Y-107179428D01*
X191920761Y-107274666D01*
X191968380Y-107369904D01*
X191968380Y-107560380D01*
X191920761Y-107655619D01*
X191825523Y-107750857D01*
X191635047Y-107798476D01*
X191301714Y-107798476D01*
X191111238Y-107750857D01*
X191016000Y-107655619D01*
X190968380Y-107560380D01*
X191968380Y-105941333D02*
X190968380Y-105941333D01*
X191682666Y-105608000D01*
X190968380Y-105274666D01*
X191968380Y-105274666D01*
X191063619Y-104846095D02*
X191016000Y-104798476D01*
X190968380Y-104703238D01*
X190968380Y-104465142D01*
X191016000Y-104369904D01*
X191063619Y-104322285D01*
X191158857Y-104274666D01*
X191254095Y-104274666D01*
X191396952Y-104322285D01*
X191968380Y-104893714D01*
X191968380Y-104274666D01*
X191444571Y-103084190D02*
X191444571Y-102750857D01*
X191968380Y-102608000D02*
X191968380Y-103084190D01*
X190968380Y-103084190D01*
X190968380Y-102608000D01*
X191968380Y-102179428D02*
X190968380Y-102179428D01*
X191968380Y-101608000D01*
X190968380Y-101608000D01*
X191873142Y-100560380D02*
X191920761Y-100608000D01*
X191968380Y-100750857D01*
X191968380Y-100846095D01*
X191920761Y-100988952D01*
X191825523Y-101084190D01*
X191730285Y-101131809D01*
X191539809Y-101179428D01*
X191396952Y-101179428D01*
X191206476Y-101131809D01*
X191111238Y-101084190D01*
X191016000Y-100988952D01*
X190968380Y-100846095D01*
X190968380Y-100750857D01*
X191016000Y-100608000D01*
X191063619Y-100560380D01*
X190968380Y-99941333D02*
X190968380Y-99750857D01*
X191016000Y-99655619D01*
X191111238Y-99560380D01*
X191301714Y-99512761D01*
X191635047Y-99512761D01*
X191825523Y-99560380D01*
X191920761Y-99655619D01*
X191968380Y-99750857D01*
X191968380Y-99941333D01*
X191920761Y-100036571D01*
X191825523Y-100131809D01*
X191635047Y-100179428D01*
X191301714Y-100179428D01*
X191111238Y-100131809D01*
X191016000Y-100036571D01*
X190968380Y-99941333D01*
X191968380Y-99084190D02*
X190968380Y-99084190D01*
X190968380Y-98846095D01*
X191016000Y-98703238D01*
X191111238Y-98608000D01*
X191206476Y-98560380D01*
X191396952Y-98512761D01*
X191539809Y-98512761D01*
X191730285Y-98560380D01*
X191825523Y-98608000D01*
X191920761Y-98703238D01*
X191968380Y-98846095D01*
X191968380Y-99084190D01*
X191444571Y-98084190D02*
X191444571Y-97750857D01*
X191968380Y-97608000D02*
X191968380Y-98084190D01*
X190968380Y-98084190D01*
X190968380Y-97608000D01*
X191968380Y-96608000D02*
X191492190Y-96941333D01*
X191968380Y-97179428D02*
X190968380Y-97179428D01*
X190968380Y-96798476D01*
X191016000Y-96703238D01*
X191063619Y-96655619D01*
X191158857Y-96608000D01*
X191301714Y-96608000D01*
X191396952Y-96655619D01*
X191444571Y-96703238D01*
X191492190Y-96798476D01*
X191492190Y-97179428D01*
X191920761Y-96227047D02*
X191968380Y-96084190D01*
X191968380Y-95846095D01*
X191920761Y-95750857D01*
X191873142Y-95703238D01*
X191777904Y-95655619D01*
X191682666Y-95655619D01*
X191587428Y-95703238D01*
X191539809Y-95750857D01*
X191492190Y-95846095D01*
X191444571Y-96036571D01*
X191396952Y-96131809D01*
X191349333Y-96179428D01*
X191254095Y-96227047D01*
X191158857Y-96227047D01*
X191063619Y-96179428D01*
X191016000Y-96131809D01*
X190968380Y-96036571D01*
X190968380Y-95798476D01*
X191016000Y-95655619D01*
X126095523Y-44155142D02*
X126047904Y-44202761D01*
X125905047Y-44250380D01*
X125809809Y-44250380D01*
X125666952Y-44202761D01*
X125571714Y-44107523D01*
X125524095Y-44012285D01*
X125476476Y-43821809D01*
X125476476Y-43678952D01*
X125524095Y-43488476D01*
X125571714Y-43393238D01*
X125666952Y-43298000D01*
X125809809Y-43250380D01*
X125905047Y-43250380D01*
X126047904Y-43298000D01*
X126095523Y-43345619D01*
X126524095Y-44250380D02*
X126524095Y-43250380D01*
X126524095Y-43726571D02*
X127095523Y-43726571D01*
X127095523Y-44250380D02*
X127095523Y-43250380D01*
X127524095Y-43345619D02*
X127571714Y-43298000D01*
X127666952Y-43250380D01*
X127905047Y-43250380D01*
X128000285Y-43298000D01*
X128047904Y-43345619D01*
X128095523Y-43440857D01*
X128095523Y-43536095D01*
X128047904Y-43678952D01*
X127476476Y-44250380D01*
X128095523Y-44250380D01*
X119435523Y-75238380D02*
X119102190Y-74762190D01*
X118864095Y-75238380D02*
X118864095Y-74238380D01*
X119245047Y-74238380D01*
X119340285Y-74286000D01*
X119387904Y-74333619D01*
X119435523Y-74428857D01*
X119435523Y-74571714D01*
X119387904Y-74666952D01*
X119340285Y-74714571D01*
X119245047Y-74762190D01*
X118864095Y-74762190D01*
X122690000Y-130809904D02*
X122642380Y-130905142D01*
X122642380Y-131048000D01*
X122690000Y-131190857D01*
X122785238Y-131286095D01*
X122880476Y-131333714D01*
X123070952Y-131381333D01*
X123213809Y-131381333D01*
X123404285Y-131333714D01*
X123499523Y-131286095D01*
X123594761Y-131190857D01*
X123642380Y-131048000D01*
X123642380Y-130952761D01*
X123594761Y-130809904D01*
X123547142Y-130762285D01*
X123213809Y-130762285D01*
X123213809Y-130952761D01*
X123642380Y-130333714D02*
X122642380Y-130333714D01*
X123642380Y-129762285D01*
X122642380Y-129762285D01*
X123642380Y-129286095D02*
X122642380Y-129286095D01*
X122642380Y-129048000D01*
X122690000Y-128905142D01*
X122785238Y-128809904D01*
X122880476Y-128762285D01*
X123070952Y-128714666D01*
X123213809Y-128714666D01*
X123404285Y-128762285D01*
X123499523Y-128809904D01*
X123594761Y-128905142D01*
X123642380Y-129048000D01*
X123642380Y-129286095D01*
X150622380Y-53100190D02*
X150622380Y-52528761D01*
X151622380Y-52814476D02*
X150622380Y-52814476D01*
X151098571Y-52195428D02*
X151098571Y-51862095D01*
X151622380Y-51719238D02*
X151622380Y-52195428D01*
X150622380Y-52195428D01*
X150622380Y-51719238D01*
X151574761Y-51338285D02*
X151622380Y-51195428D01*
X151622380Y-50957333D01*
X151574761Y-50862095D01*
X151527142Y-50814476D01*
X151431904Y-50766857D01*
X151336666Y-50766857D01*
X151241428Y-50814476D01*
X151193809Y-50862095D01*
X151146190Y-50957333D01*
X151098571Y-51147809D01*
X151050952Y-51243047D01*
X151003333Y-51290666D01*
X150908095Y-51338285D01*
X150812857Y-51338285D01*
X150717619Y-51290666D01*
X150670000Y-51243047D01*
X150622380Y-51147809D01*
X150622380Y-50909714D01*
X150670000Y-50766857D01*
X150622380Y-50481142D02*
X150622380Y-49909714D01*
X151622380Y-50195428D02*
X150622380Y-50195428D01*
X151574761Y-48862095D02*
X151622380Y-48719238D01*
X151622380Y-48481142D01*
X151574761Y-48385904D01*
X151527142Y-48338285D01*
X151431904Y-48290666D01*
X151336666Y-48290666D01*
X151241428Y-48338285D01*
X151193809Y-48385904D01*
X151146190Y-48481142D01*
X151098571Y-48671619D01*
X151050952Y-48766857D01*
X151003333Y-48814476D01*
X150908095Y-48862095D01*
X150812857Y-48862095D01*
X150717619Y-48814476D01*
X150670000Y-48766857D01*
X150622380Y-48671619D01*
X150622380Y-48433523D01*
X150670000Y-48290666D01*
X151098571Y-47862095D02*
X151098571Y-47528761D01*
X151622380Y-47385904D02*
X151622380Y-47862095D01*
X150622380Y-47862095D01*
X150622380Y-47385904D01*
X151622380Y-46385904D02*
X151146190Y-46719238D01*
X151622380Y-46957333D02*
X150622380Y-46957333D01*
X150622380Y-46576380D01*
X150670000Y-46481142D01*
X150717619Y-46433523D01*
X150812857Y-46385904D01*
X150955714Y-46385904D01*
X151050952Y-46433523D01*
X151098571Y-46481142D01*
X151146190Y-46576380D01*
X151146190Y-46957333D01*
X151622380Y-45957333D02*
X150622380Y-45957333D01*
X151336666Y-45528761D02*
X151336666Y-45052571D01*
X151622380Y-45624000D02*
X150622380Y-45290666D01*
X151622380Y-44957333D01*
X151622380Y-44147809D02*
X151622380Y-44624000D01*
X150622380Y-44624000D01*
X100346000Y-44648380D02*
X100346000Y-43648380D01*
X100584095Y-43648380D01*
X100726952Y-43696000D01*
X100822190Y-43791238D01*
X100869809Y-43886476D01*
X100917428Y-44076952D01*
X100917428Y-44219809D01*
X100869809Y-44410285D01*
X100822190Y-44505523D01*
X100726952Y-44600761D01*
X100584095Y-44648380D01*
X100346000Y-44648380D01*
X101346000Y-44648380D02*
X101346000Y-43648380D01*
X102393619Y-44648380D02*
X102060285Y-44172190D01*
X101822190Y-44648380D02*
X101822190Y-43648380D01*
X102203142Y-43648380D01*
X102298380Y-43696000D01*
X102346000Y-43743619D01*
X102393619Y-43838857D01*
X102393619Y-43981714D01*
X102346000Y-44076952D01*
X102298380Y-44124571D01*
X102203142Y-44172190D01*
X101822190Y-44172190D01*
X115324666Y-59490380D02*
X114991333Y-59014190D01*
X114753238Y-59490380D02*
X114753238Y-58490380D01*
X115134190Y-58490380D01*
X115229428Y-58538000D01*
X115277047Y-58585619D01*
X115324666Y-58680857D01*
X115324666Y-58823714D01*
X115277047Y-58918952D01*
X115229428Y-58966571D01*
X115134190Y-59014190D01*
X114753238Y-59014190D01*
X116324666Y-59395142D02*
X116277047Y-59442761D01*
X116134190Y-59490380D01*
X116038952Y-59490380D01*
X115896095Y-59442761D01*
X115800857Y-59347523D01*
X115753238Y-59252285D01*
X115705619Y-59061809D01*
X115705619Y-58918952D01*
X115753238Y-58728476D01*
X115800857Y-58633238D01*
X115896095Y-58538000D01*
X116038952Y-58490380D01*
X116134190Y-58490380D01*
X116277047Y-58538000D01*
X116324666Y-58585619D01*
X117515142Y-58966571D02*
X117848476Y-58966571D01*
X117991333Y-59490380D02*
X117515142Y-59490380D01*
X117515142Y-58490380D01*
X117991333Y-58490380D01*
X118419904Y-59490380D02*
X118419904Y-58490380D01*
X118991333Y-59490380D01*
X118991333Y-58490380D01*
X119419904Y-59204666D02*
X119896095Y-59204666D01*
X119324666Y-59490380D02*
X119658000Y-58490380D01*
X119991333Y-59490380D01*
X120658000Y-58966571D02*
X120800857Y-59014190D01*
X120848476Y-59061809D01*
X120896095Y-59157047D01*
X120896095Y-59299904D01*
X120848476Y-59395142D01*
X120800857Y-59442761D01*
X120705619Y-59490380D01*
X120324666Y-59490380D01*
X120324666Y-58490380D01*
X120658000Y-58490380D01*
X120753238Y-58538000D01*
X120800857Y-58585619D01*
X120848476Y-58680857D01*
X120848476Y-58776095D01*
X120800857Y-58871333D01*
X120753238Y-58918952D01*
X120658000Y-58966571D01*
X120324666Y-58966571D01*
X121800857Y-59490380D02*
X121324666Y-59490380D01*
X121324666Y-58490380D01*
X122134190Y-58966571D02*
X122467523Y-58966571D01*
X122610380Y-59490380D02*
X122134190Y-59490380D01*
X122134190Y-58490380D01*
X122610380Y-58490380D01*
X164576380Y-49346190D02*
X163576380Y-49346190D01*
X163671619Y-48917619D02*
X163624000Y-48870000D01*
X163576380Y-48774761D01*
X163576380Y-48536666D01*
X163624000Y-48441428D01*
X163671619Y-48393809D01*
X163766857Y-48346190D01*
X163862095Y-48346190D01*
X164004952Y-48393809D01*
X164576380Y-48965238D01*
X164576380Y-48346190D01*
X164481142Y-47346190D02*
X164528761Y-47393809D01*
X164576380Y-47536666D01*
X164576380Y-47631904D01*
X164528761Y-47774761D01*
X164433523Y-47870000D01*
X164338285Y-47917619D01*
X164147809Y-47965238D01*
X164004952Y-47965238D01*
X163814476Y-47917619D01*
X163719238Y-47870000D01*
X163624000Y-47774761D01*
X163576380Y-47631904D01*
X163576380Y-47536666D01*
X163624000Y-47393809D01*
X163671619Y-47346190D01*
X100171523Y-49680761D02*
X100314380Y-49728380D01*
X100552476Y-49728380D01*
X100647714Y-49680761D01*
X100695333Y-49633142D01*
X100742952Y-49537904D01*
X100742952Y-49442666D01*
X100695333Y-49347428D01*
X100647714Y-49299809D01*
X100552476Y-49252190D01*
X100362000Y-49204571D01*
X100266761Y-49156952D01*
X100219142Y-49109333D01*
X100171523Y-49014095D01*
X100171523Y-48918857D01*
X100219142Y-48823619D01*
X100266761Y-48776000D01*
X100362000Y-48728380D01*
X100600095Y-48728380D01*
X100742952Y-48776000D01*
X101171523Y-49728380D02*
X101171523Y-48728380D01*
X101552476Y-48728380D01*
X101647714Y-48776000D01*
X101695333Y-48823619D01*
X101742952Y-48918857D01*
X101742952Y-49061714D01*
X101695333Y-49156952D01*
X101647714Y-49204571D01*
X101552476Y-49252190D01*
X101171523Y-49252190D01*
X102171523Y-49204571D02*
X102504857Y-49204571D01*
X102647714Y-49728380D02*
X102171523Y-49728380D01*
X102171523Y-48728380D01*
X102647714Y-48728380D01*
X103076285Y-49204571D02*
X103409619Y-49204571D01*
X103552476Y-49728380D02*
X103076285Y-49728380D01*
X103076285Y-48728380D01*
X103552476Y-48728380D01*
X103981047Y-49728380D02*
X103981047Y-48728380D01*
X104219142Y-48728380D01*
X104362000Y-48776000D01*
X104457238Y-48871238D01*
X104504857Y-48966476D01*
X104552476Y-49156952D01*
X104552476Y-49299809D01*
X104504857Y-49490285D01*
X104457238Y-49585523D01*
X104362000Y-49680761D01*
X104219142Y-49728380D01*
X103981047Y-49728380D01*
X90733619Y-42236000D02*
X91733619Y-42236000D01*
X91019333Y-42569333D01*
X91733619Y-42902666D01*
X90733619Y-42902666D01*
X90733619Y-43902666D02*
X90733619Y-43331238D01*
X90733619Y-43616952D02*
X91733619Y-43616952D01*
X91590761Y-43521714D01*
X91495523Y-43426476D01*
X91447904Y-43331238D01*
X91733619Y-45283619D02*
X91733619Y-45474095D01*
X91686000Y-45569333D01*
X91590761Y-45664571D01*
X91400285Y-45712190D01*
X91066952Y-45712190D01*
X90876476Y-45664571D01*
X90781238Y-45569333D01*
X90733619Y-45474095D01*
X90733619Y-45283619D01*
X90781238Y-45188380D01*
X90876476Y-45093142D01*
X91066952Y-45045523D01*
X91400285Y-45045523D01*
X91590761Y-45093142D01*
X91686000Y-45188380D01*
X91733619Y-45283619D01*
X91733619Y-46140761D02*
X90924095Y-46140761D01*
X90828857Y-46188380D01*
X90781238Y-46236000D01*
X90733619Y-46331238D01*
X90733619Y-46521714D01*
X90781238Y-46616952D01*
X90828857Y-46664571D01*
X90924095Y-46712190D01*
X91733619Y-46712190D01*
X91733619Y-47045523D02*
X91733619Y-47616952D01*
X90733619Y-47331238D02*
X91733619Y-47331238D01*
X90733619Y-47950285D02*
X91733619Y-47950285D01*
X91733619Y-48331238D01*
X91686000Y-48426476D01*
X91638380Y-48474095D01*
X91543142Y-48521714D01*
X91400285Y-48521714D01*
X91305047Y-48474095D01*
X91257428Y-48426476D01*
X91209809Y-48331238D01*
X91209809Y-47950285D01*
X91733619Y-48950285D02*
X90924095Y-48950285D01*
X90828857Y-48997904D01*
X90781238Y-49045523D01*
X90733619Y-49140761D01*
X90733619Y-49331238D01*
X90781238Y-49426476D01*
X90828857Y-49474095D01*
X90924095Y-49521714D01*
X91733619Y-49521714D01*
X91733619Y-49855047D02*
X91733619Y-50426476D01*
X90733619Y-50140761D02*
X91733619Y-50140761D01*
X90781238Y-50712190D02*
X90733619Y-50855047D01*
X90733619Y-51093142D01*
X90781238Y-51188380D01*
X90828857Y-51236000D01*
X90924095Y-51283619D01*
X91019333Y-51283619D01*
X91114571Y-51236000D01*
X91162190Y-51188380D01*
X91209809Y-51093142D01*
X91257428Y-50902666D01*
X91305047Y-50807428D01*
X91352666Y-50759809D01*
X91447904Y-50712190D01*
X91543142Y-50712190D01*
X91638380Y-50759809D01*
X91686000Y-50807428D01*
X91733619Y-50902666D01*
X91733619Y-51140761D01*
X91686000Y-51283619D01*
X192864523Y-44814761D02*
X193007380Y-44862380D01*
X193245476Y-44862380D01*
X193340714Y-44814761D01*
X193388333Y-44767142D01*
X193435952Y-44671904D01*
X193435952Y-44576666D01*
X193388333Y-44481428D01*
X193340714Y-44433809D01*
X193245476Y-44386190D01*
X193055000Y-44338571D01*
X192959761Y-44290952D01*
X192912142Y-44243333D01*
X192864523Y-44148095D01*
X192864523Y-44052857D01*
X192912142Y-43957619D01*
X192959761Y-43910000D01*
X193055000Y-43862380D01*
X193293095Y-43862380D01*
X193435952Y-43910000D01*
X193864523Y-44862380D02*
X193864523Y-43862380D01*
X194245476Y-43862380D01*
X194340714Y-43910000D01*
X194388333Y-43957619D01*
X194435952Y-44052857D01*
X194435952Y-44195714D01*
X194388333Y-44290952D01*
X194340714Y-44338571D01*
X194245476Y-44386190D01*
X193864523Y-44386190D01*
X194864523Y-44338571D02*
X195197857Y-44338571D01*
X195340714Y-44862380D02*
X194864523Y-44862380D01*
X194864523Y-43862380D01*
X195340714Y-43862380D01*
X195769285Y-44338571D02*
X196102619Y-44338571D01*
X196245476Y-44862380D02*
X195769285Y-44862380D01*
X195769285Y-43862380D01*
X196245476Y-43862380D01*
X196674047Y-44862380D02*
X196674047Y-43862380D01*
X196912142Y-43862380D01*
X197055000Y-43910000D01*
X197150238Y-44005238D01*
X197197857Y-44100476D01*
X197245476Y-44290952D01*
X197245476Y-44433809D01*
X197197857Y-44624285D01*
X197150238Y-44719523D01*
X197055000Y-44814761D01*
X196912142Y-44862380D01*
X196674047Y-44862380D01*
X132802380Y-130746476D02*
X132802380Y-131222666D01*
X133278571Y-131270285D01*
X133230952Y-131222666D01*
X133183333Y-131127428D01*
X133183333Y-130889333D01*
X133230952Y-130794095D01*
X133278571Y-130746476D01*
X133373809Y-130698857D01*
X133611904Y-130698857D01*
X133707142Y-130746476D01*
X133754761Y-130794095D01*
X133802380Y-130889333D01*
X133802380Y-131127428D01*
X133754761Y-131222666D01*
X133707142Y-131270285D01*
X132802380Y-130413142D02*
X133802380Y-130079809D01*
X132802380Y-129746476D01*
X171610928Y-40779571D02*
X171753785Y-40827190D01*
X171801404Y-40874809D01*
X171849023Y-40970047D01*
X171849023Y-41112904D01*
X171801404Y-41208142D01*
X171753785Y-41255761D01*
X171658547Y-41303380D01*
X171277595Y-41303380D01*
X171277595Y-40303380D01*
X171610928Y-40303380D01*
X171706166Y-40351000D01*
X171753785Y-40398619D01*
X171801404Y-40493857D01*
X171801404Y-40589095D01*
X171753785Y-40684333D01*
X171706166Y-40731952D01*
X171610928Y-40779571D01*
X171277595Y-40779571D01*
X172753785Y-41303380D02*
X172277595Y-41303380D01*
X172277595Y-40303380D01*
X173087119Y-41303380D02*
X173087119Y-40303380D01*
X173325214Y-40303380D01*
X173468071Y-40351000D01*
X173563309Y-40446238D01*
X173610928Y-40541476D01*
X173658547Y-40731952D01*
X173658547Y-40874809D01*
X173610928Y-41065285D01*
X173563309Y-41160523D01*
X173468071Y-41255761D01*
X173325214Y-41303380D01*
X173087119Y-41303380D01*
X174658547Y-41208142D02*
X174610928Y-41255761D01*
X174468071Y-41303380D01*
X174372833Y-41303380D01*
X174229976Y-41255761D01*
X174134738Y-41160523D01*
X174087119Y-41065285D01*
X174039500Y-40874809D01*
X174039500Y-40731952D01*
X174087119Y-40541476D01*
X174134738Y-40446238D01*
X174229976Y-40351000D01*
X174372833Y-40303380D01*
X174468071Y-40303380D01*
X174610928Y-40351000D01*
X174658547Y-40398619D01*
X175849023Y-41303380D02*
X175849023Y-40303380D01*
X176182357Y-41017666D01*
X176515690Y-40303380D01*
X176515690Y-41303380D01*
X177182357Y-40303380D02*
X177372833Y-40303380D01*
X177468071Y-40351000D01*
X177563309Y-40446238D01*
X177610928Y-40636714D01*
X177610928Y-40970047D01*
X177563309Y-41160523D01*
X177468071Y-41255761D01*
X177372833Y-41303380D01*
X177182357Y-41303380D01*
X177087119Y-41255761D01*
X176991880Y-41160523D01*
X176944261Y-40970047D01*
X176944261Y-40636714D01*
X176991880Y-40446238D01*
X177087119Y-40351000D01*
X177182357Y-40303380D01*
X177896642Y-40303380D02*
X178468071Y-40303380D01*
X178182357Y-41303380D02*
X178182357Y-40303380D01*
X178991880Y-40303380D02*
X179182357Y-40303380D01*
X179277595Y-40351000D01*
X179372833Y-40446238D01*
X179420452Y-40636714D01*
X179420452Y-40970047D01*
X179372833Y-41160523D01*
X179277595Y-41255761D01*
X179182357Y-41303380D01*
X178991880Y-41303380D01*
X178896642Y-41255761D01*
X178801404Y-41160523D01*
X178753785Y-40970047D01*
X178753785Y-40636714D01*
X178801404Y-40446238D01*
X178896642Y-40351000D01*
X178991880Y-40303380D01*
X180420452Y-41303380D02*
X180087119Y-40827190D01*
X179849023Y-41303380D02*
X179849023Y-40303380D01*
X180229976Y-40303380D01*
X180325214Y-40351000D01*
X180372833Y-40398619D01*
X180420452Y-40493857D01*
X180420452Y-40636714D01*
X180372833Y-40731952D01*
X180325214Y-40779571D01*
X180229976Y-40827190D01*
X179849023Y-40827190D01*
X182182357Y-41208142D02*
X182134738Y-41255761D01*
X181991880Y-41303380D01*
X181896642Y-41303380D01*
X181753785Y-41255761D01*
X181658547Y-41160523D01*
X181610928Y-41065285D01*
X181563309Y-40874809D01*
X181563309Y-40731952D01*
X181610928Y-40541476D01*
X181658547Y-40446238D01*
X181753785Y-40351000D01*
X181896642Y-40303380D01*
X181991880Y-40303380D01*
X182134738Y-40351000D01*
X182182357Y-40398619D01*
X182801404Y-40303380D02*
X182991880Y-40303380D01*
X183087119Y-40351000D01*
X183182357Y-40446238D01*
X183229976Y-40636714D01*
X183229976Y-40970047D01*
X183182357Y-41160523D01*
X183087119Y-41255761D01*
X182991880Y-41303380D01*
X182801404Y-41303380D01*
X182706166Y-41255761D01*
X182610928Y-41160523D01*
X182563309Y-40970047D01*
X182563309Y-40636714D01*
X182610928Y-40446238D01*
X182706166Y-40351000D01*
X182801404Y-40303380D01*
X183658547Y-41303380D02*
X183658547Y-40303380D01*
X184229976Y-41303380D01*
X184229976Y-40303380D01*
X184563309Y-40303380D02*
X185134738Y-40303380D01*
X184849023Y-41303380D02*
X184849023Y-40303380D01*
X186039500Y-41303380D02*
X185706166Y-40827190D01*
X185468071Y-41303380D02*
X185468071Y-40303380D01*
X185849023Y-40303380D01*
X185944261Y-40351000D01*
X185991880Y-40398619D01*
X186039500Y-40493857D01*
X186039500Y-40636714D01*
X185991880Y-40731952D01*
X185944261Y-40779571D01*
X185849023Y-40827190D01*
X185468071Y-40827190D01*
X186658547Y-40303380D02*
X186849023Y-40303380D01*
X186944261Y-40351000D01*
X187039500Y-40446238D01*
X187087119Y-40636714D01*
X187087119Y-40970047D01*
X187039500Y-41160523D01*
X186944261Y-41255761D01*
X186849023Y-41303380D01*
X186658547Y-41303380D01*
X186563309Y-41255761D01*
X186468071Y-41160523D01*
X186420452Y-40970047D01*
X186420452Y-40636714D01*
X186468071Y-40446238D01*
X186563309Y-40351000D01*
X186658547Y-40303380D01*
X187991880Y-41303380D02*
X187515690Y-41303380D01*
X187515690Y-40303380D01*
X188801404Y-41303380D02*
X188325214Y-41303380D01*
X188325214Y-40303380D01*
X189134738Y-40779571D02*
X189468071Y-40779571D01*
X189610928Y-41303380D02*
X189134738Y-41303380D01*
X189134738Y-40303380D01*
X189610928Y-40303380D01*
X190610928Y-41303380D02*
X190277595Y-40827190D01*
X190039500Y-41303380D02*
X190039500Y-40303380D01*
X190420452Y-40303380D01*
X190515690Y-40351000D01*
X190563309Y-40398619D01*
X190610928Y-40493857D01*
X190610928Y-40636714D01*
X190563309Y-40731952D01*
X190515690Y-40779571D01*
X190420452Y-40827190D01*
X190039500Y-40827190D01*
X171849023Y-42913380D02*
X171515690Y-42437190D01*
X171277595Y-42913380D02*
X171277595Y-41913380D01*
X171658547Y-41913380D01*
X171753785Y-41961000D01*
X171801404Y-42008619D01*
X171849023Y-42103857D01*
X171849023Y-42246714D01*
X171801404Y-42341952D01*
X171753785Y-42389571D01*
X171658547Y-42437190D01*
X171277595Y-42437190D01*
X172277595Y-42389571D02*
X172610928Y-42389571D01*
X172753785Y-42913380D02*
X172277595Y-42913380D01*
X172277595Y-41913380D01*
X172753785Y-41913380D01*
X173039500Y-41913380D02*
X173372833Y-42913380D01*
X173706166Y-41913380D01*
X175325214Y-42913380D02*
X174753785Y-42913380D01*
X175039500Y-42913380D02*
X175039500Y-41913380D01*
X174944261Y-42056238D01*
X174849023Y-42151476D01*
X174753785Y-42199095D01*
X175753785Y-42818142D02*
X175801404Y-42865761D01*
X175753785Y-42913380D01*
X175706166Y-42865761D01*
X175753785Y-42818142D01*
X175753785Y-42913380D01*
X176182357Y-42008619D02*
X176229976Y-41961000D01*
X176325214Y-41913380D01*
X176563309Y-41913380D01*
X176658547Y-41961000D01*
X176706166Y-42008619D01*
X176753785Y-42103857D01*
X176753785Y-42199095D01*
X176706166Y-42341952D01*
X176134738Y-42913380D01*
X176753785Y-42913380D01*
X151646000Y-131063904D02*
X151598380Y-131159142D01*
X151598380Y-131302000D01*
X151646000Y-131444857D01*
X151741238Y-131540095D01*
X151836476Y-131587714D01*
X152026952Y-131635333D01*
X152169809Y-131635333D01*
X152360285Y-131587714D01*
X152455523Y-131540095D01*
X152550761Y-131444857D01*
X152598380Y-131302000D01*
X152598380Y-131206761D01*
X152550761Y-131063904D01*
X152503142Y-131016285D01*
X152169809Y-131016285D01*
X152169809Y-131206761D01*
X152598380Y-130587714D02*
X151598380Y-130587714D01*
X152598380Y-130016285D01*
X151598380Y-130016285D01*
X152598380Y-129540095D02*
X151598380Y-129540095D01*
X151598380Y-129302000D01*
X151646000Y-129159142D01*
X151741238Y-129063904D01*
X151836476Y-129016285D01*
X152026952Y-128968666D01*
X152169809Y-128968666D01*
X152360285Y-129016285D01*
X152455523Y-129063904D01*
X152550761Y-129159142D01*
X152598380Y-129302000D01*
X152598380Y-129540095D01*
X127762380Y-131420952D02*
X128762380Y-131087619D01*
X127762380Y-130754285D01*
X129143333Y-129373333D02*
X129095714Y-129420952D01*
X128952857Y-129516190D01*
X128857619Y-129563809D01*
X128714761Y-129611428D01*
X128476666Y-129659047D01*
X128286190Y-129659047D01*
X128048095Y-129611428D01*
X127905238Y-129563809D01*
X127810000Y-129516190D01*
X127667142Y-129420952D01*
X127619523Y-129373333D01*
X128238571Y-128659047D02*
X128286190Y-128516190D01*
X128333809Y-128468571D01*
X128429047Y-128420952D01*
X128571904Y-128420952D01*
X128667142Y-128468571D01*
X128714761Y-128516190D01*
X128762380Y-128611428D01*
X128762380Y-128992380D01*
X127762380Y-128992380D01*
X127762380Y-128659047D01*
X127810000Y-128563809D01*
X127857619Y-128516190D01*
X127952857Y-128468571D01*
X128048095Y-128468571D01*
X128143333Y-128516190D01*
X128190952Y-128563809D01*
X128238571Y-128659047D01*
X128238571Y-128992380D01*
X129143333Y-128087619D02*
X129095714Y-128040000D01*
X128952857Y-127944761D01*
X128857619Y-127897142D01*
X128714761Y-127849523D01*
X128476666Y-127801904D01*
X128286190Y-127801904D01*
X128048095Y-127849523D01*
X127905238Y-127897142D01*
X127810000Y-127944761D01*
X127667142Y-128040000D01*
X127619523Y-128087619D01*
X183888095Y-48204380D02*
X183888095Y-47204380D01*
X184126190Y-47204380D01*
X184269047Y-47252000D01*
X184364285Y-47347238D01*
X184411904Y-47442476D01*
X184459523Y-47632952D01*
X184459523Y-47775809D01*
X184411904Y-47966285D01*
X184364285Y-48061523D01*
X184269047Y-48156761D01*
X184126190Y-48204380D01*
X183888095Y-48204380D01*
X193245476Y-46838571D02*
X193388333Y-46886190D01*
X193435952Y-46933809D01*
X193483571Y-47029047D01*
X193483571Y-47171904D01*
X193435952Y-47267142D01*
X193388333Y-47314761D01*
X193293095Y-47362380D01*
X192912142Y-47362380D01*
X192912142Y-46362380D01*
X193245476Y-46362380D01*
X193340714Y-46410000D01*
X193388333Y-46457619D01*
X193435952Y-46552857D01*
X193435952Y-46648095D01*
X193388333Y-46743333D01*
X193340714Y-46790952D01*
X193245476Y-46838571D01*
X192912142Y-46838571D01*
X194483571Y-47362380D02*
X194150238Y-46886190D01*
X193912142Y-47362380D02*
X193912142Y-46362380D01*
X194293095Y-46362380D01*
X194388333Y-46410000D01*
X194435952Y-46457619D01*
X194483571Y-46552857D01*
X194483571Y-46695714D01*
X194435952Y-46790952D01*
X194388333Y-46838571D01*
X194293095Y-46886190D01*
X193912142Y-46886190D01*
X194864523Y-47076666D02*
X195340714Y-47076666D01*
X194769285Y-47362380D02*
X195102619Y-46362380D01*
X195435952Y-47362380D01*
X195769285Y-47362380D02*
X195769285Y-46362380D01*
X196340714Y-47362380D02*
X195912142Y-46790952D01*
X196340714Y-46362380D02*
X195769285Y-46933809D01*
X196769285Y-46838571D02*
X197102619Y-46838571D01*
X197245476Y-47362380D02*
X196769285Y-47362380D01*
X196769285Y-46362380D01*
X197245476Y-46362380D01*
X150938666Y-88029333D02*
X150238666Y-88029333D01*
X150738666Y-87796000D01*
X150238666Y-87562666D01*
X150938666Y-87562666D01*
X150938666Y-87229333D02*
X150238666Y-87229333D01*
X150938666Y-86896000D02*
X150238666Y-86896000D01*
X150738666Y-86662666D01*
X150238666Y-86429333D01*
X150938666Y-86429333D01*
X150238666Y-86162666D02*
X150938666Y-85696000D01*
X150238666Y-85696000D02*
X150938666Y-86162666D01*
X150938666Y-85029333D02*
X150605333Y-85262666D01*
X150938666Y-85429333D02*
X150238666Y-85429333D01*
X150238666Y-85162666D01*
X150272000Y-85096000D01*
X150305333Y-85062666D01*
X150372000Y-85029333D01*
X150472000Y-85029333D01*
X150538666Y-85062666D01*
X150572000Y-85096000D01*
X150605333Y-85162666D01*
X150605333Y-85429333D01*
X150238666Y-84829333D02*
X150238666Y-84429333D01*
X150938666Y-84629333D02*
X150238666Y-84629333D01*
X150938666Y-83829333D02*
X150938666Y-84229333D01*
X150938666Y-84029333D02*
X150238666Y-84029333D01*
X150338666Y-84096000D01*
X150405333Y-84162666D01*
X150438666Y-84229333D01*
X150238666Y-83396000D02*
X150238666Y-83329333D01*
X150272000Y-83262666D01*
X150305333Y-83229333D01*
X150372000Y-83196000D01*
X150505333Y-83162666D01*
X150672000Y-83162666D01*
X150805333Y-83196000D01*
X150872000Y-83229333D01*
X150905333Y-83262666D01*
X150938666Y-83329333D01*
X150938666Y-83396000D01*
X150905333Y-83462666D01*
X150872000Y-83496000D01*
X150805333Y-83529333D01*
X150672000Y-83562666D01*
X150505333Y-83562666D01*
X150372000Y-83529333D01*
X150305333Y-83496000D01*
X150272000Y-83462666D01*
X150238666Y-83396000D01*
X150238666Y-82562666D02*
X150238666Y-82696000D01*
X150272000Y-82762666D01*
X150305333Y-82796000D01*
X150405333Y-82862666D01*
X150538666Y-82896000D01*
X150805333Y-82896000D01*
X150872000Y-82862666D01*
X150905333Y-82829333D01*
X150938666Y-82762666D01*
X150938666Y-82629333D01*
X150905333Y-82562666D01*
X150872000Y-82529333D01*
X150805333Y-82496000D01*
X150638666Y-82496000D01*
X150572000Y-82529333D01*
X150538666Y-82562666D01*
X150505333Y-82629333D01*
X150505333Y-82762666D01*
X150538666Y-82829333D01*
X150572000Y-82862666D01*
X150638666Y-82896000D01*
X150305333Y-82229333D02*
X150272000Y-82196000D01*
X150238666Y-82129333D01*
X150238666Y-81962666D01*
X150272000Y-81896000D01*
X150305333Y-81862666D01*
X150372000Y-81829333D01*
X150438666Y-81829333D01*
X150538666Y-81862666D01*
X150938666Y-82262666D01*
X150938666Y-81829333D01*
X152462666Y-86346000D02*
X151762666Y-86346000D01*
X151762666Y-86179333D01*
X151796000Y-86079333D01*
X151862666Y-86012666D01*
X151929333Y-85979333D01*
X152062666Y-85946000D01*
X152162666Y-85946000D01*
X152296000Y-85979333D01*
X152362666Y-86012666D01*
X152429333Y-86079333D01*
X152462666Y-86179333D01*
X152462666Y-86346000D01*
X151762666Y-85746000D02*
X152462666Y-85512666D01*
X151762666Y-85279333D01*
X152462666Y-84712666D02*
X152462666Y-85046000D01*
X151762666Y-85046000D01*
X151762666Y-84179333D02*
X151762666Y-84312666D01*
X151796000Y-84379333D01*
X151829333Y-84412666D01*
X151929333Y-84479333D01*
X152062666Y-84512666D01*
X152329333Y-84512666D01*
X152396000Y-84479333D01*
X152429333Y-84446000D01*
X152462666Y-84379333D01*
X152462666Y-84246000D01*
X152429333Y-84179333D01*
X152396000Y-84146000D01*
X152329333Y-84112666D01*
X152162666Y-84112666D01*
X152096000Y-84146000D01*
X152062666Y-84179333D01*
X152029333Y-84246000D01*
X152029333Y-84379333D01*
X152062666Y-84446000D01*
X152096000Y-84479333D01*
X152162666Y-84512666D01*
X152262666Y-83846000D02*
X152262666Y-83512666D01*
X152462666Y-83912666D02*
X151762666Y-83679333D01*
X152462666Y-83446000D01*
D11*
X185360000Y-81474000D02*
X186690000Y-81474000D01*
X185360000Y-84074000D02*
X188020000Y-84074000D01*
X185360000Y-84134000D02*
X188020000Y-84134000D01*
X188020000Y-84074000D02*
X188020000Y-84134000D01*
X185360000Y-84074000D02*
X185360000Y-84134000D01*
X185360000Y-82804000D02*
X185360000Y-81474000D01*
X110176000Y-134052000D02*
X111506000Y-134052000D01*
X110176000Y-136652000D02*
X112836000Y-136652000D01*
X110176000Y-136712000D02*
X112836000Y-136712000D01*
X112836000Y-136652000D02*
X112836000Y-136712000D01*
X110176000Y-136652000D02*
X110176000Y-136712000D01*
X110176000Y-135382000D02*
X110176000Y-134052000D01*
D10*
X132588000Y-76056000D02*
X168148000Y-76056000D01*
X132588000Y-93836000D02*
X132588000Y-76056000D01*
X168148000Y-76056000D02*
X168148000Y-93836000D01*
X160528000Y-86216000D02*
X160528000Y-83676000D01*
X154813000Y-90026000D02*
X144653000Y-90026000D01*
X154813000Y-79866000D02*
X144653000Y-79866000D01*
X157988000Y-83041000D02*
X155448000Y-83041000D01*
X154813000Y-90026000D02*
X154813000Y-79866000D01*
X144653000Y-79866000D02*
X144653000Y-90026000D01*
X157988000Y-79866000D02*
X157988000Y-83041000D01*
X160528000Y-83676000D02*
X165100000Y-83676000D01*
X165100000Y-83676000D02*
X165100000Y-86216000D01*
X132588000Y-88756000D02*
X131318000Y-88756000D01*
X155448000Y-83041000D02*
X155448000Y-79866000D01*
X165100000Y-86216000D02*
X160528000Y-86216000D01*
X137668000Y-88756000D02*
X132588000Y-88756000D01*
X137668000Y-81136000D02*
X132588000Y-81136000D01*
X131318000Y-81136000D02*
X132588000Y-81136000D01*
X137668000Y-88756000D02*
X137668000Y-81136000D01*
X131318000Y-88756000D02*
X131318000Y-81136000D01*
X168148000Y-93836000D02*
X132588000Y-93836000D01*
X155448000Y-79866000D02*
X157988000Y-79866000D01*
G36*
X148463000Y-85454000D02*
G01*
X148209000Y-85708000D01*
X147955000Y-85327000D01*
X148209000Y-85073000D01*
X148463000Y-85454000D01*
G37*
D12*
X148463000Y-85454000D02*
X148209000Y-85708000D01*
X147955000Y-85327000D01*
X148209000Y-85073000D01*
X148463000Y-85454000D01*
G36*
X146939000Y-85200000D02*
G01*
X146685000Y-85454000D01*
X146431000Y-85073000D01*
X146685000Y-84819000D01*
X146939000Y-85200000D01*
G37*
X146939000Y-85200000D02*
X146685000Y-85454000D01*
X146431000Y-85073000D01*
X146685000Y-84819000D01*
X146939000Y-85200000D01*
G36*
X149225000Y-85581000D02*
G01*
X148971000Y-85835000D01*
X148717000Y-85454000D01*
X148971000Y-85200000D01*
X149225000Y-85581000D01*
G37*
X149225000Y-85581000D02*
X148971000Y-85835000D01*
X148717000Y-85454000D01*
X148971000Y-85200000D01*
X149225000Y-85581000D01*
G36*
X148463000Y-84565000D02*
G01*
X148209000Y-84819000D01*
X147955000Y-84438000D01*
X148209000Y-84184000D01*
X148463000Y-84565000D01*
G37*
X148463000Y-84565000D02*
X148209000Y-84819000D01*
X147955000Y-84438000D01*
X148209000Y-84184000D01*
X148463000Y-84565000D01*
G36*
X148082000Y-84946000D02*
G01*
X147828000Y-85200000D01*
X147574000Y-84819000D01*
X147828000Y-84565000D01*
X148082000Y-84946000D01*
G37*
X148082000Y-84946000D02*
X147828000Y-85200000D01*
X147574000Y-84819000D01*
X147828000Y-84565000D01*
X148082000Y-84946000D01*
G36*
X147701000Y-84438000D02*
G01*
X147447000Y-84692000D01*
X147193000Y-84311000D01*
X147447000Y-84057000D01*
X147701000Y-84438000D01*
G37*
X147701000Y-84438000D02*
X147447000Y-84692000D01*
X147193000Y-84311000D01*
X147447000Y-84057000D01*
X147701000Y-84438000D01*
G36*
X147320000Y-84819000D02*
G01*
X147066000Y-85073000D01*
X146812000Y-84692000D01*
X147066000Y-84438000D01*
X147320000Y-84819000D01*
G37*
X147320000Y-84819000D02*
X147066000Y-85073000D01*
X146812000Y-84692000D01*
X147066000Y-84438000D01*
X147320000Y-84819000D01*
G36*
X148844000Y-85073000D02*
G01*
X148590000Y-85327000D01*
X148336000Y-84946000D01*
X148590000Y-84692000D01*
X148844000Y-85073000D01*
G37*
X148844000Y-85073000D02*
X148590000Y-85327000D01*
X148336000Y-84946000D01*
X148590000Y-84692000D01*
X148844000Y-85073000D01*
D11*
X124060000Y-138738000D02*
X132560000Y-138738000D01*
X122560000Y-138738000D02*
X122560000Y-137988000D01*
X135860000Y-138738000D02*
X135860000Y-137988000D01*
X135860000Y-137988000D02*
X134060000Y-137988000D01*
X132560000Y-137988000D02*
X124060000Y-137988000D01*
X134060000Y-138738000D02*
X135860000Y-138738000D01*
X120760000Y-138738000D02*
X122560000Y-138738000D01*
X120760000Y-137988000D02*
X120760000Y-138738000D01*
X136160000Y-139038000D02*
X136160000Y-137788000D01*
X135870000Y-138748000D02*
X135870000Y-132778000D01*
X135870000Y-132778000D02*
X120750000Y-132778000D01*
X134060000Y-137988000D02*
X134060000Y-138738000D01*
X121510000Y-133538000D02*
X128310000Y-133538000D01*
X120750000Y-132778000D02*
X120750000Y-138748000D01*
X135110000Y-136488000D02*
X135110000Y-133538000D01*
X135860000Y-136488000D02*
X135110000Y-136488000D01*
X121510000Y-136488000D02*
X121510000Y-133538000D01*
X132560000Y-138738000D02*
X132560000Y-137988000D01*
X134910000Y-139038000D02*
X136160000Y-139038000D01*
X122560000Y-137988000D02*
X120760000Y-137988000D01*
X135110000Y-133538000D02*
X128310000Y-133538000D01*
X124060000Y-137988000D02*
X124060000Y-138738000D01*
X120750000Y-138748000D02*
X135870000Y-138748000D01*
X120760000Y-136488000D02*
X121510000Y-136488000D01*
X169470000Y-135596000D02*
X169470000Y-138436000D01*
X174200000Y-137016000D02*
X173510000Y-137016000D01*
X169470000Y-138436000D02*
X173510000Y-138436000D01*
X173510000Y-138436000D02*
X173510000Y-135596000D01*
X168780000Y-137016000D02*
X169470000Y-137016000D01*
X173510000Y-135596000D02*
X169470000Y-135596000D01*
X137450000Y-46142000D02*
X137450000Y-50442000D01*
X133000000Y-53692000D02*
X132250000Y-53692000D01*
X132250000Y-55492000D02*
X133000000Y-55492000D01*
X134500000Y-45392000D02*
X134500000Y-46142000D01*
X132240000Y-45382000D02*
X132240000Y-55502000D01*
X132250000Y-48692000D02*
X132250000Y-52192000D01*
X133000000Y-47192000D02*
X133000000Y-45392000D01*
X133000000Y-52192000D02*
X133000000Y-48692000D01*
X132250000Y-52192000D02*
X133000000Y-52192000D01*
X133000000Y-55492000D02*
X133000000Y-53692000D01*
X138210000Y-45382000D02*
X132240000Y-45382000D01*
X131950000Y-55792000D02*
X133200000Y-55792000D01*
X133000000Y-48692000D02*
X132250000Y-48692000D01*
X138210000Y-55502000D02*
X138210000Y-45382000D01*
X132250000Y-47192000D02*
X133000000Y-47192000D01*
X133000000Y-45392000D02*
X132250000Y-45392000D01*
X134500000Y-54742000D02*
X137450000Y-54742000D01*
X134500000Y-55492000D02*
X134500000Y-54742000D01*
X132250000Y-45392000D02*
X132250000Y-47192000D01*
X134500000Y-46142000D02*
X137450000Y-46142000D01*
X132250000Y-53692000D02*
X132250000Y-55492000D01*
X132240000Y-55502000D02*
X138210000Y-55502000D01*
X131950000Y-54542000D02*
X131950000Y-55792000D01*
X137450000Y-54742000D02*
X137450000Y-50442000D01*
X181810000Y-51298000D02*
X181810000Y-52048000D01*
X181810000Y-58898000D02*
X181810000Y-58148000D01*
X184060000Y-54598000D02*
X183310000Y-54598000D01*
X178860000Y-58148000D02*
X178860000Y-55098000D01*
X181810000Y-52048000D02*
X178860000Y-52048000D01*
X184360000Y-50998000D02*
X183110000Y-50998000D01*
X184070000Y-51288000D02*
X178100000Y-51288000D01*
X184360000Y-52248000D02*
X184360000Y-50998000D01*
X184060000Y-58898000D02*
X184060000Y-57098000D01*
X181810000Y-58148000D02*
X178860000Y-58148000D01*
X183310000Y-55598000D02*
X184060000Y-55598000D01*
X184070000Y-58908000D02*
X184070000Y-51288000D01*
X178100000Y-58908000D02*
X184070000Y-58908000D01*
X183310000Y-51298000D02*
X183310000Y-53098000D01*
X178100000Y-51288000D02*
X178100000Y-58908000D01*
X178860000Y-52048000D02*
X178860000Y-55098000D01*
X183310000Y-57098000D02*
X183310000Y-58898000D01*
X183310000Y-53098000D02*
X184060000Y-53098000D01*
X183310000Y-54598000D02*
X183310000Y-55598000D01*
X184060000Y-57098000D02*
X183310000Y-57098000D01*
X184060000Y-51298000D02*
X183310000Y-51298000D01*
X183310000Y-58898000D02*
X184060000Y-58898000D01*
X184060000Y-53098000D02*
X184060000Y-51298000D01*
X184060000Y-55598000D02*
X184060000Y-54598000D01*
X116334000Y-68219000D02*
X116334000Y-71169000D01*
X117094000Y-65959000D02*
X109474000Y-65959000D01*
X109484000Y-65969000D02*
X109484000Y-66719000D01*
X109484000Y-66719000D02*
X111284000Y-66719000D01*
X112784000Y-65969000D02*
X112784000Y-66719000D01*
X110234000Y-71169000D02*
X113284000Y-71169000D01*
X110434000Y-65669000D02*
X109184000Y-65669000D01*
X117084000Y-66719000D02*
X117084000Y-65969000D01*
X113784000Y-66719000D02*
X113784000Y-65969000D01*
X116334000Y-71169000D02*
X113284000Y-71169000D01*
X112784000Y-66719000D02*
X113784000Y-66719000D01*
X117094000Y-71929000D02*
X117094000Y-65959000D01*
X111284000Y-66719000D02*
X111284000Y-65969000D01*
X115284000Y-65969000D02*
X115284000Y-66719000D01*
X117084000Y-68219000D02*
X116334000Y-68219000D01*
X117084000Y-65969000D02*
X115284000Y-65969000D01*
X109484000Y-68219000D02*
X110234000Y-68219000D01*
X113784000Y-65969000D02*
X112784000Y-65969000D01*
X110234000Y-68219000D02*
X110234000Y-71169000D01*
X111284000Y-65969000D02*
X109484000Y-65969000D01*
X109184000Y-65669000D02*
X109184000Y-66919000D01*
X109474000Y-65959000D02*
X109474000Y-71929000D01*
X115284000Y-66719000D02*
X117084000Y-66719000D01*
X109474000Y-71929000D02*
X117094000Y-71929000D01*
X161342000Y-138975000D02*
X161342000Y-138225000D01*
X161342000Y-138225000D02*
X152842000Y-138225000D01*
X152842000Y-138975000D02*
X161342000Y-138975000D01*
X151342000Y-138225000D02*
X149542000Y-138225000D01*
X164642000Y-138975000D02*
X164642000Y-138225000D01*
X149542000Y-136725000D02*
X150292000Y-136725000D01*
X149532000Y-133015000D02*
X149532000Y-138985000D01*
X164942000Y-139275000D02*
X164942000Y-138025000D01*
X152842000Y-138225000D02*
X152842000Y-138975000D01*
X164652000Y-133015000D02*
X149532000Y-133015000D01*
X162842000Y-138225000D02*
X162842000Y-138975000D01*
X163692000Y-139275000D02*
X164942000Y-139275000D01*
X150292000Y-136725000D02*
X150292000Y-133775000D01*
X164652000Y-138985000D02*
X164652000Y-133015000D01*
X151342000Y-138975000D02*
X151342000Y-138225000D01*
X163892000Y-136725000D02*
X163892000Y-133775000D01*
X149542000Y-138225000D02*
X149542000Y-138975000D01*
X163892000Y-133775000D02*
X157092000Y-133775000D01*
X164642000Y-138225000D02*
X162842000Y-138225000D01*
X150292000Y-133775000D02*
X157092000Y-133775000D01*
X149542000Y-138975000D02*
X151342000Y-138975000D01*
X149532000Y-138985000D02*
X164652000Y-138985000D01*
X164642000Y-136725000D02*
X163892000Y-136725000D01*
X162842000Y-138975000D02*
X164642000Y-138975000D01*
X169470000Y-134372000D02*
X173510000Y-134372000D01*
X169470000Y-131532000D02*
X169470000Y-134372000D01*
X168780000Y-132952000D02*
X169470000Y-132952000D01*
X173510000Y-134372000D02*
X173510000Y-131532000D01*
X174200000Y-132952000D02*
X173510000Y-132952000D01*
X173510000Y-131532000D02*
X169470000Y-131532000D01*
X162620000Y-51355000D02*
X162620000Y-45385000D01*
X156810000Y-46145000D02*
X156810000Y-45395000D01*
X155010000Y-45395000D02*
X155010000Y-46145000D01*
X155000000Y-51355000D02*
X162620000Y-51355000D01*
X156810000Y-45395000D02*
X155010000Y-45395000D01*
X159310000Y-45395000D02*
X158310000Y-45395000D01*
X155760000Y-50595000D02*
X158810000Y-50595000D01*
X162610000Y-45395000D02*
X160810000Y-45395000D01*
X155960000Y-45095000D02*
X154710000Y-45095000D01*
X160810000Y-45395000D02*
X160810000Y-46145000D01*
X161860000Y-47645000D02*
X161860000Y-50595000D01*
X154710000Y-45095000D02*
X154710000Y-46345000D01*
X155010000Y-46145000D02*
X156810000Y-46145000D01*
X155000000Y-45385000D02*
X155000000Y-51355000D01*
X155760000Y-47645000D02*
X155760000Y-50595000D01*
X162620000Y-45385000D02*
X155000000Y-45385000D01*
X160810000Y-46145000D02*
X162610000Y-46145000D01*
X162610000Y-46145000D02*
X162610000Y-45395000D01*
X162610000Y-47645000D02*
X161860000Y-47645000D01*
X155010000Y-47645000D02*
X155760000Y-47645000D01*
X161860000Y-50595000D02*
X158810000Y-50595000D01*
X159310000Y-46145000D02*
X159310000Y-45395000D01*
X158310000Y-46145000D02*
X159310000Y-46145000D01*
X158310000Y-45395000D02*
X158310000Y-46145000D01*
X115154000Y-73866000D02*
X111314000Y-73866000D01*
X111314000Y-75706000D02*
X115154000Y-75706000D01*
X116104000Y-74786000D02*
X115154000Y-74786000D01*
X110364000Y-74786000D02*
X111314000Y-74786000D01*
X115154000Y-75706000D02*
X115154000Y-73866000D01*
X111314000Y-73866000D02*
X111314000Y-75706000D01*
X95558000Y-41726000D02*
X95558000Y-42476000D01*
X93308000Y-45026000D02*
X93308000Y-48526000D01*
X99268000Y-51836000D02*
X99268000Y-41716000D01*
X93008000Y-50876000D02*
X93008000Y-52126000D01*
X93308000Y-50026000D02*
X93308000Y-51826000D01*
X93298000Y-51836000D02*
X99268000Y-51836000D01*
X95558000Y-51076000D02*
X98508000Y-51076000D01*
X95558000Y-42476000D02*
X98508000Y-42476000D01*
X93308000Y-43526000D02*
X94058000Y-43526000D01*
X94058000Y-48526000D02*
X94058000Y-45026000D01*
X94058000Y-45026000D02*
X93308000Y-45026000D01*
X99268000Y-41716000D02*
X93298000Y-41716000D01*
X94058000Y-51826000D02*
X94058000Y-50026000D01*
X93308000Y-51826000D02*
X94058000Y-51826000D01*
X94058000Y-41726000D02*
X93308000Y-41726000D01*
X93008000Y-52126000D02*
X94258000Y-52126000D01*
X98508000Y-51076000D02*
X98508000Y-46776000D01*
X93308000Y-41726000D02*
X93308000Y-43526000D01*
X98508000Y-42476000D02*
X98508000Y-46776000D01*
X94058000Y-43526000D02*
X94058000Y-41726000D01*
X93308000Y-48526000D02*
X94058000Y-48526000D01*
X95558000Y-51826000D02*
X95558000Y-51076000D01*
X94058000Y-50026000D02*
X93308000Y-50026000D01*
X93298000Y-41716000D02*
X93298000Y-51836000D01*
X189929000Y-109668000D02*
X189929000Y-94548000D01*
X184719000Y-106358000D02*
X184719000Y-97858000D01*
X184719000Y-96358000D02*
X184719000Y-94558000D01*
X184719000Y-94558000D02*
X183969000Y-94558000D01*
X184719000Y-107858000D02*
X183969000Y-107858000D01*
X183959000Y-94548000D02*
X183959000Y-109668000D01*
X183969000Y-96358000D02*
X184719000Y-96358000D01*
X183959000Y-109668000D02*
X189929000Y-109668000D01*
X186219000Y-109658000D02*
X186219000Y-108908000D01*
X183969000Y-109658000D02*
X184719000Y-109658000D01*
X184719000Y-97858000D02*
X183969000Y-97858000D01*
X183669000Y-109958000D02*
X184919000Y-109958000D01*
X186219000Y-95308000D02*
X189169000Y-95308000D01*
X186219000Y-94558000D02*
X186219000Y-95308000D01*
X183969000Y-106358000D02*
X184719000Y-106358000D01*
X183669000Y-108708000D02*
X183669000Y-109958000D01*
X183969000Y-107858000D02*
X183969000Y-109658000D01*
X189169000Y-108908000D02*
X189169000Y-102108000D01*
X189169000Y-95308000D02*
X189169000Y-102108000D01*
X183969000Y-94558000D02*
X183969000Y-96358000D01*
X189929000Y-94548000D02*
X183959000Y-94548000D01*
X186219000Y-108908000D02*
X189169000Y-108908000D01*
X183969000Y-97858000D02*
X183969000Y-106358000D01*
X184719000Y-109658000D02*
X184719000Y-107858000D01*
X166729000Y-123166000D02*
X166729000Y-121516000D01*
X148829000Y-123166000D02*
X166729000Y-123166000D01*
X166729000Y-119516000D02*
X166729000Y-117866000D01*
X166729000Y-117866000D02*
X148829000Y-117866000D01*
X148829000Y-117866000D02*
X148829000Y-123166000D01*
X166729000Y-119516000D02*
G75*
G03*
X166729000Y-121516000I0J-1000000D01*
G01*
X115804000Y-54406000D02*
X115804000Y-57066000D01*
X118404000Y-57066000D02*
X115804000Y-57066000D01*
X118404000Y-54406000D02*
X115804000Y-54406000D01*
X118404000Y-54406000D02*
X118404000Y-57066000D01*
X121004000Y-54406000D02*
X121004000Y-55736000D01*
X119674000Y-54406000D02*
X121004000Y-54406000D01*
X118404000Y-51732000D02*
X115804000Y-51732000D01*
X119674000Y-49072000D02*
X121004000Y-49072000D01*
X118404000Y-49072000D02*
X118404000Y-51732000D01*
X115804000Y-49072000D02*
X115804000Y-51732000D01*
X118404000Y-49072000D02*
X115804000Y-49072000D01*
X121004000Y-49072000D02*
X121004000Y-50402000D01*
X149636000Y-47645000D02*
X148886000Y-47645000D01*
X149636000Y-46145000D02*
X149636000Y-45395000D01*
X142036000Y-45395000D02*
X142036000Y-46145000D01*
X149646000Y-51355000D02*
X149646000Y-45385000D01*
X145336000Y-46145000D02*
X146336000Y-46145000D01*
X142986000Y-45095000D02*
X141736000Y-45095000D01*
X147836000Y-45395000D02*
X147836000Y-46145000D01*
X141736000Y-45095000D02*
X141736000Y-46345000D01*
X143836000Y-46145000D02*
X143836000Y-45395000D01*
X147836000Y-46145000D02*
X149636000Y-46145000D01*
X149636000Y-45395000D02*
X147836000Y-45395000D01*
X149646000Y-45385000D02*
X142026000Y-45385000D01*
X142036000Y-47645000D02*
X142786000Y-47645000D01*
X146336000Y-46145000D02*
X146336000Y-45395000D01*
X142786000Y-47645000D02*
X142786000Y-50595000D01*
X142026000Y-45385000D02*
X142026000Y-51355000D01*
X145336000Y-45395000D02*
X145336000Y-46145000D01*
X142786000Y-50595000D02*
X145836000Y-50595000D01*
X142026000Y-51355000D02*
X149646000Y-51355000D01*
X146336000Y-45395000D02*
X145336000Y-45395000D01*
X143836000Y-45395000D02*
X142036000Y-45395000D01*
X148886000Y-47645000D02*
X148886000Y-50595000D01*
X148886000Y-50595000D02*
X145836000Y-50595000D01*
X142036000Y-46145000D02*
X143836000Y-46145000D01*
X145002000Y-131087000D02*
X145002000Y-128247000D01*
X145692000Y-129667000D02*
X145002000Y-129667000D01*
X140272000Y-129667000D02*
X140962000Y-129667000D01*
X140962000Y-131087000D02*
X145002000Y-131087000D01*
X140962000Y-128247000D02*
X140962000Y-131087000D01*
X145002000Y-128247000D02*
X140962000Y-128247000D01*
X175030000Y-47752000D02*
X175680000Y-47752000D01*
X176280000Y-46632000D02*
X176280000Y-48872000D01*
X179920000Y-46632000D02*
X175680000Y-46632000D01*
X180570000Y-47752000D02*
X179920000Y-47752000D01*
X175680000Y-46632000D02*
X175680000Y-48872000D01*
X176520000Y-46632000D02*
X176520000Y-48872000D01*
X176400000Y-46632000D02*
X176400000Y-48872000D01*
X179920000Y-48872000D02*
X179920000Y-46632000D01*
X175680000Y-48872000D02*
X179920000Y-48872000D01*
X140962000Y-135151000D02*
X145002000Y-135151000D01*
X145002000Y-132311000D02*
X140962000Y-132311000D01*
X140962000Y-132311000D02*
X140962000Y-135151000D01*
X140272000Y-133731000D02*
X140962000Y-133731000D01*
X145692000Y-133731000D02*
X145002000Y-133731000D01*
X145002000Y-135151000D02*
X145002000Y-132311000D01*
X142345000Y-123166000D02*
X142345000Y-121516000D01*
X124445000Y-117866000D02*
X124445000Y-123166000D01*
X142345000Y-119516000D02*
X142345000Y-117866000D01*
X124445000Y-123166000D02*
X142345000Y-123166000D01*
X142345000Y-117866000D02*
X124445000Y-117866000D01*
X142345000Y-119516000D02*
G75*
G03*
X142345000Y-121516000I0J-1000000D01*
G01*
X145002000Y-139215000D02*
X145002000Y-136375000D01*
X140962000Y-136375000D02*
X140962000Y-139215000D01*
X140272000Y-137795000D02*
X140962000Y-137795000D01*
X145692000Y-137795000D02*
X145002000Y-137795000D01*
X145002000Y-136375000D02*
X140962000Y-136375000D01*
X140962000Y-139215000D02*
X145002000Y-139215000D01*
X169470000Y-130308000D02*
X173510000Y-130308000D01*
X174200000Y-128888000D02*
X173510000Y-128888000D01*
X173510000Y-130308000D02*
X173510000Y-127468000D01*
X173510000Y-127468000D02*
X169470000Y-127468000D01*
X169470000Y-127468000D02*
X169470000Y-130308000D01*
X168780000Y-128888000D02*
X169470000Y-128888000D01*
X123551000Y-55752000D02*
X124801000Y-55752000D01*
X124601000Y-53652000D02*
X123851000Y-53652000D01*
X129051000Y-46102000D02*
X129051000Y-50402000D01*
X124601000Y-55452000D02*
X124601000Y-53652000D01*
X126101000Y-54702000D02*
X129051000Y-54702000D01*
X123851000Y-48652000D02*
X123851000Y-52152000D01*
X126101000Y-46102000D02*
X129051000Y-46102000D01*
X123551000Y-54502000D02*
X123551000Y-55752000D01*
X129811000Y-55462000D02*
X129811000Y-45342000D01*
X124601000Y-52152000D02*
X124601000Y-48652000D01*
X123841000Y-55462000D02*
X129811000Y-55462000D01*
X126101000Y-55452000D02*
X126101000Y-54702000D01*
X129051000Y-54702000D02*
X129051000Y-50402000D01*
X124601000Y-47152000D02*
X124601000Y-45352000D01*
X129811000Y-45342000D02*
X123841000Y-45342000D01*
X123851000Y-52152000D02*
X124601000Y-52152000D01*
X126101000Y-45352000D02*
X126101000Y-46102000D01*
X123851000Y-47152000D02*
X124601000Y-47152000D01*
X124601000Y-45352000D02*
X123851000Y-45352000D01*
X123841000Y-45342000D02*
X123841000Y-55462000D01*
X123851000Y-45352000D02*
X123851000Y-47152000D01*
X123851000Y-55452000D02*
X124601000Y-55452000D01*
X124601000Y-48652000D02*
X123851000Y-48652000D01*
X123851000Y-53652000D02*
X123851000Y-55452000D01*
X204380000Y-43700000D02*
X204380000Y-41900000D01*
X204680000Y-41600000D02*
X203430000Y-41600000D01*
X204380000Y-45200000D02*
X203630000Y-45200000D01*
X199180000Y-42650000D02*
X199180000Y-46950000D01*
X199180000Y-51250000D02*
X199180000Y-46950000D01*
X204680000Y-42850000D02*
X204680000Y-41600000D01*
X204380000Y-41900000D02*
X203630000Y-41900000D01*
X204380000Y-50200000D02*
X203630000Y-50200000D01*
X203630000Y-52000000D02*
X204380000Y-52000000D01*
X203630000Y-43700000D02*
X204380000Y-43700000D01*
X198420000Y-52010000D02*
X204390000Y-52010000D01*
X203630000Y-48700000D02*
X204380000Y-48700000D01*
X204380000Y-52000000D02*
X204380000Y-50200000D01*
X202130000Y-42650000D02*
X199180000Y-42650000D01*
X204380000Y-48700000D02*
X204380000Y-45200000D01*
X202130000Y-51250000D02*
X199180000Y-51250000D01*
X204390000Y-52010000D02*
X204390000Y-41890000D01*
X203630000Y-50200000D02*
X203630000Y-52000000D01*
X202130000Y-41900000D02*
X202130000Y-42650000D01*
X198420000Y-41890000D02*
X198420000Y-52010000D01*
X204390000Y-41890000D02*
X198420000Y-41890000D01*
X202130000Y-52000000D02*
X202130000Y-51250000D01*
X203630000Y-41900000D02*
X203630000Y-43700000D01*
X203630000Y-45200000D02*
X203630000Y-48700000D01*
X114474000Y-94468000D02*
X108504000Y-94468000D01*
X114464000Y-107778000D02*
X113714000Y-107778000D01*
X109264000Y-95228000D02*
X109264000Y-102028000D01*
X113714000Y-107778000D02*
X113714000Y-109578000D01*
X112214000Y-109578000D02*
X112214000Y-108828000D01*
X108504000Y-109588000D02*
X114474000Y-109588000D01*
X114764000Y-94178000D02*
X113514000Y-94178000D01*
X113714000Y-106278000D02*
X114464000Y-106278000D01*
X112214000Y-94478000D02*
X112214000Y-95228000D01*
X113714000Y-96278000D02*
X114464000Y-96278000D01*
X114474000Y-109588000D02*
X114474000Y-94468000D01*
X114464000Y-109578000D02*
X114464000Y-107778000D01*
X112214000Y-95228000D02*
X109264000Y-95228000D01*
X108504000Y-94468000D02*
X108504000Y-109588000D01*
X114464000Y-106278000D02*
X114464000Y-97778000D01*
X114764000Y-95428000D02*
X114764000Y-94178000D01*
X113714000Y-94478000D02*
X113714000Y-96278000D01*
X113714000Y-97778000D02*
X113714000Y-106278000D01*
X112214000Y-108828000D02*
X109264000Y-108828000D01*
X113714000Y-109578000D02*
X114464000Y-109578000D01*
X114464000Y-97778000D02*
X113714000Y-97778000D01*
X114464000Y-96278000D02*
X114464000Y-94478000D01*
X109264000Y-108828000D02*
X109264000Y-102028000D01*
X114464000Y-94478000D02*
X113714000Y-94478000D01*
%LPC*%
D13*
X186690000Y-82804000D03*
X111506000Y-135382000D03*
D14*
X120650000Y-108458000D03*
X123190000Y-108458000D03*
X125730000Y-108458000D03*
X128270000Y-108458000D03*
X130810000Y-108458000D03*
X133350000Y-108458000D03*
X133350000Y-98298000D03*
X130810000Y-98298000D03*
X128270000Y-98298000D03*
X125730000Y-98298000D03*
X123190000Y-98298000D03*
X120650000Y-98298000D03*
D15*
X133858000Y-92566000D03*
X136398000Y-92566000D03*
X138938000Y-92566000D03*
X141478000Y-92566000D03*
X144018000Y-92566000D03*
X146558000Y-92566000D03*
X149098000Y-92566000D03*
X151638000Y-92566000D03*
X154178000Y-92566000D03*
X156718000Y-92566000D03*
X159258000Y-92566000D03*
X161798000Y-92566000D03*
X164338000Y-92566000D03*
X166878000Y-92566000D03*
X166878000Y-77326000D03*
X164338000Y-77326000D03*
X161798000Y-77326000D03*
X159258000Y-77326000D03*
X156718000Y-77326000D03*
X154178000Y-77326000D03*
X151638000Y-77326000D03*
X149098000Y-77326000D03*
X146558000Y-77326000D03*
X144018000Y-77326000D03*
X141478000Y-77326000D03*
X138938000Y-77326000D03*
X136398000Y-77326000D03*
X133858000Y-77326000D03*
D14*
X170432000Y-63246000D03*
D16*
X170432000Y-65786000D03*
D14*
X170432000Y-68326000D03*
X170432000Y-70866000D03*
X170434000Y-51308000D03*
D16*
X170434000Y-53848000D03*
D14*
X170434000Y-56388000D03*
X170434000Y-58928000D03*
X161544000Y-61722000D03*
X159004000Y-61722000D03*
X156464000Y-61722000D03*
X153924000Y-61722000D03*
X151384000Y-61722000D03*
X148844000Y-61722000D03*
X148844000Y-71882000D03*
X151384000Y-71882000D03*
X153924000Y-71882000D03*
X156464000Y-71882000D03*
X159004000Y-71882000D03*
X161544000Y-71882000D03*
D17*
X133310000Y-136288000D03*
D18*
X130810000Y-136288000D03*
X128310000Y-136288000D03*
X125810000Y-136288000D03*
X123310000Y-136288000D03*
D19*
X247142000Y-140208000D03*
D15*
X175240000Y-137016000D03*
D20*
X167740000Y-137016000D03*
D21*
X208448000Y-62738000D03*
D14*
X137708000Y-61578000D03*
X135168000Y-61578000D03*
X132628000Y-61578000D03*
X130088000Y-61578000D03*
X127548000Y-61578000D03*
X125008000Y-61578000D03*
X125008000Y-71738000D03*
X127548000Y-71738000D03*
X130088000Y-71738000D03*
X132628000Y-71738000D03*
X135168000Y-71738000D03*
X137708000Y-71738000D03*
D22*
X134700000Y-52942000D03*
D23*
X134700000Y-50442000D03*
X134700000Y-47942000D03*
D24*
X181610000Y-53848000D03*
D25*
X181610000Y-56348000D03*
D21*
X88392000Y-118750000D03*
D26*
X197344000Y-124580000D03*
D19*
X50800000Y-43688000D03*
D26*
X100344000Y-68580000D03*
D27*
X112034000Y-68419000D03*
D28*
X114534000Y-68419000D03*
D14*
X140970000Y-108458000D03*
X143510000Y-108458000D03*
X146050000Y-108458000D03*
X148590000Y-108458000D03*
X151130000Y-108458000D03*
X153670000Y-108458000D03*
X153670000Y-98298000D03*
X151130000Y-98298000D03*
X148590000Y-98298000D03*
X146050000Y-98298000D03*
X143510000Y-98298000D03*
X140970000Y-98298000D03*
D17*
X162092000Y-136525000D03*
D18*
X159592000Y-136525000D03*
X157092000Y-136525000D03*
X154592000Y-136525000D03*
X152092000Y-136525000D03*
D15*
X175240000Y-132952000D03*
D20*
X167740000Y-132952000D03*
D26*
X197344000Y-68580000D03*
D27*
X157560000Y-47845000D03*
D28*
X160060000Y-47845000D03*
D29*
X117044000Y-74786000D03*
D30*
X109424000Y-74786000D03*
D22*
X95758000Y-49276000D03*
D23*
X95758000Y-46776000D03*
X95758000Y-44276000D03*
D22*
X186419000Y-107108000D03*
D23*
X186419000Y-104608000D03*
X186419000Y-102108000D03*
X186419000Y-99608000D03*
X186419000Y-97108000D03*
D31*
X165399000Y-116706000D03*
D20*
X162859000Y-116706000D03*
X160319000Y-116706000D03*
X157779000Y-116706000D03*
X155239000Y-116706000D03*
X152699000Y-116706000D03*
X150159000Y-116706000D03*
X150159000Y-124326000D03*
X152699000Y-124326000D03*
X155239000Y-124326000D03*
X157779000Y-124326000D03*
X160319000Y-124326000D03*
X162859000Y-124326000D03*
X165399000Y-124326000D03*
D13*
X119674000Y-55736000D03*
D32*
X117134000Y-55736000D03*
D19*
X50038000Y-140208000D03*
D13*
X119674000Y-50402000D03*
D32*
X117134000Y-50402000D03*
D14*
X160020000Y-108458000D03*
X162560000Y-108458000D03*
X165100000Y-108458000D03*
X167640000Y-108458000D03*
X170180000Y-108458000D03*
X172720000Y-108458000D03*
X172720000Y-98298000D03*
X170180000Y-98298000D03*
X167640000Y-98298000D03*
X165100000Y-98298000D03*
X162560000Y-98298000D03*
X160020000Y-98298000D03*
D26*
X100344000Y-124580000D03*
D27*
X144586000Y-47845000D03*
D28*
X147086000Y-47845000D03*
D15*
X139232000Y-129667000D03*
D20*
X146732000Y-129667000D03*
D31*
X173990000Y-47752000D03*
D20*
X181610000Y-47752000D03*
D15*
X139232000Y-133731000D03*
D20*
X146732000Y-133731000D03*
D31*
X141015000Y-116706000D03*
D20*
X138475000Y-116706000D03*
X135935000Y-116706000D03*
X133395000Y-116706000D03*
X130855000Y-116706000D03*
X128315000Y-116706000D03*
X125775000Y-116706000D03*
X125775000Y-124326000D03*
X128315000Y-124326000D03*
X130855000Y-124326000D03*
X133395000Y-124326000D03*
X135935000Y-124326000D03*
X138475000Y-124326000D03*
X141015000Y-124326000D03*
D15*
X139232000Y-137795000D03*
D20*
X146732000Y-137795000D03*
D21*
X246888000Y-119000000D03*
X49952000Y-62488000D03*
D15*
X167740000Y-128888000D03*
D20*
X175240000Y-128888000D03*
D22*
X126301000Y-52902000D03*
D23*
X126301000Y-50402000D03*
X126301000Y-47902000D03*
D19*
X247904000Y-43688000D03*
D23*
X201930000Y-49450000D03*
X201930000Y-46950000D03*
D33*
X201930000Y-44450000D03*
X112014000Y-97028000D03*
D23*
X112014000Y-99528000D03*
X112014000Y-102028000D03*
X112014000Y-104528000D03*
X112014000Y-107028000D03*
M02*
