M48
; DRILL file {KiCad 6.0.11-2627ca5db0~126~ubuntu20.04.1} date Sun 05 Mar 2023 11:35:45 AM EST
; FORMAT={-:-/ absolute / metric / decimal}
; #@! TF.CreationDate,2023-03-05T11:35:45-05:00
; #@! TF.GenerationSoftware,Kicad,Pcbnew,6.0.11-2627ca5db0~126~ubuntu20.04.1
; #@! TF.FileFunction,Plated,1,2,PTH
FMAT,2
METRIC
; #@! TA.AperFunction,Plated,PTH,ComponentDrill
T1C0.700
; #@! TA.AperFunction,Plated,PTH,ComponentDrill
T2C0.762
; #@! TA.AperFunction,Plated,PTH,ComponentDrill
T3C0.800
; #@! TA.AperFunction,Plated,PTH,ComponentDrill
T4C0.950
; #@! TA.AperFunction,Plated,PTH,ComponentDrill
T5C1.000
; #@! TA.AperFunction,Plated,PTH,ComponentDrill
T6C1.100
%
G90
G05
T1
X109.424Y-74.786
X117.044Y-74.786
T2
X120.65Y-98.298
X120.65Y-108.458
X123.19Y-98.298
X123.19Y-108.458
X125.008Y-61.578
X125.008Y-71.738
X125.73Y-98.298
X125.73Y-108.458
X127.548Y-61.578
X127.548Y-71.738
X128.27Y-98.298
X128.27Y-108.458
X130.088Y-61.578
X130.088Y-71.738
X130.81Y-98.298
X130.81Y-108.458
X132.628Y-61.578
X132.628Y-71.738
X133.35Y-98.298
X133.35Y-108.458
X135.168Y-61.578
X135.168Y-71.738
X137.708Y-61.578
X137.708Y-71.738
X140.97Y-98.298
X140.97Y-108.458
X143.51Y-98.298
X143.51Y-108.458
X146.05Y-98.298
X146.05Y-108.458
X148.59Y-98.298
X148.59Y-108.458
X148.844Y-61.722
X148.844Y-71.882
X151.13Y-98.298
X151.13Y-108.458
X151.384Y-61.722
X151.384Y-71.882
X153.67Y-98.298
X153.67Y-108.458
X153.924Y-61.722
X153.924Y-71.882
X156.464Y-61.722
X156.464Y-71.882
X159.004Y-61.722
X159.004Y-71.882
X160.02Y-98.298
X160.02Y-108.458
X161.544Y-61.722
X161.544Y-71.882
X162.56Y-98.298
X162.56Y-108.458
X165.1Y-98.298
X165.1Y-108.458
X167.64Y-98.298
X167.64Y-108.458
X170.18Y-98.298
X170.18Y-108.458
X170.432Y-63.246
X170.432Y-65.786
X170.432Y-68.326
X170.432Y-70.866
X170.434Y-51.308
X170.434Y-53.848
X170.434Y-56.388
X170.434Y-58.928
X172.72Y-98.298
X172.72Y-108.458
T3
X125.775Y-116.706
X125.775Y-124.326
X128.315Y-116.706
X128.315Y-124.326
X130.855Y-116.706
X130.855Y-124.326
X133.395Y-116.706
X133.395Y-124.326
X135.935Y-116.706
X135.935Y-124.326
X138.475Y-116.706
X138.475Y-124.326
X139.232Y-129.667
X139.232Y-133.731
X139.232Y-137.795
X141.015Y-116.706
X141.015Y-124.326
X146.732Y-129.667
X146.732Y-133.731
X146.732Y-137.795
X150.159Y-116.706
X150.159Y-124.326
X152.699Y-116.706
X152.699Y-124.326
X155.239Y-116.706
X155.239Y-124.326
X157.779Y-116.706
X157.779Y-124.326
X160.319Y-116.706
X160.319Y-124.326
X162.859Y-116.706
X162.859Y-124.326
X165.399Y-116.706
X165.399Y-124.326
X167.74Y-128.888
X167.74Y-132.952
X167.74Y-137.016
X173.99Y-47.752
X175.24Y-128.888
X175.24Y-132.952
X175.24Y-137.016
X181.61Y-47.752
T4
X95.758Y-44.276
X95.758Y-46.776
X95.758Y-49.276
X112.014Y-97.028
X112.014Y-99.528
X112.014Y-102.028
X112.014Y-104.528
X112.014Y-107.028
X123.31Y-136.288
X125.81Y-136.288
X126.301Y-47.902
X126.301Y-50.402
X126.301Y-52.902
X128.31Y-136.288
X130.81Y-136.288
X133.31Y-136.288
X134.7Y-47.942
X134.7Y-50.442
X134.7Y-52.942
X152.092Y-136.525
X154.592Y-136.525
X157.092Y-136.525
X159.592Y-136.525
X162.092Y-136.525
X186.419Y-97.108
X186.419Y-99.608
X186.419Y-102.108
X186.419Y-104.608
X186.419Y-107.108
X201.93Y-44.45
X201.93Y-46.95
X201.93Y-49.45
T5
X111.506Y-135.382
X112.034Y-68.419
X114.534Y-68.419
X117.134Y-50.402
X117.134Y-55.736
X119.674Y-50.402
X119.674Y-55.736
X144.586Y-47.845
X147.086Y-47.845
X157.56Y-47.845
X160.06Y-47.845
X181.61Y-53.848
X181.61Y-56.348
X186.69Y-82.804
T6
X133.858Y-77.326
X133.858Y-92.566
X136.398Y-77.326
X136.398Y-92.566
X138.938Y-77.326
X138.938Y-92.566
X141.478Y-77.326
X141.478Y-92.566
X144.018Y-77.326
X144.018Y-92.566
X146.558Y-77.326
X146.558Y-92.566
X149.098Y-77.326
X149.098Y-92.566
X151.638Y-77.326
X151.638Y-92.566
X154.178Y-77.326
X154.178Y-92.566
X156.718Y-77.326
X156.718Y-92.566
X159.258Y-77.326
X159.258Y-92.566
X161.798Y-77.326
X161.798Y-92.566
X164.338Y-77.326
X164.338Y-92.566
X166.878Y-77.326
X166.878Y-92.566
T0
M30
