%TF.GenerationSoftware,KiCad,Pcbnew,6.0.11-2627ca5db0~126~ubuntu20.04.1*%
%TF.CreationDate,2023-03-05T11:35:36-05:00*%
%TF.ProjectId,ScooterBLDCMotorController,53636f6f-7465-4724-924c-44434d6f746f,rev?*%
%TF.SameCoordinates,Original*%
%TF.FileFunction,Legend,Bot*%
%TF.FilePolarity,Positive*%
%FSLAX46Y46*%
G04 Gerber Fmt 4.6, Leading zero omitted, Abs format (unit mm)*
G04 Created by KiCad (PCBNEW 6.0.11-2627ca5db0~126~ubuntu20.04.1) date 2023-03-05 11:35:36*
%MOMM*%
%LPD*%
G01*
G04 APERTURE LIST*
G04 Aperture macros list*
%AMRoundRect*
0 Rectangle with rounded corners*
0 $1 Rounding radius*
0 $2 $3 $4 $5 $6 $7 $8 $9 X,Y pos of 4 corners*
0 Add a 4 corners polygon primitive as box body*
4,1,4,$2,$3,$4,$5,$6,$7,$8,$9,$2,$3,0*
0 Add four circle primitives for the rounded corners*
1,1,$1+$1,$2,$3*
1,1,$1+$1,$4,$5*
1,1,$1+$1,$6,$7*
1,1,$1+$1,$8,$9*
0 Add four rect primitives between the rounded corners*
20,1,$1+$1,$2,$3,$4,$5,0*
20,1,$1+$1,$4,$5,$6,$7,0*
20,1,$1+$1,$6,$7,$8,$9,0*
20,1,$1+$1,$8,$9,$2,$3,0*%
G04 Aperture macros list end*
%ADD10R,1.700000X1.700000*%
%ADD11C,1.524000*%
%ADD12C,1.600000*%
%ADD13R,1.524000X1.524000*%
%ADD14RoundRect,0.250000X0.600000X0.725000X-0.600000X0.725000X-0.600000X-0.725000X0.600000X-0.725000X0*%
%ADD15O,1.700000X1.950000*%
%ADD16C,8.500000*%
%ADD17O,1.600000X1.600000*%
%ADD18C,7.200000*%
%ADD19RoundRect,0.250000X0.725000X-0.600000X0.725000X0.600000X-0.725000X0.600000X-0.725000X-0.600000X0*%
%ADD20O,1.950000X1.700000*%
%ADD21RoundRect,0.250000X-0.750000X0.600000X-0.750000X-0.600000X0.750000X-0.600000X0.750000X0.600000X0*%
%ADD22O,2.000000X1.700000*%
%ADD23C,9.200000*%
%ADD24RoundRect,0.250000X-0.600000X-0.750000X0.600000X-0.750000X0.600000X0.750000X-0.600000X0.750000X0*%
%ADD25O,1.700000X2.000000*%
%ADD26C,1.400000*%
%ADD27O,1.400000X1.400000*%
%ADD28R,1.600000X1.600000*%
%ADD29O,1.700000X1.700000*%
%ADD30RoundRect,0.250000X-0.725000X0.600000X-0.725000X-0.600000X0.725000X-0.600000X0.725000X0.600000X0*%
G04 APERTURE END LIST*
%LPC*%
D10*
X186690000Y-82804000D03*
X111506000Y-135382000D03*
D11*
X120650000Y-108458000D03*
X123190000Y-108458000D03*
X125730000Y-108458000D03*
X128270000Y-108458000D03*
X130810000Y-108458000D03*
X133350000Y-108458000D03*
X133350000Y-98298000D03*
X130810000Y-98298000D03*
X128270000Y-98298000D03*
X125730000Y-98298000D03*
X123190000Y-98298000D03*
X120650000Y-98298000D03*
D12*
X133858000Y-92566000D03*
X136398000Y-92566000D03*
X138938000Y-92566000D03*
X141478000Y-92566000D03*
X144018000Y-92566000D03*
X146558000Y-92566000D03*
X149098000Y-92566000D03*
X151638000Y-92566000D03*
X154178000Y-92566000D03*
X156718000Y-92566000D03*
X159258000Y-92566000D03*
X161798000Y-92566000D03*
X164338000Y-92566000D03*
X166878000Y-92566000D03*
X166878000Y-77326000D03*
X164338000Y-77326000D03*
X161798000Y-77326000D03*
X159258000Y-77326000D03*
X156718000Y-77326000D03*
X154178000Y-77326000D03*
X151638000Y-77326000D03*
X149098000Y-77326000D03*
X146558000Y-77326000D03*
X144018000Y-77326000D03*
X141478000Y-77326000D03*
X138938000Y-77326000D03*
X136398000Y-77326000D03*
X133858000Y-77326000D03*
D11*
X170432000Y-63246000D03*
D13*
X170432000Y-65786000D03*
D11*
X170432000Y-68326000D03*
X170432000Y-70866000D03*
X170434000Y-51308000D03*
D13*
X170434000Y-53848000D03*
D11*
X170434000Y-56388000D03*
X170434000Y-58928000D03*
X161544000Y-61722000D03*
X159004000Y-61722000D03*
X156464000Y-61722000D03*
X153924000Y-61722000D03*
X151384000Y-61722000D03*
X148844000Y-61722000D03*
X148844000Y-71882000D03*
X151384000Y-71882000D03*
X153924000Y-71882000D03*
X156464000Y-71882000D03*
X159004000Y-71882000D03*
X161544000Y-71882000D03*
D14*
X133310000Y-136288000D03*
D15*
X130810000Y-136288000D03*
X128310000Y-136288000D03*
X125810000Y-136288000D03*
X123310000Y-136288000D03*
D16*
X247142000Y-140208000D03*
D12*
X175240000Y-137016000D03*
D17*
X167740000Y-137016000D03*
D18*
X208448000Y-62738000D03*
D11*
X137708000Y-61578000D03*
X135168000Y-61578000D03*
X132628000Y-61578000D03*
X130088000Y-61578000D03*
X127548000Y-61578000D03*
X125008000Y-61578000D03*
X125008000Y-71738000D03*
X127548000Y-71738000D03*
X130088000Y-71738000D03*
X132628000Y-71738000D03*
X135168000Y-71738000D03*
X137708000Y-71738000D03*
D19*
X134700000Y-52942000D03*
D20*
X134700000Y-50442000D03*
X134700000Y-47942000D03*
D21*
X181610000Y-53848000D03*
D22*
X181610000Y-56348000D03*
D18*
X88392000Y-118750000D03*
D23*
X197344000Y-124580000D03*
D16*
X50800000Y-43688000D03*
D23*
X100344000Y-68580000D03*
D24*
X112034000Y-68419000D03*
D25*
X114534000Y-68419000D03*
D11*
X140970000Y-108458000D03*
X143510000Y-108458000D03*
X146050000Y-108458000D03*
X148590000Y-108458000D03*
X151130000Y-108458000D03*
X153670000Y-108458000D03*
X153670000Y-98298000D03*
X151130000Y-98298000D03*
X148590000Y-98298000D03*
X146050000Y-98298000D03*
X143510000Y-98298000D03*
X140970000Y-98298000D03*
D14*
X162092000Y-136525000D03*
D15*
X159592000Y-136525000D03*
X157092000Y-136525000D03*
X154592000Y-136525000D03*
X152092000Y-136525000D03*
D12*
X175240000Y-132952000D03*
D17*
X167740000Y-132952000D03*
D23*
X197344000Y-68580000D03*
D24*
X157560000Y-47845000D03*
D25*
X160060000Y-47845000D03*
D26*
X117044000Y-74786000D03*
D27*
X109424000Y-74786000D03*
D19*
X95758000Y-49276000D03*
D20*
X95758000Y-46776000D03*
X95758000Y-44276000D03*
D19*
X186419000Y-107108000D03*
D20*
X186419000Y-104608000D03*
X186419000Y-102108000D03*
X186419000Y-99608000D03*
X186419000Y-97108000D03*
D28*
X165399000Y-116706000D03*
D17*
X162859000Y-116706000D03*
X160319000Y-116706000D03*
X157779000Y-116706000D03*
X155239000Y-116706000D03*
X152699000Y-116706000D03*
X150159000Y-116706000D03*
X150159000Y-124326000D03*
X152699000Y-124326000D03*
X155239000Y-124326000D03*
X157779000Y-124326000D03*
X160319000Y-124326000D03*
X162859000Y-124326000D03*
X165399000Y-124326000D03*
D10*
X119674000Y-55736000D03*
D29*
X117134000Y-55736000D03*
D16*
X50038000Y-140208000D03*
D10*
X119674000Y-50402000D03*
D29*
X117134000Y-50402000D03*
D11*
X160020000Y-108458000D03*
X162560000Y-108458000D03*
X165100000Y-108458000D03*
X167640000Y-108458000D03*
X170180000Y-108458000D03*
X172720000Y-108458000D03*
X172720000Y-98298000D03*
X170180000Y-98298000D03*
X167640000Y-98298000D03*
X165100000Y-98298000D03*
X162560000Y-98298000D03*
X160020000Y-98298000D03*
D23*
X100344000Y-124580000D03*
D24*
X144586000Y-47845000D03*
D25*
X147086000Y-47845000D03*
D12*
X139232000Y-129667000D03*
D17*
X146732000Y-129667000D03*
D28*
X173990000Y-47752000D03*
D17*
X181610000Y-47752000D03*
D12*
X139232000Y-133731000D03*
D17*
X146732000Y-133731000D03*
D28*
X141015000Y-116706000D03*
D17*
X138475000Y-116706000D03*
X135935000Y-116706000D03*
X133395000Y-116706000D03*
X130855000Y-116706000D03*
X128315000Y-116706000D03*
X125775000Y-116706000D03*
X125775000Y-124326000D03*
X128315000Y-124326000D03*
X130855000Y-124326000D03*
X133395000Y-124326000D03*
X135935000Y-124326000D03*
X138475000Y-124326000D03*
X141015000Y-124326000D03*
D12*
X139232000Y-137795000D03*
D17*
X146732000Y-137795000D03*
D18*
X246888000Y-119000000D03*
X49952000Y-62488000D03*
D12*
X167740000Y-128888000D03*
D17*
X175240000Y-128888000D03*
D19*
X126301000Y-52902000D03*
D20*
X126301000Y-50402000D03*
X126301000Y-47902000D03*
D16*
X247904000Y-43688000D03*
D20*
X201930000Y-49450000D03*
X201930000Y-46950000D03*
D30*
X201930000Y-44450000D03*
X112014000Y-97028000D03*
D20*
X112014000Y-99528000D03*
X112014000Y-102028000D03*
X112014000Y-104528000D03*
X112014000Y-107028000D03*
M02*
